<svg xmlns="http://www.w3.org/2000/svg" xmlns:xlink="http://www.w3.org/1999/xlink" width="198" height="178" viewBox="0 0 198 178">
  <defs>
    <clipPath id="clip-path">
      <rect id="Rectangle_408698" data-name="Rectangle 408698" width="198" height="178" transform="translate(915.051 1690.484)" fill="#fff" stroke="#707070" stroke-width="1"/>
    </clipPath>
    <clipPath id="clip-path-2">
      <rect id="Rectangle_408697" data-name="Rectangle 408697" width="224.749" height="237.505" fill="none"/>
    </clipPath>
    <clipPath id="clip-path-3">
      <path id="Path_1031479" data-name="Path 1031479" d="M129.712,40.511c-17.334,20.434-25.181,62.88-10.42,105.287,14.214,40.834,95.861,30.958,114.329,16.963,24.313-18.425,38.785-76.04,8.973-116.985-14.684-20.168-35.162-27.212-54.86-27.21-25.263,0-49.24,11.593-58.022,21.945" transform="translate(-111.527 -18.566)" fill="none"/>
    </clipPath>
    <clipPath id="clip-path-4">
      <rect id="Rectangle_408692" data-name="Rectangle 408692" width="169.601" height="134.211" fill="none"/>
    </clipPath>
    <clipPath id="clip-path-6">
      <rect id="Rectangle_408693" data-name="Rectangle 408693" width="6.974" height="8.863" fill="none"/>
    </clipPath>
    <clipPath id="clip-path-7">
      <path id="Path_1031648" data-name="Path 1031648" d="M192.177,303.34,157.7,297.407l8.62,36.987A62.883,62.883,0,0,0,192.8,340.58a50.035,50.035,0,0,0,24.611-6.185l8.62-37.113Z" transform="translate(-157.696 -297.281)" fill="none"/>
    </clipPath>
    <clipPath id="clip-path-8">
      <rect id="Rectangle_408695" data-name="Rectangle 408695" width="71.465" height="50.43" fill="none"/>
    </clipPath>
  </defs>
  <g id="Mask_Group_1098767" data-name="Mask Group 1098767" transform="translate(-915.051 -1690.484)" clip-path="url(#clip-path)">
    <g id="Group_1199483" data-name="Group 1199483" transform="translate(907.2 1696.37)">
      <g id="Group_1199482" data-name="Group 1199482" transform="translate(0 0)" clip-path="url(#clip-path-2)">
        <g id="Group_1199469" data-name="Group 1199469" transform="translate(38.972 6.555)">
          <g id="Group_1199468" data-name="Group 1199468" clip-path="url(#clip-path-3)">
            <rect id="Rectangle_408691" data-name="Rectangle 408691" width="158.749" height="99.594" transform="translate(-6.255 -6.555)" fill="#a9c7fd"/>
            <path id="Path_1031454" data-name="Path 1031454" d="M95.894,120.591l5.642-.863,4.723-1-3.167,12.361Z" transform="translate(-101.356 -83.361)" fill="#f4efdb"/>
            <path id="Path_1031455" data-name="Path 1031455" d="M128.283,112.549l5.155-1.388,4.543-1.549L136.75,121.76Z" transform="translate(-122.428 -77.464)" fill="#779242"/>
            <path id="Path_1031456" data-name="Path 1031456" d="M159.825,99.953,168.9,95.48l.25,12.411Z" transform="translate(-142.948 -68.323)" fill="#f4efdb"/>
            <path id="Path_1031457" data-name="Path 1031457" d="M190.572,81.9,198.863,76l2.323,12.19Z" transform="translate(-162.951 -55.719)" fill="#779242"/>
            <path id="Path_1031458" data-name="Path 1031458" d="M217.012,59.879l3.5-3.219,3.81-4.076,4.212,12.035Z" transform="translate(-180.152 -40.572)" fill="#f4efdb"/>
            <path id="Path_1031459" data-name="Path 1031459" d="M240.965,33.626l3.2-4.143,2.884-4.275,6.438,10.572Z" transform="translate(-195.734 -22.863)" fill="#779242"/>
            <path id="Path_1031460" data-name="Path 1031460" d="M.389,47.82s20.4,9.145,50.809-.544A72.1,72.1,0,0,0,93.176,11.325" transform="translate(-39.225 -13.882)" fill="none" stroke="#60591a" stroke-miterlimit="10" stroke-width="1.918"/>
            <path id="Path_1031461" data-name="Path 1031461" d="M527.879,124.938l-5.61-1.056-4.687-1.163,2.75,12.463Z" transform="translate(-375.691 -85.944)" fill="#f4efdb"/>
            <path id="Path_1031462" data-name="Path 1031462" d="M497.024,115.841l-5.106-1.565-4.488-1.7.822,12.184Z" transform="translate(-356.075 -79.38)" fill="#779242"/>
            <path id="Path_1031463" data-name="Path 1031463" d="M465.84,102.22l-8.924-4.782-.666,12.4Z" transform="translate(-335.79 -69.589)" fill="#f4efdb"/>
            <path id="Path_1031464" data-name="Path 1031464" d="M433.345,83.186,425.257,77l-2.732,12.1Z" transform="translate(-313.851 -56.367)" fill="#779242"/>
            <path id="Path_1031465" data-name="Path 1031465" d="M405.988,60.337,402.6,57l-3.67-4.2-4.615,11.884Z" transform="translate(-295.496 -40.709)" fill="#f4efdb"/>
            <path id="Path_1031466" data-name="Path 1031466" d="M381.169,33.362l-3.061-4.25-2.739-4.372-6.79,10.345Z" transform="translate(-278.755 -22.56)" fill="#779242"/>
            <path id="Path_1031467" data-name="Path 1031467" d="M472.456,50.27s-20.693,8.439-50.761-2.289A72.168,72.168,0,0,1,380.95,10.609" transform="translate(-286.803 -13.419)" fill="none" stroke="#60591a" stroke-miterlimit="10" stroke-width="1.918"/>
            <path id="Path_1031468" data-name="Path 1031468" d="M245.344,184.188a11.773,11.773,0,0,0-9.687,3.927c-1.536-3.407-6.035-7.72-9.723-6.975a10.405,10.405,0,0,0-7.024,4.809,7.57,7.57,0,0,0-4.678-3.907,4.619,4.619,0,0,0-5.246,2.4,10.845,10.845,0,0,0-8-7.549,9.563,9.563,0,0,0-9.506,3.943c-1.876-3.189-3.9-7.191-7.138-8.95a12.961,12.961,0,0,0-10.183-.743,16.848,16.848,0,0,0-8.228,6.3c-2.737-4.188-8.759-6.265-13.676-5.547a13.527,13.527,0,0,0-10.718,9.29c-1.619-1.546-3.471-3.191-5.7-3.188-3.162,0-5.271,3.218-6.619,6.107-1.93-1.338-2.5-2.262-4.836-2.313-3.938-.087-7.057,3.177-9.636,6.185-2.582-2.321-5.582-4.791-9.026-4.511-3.49.284-6.142,3.361-7.61,6.572A10.913,10.913,0,0,0,89.94,187L84.332,304.652l169.6-1.795Z" transform="translate(-93.835 -116.816)" fill="#779242"/>
            <path id="Path_1031469" data-name="Path 1031469" d="M78.745,226.258a11.774,11.774,0,0,1,9.687,3.927c1.536-3.407,4.793-6.8,8.94-6.691a9.3,9.3,0,0,1,7.808,4.526,7.569,7.569,0,0,1,4.678-3.908,4.619,4.619,0,0,1,5.246,2.4,10.845,10.845,0,0,1,8-7.549,9.563,9.563,0,0,1,9.506,3.943c1.876-3.189,3.9-7.191,7.138-8.95a12.961,12.961,0,0,1,10.183-.743,16.847,16.847,0,0,1,8.228,6.3c2.737-4.188,8.759-6.265,13.676-5.547a13.527,13.527,0,0,1,10.718,9.29c1.619-1.546,3.471-3.19,5.7-3.188,3.161,0,5.271,3.218,6.619,6.107,1.93-1.338,2.5-2.262,4.836-2.313,3.938-.086,7.057,3.177,9.636,6.185,2.582-2.321,5.582-4.791,9.026-4.511,3.49.284,6.142,3.361,7.61,6.572a10.913,10.913,0,0,1,8.174-3.036l5.608,117.648-169.6-1.795Z" transform="translate(-84.613 -144.032)" fill="#859955"/>
            <g id="Group_1199467" data-name="Group 1199467" transform="translate(-14.457 96.739)" opacity="0.3">
              <g id="Group_1199466" data-name="Group 1199466">
                <g id="Group_1199465" data-name="Group 1199465" clip-path="url(#clip-path-4)">
                  <path id="Path_1031470" data-name="Path 1031470" d="M78.745,306.292a11.774,11.774,0,0,1,9.687,3.927c1.536-3.407,4.793-6.8,8.94-6.691a9.3,9.3,0,0,1,7.808,4.525,7.57,7.57,0,0,1,4.678-3.907,4.62,4.62,0,0,1,5.246,2.4,10.845,10.845,0,0,1,8-7.549,9.563,9.563,0,0,1,9.506,3.943c1.876-3.189,3.9-7.191,7.138-8.95a12.961,12.961,0,0,1,10.183-.743,16.847,16.847,0,0,1,8.228,6.3c2.737-4.188,8.759-6.265,13.676-5.547a13.527,13.527,0,0,1,10.718,9.29c1.619-1.546,3.471-3.191,5.7-3.188,3.161,0,5.271,3.218,6.619,6.107,1.93-1.338,2.5-2.262,4.836-2.313,3.938-.086,7.057,3.177,9.636,6.185,2.582-2.321,5.582-4.791,9.026-4.511,3.49.284,6.142,3.361,7.61,6.572a10.913,10.913,0,0,1,8.174-3.036l5.608,117.648-169.6-1.795Z" transform="translate(-70.156 -292.545)" fill="#cbd2b3"/>
                </g>
              </g>
            </g>
            <path id="Path_1031471" data-name="Path 1031471" d="M207.9,214.532a3.445,3.445,0,0,1,2.472-.336,3.7,3.7,0,0,1,2.183,1.4l-.482.05a6.616,6.616,0,0,1,1.015-1.794,2.9,2.9,0,0,1,3.91-.734,9.1,9.1,0,0,1,1.622,1.219l-.469.207a2.954,2.954,0,0,1,.451-1.359,3.334,3.334,0,0,1,.971-.993,3.235,3.235,0,0,1,1.258-.507,2.567,2.567,0,0,1,1.315.115,2.966,2.966,0,0,0-2.356.69,2.808,2.808,0,0,0-1.069,2.08.281.281,0,0,1-.28.281.276.276,0,0,1-.175-.063l-.013-.011A9.267,9.267,0,0,0,216.7,213.7a2.34,2.34,0,0,0-3.125.581,6.241,6.241,0,0,0-.99,1.588l-.008.017a.269.269,0,0,1-.473.033,3.466,3.466,0,0,0-1.822-1.381,3.671,3.671,0,0,0-2.379-.006" transform="translate(-174.225 -143.477)" fill="#1c1439"/>
            <path id="Path_1031472" data-name="Path 1031472" d="M123.14,229.608a3.4,3.4,0,0,1,2.425-.437,3.707,3.707,0,0,1,2.224,1.289l-.545.093a4.7,4.7,0,0,1,1.149-1.887,3.994,3.994,0,0,1,1.923-1.088,3.464,3.464,0,0,1,2.17.216,2.915,2.915,0,0,1,1.519,1.457,3.253,3.253,0,0,0-1.651-1.09,3.417,3.417,0,0,0-1.891-.007,3.8,3.8,0,0,0-1.6.987,4.518,4.518,0,0,0-1.022,1.618l0,.014a.309.309,0,0,1-.54.079,3.564,3.564,0,0,0-1.829-1.256,3.849,3.849,0,0,0-2.326.011" transform="translate(-119.082 -153.724)" fill="#1c1439"/>
            <path id="Path_1031473" data-name="Path 1031473" d="M124.052,290.881a4.02,4.02,0,0,1,3.03.055,4.376,4.376,0,0,1,2.314,2.144l-.616.068a2.3,2.3,0,0,1,.486-.991,2.817,2.817,0,0,1,.838-.668,3.02,3.02,0,0,1,2.042-.286,3.731,3.731,0,0,1,1.744.978,4.965,4.965,0,0,1,1.095,1.6,6.679,6.679,0,0,0-1.323-1.326,3.637,3.637,0,0,0-1.62-.7,2.623,2.623,0,0,0-1.632.309,1.971,1.971,0,0,0-.992,1.226v.006a.327.327,0,0,1-.394.244.331.331,0,0,1-.221-.182,4.334,4.334,0,0,0-1.923-1.981,4.6,4.6,0,0,0-2.828-.5" transform="translate(-119.675 -194.555)" fill="#1c1439"/>
            <path id="Path_1031474" data-name="Path 1031474" d="M134.829,348.2a2.437,2.437,0,0,1,1.188-.719,3.208,3.208,0,0,1,1.43-.058,3.329,3.329,0,0,1,1.344.571,2.924,2.924,0,0,1,.96,1.146l-.614.148a2.425,2.425,0,0,1,.238-1.02,2.668,2.668,0,0,1,.6-.815,2.5,2.5,0,0,1,.844-.508,1.936,1.936,0,0,1,.943-.1,2.541,2.541,0,0,0-.823.351,2.663,2.663,0,0,0-.629.579,2.517,2.517,0,0,0-.4.722,2.1,2.1,0,0,0-.126.783.322.322,0,0,1-.609.157l0-.009a3.008,3.008,0,0,0-1.853-1.441,3.327,3.327,0,0,0-2.488.211" transform="translate(-126.686 -230.924)" fill="#1c1439"/>
            <path id="Path_1031475" data-name="Path 1031475" d="M489.965,220.15a4.478,4.478,0,0,1,1.955.445,5.478,5.478,0,0,1,1.654,1.212,5.666,5.666,0,0,1,1.12,1.758,5.042,5.042,0,0,1,.368,2.087l-.62-.149a1.747,1.747,0,0,1,.638-.758,2.182,2.182,0,0,1,.889-.336,2.448,2.448,0,0,1,1.781.434,3.189,3.189,0,0,1,1.053,1.441,5.13,5.13,0,0,1,.333,1.692l-.422-.183a1.515,1.515,0,0,1,1.314-.25,1.975,1.975,0,0,1,1.073.691,2.706,2.706,0,0,1,.488,1.129,4.762,4.762,0,0,1,.066,1.193,5.681,5.681,0,0,0-.242-1.145,2.559,2.559,0,0,0-.557-.964,1.627,1.627,0,0,0-.914-.476,1.082,1.082,0,0,0-.9.225.249.249,0,0,1-.354-.014.252.252,0,0,1-.065-.144l0-.025a5.217,5.217,0,0,0-.372-1.5,2.749,2.749,0,0,0-.879-1.143,1.8,1.8,0,0,0-1.3-.294,1.273,1.273,0,0,0-1.029.69.323.323,0,0,1-.427.168.33.33,0,0,1-.194-.317,4.788,4.788,0,0,0-.267-1.845,5.6,5.6,0,0,0-.925-1.655,5.676,5.676,0,0,0-1.434-1.275,5.125,5.125,0,0,0-1.823-.7" transform="translate(-357.725 -148.973)" fill="#1c1439"/>
            <path id="Path_1031476" data-name="Path 1031476" d="M426.717,401.461a5.01,5.01,0,0,1,3.047-3.052,5.121,5.121,0,0,1,4.386.528l-.471.245a6.4,6.4,0,0,1,.382-2.092,4,4,0,0,1,1.253-1.784,2.96,2.96,0,0,1,2.14-.562,2.57,2.57,0,0,1,1.076.373,2.071,2.071,0,0,1,.775.881l-.576.12a4.9,4.9,0,0,1,.641-2.158,5.613,5.613,0,0,1,1.445-1.673,5.371,5.371,0,0,1,1.943-.975,4.448,4.448,0,0,1,2.129-.068,4.8,4.8,0,0,0-2.06.29,5.689,5.689,0,0,0-1.753,1.069,5.53,5.53,0,0,0-1.24,1.609,4.607,4.607,0,0,0-.5,1.931.3.3,0,0,1-.572.127l0-.007a1.7,1.7,0,0,0-1.379-.866,2.313,2.313,0,0,0-1.657.447,3.357,3.357,0,0,0-1.053,1.483,6.389,6.389,0,0,0-.38,1.882v.01a.3.3,0,0,1-.47.236,4.834,4.834,0,0,0-3.932-.648,5.034,5.034,0,0,0-1.845.972,5.215,5.215,0,0,0-1.323,1.684" transform="translate(-316.578 -259.592)" fill="#1c1439"/>
            <path id="Path_1031477" data-name="Path 1031477" d="M189.467,421.249a2.972,2.972,0,0,1,1.619-.458,4.034,4.034,0,0,1,1.687.354,6.009,6.009,0,0,1,1.461.932,11.082,11.082,0,0,1,1.214,1.212l-.494.043a3.536,3.536,0,0,1,3.151-1.761,3.526,3.526,0,0,1,3,2l-.476-.062a4,4,0,0,1,1.191-.99,1.715,1.715,0,0,1,.808-.173,2,2,0,0,1,.778.2,2.715,2.715,0,0,1,1.121,1.029,7.048,7.048,0,0,1,.643,1.331,9.959,9.959,0,0,0-.809-1.205,2.618,2.618,0,0,0-1.1-.806,1.429,1.429,0,0,0-1.222.073,3.83,3.83,0,0,0-.978.931.285.285,0,0,1-.47-.051l-.006-.012a3.024,3.024,0,0,0-2.506-1.588,2.953,2.953,0,0,0-1.479.356,3.047,3.047,0,0,0-1.122,1.048l-.007.011a.3.3,0,0,1-.415.1.316.316,0,0,1-.071-.063,8.515,8.515,0,0,0-2.39-2.171,4.3,4.3,0,0,0-1.519-.492,3.179,3.179,0,0,0-1.608.222" transform="translate(-162.232 -278.77)" fill="#1c1439"/>
            <path id="Path_1031478" data-name="Path 1031478" d="M493.1,267.717a4.972,4.972,0,0,1,2.554,1.39,5.434,5.434,0,0,1,1.46,2.626l-.536-.16a2.447,2.447,0,0,1,1.859-.71,3.067,3.067,0,0,1,1.83.7,3.916,3.916,0,0,1,1.086,1.58,5.644,5.644,0,0,1,.351,1.831l-.341-.108a1.717,1.717,0,0,1,2.326-.178,1.627,1.627,0,0,0-2.029.428.186.186,0,0,1-.262.042.189.189,0,0,1-.075-.124l0-.026a5.965,5.965,0,0,0-.475-1.646,3.467,3.467,0,0,0-.984-1.3,2.464,2.464,0,0,0-1.447-.527,1.831,1.831,0,0,0-1.385.486l-.008.008a.311.311,0,0,1-.443,0,.319.319,0,0,1-.085-.164,5.513,5.513,0,0,0-1.162-2.458,5.885,5.885,0,0,0-2.231-1.69" transform="translate(-359.763 -179.745)" fill="#1c1439"/>
          </g>
        </g>
        <g id="Group_1199474" data-name="Group 1199474">
          <g id="Group_1199473" data-name="Group 1199473" clip-path="url(#clip-path-2)">
            <path id="Path_1031480" data-name="Path 1031480" d="M120.468,30.971c16.377-19.306,83.159-42.72,118.28,5.516,31.238,42.9,16.074,103.274-9.4,122.581-19.351,14.665-104.9,25.013-119.8-17.774C94.082,96.858,102.305,52.382,120.468,30.971Z" transform="translate(-65.975 -5.16)" fill="none" stroke="#60591a" stroke-miterlimit="10" stroke-width="2" stroke-dasharray="4.942 4.942"/>
            <path id="Path_1031481" data-name="Path 1031481" d="M274.54,98.841c-9.624-1.167-22.8-17.735-25.926-23.315a28.855,28.855,0,0,0-.622,7.458s-6.685-4.628-.654-16.427,38.978-15.708,45.779,3.222,2.852,20.764,15.812,32.433c5.72,5.15,13.573,6.958,18.687,12.722a15.9,15.9,0,0,1,3.956,10.845A15.618,15.618,0,0,1,327,136.366c-.108.106-.247.219-.392.178s-.135-.328.012-.295c5.088,1.131,8.5,7.378,8.951,12.622a14.884,14.884,0,0,1-6.557,13.485c.4,3.822-.681,8.584-3.477,11.19a12.361,12.361,0,0,1-10.577,3.063,13.571,13.571,0,0,1-8.011,7.779,14.121,14.121,0,0,1-11.417-.527" transform="translate(-159.269 -36.643)" fill="#1c1439"/>
            <path id="Path_1031482" data-name="Path 1031482" d="M262.793,90.521a29.268,29.268,0,0,0,7.552,6.849,28.642,28.642,0,0,0,29.108.714,26.7,26.7,0,0,1-4.608,2.243,28.421,28.421,0,0,1-4.953,1.334A27.2,27.2,0,0,1,270.2,97.6a28.647,28.647,0,0,1-4.04-3.189,27.055,27.055,0,0,1-3.37-3.889" transform="translate(-170.963 -58.559)" fill="#82928f"/>
            <path id="Path_1031483" data-name="Path 1031483" d="M378.388,141.181a48.547,48.547,0,0,0,6.056,15.5,33.542,33.542,0,0,0,5.192,6.482c.514.463,1,.96,1.547,1.384l.8.658c.27.216.552.417.827.626,1.12.813,2.287,1.561,3.455,2.308a38.2,38.2,0,0,1,6.7,4.975c.247.249.494.5.721.767l.347.4.318.422c.208.284.432.555.625.85l.552.9a16.467,16.467,0,0,1,1.609,3.9c.047.17.1.338.143.509l.106.518c.066.346.154.689.2,1.039l.126,1.05c.053.349.042.7.066,1.055.053.7,0,1.409-.012,2.113-.027.351-.068.7-.1,1.051l-.055.525-.09.52a21.227,21.227,0,0,1-1.074,4.074,22.09,22.09,0,0,1-1.854,3.777l-.05-.2a12.107,12.107,0,0,1,1.624,19.963l.021-.11a6.952,6.952,0,0,1,.223,6.235,6.784,6.784,0,0,1-4.886,3.75,6.747,6.747,0,0,0,4.809-3.787,6.826,6.826,0,0,0-.294-6.113L406,216.26l.057-.047a11.881,11.881,0,0,0-1.654-19.581l-.127-.071.076-.129a21.837,21.837,0,0,0,1.81-3.732,20.912,20.912,0,0,0,1.041-4.02l.086-.513.051-.518c.031-.345.071-.69.1-1.035.009-.693.058-1.387,0-2.078-.026-.345-.015-.694-.07-1.036l-.128-1.031c-.044-.343-.132-.679-.193-1.019l-.1-.509c-.038-.169-.092-.333-.138-.5a16.119,16.119,0,0,0-1.559-3.826l-.536-.884c-.188-.289-.407-.556-.609-.835l-.309-.415-.339-.39c-.222-.264-.462-.511-.7-.757a37.982,37.982,0,0,0-6.627-4.966c-1.166-.752-2.333-1.509-3.457-2.333-.277-.212-.56-.415-.831-.634l-.805-.667c-.55-.43-1.036-.933-1.553-1.4a33.745,33.745,0,0,1-5.194-6.546,40.7,40.7,0,0,1-2.013-3.675c-.288-.637-.584-1.27-.854-1.915-.255-.651-.541-1.289-.766-1.951a54.459,54.459,0,0,1-2.261-8.066" transform="translate(-246.165 -91.332)" fill="#82928f"/>
            <path id="Path_1031484" data-name="Path 1031484" d="M356.137,164.338a37.351,37.351,0,0,0,6.325,14.481,42.075,42.075,0,0,0,5.266,5.912c1.9,1.835,3.882,3.6,5.722,5.521a43.1,43.1,0,0,1,5,6.21,27.471,27.471,0,0,1,3.443,7.216,15.194,15.194,0,0,1,.346,7.97A17.8,17.8,0,0,1,380.8,215.4c-.6,1.194-1.286,2.337-1.975,3.472l-.017-.168a13.7,13.7,0,0,1-1.962,20.194,13.643,13.643,0,0,0,1.757-20l-.071-.077.054-.091a27.019,27.019,0,0,0,3.353-7.149,14.867,14.867,0,0,0-.365-7.8,28.011,28.011,0,0,0-3.4-7.124,42.745,42.745,0,0,0-4.948-6.177c-1.822-1.914-3.8-3.68-5.694-5.532-.948-.928-1.879-1.876-2.762-2.87a36.337,36.337,0,0,1-2.481-3.124,36.733,36.733,0,0,1-6.149-14.61" transform="translate(-231.689 -106.312)" fill="#82928f"/>
            <path id="Path_1031485" data-name="Path 1031485" d="M174.166,323.483s6.624,2.151,8.517,3.466,18.926,17.69,18.926,17.69l8.162-26.3,10.055,5.737s-12.894,34.662-16.087,34.662-21.884-25.817-21.884-25.817l-7.79-.155Z" transform="translate(-113.24 -205.94)" fill="#a04f23"/>
            <path id="Path_1031486" data-name="Path 1031486" d="M261.838,51.511a36.534,36.534,0,0,1,4.235-11.435,51.152,51.152,0,0,1,37.28,2.974,64.678,64.678,0,0,1,2.764,14.381" transform="translate(-170.342 -24.503)" fill="#dba600"/>
            <path id="Path_1031487" data-name="Path 1031487" d="M283.519,85.766a83.652,83.652,0,0,0-23.546-8.559,50.585,50.585,0,0,0-24.579,1.1,16.4,16.4,0,0,0-4.485,2.044c-3.628-3.353-6.719-8.055-7.2-12.977,22.639-7.892,49.042-6.349,69.822,5.629-1.742,4.991-5.452,10.1-10.007,12.767" transform="translate(-145.533 -40.425)" fill="#5a2d14"/>
            <path id="Path_1031488" data-name="Path 1031488" d="M283.473,87.507a83.652,83.652,0,0,0-23.546-8.559,50.585,50.585,0,0,0-24.579,1.1,13.722,13.722,0,0,0-4.035,2.012c-3.628-3.353-6.916-8.089-7.4-13.012,22.639-7.892,48.789-6.281,69.568,5.7-1.742,4.991-5.452,10.1-10.007,12.767" transform="translate(-145.668 -41.524)" fill="#dba600"/>
            <path id="Path_1031489" data-name="Path 1031489" d="M240.7,101.029s6.54-4.373,19.942-4.712c16.069-.406,35.942,10.41,35.942,10.41" transform="translate(-156.588 -62.301)" fill="none" stroke="#5a2d14" stroke-miterlimit="10" stroke-width="0.924"/>
            <path id="Path_1031490" data-name="Path 1031490" d="M237.314,97.124s6.466-4.6,20.544-5.211c16.88-.736,37.972,10.248,37.972,10.248" transform="translate(-154.388 -59.437)" fill="none" stroke="#5a2d14" stroke-miterlimit="10" stroke-width="0.971" stroke-dasharray="4.634 4.634"/>
            <path id="Path_1031491" data-name="Path 1031491" d="M326.748,94.772a11.6,11.6,0,0,1,7.636-5.985,19.127,19.127,0,0,1,9.86.367c-3.169,2.782-6.826,6.114-11.015,6.388-2.294.15-4.2-1.022-6.481-.77" transform="translate(-212.57 -57.121)" fill="#779242"/>
            <path id="Path_1031492" data-name="Path 1031492" d="M344.244,90.722a132.3,132.3,0,0,0-17.5,5.618,60.876,60.876,0,0,1,17.5-5.618" transform="translate(-212.57 -58.689)" fill="#cbd2b3"/>
            <path id="Path_1031493" data-name="Path 1031493" d="M360.852,97.6a.47.47,0,0,0,0-.938.47.47,0,0,0,0,.938" transform="translate(-234.465 -62.534)" fill="#60591a"/>
            <path id="Path_1031494" data-name="Path 1031494" d="M354.314,100.228a.47.47,0,0,0,0-.938.47.47,0,0,0,0,.938" transform="translate(-230.212 -64.232)" fill="#60591a"/>
            <path id="Path_1031495" data-name="Path 1031495" d="M343.878,103.976a.47.47,0,0,0,0-.938.47.47,0,0,0,0,.938" transform="translate(-223.422 -66.657)" fill="#60591a"/>
            <path id="Path_1031496" data-name="Path 1031496" d="M356.335,91.331a.47.47,0,0,0,0-.938.47.47,0,0,0,0,.938" transform="translate(-231.526 -58.476)" fill="#60591a"/>
            <path id="Path_1031497" data-name="Path 1031497" d="M345.922,94.705a.47.47,0,0,0,0-.938.47.47,0,0,0,0,.938" transform="translate(-224.752 -60.659)" fill="#60591a"/>
            <path id="Path_1031498" data-name="Path 1031498" d="M326.808,105.531a11.48,11.48,0,0,1,9.619.944,19.432,19.432,0,0,1,6.921,7.106c-4.194-.175-9.118-.289-12.349-2.995-1.77-1.482-2.357-3.654-4.19-5.055" transform="translate(-212.609 -67.84)" fill="#859955"/>
            <path id="Path_1031499" data-name="Path 1031499" d="M343.309,114.724q-.5-.282-1-.573l-1.008-.564q-1.006-.565-2.023-1.108c-1.357-.722-2.718-1.434-4.107-2.09-1.375-.684-2.776-1.314-4.18-1.938q-1.052-.469-2.116-.916l-2.125-.9c.736.225,1.462.479,2.191.729s1.442.54,2.16.821c1.432.57,2.837,1.206,4.231,1.866,1.381.687,2.751,1.4,4.084,2.176q1,.589,1.977,1.2c.645.424,1.291.845,1.919,1.294" transform="translate(-212.57 -68.983)" fill="#60591a"/>
            <path id="Path_1031500" data-name="Path 1031500" d="M357.31,124.058a.47.47,0,0,0,0-.938.47.47,0,0,0,0,.938" transform="translate(-232.161 -79.648)" fill="#60591a"/>
            <path id="Path_1031501" data-name="Path 1031501" d="M350.755,121.478a.47.47,0,0,0,0-.938.47.47,0,0,0,0,.938" transform="translate(-227.896 -77.979)" fill="#60591a"/>
            <path id="Path_1031502" data-name="Path 1031502" d="M340.594,117.04a.47.47,0,0,0,0-.938.47.47,0,0,0,0,.938" transform="translate(-221.286 -75.108)" fill="#60591a"/>
            <path id="Path_1031503" data-name="Path 1031503" d="M358.332,116.4a.47.47,0,0,0,0-.938.47.47,0,0,0,0,.938" transform="translate(-232.826 -74.691)" fill="#60591a"/>
            <path id="Path_1031504" data-name="Path 1031504" d="M348.444,111.7a.47.47,0,0,0,0-.938.47.47,0,0,0,0,.938" transform="translate(-226.393 -71.654)" fill="#60591a"/>
            <path id="Path_1031505" data-name="Path 1031505" d="M264.711,173.735a35.456,35.456,0,0,1,16.878-15.577,28.813,28.813,0,0,1-3.931-6.4c-2.36-6.231-7.734-18.269-7.734-18.269-9.624-1.167-10.117-10.479-10.595-14.224-6.31.577-12.181-3.5-15.314-9.062-.225,1.176-.4,2.293-.538,3.343-.123,1.36-.375,3.865-.375,3.865-.271,4.2-.018,6.809-.507,7.515-.769,1.11-4.98,8.33-4.87,9s4.944,2.221,4.944,2.221.22,11.325,5.274,13.767,12.416-1.221,12.416-1.221,2.088,8.549.659,12.323c-.669,1.768-4.828,6.255-9.164,11.334a18.747,18.747,0,0,0,12.858,1.389" transform="translate(-154.653 -71.292)" fill="#a04f23"/>
            <path id="Path_1031506" data-name="Path 1031506" d="M319.392,451.592s-3.756-10.96-6.745-20.411a72.223,72.223,0,0,1-48.712,2.615l-.719,17.8Z" transform="translate(-171.238 -278.936)" fill="#1c1439"/>
            <path id="Path_1031507" data-name="Path 1031507" d="M313.985,418.016c-.821-2.595-1.584-5.076-2.195-7.185a72.3,72.3,0,0,1-46.236,2.844l-.281,6.957a72.224,72.224,0,0,0,48.712-2.615" transform="translate(-172.577 -265.772)" fill="#dba600"/>
            <path id="Path_1031508" data-name="Path 1031508" d="M300.281,304.213c-.531-1.834-.949-3.388-1.19-4.49-1.528-6.986,5.363-20.377.214-37.069-1.527-4.952-7.212-11.195-11.3-16.633A35.451,35.451,0,0,0,271.127,261.6a18.748,18.748,0,0,1-12.858-1.389c-4.923,5.768-10.073,12.3-10.6,16.48-.991,7.864,6.934,16.586,6.934,16.586l-.557,13.783a72.3,72.3,0,0,0,46.236-2.844" transform="translate(-161.068 -159.154)" fill="#ede4d0"/>
            <path id="Path_1031509" data-name="Path 1031509" d="M325.831,150.738a8.547,8.547,0,0,1-2.034,4.6,6.362,6.362,0,0,1-2.586,1.921,3.281,3.281,0,0,1-2.9-.232,4.3,4.3,0,0,1-1.616-2.361,9.1,9.1,0,0,1,.976-7.055,5.956,5.956,0,0,1,3.592-3.005c2.95-.619,4.867,3.108,4.568,6.131" transform="translate(-205.812 -93.504)" fill="#a04f23"/>
            <g id="Group_1199472" data-name="Group 1199472" transform="translate(111.927 53.409)" opacity="0.5" style="mix-blend-mode: multiply;isolation: isolate">
              <g id="Group_1199471" data-name="Group 1199471">
                <g id="Group_1199470" data-name="Group 1199470" clip-path="url(#clip-path-6)">
                  <path id="Path_1031510" data-name="Path 1031510" d="M320.307,159.274a3.863,3.863,0,0,0,1.964-.9.561.561,0,0,0,.145-.916,6.409,6.409,0,0,0-1.631-1.471,12.989,12.989,0,0,1,1.244-2.859,3.95,3.95,0,0,1,2.323-1.815,2.255,2.255,0,0,1,2.508,1.121s1.539,2.649-1.261,5.878c-2.953,3.406-5.29.958-5.29.958" transform="translate(-320.307 -151.263)" fill="#a04f23"/>
                </g>
              </g>
            </g>
            <path id="Path_1031511" data-name="Path 1031511" d="M326.859,152a2.192,2.192,0,0,0-1.844-.947,2.779,2.779,0,0,0-1.836.814,5.743,5.743,0,0,0-1.223,1.732,21.822,21.822,0,0,0-.828,2.075l-.152-.433a6.619,6.619,0,0,1,1.1.924,7.077,7.077,0,0,1,.46.551,2.778,2.778,0,0,1,.218.323.7.7,0,0,1,.068.524,1.216,1.216,0,0,1-.537.631,3.8,3.8,0,0,1-.624.347,3.411,3.411,0,0,1-1.356.3,4.326,4.326,0,0,0,1.215-.561,4.552,4.552,0,0,0,.512-.407.8.8,0,0,0,.3-.419.2.2,0,0,0-.048-.136,2.606,2.606,0,0,0-.191-.225,6.27,6.27,0,0,0-.465-.457,6.041,6.041,0,0,0-1.037-.767l-.248-.144.1-.288a15.356,15.356,0,0,1,.837-2.176,7.184,7.184,0,0,1,.623-1.028,5.024,5.024,0,0,1,.845-.878,3.047,3.047,0,0,1,2.3-.739A2.182,2.182,0,0,1,326.859,152" transform="translate(-208.38 -97.418)" fill="#1c1439"/>
            <path id="Path_1031512" data-name="Path 1031512" d="M264.02,140.189a10.271,10.271,0,0,0-1.546-2.449,8.554,8.554,0,0,0-2.125-1.82,5.744,5.744,0,0,0-1.251-.538c-.43-.134-.855-.256-1.289-.37a14.907,14.907,0,0,0-2.786-.429l-.03-.117a4.781,4.781,0,0,1,4.547-.189,9.022,9.022,0,0,1,1.336.841,8.4,8.4,0,0,1,2.077,2.264,9.679,9.679,0,0,1,1.18,2.768Z" transform="translate(-165.889 -86.553)" fill="#1c1439"/>
            <path id="Path_1031513" data-name="Path 1031513" d="M263.1,156.584a8.812,8.812,0,0,1-1.285,1.06,7.031,7.031,0,0,1-1.516.77,3.774,3.774,0,0,1-1.7.353,2.665,2.665,0,0,1-1.623-.691l.029-.1c.592-.131,1.084-.191,1.58-.267s.991-.02,1.5-.112a8.72,8.72,0,0,0,1.5-.424,11.366,11.366,0,0,0,1.462-.674Z" transform="translate(-167.18 -101.241)" fill="#1c1439"/>
            <path id="Path_1031514" data-name="Path 1031514" d="M260.961,152.73a21.286,21.286,0,0,0,.434-2.208q.167-1.118.268-2.248-.013,1.134-.095,2.268a21.566,21.566,0,0,1-.267,2.267Z" transform="translate(-169.771 -95.92)" fill="#1c1439"/>
            <path id="Path_1031515" data-name="Path 1031515" d="M253.326,189.777a6.453,6.453,0,0,0,2.609-1.823,13.465,13.465,0,0,0,1.82-2.722,13.577,13.577,0,0,1-1.687,2.837,6.724,6.724,0,0,1-2.618,2.038Z" transform="translate(-164.804 -119.829)" fill="#1c1439"/>
            <path id="Path_1031516" data-name="Path 1031516" d="M302.019,208.641A14.508,14.508,0,0,0,308,202.786a22.009,22.009,0,0,1-5.115,8.762" transform="translate(-196.482 -131.185)" fill="#1c1439"/>
            <path id="Path_1031517" data-name="Path 1031517" d="M325.634,180.214a2.456,2.456,0,1,1-2.456-2.481,2.469,2.469,0,0,1,2.456,2.481" transform="translate(-208.65 -114.977)" fill="#dba600"/>
            <path id="Path_1031518" data-name="Path 1031518" d="M273.456,264.84c4.96,2.506,10.294,3.005,15.8,2.357,1.384-3.875,4.065-6.728,6.964-9.624a44.43,44.43,0,0,1,9.869-7.233" transform="translate(-177.9 -161.948)" fill="none" stroke="#dba600" stroke-miterlimit="10" stroke-width="4"/>
            <path id="Path_1031519" data-name="Path 1031519" d="M185.01,269.489a3.342,3.342,0,0,1-1.909,4.3,3.287,3.287,0,0,1-4.254-1.929,3.342,3.342,0,0,1,1.909-4.3,3.286,3.286,0,0,1,4.254,1.929" transform="translate(-116.21 -172.946)" fill="#cbd2b3"/>
            <path id="Path_1031520" data-name="Path 1031520" d="M184.7,269.383a3.446,3.446,0,0,1-.051,2.558,3.371,3.371,0,0,1-4.441,1.8,3.431,3.431,0,0,1-1.833-1.93,3.477,3.477,0,0,1,.1-2.674,3.421,3.421,0,0,1,1.941-1.77,3.34,3.34,0,0,1,2.563.135,3.4,3.4,0,0,1,1.722,1.877m0,0a3.253,3.253,0,0,0-1.742-1.832,3.2,3.2,0,0,0-4.21,1.715,3.269,3.269,0,0,0-.048,2.424,3.225,3.225,0,0,0,1.63,1.779,3.169,3.169,0,0,0,2.43.13,3.248,3.248,0,0,0,1.844-1.678,3.3,3.3,0,0,0,.1-2.539" transform="translate(-115.9 -172.841)" fill="#1c1439"/>
            <path id="Path_1031521" data-name="Path 1031521" d="M188.08,285.054a3.342,3.342,0,0,1-1.909,4.3,3.287,3.287,0,0,1-4.254-1.929,3.342,3.342,0,0,1,1.909-4.3,3.287,3.287,0,0,1,4.254,1.929" transform="translate(-118.207 -183.016)" fill="#cbd2b3"/>
            <path id="Path_1031522" data-name="Path 1031522" d="M187.769,284.948a3.447,3.447,0,0,1-.051,2.558,3.371,3.371,0,0,1-4.441,1.8,3.427,3.427,0,0,1-1.833-1.93,3.474,3.474,0,0,1,.1-2.674,3.42,3.42,0,0,1,1.941-1.77,3.341,3.341,0,0,1,2.563.135,3.4,3.4,0,0,1,1.722,1.877m0,0a3.252,3.252,0,0,0-1.742-1.832,3.2,3.2,0,0,0-4.21,1.715,3.269,3.269,0,0,0-.048,2.424,3.225,3.225,0,0,0,1.63,1.779,3.167,3.167,0,0,0,2.43.13,3.247,3.247,0,0,0,1.844-1.678,3.3,3.3,0,0,0,.1-2.539" transform="translate(-117.897 -182.91)" fill="#1c1439"/>
            <path id="Path_1031523" data-name="Path 1031523" d="M172.392,278.461a3.342,3.342,0,0,1-1.909,4.3,3.287,3.287,0,0,1-4.254-1.929,3.342,3.342,0,0,1,1.909-4.3,3.286,3.286,0,0,1,4.254,1.929" transform="translate(-108.002 -178.751)" fill="#cbd2b3"/>
            <path id="Path_1031524" data-name="Path 1031524" d="M172.081,278.355a3.446,3.446,0,0,1-.051,2.559,3.37,3.37,0,0,1-4.441,1.8,3.431,3.431,0,0,1-1.834-1.93,3.477,3.477,0,0,1,.1-2.674,3.421,3.421,0,0,1,1.941-1.77,3.34,3.34,0,0,1,2.563.135,3.4,3.4,0,0,1,1.722,1.877m0,0a3.252,3.252,0,0,0-1.742-1.832,3.2,3.2,0,0,0-4.21,1.715,3.269,3.269,0,0,0-.048,2.424,3.225,3.225,0,0,0,1.63,1.779,3.17,3.17,0,0,0,2.43.13,3.247,3.247,0,0,0,1.844-1.678,3.3,3.3,0,0,0,.1-2.539" transform="translate(-107.691 -178.645)" fill="#1c1439"/>
            <path id="Path_1031525" data-name="Path 1031525" d="M209.19,262.377a3.342,3.342,0,0,1-1.909,4.3,3.287,3.287,0,0,1-4.254-1.929,3.342,3.342,0,0,1,1.909-4.3,3.287,3.287,0,0,1,4.254,1.929" transform="translate(-131.941 -168.346)" fill="#cbd2b3"/>
            <path id="Path_1031526" data-name="Path 1031526" d="M208.879,262.271a3.446,3.446,0,0,1-.051,2.558,3.37,3.37,0,0,1-4.441,1.8,3.432,3.432,0,0,1-1.833-1.93,3.478,3.478,0,0,1,.1-2.674,3.421,3.421,0,0,1,1.941-1.77,3.343,3.343,0,0,1,2.563.135,3.4,3.4,0,0,1,1.722,1.877m0,0a3.253,3.253,0,0,0-1.742-1.832,3.2,3.2,0,0,0-4.21,1.715,3.268,3.268,0,0,0-.048,2.423,3.225,3.225,0,0,0,1.63,1.779,3.168,3.168,0,0,0,2.43.13,3.248,3.248,0,0,0,1.844-1.678,3.3,3.3,0,0,0,.1-2.539" transform="translate(-131.63 -168.24)" fill="#1c1439"/>
            <path id="Path_1031527" data-name="Path 1031527" d="M223.03,266.152a3.3,3.3,0,1,1-3.621-2.968,3.323,3.323,0,0,1,3.621,2.968" transform="translate(-140.817 -170.245)" fill="#cbd2b3"/>
            <path id="Path_1031528" data-name="Path 1031528" d="M222.706,266a3.438,3.438,0,0,1-.7,2.459,3.36,3.36,0,0,1-4.751.59,3.45,3.45,0,0,1-.505-4.9,3.4,3.4,0,0,1,2.327-1.206,3.353,3.353,0,0,1,2.443.8A3.425,3.425,0,0,1,222.706,266m0,0a3.278,3.278,0,0,0-1.217-2.223,3.186,3.186,0,0,0-4.5.564,3.264,3.264,0,0,0,.46,4.473,3.176,3.176,0,0,0,2.315.757,3.223,3.223,0,0,0,2.209-1.142,3.291,3.291,0,0,0,.738-2.429" transform="translate(-140.493 -170.096)" fill="#1c1439"/>
            <path id="Path_1031529" data-name="Path 1031529" d="M211.973,277.189a3.342,3.342,0,0,1-1.909,4.3,3.287,3.287,0,0,1-4.254-1.929,3.342,3.342,0,0,1,1.909-4.3,3.286,3.286,0,0,1,4.254,1.929" transform="translate(-133.752 -177.928)" fill="#cbd2b3"/>
            <path id="Path_1031530" data-name="Path 1031530" d="M211.662,277.083a3.446,3.446,0,0,1-.051,2.559,3.371,3.371,0,0,1-4.441,1.8,3.429,3.429,0,0,1-1.833-1.93,3.476,3.476,0,0,1,.1-2.674,3.421,3.421,0,0,1,1.941-1.77,3.339,3.339,0,0,1,2.563.135,3.4,3.4,0,0,1,1.722,1.877m0,0a3.253,3.253,0,0,0-1.742-1.832,3.2,3.2,0,0,0-4.21,1.715,3.271,3.271,0,0,0-.048,2.424,3.225,3.225,0,0,0,1.63,1.779,3.17,3.17,0,0,0,2.43.13,3.246,3.246,0,0,0,1.844-1.678,3.3,3.3,0,0,0,.1-2.538" transform="translate(-133.441 -177.822)" fill="#1c1439"/>
            <path id="Path_1031531" data-name="Path 1031531" d="M197.378,272.336a3.342,3.342,0,0,1-1.909,4.3,3.287,3.287,0,0,1-4.254-1.929,3.342,3.342,0,0,1,1.909-4.3,3.286,3.286,0,0,1,4.254,1.929" transform="translate(-124.257 -174.788)" fill="#cbd2b3"/>
            <path id="Path_1031532" data-name="Path 1031532" d="M197.067,272.23a3.446,3.446,0,0,1-.051,2.558,3.371,3.371,0,0,1-4.441,1.8,3.429,3.429,0,0,1-1.833-1.93,3.476,3.476,0,0,1,.1-2.674,3.421,3.421,0,0,1,1.942-1.77,3.339,3.339,0,0,1,2.563.135,3.4,3.4,0,0,1,1.722,1.877m0,0a3.252,3.252,0,0,0-1.742-1.832,3.2,3.2,0,0,0-4.21,1.715,3.269,3.269,0,0,0-.048,2.424,3.225,3.225,0,0,0,1.63,1.779,3.17,3.17,0,0,0,2.43.13,3.246,3.246,0,0,0,1.844-1.678,3.3,3.3,0,0,0,.1-2.538" transform="translate(-123.946 -174.682)" fill="#1c1439"/>
            <path id="Path_1031533" data-name="Path 1031533" d="M178.089,294.043a3.342,3.342,0,0,1-1.909,4.3,3.287,3.287,0,0,1-4.254-1.929,3.342,3.342,0,0,1,1.909-4.3,3.286,3.286,0,0,1,4.254,1.929" transform="translate(-111.708 -188.831)" fill="#cbd2b3"/>
            <path id="Path_1031534" data-name="Path 1031534" d="M177.778,293.937a3.446,3.446,0,0,1-.051,2.558,3.37,3.37,0,0,1-4.441,1.8,3.429,3.429,0,0,1-1.833-1.93,3.476,3.476,0,0,1,.1-2.674,3.422,3.422,0,0,1,1.942-1.77,3.34,3.34,0,0,1,2.563.135,3.4,3.4,0,0,1,1.721,1.877m0,0a3.252,3.252,0,0,0-1.742-1.832,3.2,3.2,0,0,0-4.21,1.715,3.271,3.271,0,0,0-.048,2.424,3.225,3.225,0,0,0,1.63,1.779,3.17,3.17,0,0,0,2.43.13,3.246,3.246,0,0,0,1.844-1.678,3.3,3.3,0,0,0,.1-2.538" transform="translate(-111.397 -188.725)" fill="#1c1439"/>
            <path id="Path_1031535" data-name="Path 1031535" d="M180.862,311.66a3.342,3.342,0,0,1-1.909,4.3,3.287,3.287,0,0,1-4.254-1.929,3.342,3.342,0,0,1,1.909-4.3,3.287,3.287,0,0,1,4.254,1.929" transform="translate(-113.512 -200.228)" fill="#cbd2b3"/>
            <path id="Path_1031536" data-name="Path 1031536" d="M180.551,311.555a3.446,3.446,0,0,1-.051,2.558,3.371,3.371,0,0,1-4.441,1.8,3.43,3.43,0,0,1-1.834-1.93,3.478,3.478,0,0,1,.1-2.674,3.421,3.421,0,0,1,1.941-1.77,3.343,3.343,0,0,1,2.563.135,3.4,3.4,0,0,1,1.722,1.877m0,0a3.253,3.253,0,0,0-1.742-1.832,3.2,3.2,0,0,0-4.21,1.715,3.271,3.271,0,0,0-.048,2.424,3.225,3.225,0,0,0,1.63,1.779,3.168,3.168,0,0,0,2.43.13,3.247,3.247,0,0,0,1.844-1.678,3.3,3.3,0,0,0,.1-2.539" transform="translate(-113.201 -200.123)" fill="#1c1439"/>
            <path id="Path_1031537" data-name="Path 1031537" d="M193.325,317.065a3.342,3.342,0,0,1-1.909,4.3,3.287,3.287,0,0,1-4.254-1.929,3.342,3.342,0,0,1,1.909-4.3,3.286,3.286,0,0,1,4.254,1.929" transform="translate(-121.62 -203.724)" fill="#cbd2b3"/>
            <path id="Path_1031538" data-name="Path 1031538" d="M193.014,316.959a3.446,3.446,0,0,1-.051,2.558,3.37,3.37,0,0,1-4.441,1.8,3.431,3.431,0,0,1-1.834-1.93,3.478,3.478,0,0,1,.1-2.674,3.421,3.421,0,0,1,1.941-1.77,3.341,3.341,0,0,1,2.563.135,3.4,3.4,0,0,1,1.722,1.877m0,0a3.253,3.253,0,0,0-1.742-1.832,3.2,3.2,0,0,0-4.21,1.715,3.269,3.269,0,0,0-.048,2.424,3.225,3.225,0,0,0,1.63,1.779,3.17,3.17,0,0,0,2.43.13,3.247,3.247,0,0,0,1.844-1.678,3.3,3.3,0,0,0,.1-2.539" transform="translate(-121.309 -203.618)" fill="#1c1439"/>
            <path id="Path_1031539" data-name="Path 1031539" d="M203.076,287.918a3.342,3.342,0,0,1-1.909,4.3,3.287,3.287,0,0,1-4.254-1.929,3.342,3.342,0,0,1,1.909-4.3,3.286,3.286,0,0,1,4.254,1.929" transform="translate(-127.963 -184.868)" fill="#cbd2b3"/>
            <path id="Path_1031540" data-name="Path 1031540" d="M202.765,287.812a3.446,3.446,0,0,1-.051,2.558,3.371,3.371,0,0,1-4.441,1.8,3.43,3.43,0,0,1-1.833-1.93,3.478,3.478,0,0,1,.1-2.674,3.421,3.421,0,0,1,1.941-1.77,3.339,3.339,0,0,1,2.563.134,3.4,3.4,0,0,1,1.722,1.877m0,0a3.253,3.253,0,0,0-1.742-1.832,3.2,3.2,0,0,0-4.21,1.715,3.269,3.269,0,0,0-.048,2.424,3.225,3.225,0,0,0,1.63,1.779,3.169,3.169,0,0,0,2.43.13,3.246,3.246,0,0,0,1.844-1.678,3.3,3.3,0,0,0,.1-2.538" transform="translate(-127.653 -184.763)" fill="#1c1439"/>
            <path id="Path_1031541" data-name="Path 1031541" d="M204.989,303.276a3.342,3.342,0,0,1-1.909,4.3,3.287,3.287,0,0,1-4.254-1.929,3.342,3.342,0,0,1,1.909-4.3,3.286,3.286,0,0,1,4.254,1.929" transform="translate(-129.208 -194.804)" fill="#cbd2b3"/>
            <path id="Path_1031542" data-name="Path 1031542" d="M204.678,303.17a3.446,3.446,0,0,1-.051,2.558,3.37,3.37,0,0,1-4.441,1.8,3.431,3.431,0,0,1-1.833-1.93,3.477,3.477,0,0,1,.1-2.674,3.421,3.421,0,0,1,1.941-1.77,3.34,3.34,0,0,1,2.563.135,3.4,3.4,0,0,1,1.722,1.877m0,0a3.253,3.253,0,0,0-1.742-1.832,3.2,3.2,0,0,0-4.21,1.715,3.269,3.269,0,0,0-.048,2.424,3.225,3.225,0,0,0,1.63,1.779,3.17,3.17,0,0,0,2.43.13,3.246,3.246,0,0,0,1.844-1.678,3.3,3.3,0,0,0,.1-2.538" transform="translate(-128.897 -194.698)" fill="#1c1439"/>
            <path id="Path_1031543" data-name="Path 1031543" d="M217.117,293.442a3.342,3.342,0,0,1-1.909,4.3,3.286,3.286,0,0,1-4.254-1.929,3.342,3.342,0,0,1,1.909-4.3,3.286,3.286,0,0,1,4.254,1.929" transform="translate(-137.098 -188.442)" fill="#cbd2b3"/>
            <path id="Path_1031544" data-name="Path 1031544" d="M216.806,293.336a3.446,3.446,0,0,1-.051,2.558,3.371,3.371,0,0,1-4.441,1.8,3.43,3.43,0,0,1-1.833-1.93,3.477,3.477,0,0,1,.1-2.674,3.421,3.421,0,0,1,1.942-1.77,3.341,3.341,0,0,1,2.563.135,3.4,3.4,0,0,1,1.721,1.877m0,0a3.252,3.252,0,0,0-1.742-1.832,3.2,3.2,0,0,0-4.21,1.715,3.268,3.268,0,0,0-.048,2.423,3.226,3.226,0,0,0,1.63,1.779,3.17,3.17,0,0,0,2.43.13,3.247,3.247,0,0,0,1.844-1.678,3.3,3.3,0,0,0,.1-2.539" transform="translate(-136.788 -188.336)" fill="#1c1439"/>
            <path id="Path_1031545" data-name="Path 1031545" d="M226.135,280.9a3.342,3.342,0,0,1-1.909,4.3,3.286,3.286,0,0,1-4.254-1.929,3.342,3.342,0,0,1,1.909-4.3,3.286,3.286,0,0,1,4.254,1.929" transform="translate(-142.965 -180.332)" fill="#cbd2b3"/>
            <path id="Path_1031546" data-name="Path 1031546" d="M225.824,280.8a3.446,3.446,0,0,1-.051,2.558,3.37,3.37,0,0,1-4.441,1.8,3.432,3.432,0,0,1-1.833-1.93,3.478,3.478,0,0,1,.1-2.674,3.421,3.421,0,0,1,1.941-1.77,3.341,3.341,0,0,1,2.563.134,3.4,3.4,0,0,1,1.722,1.877m0,0a3.253,3.253,0,0,0-1.742-1.832,3.2,3.2,0,0,0-4.21,1.715,3.269,3.269,0,0,0-.048,2.424,3.225,3.225,0,0,0,1.63,1.779,3.168,3.168,0,0,0,2.43.13,3.247,3.247,0,0,0,1.844-1.677,3.3,3.3,0,0,0,.1-2.539" transform="translate(-142.654 -180.226)" fill="#1c1439"/>
            <path id="Path_1031547" data-name="Path 1031547" d="M221.593,306.021a3.342,3.342,0,0,1-1.909,4.3,3.287,3.287,0,0,1-4.254-1.929,3.342,3.342,0,0,1,1.909-4.3,3.286,3.286,0,0,1,4.254,1.929" transform="translate(-140.01 -196.579)" fill="#cbd2b3"/>
            <path id="Path_1031548" data-name="Path 1031548" d="M221.282,305.915a3.446,3.446,0,0,1-.051,2.559,3.37,3.37,0,0,1-4.441,1.8,3.431,3.431,0,0,1-1.833-1.93,3.477,3.477,0,0,1,.1-2.674A3.421,3.421,0,0,1,217,303.9a3.34,3.34,0,0,1,2.563.135,3.4,3.4,0,0,1,1.722,1.877m0,0a3.252,3.252,0,0,0-1.742-1.832,3.2,3.2,0,0,0-4.21,1.715,3.269,3.269,0,0,0-.048,2.424,3.225,3.225,0,0,0,1.63,1.779,3.17,3.17,0,0,0,2.43.13,3.247,3.247,0,0,0,1.844-1.677,3.3,3.3,0,0,0,.1-2.539" transform="translate(-139.699 -196.474)" fill="#1c1439"/>
            <path id="Path_1031549" data-name="Path 1031549" d="M233.691,295.258a3.342,3.342,0,0,1-1.909,4.3,3.287,3.287,0,0,1-4.254-1.929,3.342,3.342,0,0,1,1.909-4.3,3.286,3.286,0,0,1,4.254,1.929" transform="translate(-147.88 -189.617)" fill="#cbd2b3"/>
            <path id="Path_1031550" data-name="Path 1031550" d="M233.38,295.152a3.446,3.446,0,0,1-.051,2.559,3.371,3.371,0,0,1-4.441,1.8,3.431,3.431,0,0,1-1.834-1.93,3.477,3.477,0,0,1,.1-2.674,3.421,3.421,0,0,1,1.941-1.77,3.34,3.34,0,0,1,2.563.135,3.4,3.4,0,0,1,1.722,1.877m0,0a3.253,3.253,0,0,0-1.742-1.832,3.2,3.2,0,0,0-4.21,1.715,3.269,3.269,0,0,0-.048,2.424,3.225,3.225,0,0,0,1.63,1.779,3.169,3.169,0,0,0,2.43.13,3.246,3.246,0,0,0,1.844-1.678,3.3,3.3,0,0,0,.1-2.538" transform="translate(-147.57 -189.511)" fill="#1c1439"/>
            <path id="Path_1031551" data-name="Path 1031551" d="M198.673,330.551a3.342,3.342,0,0,1-1.909,4.3,3.287,3.287,0,0,1-4.254-1.929,3.342,3.342,0,0,1,1.909-4.3,3.286,3.286,0,0,1,4.254,1.929" transform="translate(-125.099 -212.448)" fill="#cbd2b3"/>
            <path id="Path_1031552" data-name="Path 1031552" d="M198.361,330.445A3.446,3.446,0,0,1,198.31,333a3.371,3.371,0,0,1-4.441,1.8,3.43,3.43,0,0,1-1.833-1.93,3.477,3.477,0,0,1,.1-2.674,3.421,3.421,0,0,1,1.942-1.77,3.341,3.341,0,0,1,2.563.135,3.4,3.4,0,0,1,1.721,1.877m0,0a3.252,3.252,0,0,0-1.742-1.832,3.2,3.2,0,0,0-4.21,1.715,3.268,3.268,0,0,0-.048,2.423,3.226,3.226,0,0,0,1.63,1.779,3.17,3.17,0,0,0,2.43.13,3.247,3.247,0,0,0,1.844-1.678,3.3,3.3,0,0,0,.1-2.539" transform="translate(-124.788 -212.343)" fill="#1c1439"/>
            <path id="Path_1031553" data-name="Path 1031553" d="M210.336,316.762a3.342,3.342,0,0,1-1.909,4.3,3.287,3.287,0,0,1-4.254-1.929,3.342,3.342,0,0,1,1.909-4.3,3.286,3.286,0,0,1,4.254,1.929" transform="translate(-132.687 -203.528)" fill="#cbd2b3"/>
            <path id="Path_1031554" data-name="Path 1031554" d="M210.025,316.656a3.446,3.446,0,0,1-.051,2.558,3.371,3.371,0,0,1-4.441,1.8,3.431,3.431,0,0,1-1.833-1.93,3.477,3.477,0,0,1,.1-2.674,3.421,3.421,0,0,1,1.941-1.77,3.34,3.34,0,0,1,2.563.135,3.4,3.4,0,0,1,1.722,1.877m0,0a3.253,3.253,0,0,0-1.742-1.832,3.2,3.2,0,0,0-4.21,1.715,3.269,3.269,0,0,0-.048,2.424,3.225,3.225,0,0,0,1.63,1.779,3.17,3.17,0,0,0,2.43.13,3.247,3.247,0,0,0,1.844-1.678,3.3,3.3,0,0,0,.1-2.538" transform="translate(-132.376 -203.422)" fill="#1c1439"/>
            <path id="Path_1031555" data-name="Path 1031555" d="M226.622,319.853a3.342,3.342,0,0,1-1.909,4.3,3.287,3.287,0,0,1-4.254-1.929,3.342,3.342,0,0,1,1.909-4.3,3.286,3.286,0,0,1,4.254,1.929" transform="translate(-143.282 -205.528)" fill="#cbd2b3"/>
            <path id="Path_1031556" data-name="Path 1031556" d="M226.311,319.747a3.446,3.446,0,0,1-.051,2.559,3.371,3.371,0,0,1-4.441,1.8,3.429,3.429,0,0,1-1.833-1.93,3.476,3.476,0,0,1,.1-2.674,3.421,3.421,0,0,1,1.941-1.77,3.34,3.34,0,0,1,2.563.135,3.4,3.4,0,0,1,1.722,1.877m0,0a3.252,3.252,0,0,0-1.742-1.832,3.2,3.2,0,0,0-4.21,1.715,3.269,3.269,0,0,0-.048,2.424,3.225,3.225,0,0,0,1.63,1.779,3.17,3.17,0,0,0,2.43.13,3.247,3.247,0,0,0,1.844-1.678,3.3,3.3,0,0,0,.1-2.539" transform="translate(-142.971 -205.422)" fill="#1c1439"/>
            <path id="Path_1031557" data-name="Path 1031557" d="M230.438,334.606a3.342,3.342,0,0,1-1.909,4.3,3.286,3.286,0,0,1-4.254-1.929,3.342,3.342,0,0,1,1.909-4.3,3.286,3.286,0,0,1,4.254,1.929" transform="translate(-145.764 -215.071)" fill="#cbd2b3"/>
            <path id="Path_1031558" data-name="Path 1031558" d="M230.127,334.5a3.446,3.446,0,0,1-.051,2.558,3.371,3.371,0,0,1-4.441,1.8,3.43,3.43,0,0,1-1.833-1.93,3.477,3.477,0,0,1,.1-2.674,3.421,3.421,0,0,1,1.941-1.77,3.34,3.34,0,0,1,2.563.135,3.4,3.4,0,0,1,1.722,1.877m0,0a3.253,3.253,0,0,0-1.742-1.832,3.2,3.2,0,0,0-4.21,1.715,3.269,3.269,0,0,0-.048,2.424,3.225,3.225,0,0,0,1.63,1.779,3.17,3.17,0,0,0,2.43.13,3.248,3.248,0,0,0,1.844-1.678,3.3,3.3,0,0,0,.1-2.539" transform="translate(-145.454 -214.966)" fill="#1c1439"/>
            <path id="Path_1031559" data-name="Path 1031559" d="M234.538,348.782a3.342,3.342,0,0,1-1.909,4.3,3.287,3.287,0,0,1-4.254-1.929,3.342,3.342,0,0,1,1.909-4.3,3.286,3.286,0,0,1,4.254,1.929" transform="translate(-148.432 -224.242)" fill="#cbd2b3"/>
            <path id="Path_1031560" data-name="Path 1031560" d="M234.227,348.676a3.446,3.446,0,0,1-.051,2.558,3.37,3.37,0,0,1-4.441,1.8,3.43,3.43,0,0,1-1.834-1.93,3.477,3.477,0,0,1,.1-2.674,3.421,3.421,0,0,1,1.941-1.77,3.34,3.34,0,0,1,2.563.134,3.4,3.4,0,0,1,1.722,1.877m0,0a3.253,3.253,0,0,0-1.742-1.832,3.2,3.2,0,0,0-4.21,1.715,3.269,3.269,0,0,0-.048,2.424,3.225,3.225,0,0,0,1.63,1.779,3.17,3.17,0,0,0,2.43.13,3.247,3.247,0,0,0,1.844-1.678,3.3,3.3,0,0,0,.1-2.538" transform="translate(-148.121 -224.136)" fill="#1c1439"/>
            <path id="Path_1031561" data-name="Path 1031561" d="M215.072,331.614a3.342,3.342,0,0,1-1.909,4.3,3.287,3.287,0,0,1-4.254-1.929,3.342,3.342,0,0,1,1.909-4.3,3.287,3.287,0,0,1,4.254,1.929" transform="translate(-135.768 -213.136)" fill="#cbd2b3"/>
            <path id="Path_1031562" data-name="Path 1031562" d="M214.761,331.509a3.446,3.446,0,0,1-.051,2.558,3.371,3.371,0,0,1-4.441,1.8,3.43,3.43,0,0,1-1.833-1.93,3.477,3.477,0,0,1,.1-2.674,3.421,3.421,0,0,1,1.941-1.77,3.34,3.34,0,0,1,2.563.135,3.4,3.4,0,0,1,1.722,1.877m0,0a3.252,3.252,0,0,0-1.742-1.832,3.2,3.2,0,0,0-4.21,1.715,3.269,3.269,0,0,0-.048,2.424,3.225,3.225,0,0,0,1.63,1.779,3.17,3.17,0,0,0,2.43.13,3.247,3.247,0,0,0,1.844-1.678,3.3,3.3,0,0,0,.1-2.538" transform="translate(-135.457 -213.031)" fill="#1c1439"/>
            <path id="Path_1031563" data-name="Path 1031563" d="M218.931,344.589a3.342,3.342,0,0,1-1.909,4.3,3.286,3.286,0,0,1-4.254-1.929,3.342,3.342,0,0,1,1.909-4.3,3.286,3.286,0,0,1,4.254,1.929" transform="translate(-138.278 -221.53)" fill="#cbd2b3"/>
            <path id="Path_1031564" data-name="Path 1031564" d="M218.62,344.483a3.446,3.446,0,0,1-.051,2.558,3.371,3.371,0,0,1-4.441,1.8,3.432,3.432,0,0,1-1.833-1.93,3.478,3.478,0,0,1,.1-2.674,3.421,3.421,0,0,1,1.941-1.77,3.341,3.341,0,0,1,2.563.134,3.4,3.4,0,0,1,1.722,1.877m0,0a3.253,3.253,0,0,0-1.742-1.832,3.2,3.2,0,0,0-4.21,1.715,3.269,3.269,0,0,0-.048,2.424,3.225,3.225,0,0,0,1.63,1.779,3.17,3.17,0,0,0,2.43.13,3.248,3.248,0,0,0,1.844-1.678,3.3,3.3,0,0,0,.1-2.539" transform="translate(-137.968 -221.424)" fill="#1c1439"/>
            <path id="Path_1031565" data-name="Path 1031565" d="M239.038,308.744a3.342,3.342,0,0,1-1.909,4.3,3.287,3.287,0,0,1-4.254-1.929,3.342,3.342,0,0,1,1.909-4.3,3.286,3.286,0,0,1,4.254,1.929" transform="translate(-151.359 -198.341)" fill="#cbd2b3"/>
            <path id="Path_1031566" data-name="Path 1031566" d="M238.727,308.638a3.446,3.446,0,0,1-.051,2.558,3.371,3.371,0,0,1-4.441,1.8,3.429,3.429,0,0,1-1.833-1.93,3.476,3.476,0,0,1,.1-2.674,3.421,3.421,0,0,1,1.942-1.77,3.341,3.341,0,0,1,2.563.134,3.4,3.4,0,0,1,1.721,1.877m0,0a3.252,3.252,0,0,0-1.742-1.832,3.2,3.2,0,0,0-4.21,1.715,3.269,3.269,0,0,0-.048,2.424,3.227,3.227,0,0,0,1.63,1.779,3.17,3.17,0,0,0,2.43.13,3.246,3.246,0,0,0,1.844-1.678,3.3,3.3,0,0,0,.1-2.538" transform="translate(-151.048 -198.235)" fill="#1c1439"/>
            <path id="Path_1031567" data-name="Path 1031567" d="M191.254,300.682a3.342,3.342,0,0,1-1.909,4.3,3.287,3.287,0,0,1-4.254-1.929,3.342,3.342,0,0,1,1.909-4.3,3.286,3.286,0,0,1,4.254,1.929" transform="translate(-120.273 -193.126)" fill="#cbd2b3"/>
            <path id="Path_1031568" data-name="Path 1031568" d="M190.943,300.576a3.446,3.446,0,0,1-.051,2.558,3.371,3.371,0,0,1-4.441,1.8,3.431,3.431,0,0,1-1.834-1.93,3.478,3.478,0,0,1,.1-2.674,3.421,3.421,0,0,1,1.941-1.77,3.341,3.341,0,0,1,2.563.135,3.4,3.4,0,0,1,1.722,1.877m0,0a3.253,3.253,0,0,0-1.742-1.832,3.2,3.2,0,0,0-4.21,1.715,3.268,3.268,0,0,0-.048,2.423,3.225,3.225,0,0,0,1.63,1.779,3.169,3.169,0,0,0,2.43.13,3.247,3.247,0,0,0,1.844-1.677,3.3,3.3,0,0,0,.1-2.539" transform="translate(-119.962 -193.02)" fill="#1c1439"/>
            <path id="Path_1031569" data-name="Path 1031569" d="M168.384,235.759a9.578,9.578,0,0,1-3.628-1.943,2.776,2.776,0,0,1,1.5-.439,12.05,12.05,0,0,1-4.806-6.441l1.327-.008a51.58,51.58,0,0,1-2.861-5.535,14.464,14.464,0,0,1,6.951,3.147l-.6-1.989c.1.349,1.48,1.066,1.8,1.363a12.565,12.565,0,0,1,1.523,1.677,13.179,13.179,0,0,1,2.145,4.284c.346,1.2.9,3.275.446,4.5-.511,1.381-2.572,1.65-3.8,1.384" transform="translate(-104.031 -143.222)" fill="#9c995d"/>
            <path id="Path_1031570" data-name="Path 1031570" d="M197.8,238.431a14.625,14.625,0,0,0-1.163,13.419,15.342,15.342,0,0,1-.05-14.142Z" transform="translate(-126.784 -153.777)" fill="#5a2d14"/>
            <path id="Path_1031571" data-name="Path 1031571" d="M166.29,226.642c.934.837,1.828,1.712,2.707,2.6s1.74,1.8,2.593,2.709,1.686,1.846,2.5,2.794,1.623,1.905,2.387,2.9c-.935-.836-1.829-1.711-2.708-2.6s-1.74-1.8-2.592-2.709-1.685-1.847-2.5-2.8-1.623-1.9-2.387-2.9" transform="translate(-108.182 -146.618)" fill="#5a2d14"/>
            <path id="Path_1031572" data-name="Path 1031572" d="M226.326,256.072a6.16,6.16,0,0,0-3.378,5.5,12.012,12.012,0,0,0,1.981,6.437,22.97,22.97,0,0,0,5.02,5.869,3.359,3.359,0,0,0,2.334,1.021,3.408,3.408,0,0,0,1.378-.561c3.605-2.164,6.927-5.148,8.458-9.093a8.279,8.279,0,0,0,.306-5.841,4.657,4.657,0,0,0-4.544-3.144c-1.883.2-3.686,1.786-5.6.964-2.051-.878-3.592-2.157-5.951-1.152" transform="translate(-145.038 -165.418)" fill="#a04f23"/>
            <path id="Path_1031573" data-name="Path 1031573" d="M245.706,261.413a4.928,4.928,0,0,0,1.334.854,3.869,3.869,0,0,0,2.931.058,4.942,4.942,0,0,0,1.367-.8,2.824,2.824,0,0,1-1.165,1.229,3.2,3.2,0,0,1-3.351-.069,2.829,2.829,0,0,1-1.115-1.275" transform="translate(-159.847 -169.111)" fill="#5a2d14"/>
            <path id="Path_1031574" data-name="Path 1031574" d="M252.335,254.873a49.824,49.824,0,0,0-.106-5.747c.428-.046.911-.1,1.342-.115a24.025,24.025,0,0,0-.323,5.754" transform="translate(-164.091 -161.088)" fill="#5a2d14"/>
            <path id="Path_1031575" data-name="Path 1031575" d="M230.474,258.508a5.394,5.394,0,0,0-2.414.655,5.254,5.254,0,0,0-1.812,1.618,5.737,5.737,0,0,0-.913,2.276,7.207,7.207,0,0,0,.028,2.548,4.972,4.972,0,0,1-.5-2.605,5.2,5.2,0,0,1,.886-2.567,4.854,4.854,0,0,1,2.107-1.7,4.092,4.092,0,0,1,2.615-.226" transform="translate(-146.28 -167.154)" fill="#f4efdb"/>
            <path id="Path_1031576" data-name="Path 1031576" d="M142.836,254.462a6.2,6.2,0,0,0-1.131,6.371,11.9,11.9,0,0,0,4.192,5.244,22.718,22.718,0,0,0,6.809,3.582,3.345,3.345,0,0,0,2.542.079,3.444,3.444,0,0,0,1.076-1.035c2.56-3.356,4.557-7.368,4.539-11.605a8.256,8.256,0,0,0-1.849-5.543,4.623,4.623,0,0,0-5.372-1.227c-1.678.887-2.773,3.034-4.855,2.986-2.227-.052-4.126-.665-5.952,1.148" transform="translate(-91.926 -161.668)" fill="#a04f23"/>
            <path id="Path_1031577" data-name="Path 1031577" d="M159.572,258.665a4.878,4.878,0,0,0,1.551.3,3.925,3.925,0,0,0,1.473-.249,3.97,3.97,0,0,0,1.273-.79,5.006,5.006,0,0,0,.978-1.252,2.848,2.848,0,0,1-.633,1.577,3.215,3.215,0,0,1-3.14,1.186,2.8,2.8,0,0,1-1.5-.769" transform="translate(-103.812 -166.043)" fill="#5a2d14"/>
            <path id="Path_1031578" data-name="Path 1031578" d="M163.374,252.877a49.618,49.618,0,0,0-2.2-5.3c.381-.2.812-.428,1.206-.607a23.959,23.959,0,0,0,1.8,5.468" transform="translate(-104.855 -159.767)" fill="#5a2d14"/>
            <path id="Path_1031579" data-name="Path 1031579" d="M147.054,261.583a5.441,5.441,0,0,0-2,1.509,5.31,5.31,0,0,0-1.093,2.18,5.757,5.757,0,0,0-.017,2.455,7.177,7.177,0,0,0,.956,2.357,4.932,4.932,0,0,1-1.412-2.236,5.206,5.206,0,0,1-.114-2.716,4.907,4.907,0,0,1,1.338-2.364,4.116,4.116,0,0,1,2.348-1.185" transform="translate(-93.187 -169.221)" fill="#f4efdb"/>
            <path id="Path_1031580" data-name="Path 1031580" d="M304.631,262.179a3.273,3.273,0,0,1-4.651.335,3.356,3.356,0,0,1-.332-4.7,3.273,3.273,0,0,1,4.651-.335,3.356,3.356,0,0,1,.332,4.7" transform="translate(-194.416 -166.04)" fill="#cbd2b3"/>
            <path id="Path_1031581" data-name="Path 1031581" d="M304.342,261.907a3.363,3.363,0,0,1-4.708.4,3.441,3.441,0,0,1-.406-4.881,3.38,3.38,0,0,1,5.936,2.059,3.438,3.438,0,0,1-.822,2.421m0,0a3.263,3.263,0,0,0-.389-4.632,3.191,3.191,0,0,0-4.461.383,3.271,3.271,0,0,0,.257,4.517,3.185,3.185,0,0,0,4.594-.269" transform="translate(-194.127 -165.768)" fill="#1c1439"/>
            <path id="Path_1031582" data-name="Path 1031582" d="M292.373,272.249a3.273,3.273,0,0,1-4.651.335,3.356,3.356,0,0,1-.332-4.7,3.273,3.273,0,0,1,4.651-.335,3.356,3.356,0,0,1,.332,4.7" transform="translate(-186.442 -172.554)" fill="#cbd2b3"/>
            <path id="Path_1031583" data-name="Path 1031583" d="M292.084,271.977a3.363,3.363,0,0,1-4.708.4,3.441,3.441,0,0,1-.406-4.881,3.38,3.38,0,0,1,5.936,2.059,3.438,3.438,0,0,1-.822,2.421m0,0a3.263,3.263,0,0,0-.389-4.632,3.191,3.191,0,0,0-4.461.383,3.271,3.271,0,0,0,.257,4.517,3.185,3.185,0,0,0,4.594-.269" transform="translate(-186.153 -172.282)" fill="#1c1439"/>
            <path id="Path_1031584" data-name="Path 1031584" d="M290.756,255.31a3.273,3.273,0,0,1-4.651.335,3.356,3.356,0,0,1-.332-4.7,3.273,3.273,0,0,1,4.651-.335,3.356,3.356,0,0,1,.332,4.7" transform="translate(-185.39 -161.596)" fill="#cbd2b3"/>
            <path id="Path_1031585" data-name="Path 1031585" d="M290.467,255.038a3.363,3.363,0,0,1-4.708.4,3.441,3.441,0,0,1-.406-4.881,3.38,3.38,0,0,1,5.936,2.059,3.438,3.438,0,0,1-.822,2.421m0,0a3.263,3.263,0,0,0-.389-4.632,3.191,3.191,0,0,0-4.461.383,3.271,3.271,0,0,0,.257,4.517,3.185,3.185,0,0,0,4.594-.269" transform="translate(-185.101 -161.324)" fill="#1c1439"/>
            <path id="Path_1031586" data-name="Path 1031586" d="M322.34,280.113a3.273,3.273,0,0,1-4.651.335,3.356,3.356,0,0,1-.332-4.7,3.273,3.273,0,0,1,4.651-.335,3.356,3.356,0,0,1,.332,4.7" transform="translate(-205.937 -177.642)" fill="#cbd2b3"/>
            <path id="Path_1031587" data-name="Path 1031587" d="M322.051,279.841a3.363,3.363,0,0,1-4.708.4,3.442,3.442,0,0,1-.406-4.881,3.38,3.38,0,0,1,5.936,2.059,3.436,3.436,0,0,1-.822,2.421m0,0a3.263,3.263,0,0,0-.389-4.632,3.191,3.191,0,0,0-4.461.383,3.27,3.27,0,0,0,.256,4.517,3.185,3.185,0,0,0,4.594-.269" transform="translate(-205.648 -177.37)" fill="#1c1439"/>
            <path id="Path_1031588" data-name="Path 1031588" d="M325.573,294.091a3.276,3.276,0,0,1-4.58-.884,3.353,3.353,0,0,1,.875-4.628,3.276,3.276,0,0,1,4.58.884,3.353,3.353,0,0,1-.875,4.628" transform="translate(-208.455 -186.313)" fill="#cbd2b3"/>
            <path id="Path_1031589" data-name="Path 1031589" d="M325.318,293.794a3.365,3.365,0,0,1-4.652-.834,3.44,3.44,0,0,1,.848-4.823,3.361,3.361,0,0,1,4.751.98,3.446,3.446,0,0,1-.947,4.677m0,0a3.262,3.262,0,0,0,.8-4.578,3.192,3.192,0,0,0-4.409-.787,3.232,3.232,0,1,0,3.607,5.365" transform="translate(-208.2 -186.016)" fill="#1c1439"/>
            <path id="Path_1031590" data-name="Path 1031590" d="M310.609,289.575a3.273,3.273,0,0,1-4.651.335,3.356,3.356,0,0,1-.332-4.7,3.273,3.273,0,0,1,4.651-.335,3.356,3.356,0,0,1,.332,4.7" transform="translate(-198.305 -183.763)" fill="#cbd2b3"/>
            <path id="Path_1031591" data-name="Path 1031591" d="M310.32,289.3a3.363,3.363,0,0,1-4.708.4,3.441,3.441,0,0,1-.406-4.881,3.38,3.38,0,0,1,5.936,2.059,3.438,3.438,0,0,1-.822,2.421m0,0a3.263,3.263,0,0,0-.389-4.632,3.191,3.191,0,0,0-4.461.383,3.271,3.271,0,0,0,.257,4.517,3.185,3.185,0,0,0,4.594-.269" transform="translate(-198.016 -183.491)" fill="#1c1439"/>
            <path id="Path_1031592" data-name="Path 1031592" d="M307.977,274.421a3.273,3.273,0,0,1-4.651.335,3.356,3.356,0,0,1-.332-4.7,3.273,3.273,0,0,1,4.651-.335,3.356,3.356,0,0,1,.332,4.7" transform="translate(-196.593 -173.96)" fill="#cbd2b3"/>
            <path id="Path_1031593" data-name="Path 1031593" d="M307.688,274.149a3.363,3.363,0,0,1-4.708.4,3.441,3.441,0,0,1-.406-4.881,3.38,3.38,0,0,1,5.936,2.059,3.436,3.436,0,0,1-.822,2.421m0,0a3.263,3.263,0,0,0-.389-4.632,3.191,3.191,0,0,0-4.461.383,3.271,3.271,0,0,0,.257,4.517,3.185,3.185,0,0,0,4.594-.269" transform="translate(-196.304 -173.687)" fill="#1c1439"/>
            <path id="Path_1031594" data-name="Path 1031594" d="M279.726,267.7a3.273,3.273,0,0,1-4.651.335,3.356,3.356,0,0,1-.332-4.7,3.273,3.273,0,0,1,4.651-.335,3.356,3.356,0,0,1,.332,4.7" transform="translate(-178.214 -169.613)" fill="#cbd2b3"/>
            <path id="Path_1031595" data-name="Path 1031595" d="M279.437,267.431a3.363,3.363,0,0,1-4.708.4,3.441,3.441,0,0,1-.406-4.881,3.38,3.38,0,0,1,5.936,2.059,3.438,3.438,0,0,1-.822,2.421m0,0a3.263,3.263,0,0,0-.389-4.632,3.191,3.191,0,0,0-4.461.383,3.271,3.271,0,0,0,.257,4.517,3.185,3.185,0,0,0,4.594-.269" transform="translate(-177.925 -169.342)" fill="#1c1439"/>
            <path id="Path_1031596" data-name="Path 1031596" d="M265.519,278.484a3.273,3.273,0,0,1-4.651.335,3.356,3.356,0,0,1-.332-4.7,3.273,3.273,0,0,1,4.651-.335,3.356,3.356,0,0,1,.332,4.7" transform="translate(-168.971 -176.588)" fill="#cbd2b3"/>
            <path id="Path_1031597" data-name="Path 1031597" d="M265.23,278.212a3.363,3.363,0,0,1-4.708.4,3.441,3.441,0,0,1-.406-4.881,3.38,3.38,0,0,1,5.936,2.059,3.436,3.436,0,0,1-.822,2.421m0,0a3.263,3.263,0,0,0-.389-4.632,3.191,3.191,0,0,0-4.461.383,3.271,3.271,0,0,0,.257,4.517,3.185,3.185,0,0,0,4.594-.269" transform="translate(-168.683 -176.316)" fill="#1c1439"/>
            <path id="Path_1031598" data-name="Path 1031598" d="M266.656,292.02a3.273,3.273,0,0,1-4.651.335,3.356,3.356,0,0,1-.332-4.7,3.273,3.273,0,0,1,4.651-.335,3.356,3.356,0,0,1,.332,4.7" transform="translate(-169.711 -185.345)" fill="#cbd2b3"/>
            <path id="Path_1031599" data-name="Path 1031599" d="M266.367,291.748a3.363,3.363,0,0,1-4.708.4,3.441,3.441,0,0,1-.406-4.881,3.38,3.38,0,0,1,5.936,2.059,3.438,3.438,0,0,1-.822,2.421m0,0a3.263,3.263,0,0,0-.389-4.632,3.191,3.191,0,0,0-4.461.384,3.271,3.271,0,0,0,.257,4.517,3.185,3.185,0,0,0,4.594-.269" transform="translate(-169.422 -185.073)" fill="#1c1439"/>
            <path id="Path_1031600" data-name="Path 1031600" d="M296.947,286.815a3.273,3.273,0,0,1-4.651.335,3.356,3.356,0,0,1-.332-4.7,3.273,3.273,0,0,1,4.651-.335,3.356,3.356,0,0,1,.332,4.7" transform="translate(-189.417 -181.977)" fill="#cbd2b3"/>
            <path id="Path_1031601" data-name="Path 1031601" d="M296.658,286.543a3.363,3.363,0,0,1-4.708.4,3.441,3.441,0,0,1-.406-4.881,3.38,3.38,0,0,1,5.936,2.059,3.437,3.437,0,0,1-.822,2.421m0,0a3.263,3.263,0,0,0-.389-4.632,3.19,3.19,0,0,0-4.461.383,3.271,3.271,0,0,0,.257,4.517,3.185,3.185,0,0,0,4.594-.269" transform="translate(-189.128 -181.705)" fill="#1c1439"/>
            <path id="Path_1031602" data-name="Path 1031602" d="M284.323,295.769a3.273,3.273,0,0,1-4.651.335,3.356,3.356,0,0,1-.332-4.7,3.273,3.273,0,0,1,4.651-.335,3.356,3.356,0,0,1,.332,4.7" transform="translate(-181.205 -187.77)" fill="#cbd2b3"/>
            <path id="Path_1031603" data-name="Path 1031603" d="M284.034,295.5a3.363,3.363,0,0,1-4.708.4,3.441,3.441,0,0,1-.406-4.881,3.38,3.38,0,0,1,5.936,2.059,3.438,3.438,0,0,1-.822,2.421m0,0a3.263,3.263,0,0,0-.389-4.632,3.191,3.191,0,0,0-4.461.383,3.271,3.271,0,0,0,.257,4.517,3.185,3.185,0,0,0,4.594-.269" transform="translate(-180.916 -187.498)" fill="#1c1439"/>
            <path id="Path_1031604" data-name="Path 1031604" d="M298.726,301.8a3.273,3.273,0,0,1-4.651.335,3.356,3.356,0,0,1-.332-4.7,3.273,3.273,0,0,1,4.651-.335,3.356,3.356,0,0,1,.332,4.7" transform="translate(-190.575 -191.671)" fill="#cbd2b3"/>
            <path id="Path_1031605" data-name="Path 1031605" d="M298.437,301.527a3.363,3.363,0,0,1-4.708.4,3.441,3.441,0,0,1-.406-4.881,3.38,3.38,0,0,1,5.936,2.059,3.438,3.438,0,0,1-.822,2.421m0,0a3.263,3.263,0,0,0-.389-4.632,3.191,3.191,0,0,0-4.461.384,3.271,3.271,0,0,0,.257,4.517,3.185,3.185,0,0,0,4.594-.269" transform="translate(-190.286 -191.399)" fill="#1c1439"/>
            <path id="Path_1031606" data-name="Path 1031606" d="M314.038,303.81a3.273,3.273,0,0,1-4.651.335,3.356,3.356,0,0,1-.332-4.7,3.273,3.273,0,0,1,4.651-.335,3.356,3.356,0,0,1,.332,4.7" transform="translate(-200.536 -192.972)" fill="#cbd2b3"/>
            <path id="Path_1031607" data-name="Path 1031607" d="M313.749,303.538a3.363,3.363,0,0,1-4.708.4,3.441,3.441,0,0,1-.406-4.881,3.38,3.38,0,0,1,5.936,2.059,3.438,3.438,0,0,1-.822,2.421m0,0a3.263,3.263,0,0,0-.389-4.632,3.191,3.191,0,0,0-4.461.383,3.271,3.271,0,0,0,.257,4.517,3.185,3.185,0,0,0,4.594-.269" transform="translate(-200.247 -192.7)" fill="#1c1439"/>
            <path id="Path_1031608" data-name="Path 1031608" d="M289.764,311.695a3.273,3.273,0,0,1-4.651.335,3.356,3.356,0,0,1-.332-4.7,3.273,3.273,0,0,1,4.651-.335,3.356,3.356,0,0,1,.332,4.7" transform="translate(-184.744 -198.072)" fill="#cbd2b3"/>
            <path id="Path_1031609" data-name="Path 1031609" d="M289.475,311.423a3.363,3.363,0,0,1-4.708.4,3.441,3.441,0,0,1-.406-4.881A3.38,3.38,0,0,1,290.3,309a3.437,3.437,0,0,1-.822,2.421m0,0a3.263,3.263,0,0,0-.389-4.632,3.191,3.191,0,0,0-4.461.383,3.271,3.271,0,0,0,.257,4.517,3.185,3.185,0,0,0,4.594-.269" transform="translate(-184.455 -197.8)" fill="#1c1439"/>
            <path id="Path_1031610" data-name="Path 1031610" d="M304.97,317.258a3.273,3.273,0,0,1-4.651.335,3.356,3.356,0,0,1-.332-4.7,3.273,3.273,0,0,1,4.651-.335,3.356,3.356,0,0,1,.332,4.7" transform="translate(-194.637 -201.671)" fill="#cbd2b3"/>
            <path id="Path_1031611" data-name="Path 1031611" d="M304.681,316.986a3.363,3.363,0,0,1-4.708.4,3.441,3.441,0,0,1-.406-4.881,3.38,3.38,0,0,1,5.936,2.059,3.436,3.436,0,0,1-.822,2.421m0,0a3.263,3.263,0,0,0-.389-4.632,3.191,3.191,0,0,0-4.461.383,3.271,3.271,0,0,0,.257,4.517,3.185,3.185,0,0,0,4.594-.269" transform="translate(-194.348 -201.399)" fill="#1c1439"/>
            <path id="Path_1031612" data-name="Path 1031612" d="M257.307,303.113a3.273,3.273,0,0,1-4.651.335,3.356,3.356,0,0,1-.332-4.7,3.273,3.273,0,0,1,4.651-.335,3.356,3.356,0,0,1,.332,4.7" transform="translate(-163.629 -192.521)" fill="#cbd2b3"/>
            <path id="Path_1031613" data-name="Path 1031613" d="M257.018,302.841a3.363,3.363,0,0,1-4.708.4,3.441,3.441,0,0,1-.406-4.881,3.38,3.38,0,0,1,5.936,2.059,3.437,3.437,0,0,1-.822,2.421m0,0a3.263,3.263,0,0,0-.389-4.632,3.191,3.191,0,0,0-4.461.383,3.271,3.271,0,0,0,.257,4.517,3.185,3.185,0,0,0,4.594-.269" transform="translate(-163.34 -192.249)" fill="#1c1439"/>
            <path id="Path_1031614" data-name="Path 1031614" d="M274.974,306.862a3.273,3.273,0,0,1-4.651.335,3.356,3.356,0,0,1-.332-4.7,3.273,3.273,0,0,1,4.651-.335,3.356,3.356,0,0,1,.332,4.7" transform="translate(-175.122 -194.946)" fill="#cbd2b3"/>
            <path id="Path_1031615" data-name="Path 1031615" d="M274.685,306.59a3.363,3.363,0,0,1-4.708.4,3.441,3.441,0,0,1-.406-4.881,3.38,3.38,0,0,1,5.936,2.059,3.438,3.438,0,0,1-.822,2.421m0,0a3.263,3.263,0,0,0-.389-4.632,3.191,3.191,0,0,0-4.461.383,3.271,3.271,0,0,0,.257,4.517,3.185,3.185,0,0,0,4.594-.269" transform="translate(-174.834 -194.674)" fill="#1c1439"/>
            <path id="Path_1031616" data-name="Path 1031616" d="M279.959,322.671a3.273,3.273,0,0,1-4.651.335,3.355,3.355,0,0,1-.332-4.7,3.273,3.273,0,0,1,4.651-.335,3.355,3.355,0,0,1,.332,4.7" transform="translate(-178.365 -205.173)" fill="#cbd2b3"/>
            <path id="Path_1031617" data-name="Path 1031617" d="M279.67,322.4a3.363,3.363,0,0,1-4.708.4,3.441,3.441,0,0,1-.406-4.881,3.38,3.38,0,0,1,5.936,2.059,3.436,3.436,0,0,1-.822,2.42m0,0a3.263,3.263,0,0,0-.389-4.632,3.191,3.191,0,0,0-4.461.383,3.271,3.271,0,0,0,.257,4.517,3.184,3.184,0,0,0,4.594-.269" transform="translate(-178.077 -204.901)" fill="#1c1439"/>
            <path id="Path_1031618" data-name="Path 1031618" d="M268.768,333.015a3.273,3.273,0,0,1-4.651.335,3.356,3.356,0,0,1-.332-4.7,3.273,3.273,0,0,1,4.651-.335,3.356,3.356,0,0,1,.332,4.7" transform="translate(-171.085 -211.865)" fill="#cbd2b3"/>
            <path id="Path_1031619" data-name="Path 1031619" d="M268.479,332.743a3.363,3.363,0,0,1-4.708.4,3.442,3.442,0,0,1-.407-4.881,3.38,3.38,0,0,1,5.936,2.059,3.438,3.438,0,0,1-.822,2.421m0,0a3.263,3.263,0,0,0-.389-4.632,3.191,3.191,0,0,0-4.461.383,3.271,3.271,0,0,0,.257,4.517,3.185,3.185,0,0,0,4.594-.269" transform="translate(-170.796 -211.593)" fill="#1c1439"/>
            <path id="Path_1031620" data-name="Path 1031620" d="M258.221,343.336a3.273,3.273,0,0,1-4.651.335,3.356,3.356,0,0,1-.332-4.7,3.273,3.273,0,0,1,4.651-.335,3.356,3.356,0,0,1,.332,4.7" transform="translate(-164.224 -218.541)" fill="#cbd2b3"/>
            <path id="Path_1031621" data-name="Path 1031621" d="M257.932,343.064a3.363,3.363,0,0,1-4.708.4,3.441,3.441,0,0,1-.406-4.881,3.38,3.38,0,0,1,5.936,2.059,3.438,3.438,0,0,1-.822,2.421m0,0a3.263,3.263,0,0,0-.389-4.632,3.191,3.191,0,0,0-4.461.383,3.271,3.271,0,0,0,.257,4.517,3.185,3.185,0,0,0,4.594-.269" transform="translate(-163.935 -218.269)" fill="#1c1439"/>
            <path id="Path_1031622" data-name="Path 1031622" d="M264.131,318.063a3.273,3.273,0,0,1-4.651.335,3.356,3.356,0,0,1-.332-4.7,3.273,3.273,0,0,1,4.651-.335,3.356,3.356,0,0,1,.332,4.7" transform="translate(-168.068 -202.192)" fill="#cbd2b3"/>
            <path id="Path_1031623" data-name="Path 1031623" d="M263.842,317.791a3.363,3.363,0,0,1-4.708.4,3.441,3.441,0,0,1-.406-4.881,3.38,3.38,0,0,1,5.936,2.059,3.438,3.438,0,0,1-.822,2.421m0,0a3.263,3.263,0,0,0-.389-4.632,3.191,3.191,0,0,0-4.461.383,3.271,3.271,0,0,0,.257,4.517,3.185,3.185,0,0,0,4.594-.269" transform="translate(-167.78 -201.92)" fill="#1c1439"/>
            <path id="Path_1031624" data-name="Path 1031624" d="M254.528,327.6a3.273,3.273,0,0,1-4.651.335,3.356,3.356,0,0,1-.332-4.7,3.273,3.273,0,0,1,4.651-.335,3.356,3.356,0,0,1,.332,4.7" transform="translate(-161.821 -208.364)" fill="#cbd2b3"/>
            <path id="Path_1031625" data-name="Path 1031625" d="M254.239,327.331a3.363,3.363,0,0,1-4.708.4,3.441,3.441,0,0,1-.406-4.881,3.38,3.38,0,0,1,5.936,2.059,3.438,3.438,0,0,1-.822,2.421m0,0a3.263,3.263,0,0,0-.389-4.632,3.191,3.191,0,0,0-4.461.383,3.271,3.271,0,0,0,.257,4.517,3.185,3.185,0,0,0,4.594-.269" transform="translate(-161.532 -208.092)" fill="#1c1439"/>
            <path id="Path_1031626" data-name="Path 1031626" d="M295.621,328.351a3.273,3.273,0,0,1-4.651.335,3.356,3.356,0,0,1-.332-4.7,3.273,3.273,0,0,1,4.651-.335,3.356,3.356,0,0,1,.332,4.7" transform="translate(-188.555 -208.847)" fill="#cbd2b3"/>
            <path id="Path_1031627" data-name="Path 1031627" d="M295.332,328.079a3.363,3.363,0,0,1-4.708.4,3.441,3.441,0,0,1-.406-4.881,3.38,3.38,0,0,1,5.936,2.059,3.436,3.436,0,0,1-.822,2.421m0,0a3.263,3.263,0,0,0-.389-4.632,3.191,3.191,0,0,0-4.461.383,3.271,3.271,0,0,0,.257,4.517,3.185,3.185,0,0,0,4.594-.269" transform="translate(-188.266 -208.575)" fill="#1c1439"/>
            <path id="Path_1031628" data-name="Path 1031628" d="M280.108,282.442a3.273,3.273,0,0,1-4.651.335,3.356,3.356,0,0,1-.332-4.7,3.273,3.273,0,0,1,4.651-.335,3.356,3.356,0,0,1,.332,4.7" transform="translate(-178.462 -179.148)" fill="#cbd2b3"/>
            <path id="Path_1031629" data-name="Path 1031629" d="M279.819,282.17a3.363,3.363,0,0,1-4.708.4,3.441,3.441,0,0,1-.406-4.881,3.38,3.38,0,0,1,5.936,2.059,3.438,3.438,0,0,1-.822,2.421m0,0a3.263,3.263,0,0,0-.389-4.632,3.191,3.191,0,0,0-4.461.383,3.271,3.271,0,0,0,.257,4.517,3.185,3.185,0,0,0,4.594-.269" transform="translate(-178.174 -178.876)" fill="#1c1439"/>
            <path id="Path_1031630" data-name="Path 1031630" d="M318.938,229.424a9.79,9.79,0,0,1-.023-4.149,2.813,2.813,0,0,1,1.09,1.123,12.116,12.116,0,0,1,3.341-7.326l.635,1.177a51.4,51.4,0,0,1,3.471-5.166A14.831,14.831,0,0,1,328,222.76l1.452-1.471c-.255.258-.229,1.822-.335,2.251a12.663,12.663,0,0,1-.741,2.149,13.135,13.135,0,0,1-2.72,3.937c-.879.874-2.43,2.35-3.711,2.526-1.446.2-2.656-1.508-3.005-2.728" transform="translate(-207.335 -139.14)" fill="#9c995d"/>
            <path id="Path_1031631" data-name="Path 1031631" d="M325.261,259.326a14.277,14.277,0,0,0-12.25,5.315,15.006,15.006,0,0,1,12.305-6.737Z" transform="translate(-203.633 -166.841)" fill="#5a2d14"/>
            <path id="Path_1031632" data-name="Path 1031632" d="M333.25,223.187c-.288,1.228-.628,2.437-.986,3.64s-.742,2.4-1.134,3.59-.812,2.375-1.252,3.55-.893,2.347-1.4,3.5c.286-1.228.627-2.437.985-3.641s.742-2.4,1.135-3.589.812-2.374,1.253-3.55.893-2.347,1.4-3.5" transform="translate(-213.694 -144.382)" fill="#5a2d14"/>
            <path id="Path_1031633" data-name="Path 1031633" d="M292.926,281.535a6.209,6.209,0,0,0-.075,6.473,11.843,11.843,0,0,0,4.991,4.473,22.634,22.634,0,0,0,7.3,2.4,3.344,3.344,0,0,0,2.52-.346,3.46,3.46,0,0,0,.892-1.2c1.977-3.737,3.291-8.027,2.582-12.2a8.225,8.225,0,0,0-2.728-5.158,4.617,4.617,0,0,0-5.5-.315c-1.51,1.154-2.24,3.455-4.3,3.754-2.2.32-4.178.032-5.683,2.125" transform="translate(-189.951 -177.828)" fill="#a04f23"/>
            <path id="Path_1031634" data-name="Path 1031634" d="M308.3,285.725a4.879,4.879,0,0,0,1.579.034,3.936,3.936,0,0,0,1.412-.491,3.987,3.987,0,0,0,1.126-.991,5.022,5.022,0,0,0,.76-1.4,2.858,2.858,0,0,1-.367,1.661,3.313,3.313,0,0,1-1.217,1.257,3.274,3.274,0,0,1-1.685.437,2.789,2.789,0,0,1-1.607-.508" transform="translate(-200.569 -182.997)" fill="#5a2d14"/>
            <path id="Path_1031635" data-name="Path 1031635" d="M310.666,280.628a49.276,49.276,0,0,0-3.033-4.863c.343-.263.731-.558,1.09-.8a23.879,23.879,0,0,0,2.669,5.092" transform="translate(-200.134 -177.879)" fill="#5a2d14"/>
            <path id="Path_1031636" data-name="Path 1031636" d="M297.13,291.109a5.467,5.467,0,0,0-1.73,1.823,5.327,5.327,0,0,0-.722,2.333,5.748,5.748,0,0,0,.384,2.425,7.154,7.154,0,0,0,1.328,2.165,4.911,4.911,0,0,1-1.758-1.97,5.2,5.2,0,0,1-.556-2.66,4.929,4.929,0,0,1,.934-2.555,4.133,4.133,0,0,1,2.122-1.56" transform="translate(-191.308 -188.322)" fill="#f4efdb"/>
            <path id="Path_1031637" data-name="Path 1031637" d="M157.7,297.406l8.62,36.987a62.882,62.882,0,0,0,26.485,6.185,50.036,50.036,0,0,0,24.612-6.185l8.62-37.114-33.856,6.059Z" transform="translate(-102.591 -192.314)" fill="#dba600"/>
          </g>
        </g>
        <g id="Group_1199479" data-name="Group 1199479" transform="translate(55.105 104.966)">
          <g id="Group_1199478" data-name="Group 1199478" clip-path="url(#clip-path-7)">
            <g id="Group_1199477" data-name="Group 1199477" transform="translate(-0.517 -3.425)" opacity="0.5">
              <g id="Group_1199476" data-name="Group 1199476">
                <g id="Group_1199475" data-name="Group 1199475" clip-path="url(#clip-path-8)">
                  <path id="Path_1031638" data-name="Path 1031638" d="M156.575,317.113a35.978,35.978,0,0,0,9.391,3.219c20.469,4.7,42.533,4.611,61.826-3.747" transform="translate(-156.45 -306.344)" fill="none" stroke="#5a2d14" stroke-miterlimit="10" stroke-width="1.5"/>
                  <path id="Path_1031639" data-name="Path 1031639" d="M156.575,339.518a36.882,36.882,0,0,0,9.391,3.219c22.036,5.226,42.533,4.611,61.826-3.747" transform="translate(-156.45 -320.838)" fill="none" stroke="#5a2d14" stroke-miterlimit="10" stroke-width="1.5"/>
                  <path id="Path_1031640" data-name="Path 1031640" d="M156.575,359.191c2.913,1.6,6.251,2.141,9.391,3.219,20.963,7.2,42.08,6.719,61.826-3.747" transform="translate(-156.45 -333.565)" fill="none" stroke="#5a2d14" stroke-miterlimit="10" stroke-width="1.5"/>
                  <path id="Path_1031641" data-name="Path 1031641" d="M156.575,381.6c2.913,1.6,6.246,2.156,9.391,3.219,21.082,7.126,40.529,6.644,61.826-3.747" transform="translate(-156.45 -348.059)" fill="none" stroke="#5a2d14" stroke-miterlimit="10" stroke-width="1.5"/>
                  <path id="Path_1031642" data-name="Path 1031642" d="M240.352,291.913a423.772,423.772,0,0,0,4.162,48.862" transform="translate(-210.952 -290.383)" fill="none" stroke="#5a2d14" stroke-miterlimit="10" stroke-width="1.5"/>
                  <path id="Path_1031643" data-name="Path 1031643" d="M177.294,289.964a246.487,246.487,0,0,0,11.957,48.74" transform="translate(-169.929 -289.123)" fill="none" stroke="#5a2d14" stroke-miterlimit="10" stroke-width="1.5"/>
                  <path id="Path_1031644" data-name="Path 1031644" d="M209.165,287.626a285.241,285.241,0,0,0,7.414,49.625" transform="translate(-190.663 -287.61)" fill="none" stroke="#5a2d14" stroke-miterlimit="10" stroke-width="1.5"/>
                  <path id="Path_1031645" data-name="Path 1031645" d="M268.856,291.913a423.772,423.772,0,0,1-4.162,48.862" transform="translate(-226.788 -290.383)" fill="none" stroke="#5a2d14" stroke-miterlimit="10" stroke-width="1.5"/>
                  <path id="Path_1031646" data-name="Path 1031646" d="M317.4,289.964a246.485,246.485,0,0,1-11.957,48.74" transform="translate(-253.298 -289.123)" fill="none" stroke="#5a2d14" stroke-miterlimit="10" stroke-width="1.5"/>
                  <path id="Path_1031647" data-name="Path 1031647" d="M293.988,287.626a285.273,285.273,0,0,1-7.415,49.625" transform="translate(-241.021 -287.61)" fill="none" stroke="#5a2d14" stroke-miterlimit="10" stroke-width="1.5"/>
                </g>
              </g>
            </g>
          </g>
        </g>
        <g id="Group_1199481" data-name="Group 1199481">
          <g id="Group_1199480" data-name="Group 1199480" clip-path="url(#clip-path-2)">
            <path id="Path_1031649" data-name="Path 1031649" d="M148.878,292.242c5.6,2.978,12.175,4.089,18.371,5.078a118.587,118.587,0,0,0,18.429,1.546,91.716,91.716,0,0,0,36.413-7.152c2.335-1,.323-4.442-1.995-3.449a86.934,86.934,0,0,1-34.418,6.607,112.04,112.04,0,0,1-17.378-1.4c-5.815-.926-12.166-1.88-17.426-4.675-2.25-1.2-4.25,2.251-2,3.449" transform="translate(-96.21 -186.367)" fill="#d87e08"/>
            <path id="Path_1031650" data-name="Path 1031650" d="M349.077,294.681l-7.5,12.387-16.047-9.7a101.285,101.285,0,0,1,3.88-12.391,25.423,25.423,0,0,1,4.519-8.151c2.1-2.307,5.141-3.932,8.225-3.615" transform="translate(-211.777 -176.72)" fill="#ede4d0"/>
            <path id="Path_1031651" data-name="Path 1031651" d="M330.092,326.933a39.569,39.569,0,0,1,17.474,9.488" transform="translate(-214.745 -211.497)" fill="none" stroke="#dba600" stroke-miterlimit="10" stroke-width="4"/>
            <path id="Path_1031652" data-name="Path 1031652" d="M325.529,297.288a75.067,75.067,0,0,1,4.663-15.205,18.124,18.124,0,0,1,4.582-6.546,11.081,11.081,0,0,1,3.46-2.007,8.25,8.25,0,0,1,3.919-.4,8.665,8.665,0,0,0-3.8.722,11.5,11.5,0,0,0-3.226,2.1,14.84,14.84,0,0,0-2.466,2.975,25.055,25.055,0,0,0-1.837,3.447c-.542,1.192-1.02,2.42-1.492,3.651s-.924,2.471-1.365,3.714q-1.3,3.739-2.441,7.547" transform="translate(-211.777 -176.636)" fill="#1c1439"/>
            <path id="Path_1031653" data-name="Path 1031653" d="M371.452,346.47c.5-1.108,1.062-2.181,1.643-3.24s1.19-2.1,1.809-3.138,1.268-2.054,1.94-3.056,1.359-2,2.108-2.953c-.5,1.109-1.061,2.181-1.642,3.241s-1.19,2.1-1.81,3.137-1.269,2.053-1.941,3.056-1.358,2-2.107,2.954" transform="translate(-241.653 -216.123)" fill="#1c1439"/>
            <path id="Path_1031654" data-name="Path 1031654" d="M239.263,348.043s-15.248,30.042-19.924,30.789c-4.419.705-36.424-12.214-36.424-12.214a66.612,66.612,0,0,1-10.093.828c-1.283-.017-2.731-.179-3.522-1.2s-.6-2.477-.374-3.754a2.688,2.688,0,0,1-.592-4.118c-2.956-1.94-.538-5.056-.538-5.056a4.308,4.308,0,0,1-1.013-2.626c.116-1.286,2.318-2.851,2.318-2.851l.778,3.243,3.482,3.354c-.747-1.008-1.535-2.236-1.156-3.436a.459.459,0,0,1,.242-.32.507.507,0,0,1,.369.067c2.145,1,4.382,2.073,5.793,3.987,1.131,1.536,1.9,4.214,3.641,4.959,10.66,4.556,21.32,2.39,32.545,5.243l7.586-26.08c6.43,0,12.139,4.8,16.882,9.183" transform="translate(-108.497 -219.213)" fill="#a04f23"/>
            <path id="Path_1031655" data-name="Path 1031655" d="M161.046,330.994c.922-.129,5.766-.141,5.9.662s-4.5,2.118-5.423,2.247a1.633,1.633,0,0,1-1.905-1.221,1.548,1.548,0,0,1,1.432-1.688" transform="translate(-103.828 -214.082)" fill="#a04f23"/>
            <path id="Path_1031656" data-name="Path 1031656" d="M162.363,339c.922-.129,5.766-.141,5.9.662s-4.5,2.118-5.423,2.247a1.633,1.633,0,0,1-1.906-1.221A1.548,1.548,0,0,1,162.363,339" transform="translate(-104.684 -219.264)" fill="#a04f23"/>
            <path id="Path_1031657" data-name="Path 1031657" d="M163.681,347.017c.922-.129,5.766-.141,5.9.662s-4.5,2.118-5.423,2.247a1.633,1.633,0,0,1-1.906-1.221,1.548,1.548,0,0,1,1.432-1.688" transform="translate(-105.542 -224.447)" fill="#a04f23"/>
            <path id="Path_1031658" data-name="Path 1031658" d="M165,355.028c.922-.129,5.766-.141,5.9.662s-4.5,2.118-5.423,2.247a1.633,1.633,0,0,1-1.906-1.221A1.548,1.548,0,0,1,165,355.028" transform="translate(-106.399 -229.629)" fill="#a04f23"/>
          </g>
        </g>
      </g>
    </g>
  </g>
</svg>
