<svg xmlns="http://www.w3.org/2000/svg" xmlns:xlink="http://www.w3.org/1999/xlink" width="84.616" height="109.152" viewBox="0 0 84.616 109.152">
  <defs>
    <filter id="Rectangle_401593" x="0" y="0" width="74.01" height="109.152" filterUnits="userSpaceOnUse">
      <feOffset dy="3" input="SourceAlpha"/>
      <feGaussianBlur stdDeviation="3" result="blur"/>
      <feFlood flood-opacity="0.161"/>
      <feComposite operator="in" in2="blur"/>
      <feComposite in="SourceGraphic"/>
    </filter>
  </defs>
  <g id="Group_1199973" data-name="Group 1199973" transform="translate(6875.313 7244.264)">
    <g id="Group_1199972" data-name="Group 1199972" transform="translate(-6866.313 -7238.265)">
      <g id="Group_1182090" data-name="Group 1182090" transform="translate(0 0)">
        <g transform="matrix(1, 0, 0, 1, -9, -6)" filter="url(#Rectangle_401593)">
          <rect id="Rectangle_401593-2" data-name="Rectangle 401593" width="56.01" height="91.152" rx="8" transform="translate(9 6)" fill="#9ad354"/>
        </g>
      </g>
    </g>
    <g id="jardinero" transform="translate(-6866.313 -7229.131)">
      <g id="Group_1199391" data-name="Group 1199391" transform="translate(1.201 1.201)">
        <g id="Group_1199390" data-name="Group 1199390">
          <path id="Path_1031092" data-name="Path 1031092" d="M104.819,332.44h37.652V318.135a8.01,8.01,0,0,0-8.01-8.01H89.181a2.537,2.537,0,0,1-2.526,2.348H83.984v7.182h.46a.641.641,0,0,1,.641.641v5.447l.109.037a1.966,1.966,0,0,1,.284,3.638l-.284.143.284.143a1.978,1.978,0,0,1,0,3.538l-.284.143.284.143a1.978,1.978,0,0,1,0,3.538l-.284.143.284.143a1.99,1.99,0,0,1,1.092,1.827,2.029,2.029,0,0,1-2.045,1.924h-.16v.16h18.853v-7.22a1.6,1.6,0,0,1,1.6-1.6Z" transform="translate(-74.933 -261.647)" fill="#c4e2ff"/>
          <path id="Path_1031093" data-name="Path 1031093" d="M87.712,480.969a1.991,1.991,0,0,1,.855,1.685,2.029,2.029,0,0,1-2.045,1.924h-.16v.16h18.853v-3.769Z" transform="translate(-76.93 -405.123)" fill="#b3dafe"/>
          <path id="Path_1031094" data-name="Path 1031094" d="M407.1,332.44V318.135a8.01,8.01,0,0,0-8.01-8.01V332.44Z" transform="translate(-339.562 -261.647)" fill="#b3dafe"/>
          <path id="Path_1031095" data-name="Path 1031095" d="M232.827,283.179h-4.186a10.092,10.092,0,0,1-3-.452v4.389l4.466,5.516a.8.8,0,0,0,1.245,0l4.466-5.516v-4.389A10.093,10.093,0,0,1,232.827,283.179Z" transform="translate(-193.902 -238.638)" fill="#f89580"/>
          <path id="Path_1031096" data-name="Path 1031096" d="M34.008,190.649l-5.454,6.411a4.493,4.493,0,0,0-1.071,2.911v9.364a2.7,2.7,0,0,0,2.7,2.7h9.026a2.7,2.7,0,0,0,2.7-2.7v-9.364a4.493,4.493,0,0,0-1.071-2.911l-5.454-6.411A.9.9,0,0,0,34.008,190.649Z" transform="translate(-27.484 -161.044)" fill="#b5adb6"/>
          <path id="Path_1031097" data-name="Path 1031097" d="M40.831,197.06l-5.454-6.411a.9.9,0,0,0-1.369,0l-1.719,2.02,3.735,4.391a4.493,4.493,0,0,1,1.071,2.911v5.64a2.7,2.7,0,0,1-2.7,2.7H27.484v1.028a2.7,2.7,0,0,0,2.7,2.7h9.026a2.7,2.7,0,0,0,2.7-2.7v-9.364A4.492,4.492,0,0,0,40.831,197.06Z" transform="translate(-27.484 -161.044)" fill="#a79ba7"/>
          <g id="Group_1199385" data-name="Group 1199385" transform="translate(4.776)">
            <g id="Group_1199383" data-name="Group 1199383" transform="translate(13.06 23.386)">
              <path id="Path_1031098" data-name="Path 1031098" d="M145.6,153.487h-3.2a4.75,4.75,0,0,0,1.175,9.351H145.6Z" transform="translate(-138.825 -153.487)" fill="#ffb09e"/>
              <path id="Path_1031099" data-name="Path 1031099" d="M336.9,153.487h-3.2v9.351h2.026a4.75,4.75,0,0,0,1.175-9.351Z" transform="translate(-302.483 -153.487)" fill="#f89580"/>
            </g>
            <g id="Group_1199384" data-name="Group 1199384" transform="translate(19.675 23.386)">
              <path id="Path_1031100" data-name="Path 1031100" d="M180.117,153.487v11.027A10.288,10.288,0,0,0,190.406,174.8h4.186a10.288,10.288,0,0,0,10.288-10.288V153.487Z" transform="translate(-180.117 -153.487)" fill="#ffcebf"/>
            </g>
            <path id="Path_1031101" data-name="Path 1031101" d="M207.7,153.487v10.9A5.607,5.607,0,0,1,202.094,170H190.008a10.279,10.279,0,0,0,8.7,4.806H202.9a10.288,10.288,0,0,0,10.288-10.288V153.487Z" transform="translate(-168.749 -130.101)" fill="#ffb09e"/>
            <path id="Path_1031102" data-name="Path 1031102" d="M186.318,26.4V24.257a16.757,16.757,0,1,0-33.514,0V26.4Z" transform="translate(-137.505 -7.5)" fill="#ffd15b"/>
            <path id="Path_1031103" data-name="Path 1031103" d="M176.114,15.8a16.687,16.687,0,0,1,3.8,10.621,2.144,2.144,0,0,1-2.144,2.144H153.015a16.879,16.879,0,0,0-.211,2.662v2.144h33.514V31.231a16.761,16.761,0,0,0-10.2-15.427Z" transform="translate(-137.505 -14.475)" fill="#ffc344"/>
            <path id="Path_1031104" data-name="Path 1031104" d="M119.008,129.293H59.7a2.4,2.4,0,0,1,0-4.806h59.307a2.4,2.4,0,1,1,0,4.806Z" transform="translate(-57.298 -105.747)" fill="#ffe177"/>
            <path id="Path_1031105" data-name="Path 1031105" d="M119.008,129.293H59.7a2.4,2.4,0,0,1,0-4.806h59.307a2.4,2.4,0,1,1,0,4.806Z" transform="translate(-57.298 -105.747)" fill="#ffe177"/>
            <path id="Path_1031106" data-name="Path 1031106" d="M413.127,124.487H407.52v4.806h5.607a2.4,2.4,0,1,0,0-4.806Z" transform="translate(-351.417 -105.747)" fill="#ffd15b"/>
          </g>
          <path id="Path_1031107" data-name="Path 1031107" d="M63.989,287.292v-13.7a2,2,0,1,0-4,0v13.7Z" transform="translate(-54.778 -229.284)" fill="#cbc4cc"/>
          <g id="Group_1199386" data-name="Group 1199386" transform="translate(4.105 57.848)">
            <path id="Path_1031108" data-name="Path 1031108" d="M55.473,374.787H58.6a2.067,2.067,0,0,1,.72.131v-5.5a.8.8,0,0,0-.8-.8h-4.6a.8.8,0,0,0-.8.8v6.228a3.669,3.669,0,0,1,2.361-.858Z" transform="translate(-53.112 -368.615)" fill="#ffe177"/>
          </g>
          <g id="Group_1199387" data-name="Group 1199387" transform="translate(7.413 57.848)">
            <path id="Path_1031109" data-name="Path 1031109" d="M75.858,368.614h-2.1v6.172h2.179a2.065,2.065,0,0,1,.72.131v-5.5A.8.8,0,0,0,75.858,368.614Z" transform="translate(-73.76 -368.614)" fill="#ffd15b"/>
          </g>
          <path id="Path_1031110" data-name="Path 1031110" d="M53.015,412.107a2.189,2.189,0,0,1,0-3.887,2.184,2.184,0,0,0-2.205-2.079H47.683a3.847,3.847,0,0,0-3.847,3.847v8.063a3.847,3.847,0,0,0,3.847,3.847h3.126a2.184,2.184,0,0,0,2.205-2.079,2.189,2.189,0,0,1,0-3.887,2.138,2.138,0,0,1,0-3.824Z" transform="translate(-41.217 -342.282)" fill="#ffcebf"/>
          <g id="Group_1199388" data-name="Group 1199388" transform="translate(52.508 58.097)">
            <path id="Path_1031111" data-name="Path 1031111" d="M424.633,377.834H419.89V375.78a5.61,5.61,0,0,1,5.61-5.61h3.942a.8.8,0,0,1,.8.8v1.253A5.61,5.61,0,0,1,424.633,377.834Z" transform="translate(-409.537 -370.17)" fill="#07b27b"/>
            <path id="Path_1031112" data-name="Path 1031112" d="M365.616,377.834h-4.743a5.61,5.61,0,0,1-5.61-5.61v-1.253a.8.8,0,0,1,.8-.8h3.942a5.61,5.61,0,0,1,5.61,5.61Z" transform="translate(-355.263 -370.17)" fill="#0ed290"/>
          </g>
          <g id="Group_1199389" data-name="Group 1199389" transform="translate(27.619 58.097)">
            <path id="Path_1031113" data-name="Path 1031113" d="M269.265,377.834h-4.743V375.78a5.61,5.61,0,0,1,5.61-5.61h3.942a.8.8,0,0,1,.8.8v1.253A5.61,5.61,0,0,1,269.265,377.834Z" transform="translate(-254.169 -370.17)" fill="#07b27b"/>
            <path id="Path_1031114" data-name="Path 1031114" d="M210.249,377.834h-4.743a5.61,5.61,0,0,1-5.61-5.61v-1.253a.8.8,0,0,1,.8-.8h3.942a5.61,5.61,0,0,1,5.61,5.61Z" transform="translate(-199.896 -370.17)" fill="#0ed290"/>
          </g>
          <path id="Path_1031115" data-name="Path 1031115" d="M247.375,458.251H204.048v-7.22a1.6,1.6,0,0,1,1.6-1.6h41.725a1.6,1.6,0,0,1,1.6,1.6v5.618A1.6,1.6,0,0,1,247.375,458.251Z" transform="translate(-175.764 -378.635)" fill="#d88a55"/>
        </g>
      </g>
      <path id="Path_1031116" data-name="Path 1031116" d="M53.015,415.93a2.138,2.138,0,0,1,0-3.824,2.189,2.189,0,0,1,0-3.887,2.184,2.184,0,0,0-2.205-2.079H48.63v9.3a2.4,2.4,0,0,1-2.4,2.4H43.836v.207a3.847,3.847,0,0,0,3.847,3.847h3.126a2.184,2.184,0,0,0,2.205-2.08,2.189,2.189,0,0,1,0-3.886Z" transform="translate(-40.015 -341.08)" fill="#ffb09e"/>
      <path id="Path_1031117" data-name="Path 1031117" d="M247.375,449.429H241.7v3.451a1.6,1.6,0,0,1-1.6,1.6h-36.05v3.769h43.327a1.6,1.6,0,0,0,1.6-1.6v-5.618A1.6,1.6,0,0,0,247.375,449.429Z" transform="translate(-174.562 -377.434)" fill="#c57a44"/>
      <g id="Group_1199392" data-name="Group 1199392" transform="translate(0 0)">
        <path id="Path_1031118" data-name="Path 1031118" d="M234.229,88.177a1.2,1.2,0,0,0,1.2,1.2h5.311a1.2,1.2,0,1,0,0-2.4H235.43A1.2,1.2,0,0,0,234.229,88.177Z" transform="translate(-199.909 -73.043)"/>
        <path id="Path_1031119" data-name="Path 1031119" d="M242.893,54.068a1.2,1.2,0,1,0,0-2.4h-4.3a1.2,1.2,0,1,0,0,2.4Z" transform="translate(-202.567 -43.389)"/>
        <path id="Path_1031120" data-name="Path 1031120" d="M302.644,88.177a1.2,1.2,0,0,0,1.2,1.2h2.6a1.2,1.2,0,1,0,0-2.4h-2.6A1.2,1.2,0,0,0,302.644,88.177Z" transform="translate(-257.364 -73.043)"/>
        <path id="Path_1031121" data-name="Path 1031121" d="M298.47,51.665h-2.148a1.2,1.2,0,1,0,0,2.4h2.148a1.2,1.2,0,0,0,0-2.4Z" transform="translate(-251.045 -43.389)"/>
        <path id="Path_1031122" data-name="Path 1031122" d="M182.128,89.379h2.6a1.2,1.2,0,1,0,0-2.4h-2.6a1.2,1.2,0,1,0,0,2.4Z" transform="translate(-155.145 -73.043)"/>
        <path id="Path_1031123" data-name="Path 1031123" d="M194.635,54.068a1.2,1.2,0,1,0,0-2.4h-2.148a1.2,1.2,0,1,0,0,2.4Z" transform="translate(-163.844 -43.389)"/>
        <path id="Path_1031124" data-name="Path 1031124" d="M216.313,170.972V169.08a1.2,1.2,0,1,0-2.4,0v1.891a1.2,1.2,0,1,0,2.4,0Z" transform="translate(-182.845 -140.986)"/>
        <path id="Path_1031125" data-name="Path 1031125" d="M287.109,172.173a1.2,1.2,0,0,0,1.2-1.2V169.08a1.2,1.2,0,1,0-2.4,0v1.891A1.2,1.2,0,0,0,287.109,172.173Z" transform="translate(-243.309 -140.986)"/>
        <path id="Path_1031126" data-name="Path 1031126" d="M239.7,188.645l1.329,1.139a1.2,1.2,0,0,0,1.564-1.824l-1.329-1.139a.073.073,0,0,1,0-.107l.619-.619a3.845,3.845,0,0,0,1.134-2.737,1.2,1.2,0,1,0-2.4,0,1.458,1.458,0,0,1-.43,1.038l-.619.619a2.476,2.476,0,0,0,.14,3.631Z" transform="translate(-203.773 -152.976)"/>
        <path id="Path_1031127" data-name="Path 1031127" d="M235.834,239.9a1.2,1.2,0,0,0-1.7-1.7,4.171,4.171,0,0,1-5.9,0,1.2,1.2,0,0,0-1.7,1.7,6.573,6.573,0,0,0,9.3,0Z" transform="translate(-193.15 -199.747)"/>
        <path id="Path_1031128" data-name="Path 1031128" d="M95.6,61.352V60.1a2,2,0,0,0-2-2H89.925v-.408a9.221,9.221,0,0,0-9.211-9.211h-6.4a1.2,1.2,0,1,0,0,2.4h6.4a6.816,6.816,0,0,1,6.808,6.808v.752a6.843,6.843,0,0,0-3.476,2.61,6.808,6.808,0,0,0-5.61-2.954H74.494a2,2,0,0,0-2,2v1.253A6.819,6.819,0,0,0,79.3,68.164h3.541v2.63H60.359v-2.63H63.9a6.819,6.819,0,0,0,6.811-6.811V60.1a2,2,0,0,0-2-2H64.767a6.808,6.808,0,0,0-5.61,2.954,6.808,6.808,0,0,0-5.61-2.954H49.605a2,2,0,0,0-2,2v1.253a6.819,6.819,0,0,0,6.811,6.811h3.541v2.63H51.072a2.807,2.807,0,0,0-2.8,2.8v6.018H34.042a3.215,3.215,0,0,0,.141-.844,3.347,3.347,0,0,0-.6-2,3.352,3.352,0,0,0,0-3.829,3.352,3.352,0,0,0,0-3.829,3.3,3.3,0,0,0-.884-4.656v-4.6a2,2,0,0,0-1.1-1.785V53.389h1.309a3.9,3.9,0,0,0,3.64-2.508H52.356l4.105,5.071a2,2,0,0,0,3.113,0l4.105-5.071h5.032a1.2,1.2,0,0,0,0-2.4h-4.4V46.308A11.506,11.506,0,0,0,71.6,35.615V35.14h.664a5.937,5.937,0,0,0,4.979-9.191H87.67a3.6,3.6,0,1,0,0-7.209H75.976v-.782A17.978,17.978,0,0,0,58.018,0,17.786,17.786,0,0,0,47.029,3.755a1.2,1.2,0,1,0,1.472,1.9A15.4,15.4,0,0,1,58.018,2.4,15.573,15.573,0,0,1,73.573,17.958v.782H42.462v-.782A15.494,15.494,0,0,1,44.97,9.487a1.2,1.2,0,0,0-2.014-1.31,17.89,17.89,0,0,0-2.9,9.782v.782H28.364a3.6,3.6,0,0,0,0,7.209H38.792A5.936,5.936,0,0,0,43.77,35.14h.664v.475a11.506,11.506,0,0,0,7.293,10.693v2.171H36.8v-8.35a5.7,5.7,0,0,0-1.357-3.689l-5.454-6.411a2.1,2.1,0,0,0-3.2,0l-5.454,6.411a5.7,5.7,0,0,0-1.357,3.689v.926a1.2,1.2,0,1,0,2.4,0v-.926A3.294,3.294,0,0,1,23.171,38l5.223-6.14L33.617,38a3.3,3.3,0,0,1,.784,2.132v9.364a1.5,1.5,0,0,1-1.494,1.494H31.6V45.509a3.2,3.2,0,1,0-6.408,0v5.477H23.881a1.5,1.5,0,0,1-1.494-1.494V46.661a1.2,1.2,0,0,0-2.4,0v2.831a3.9,3.9,0,0,0,3.9,3.9H25.19v4.676a2,2,0,0,0-1.1,1.786v5.484A5.032,5.032,0,0,0,22.6,68.907V76.97a5.054,5.054,0,0,0,5.048,5.048H92.8a2.807,2.807,0,0,0,2.8-2.8V73.6a2.807,2.807,0,0,0-2.8-2.8H89.925V68.067A6.821,6.821,0,0,0,95.6,61.352ZM60.359,64.908A4.413,4.413,0,0,1,64.767,60.5h3.541v.852A4.413,4.413,0,0,1,63.9,65.761H60.359ZM61.9,49.254l-3.887,4.8-3.887-4.8v-2.29a11.52,11.52,0,0,0,1.794.141H60.11a11.524,11.524,0,0,0,1.794-.141ZM75.782,29.649a3.618,3.618,0,0,1-3.612,3.088H71.6V25.949h2.094A3.556,3.556,0,0,1,75.782,29.649Zm-47.418-6.1a1.2,1.2,0,1,1,0-2.4H87.671a1.2,1.2,0,0,1,0,2.4Zm16.07,9.191h-.569a3.618,3.618,0,0,1-3.612-3.089,3.556,3.556,0,0,1,2.087-3.7h2.094v6.788Zm2.4,2.878V25.949H69.2v9.666A9.1,9.1,0,0,1,60.11,44.7H55.925A9.1,9.1,0,0,1,46.838,35.615ZM27.593,45.509a.8.8,0,0,1,1.6,0V57.848h-1.6Zm-1.1,14.742h3.8v3.608H27.652a5.039,5.039,0,0,0-1.159.136Zm4.77,13.761a.937.937,0,0,1,0,1.678,1.2,1.2,0,0,0,0,2.146.933.933,0,0,1,.519.867.981.981,0,0,1-1,.912H27.652a2.648,2.648,0,0,1-2.645-2.645V68.907a2.648,2.648,0,0,1,2.645-2.645h3.126a.981.981,0,0,1,1,.912.933.933,0,0,1-.519.867,1.2,1.2,0,0,0,0,2.146.937.937,0,0,1,0,1.678,1.2,1.2,0,0,0,0,2.147Zm53.985-5.848h2.275v2.63H85.247Zm-5.944-2.4a4.413,4.413,0,0,1-4.408-4.408V60.5h3.541a4.413,4.413,0,0,1,4.408,4.408v.852Zm-24.889,0a4.414,4.414,0,0,1-4.408-4.408V60.5h3.541a4.413,4.413,0,0,1,4.408,4.408v.852ZM92.8,73.2a.4.4,0,0,1,.4.4v5.618a.4.4,0,0,1-.4.4H50.671V73.6a.4.4,0,0,1,.4-.4Zm-4.008-7.436H85.247v-.852A4.413,4.413,0,0,1,89.656,60.5H93.2v.852A4.413,4.413,0,0,1,88.788,65.761Z" transform="translate(-19.984 0)"/>
      </g>
    </g>
  </g>
</svg>
