<svg xmlns="http://www.w3.org/2000/svg" xmlns:xlink="http://www.w3.org/1999/xlink" width="95.782" height="117.059" viewBox="0 0 95.782 117.059">
  <defs>
    <filter id="Rectangle_401593" x="0" y="0" width="78.868" height="117.059" filterUnits="userSpaceOnUse">
      <feOffset dy="3" input="SourceAlpha"/>
      <feGaussianBlur stdDeviation="3" result="blur"/>
      <feFlood flood-opacity="0.161"/>
      <feComposite operator="in" in2="blur"/>
      <feComposite in="SourceGraphic"/>
    </filter>
    <clipPath id="clip-path">
      <rect id="Rectangle_408725" data-name="Rectangle 408725" width="86.781" height="88.714" fill="none"/>
    </clipPath>
  </defs>
  <g id="Group_1200327" data-name="Group 1200327" transform="translate(6878.44 6890.884)">
    <g id="Group_1200326" data-name="Group 1200326">
      <g id="Group_1199976" data-name="Group 1199976" transform="translate(-6869.44 -6884.884)">
        <g id="Group_1199972" data-name="Group 1199972" transform="translate(0)">
          <g id="Group_1182090" data-name="Group 1182090" transform="translate(0 0)">
            <g transform="matrix(1, 0, 0, 1, -9, -6)" filter="url(#Rectangle_401593)">
              <rect id="Rectangle_401593-2" data-name="Rectangle 401593" width="60.868" height="99.059" rx="8" transform="translate(9 6)" fill="#9ad354"/>
            </g>
          </g>
        </g>
      </g>
      <g id="Group_1199931" data-name="Group 1199931" transform="translate(-6869.44 -6874.723)">
        <rect id="Rectangle_408722" data-name="Rectangle 408722" width="2.404" height="1.204" transform="translate(84.376 67.501) rotate(-0.072)" fill="#fefefe"/>
        <rect id="Rectangle_408723" data-name="Rectangle 408723" width="9.109" height="1.199" transform="translate(0 67.502)" fill="#101010"/>
        <g id="Group_1199930" data-name="Group 1199930" transform="translate(0 0)">
          <g id="Group_1199929" data-name="Group 1199929" clip-path="url(#clip-path)">
            <path id="Path_1031693" data-name="Path 1031693" d="M48.857,87.8c1.137,2.314,4.193,3.73,6.712,3.6v4.075c-3.186-.721-5.96-1.157-5.217,3.179.465,2.711,2.7,3.113,3.245,4.186.7,1.389.99,4.24,1.493,5.819-.542,0-3.217.093-3.357,0-.023-.015.061-.324-.046-.418-.332-.292-7.607-.027-8.823-.061V93.8A21.321,21.321,0,0,0,48.857,87.8" transform="translate(-10.262 -21.021)" fill="#95dd7c"/>
            <path id="Path_1031694" data-name="Path 1031694" d="M35.474,98.205c-.008,4.152.005,8.315,0,12.467-.157.157-3.09-.163-3.68-.005-.253.068-.136.469-.157.483a11.61,11.61,0,0,1-1.917,0c-.024-.015.061-.324-.046-.418l-6.665-.062c.51-3.235,1.467-6.4,2.157-9.587,3.642-.064,7.009-1.54,10.308-2.877" transform="translate(-5.508 -23.511)" fill="#8fb0ec"/>
            <path id="Path_1031695" data-name="Path 1031695" d="M85.687,105.011c-3.35.078-6.719-.059-10.07,0,.175-10.137-.23-20.312,0-30.446,2.441.852,4.1,3.435,4.862,5.806,2.079,6.482,3.812,16.319,5.1,23.191a4.984,4.984,0,0,1,.107,1.448" transform="translate(-18.086 -17.852)" fill="#90b2f0"/>
            <path id="Path_1031696" data-name="Path 1031696" d="M36.153,72.358c.272,6.4.013,13.21,0,19.657-3.3,1.336-6.666,2.813-10.308,2.877,1.031-4.77,1.787-9.656,2.994-14.386.851-3.338,2.007-6.745,5.636-7.908a4.347,4.347,0,0,1,1.678-.24" transform="translate(-6.187 -17.32)" fill="#a0bcf2"/>
            <path id="Path_1031697" data-name="Path 1031697" d="M69.627,99.387A15.545,15.545,0,0,1,65.65,96.76c-.284-.218-.7-.216-.577-.729.51-1.123.934-3.717-.113-4.562-1.279-1.034-3.865.092-5.4.007V87.761c.387-.524,1.1-.31,1.69-.468,2.991-.8,4.819-2.022,5.623-5.164.624-2.438,1.079-3.65-1.895-3.331a7.27,7.27,0,0,0-6.018,4.531,5.766,5.766,0,0,0-1.672-2.646,11.288,11.288,0,0,0-2.763-1.672L55,76.854c3.833.021,7.676-.017,11.508,0,.014-.4-.019-.8,0-1.2h1.679l0-4.556c.245.089.823-.163,1.082.235a7.431,7.431,0,0,1,.365,1.794c.682,7.846.086,18.178-.008,26.258" transform="translate(-13.053 -17.022)" fill="#94dc7b"/>
            <path id="Path_1031698" data-name="Path 1031698" d="M42.864,70.624c.38-.116.843-.65,1.438-.479v6.113c.211.341.478.331.827.371,2.031.239,4.932-.024,7.084-.012l-.48,2.158A6.885,6.885,0,0,0,48,78.758c-.389.554.5,4.084.854,4.811a21.313,21.313,0,0,1-5.993,5.993Z" transform="translate(-10.262 -16.785)" fill="#a1e28e"/>
            <path id="Path_1031699" data-name="Path 1031699" d="M75.641,73.964c.014-.637-.012-1.28,0-1.917a8.82,8.82,0,0,1,6.241,5.863l5.744,26.5c-.637.014-1.281-.014-1.918,0a4.952,4.952,0,0,0-.107-1.447c-1.287-6.872-3.02-16.71-5.1-23.191-.76-2.371-2.421-4.954-4.862-5.806" transform="translate(-18.108 -17.248)" fill="#608edb"/>
            <path id="Path_1031700" data-name="Path 1031700" d="M65.929,70.615c.034.765.23,3.838-.393,4.042-3.143.05-6.294.05-9.435.033a28.575,28.575,0,0,0,.719-6.952V67.5l2.972-.427a7.978,7.978,0,0,0,6.137,3.543" transform="translate(-13.431 -16.057)" fill="#90b2f0"/>
            <path id="Path_1031701" data-name="Path 1031701" d="M54.482,67.8a28.577,28.577,0,0,1-.72,6.952c-2.473-.013-4.957.01-7.43,0V69.115a18.192,18.192,0,0,0,2.637-1.8c1.734.774,3.671.4,5.514.479" transform="translate(-11.092 -16.116)" fill="#a0bdf3"/>
            <path id="Path_1031702" data-name="Path 1031702" d="M42.406,70.785V89.963l-1.438.719c.078-6.494-.049-13-.011-19.5.1-.424,1.154-.308,1.449-.4" transform="translate(-9.803 -16.946)" fill="#86d371"/>
            <path id="Path_1031703" data-name="Path 1031703" d="M42.326,96v14.143c-.558-.016-1.122.013-1.679,0,.062-4.2-.071-8.412-.016-12.615a1.891,1.891,0,0,1,.257-.81Z" transform="translate(-9.724 -22.983)" fill="#6fb855"/>
            <path id="Path_1031704" data-name="Path 1031704" d="M66.156,70.3a7.978,7.978,0,0,1-6.137-3.543l-2.972.427v-.72c.988-.014,4.31-.878,4.872-.69.164.055,1.161,1.382,1.622,1.748a11.059,11.059,0,0,0,2.505,1.33c.227.34.091,1.021.11,1.448" transform="translate(-13.657 -15.74)" fill="#5d8cd8"/>
            <path id="Path_1031705" data-name="Path 1031705" d="M68.117,103.878c-.117.513.294.511.577.729a15.526,15.526,0,0,0,3.977,2.627c-.011.98.071,2.038,0,3-.026.357.186.694-.357.594l-5.048-5.508c-.194-.426.707-1.127.85-1.442" transform="translate(-16.097 -24.869)" fill="#54865e"/>
            <path id="Path_1031706" data-name="Path 1031706" d="M71.957,70.936l0,4.556-1.679,0c.075-1.668-.056-3.364,0-5.034.713-.187,1.183.3,1.677.48" transform="translate(-16.822 -16.857)" fill="#74c158"/>
            <path id="Path_1031707" data-name="Path 1031707" d="M55.312,66.392v.959c-1.842-.081-3.779.3-5.514-.48.3-.288.844-1.357,1.1-1.419a11.152,11.152,0,0,0,4.411.939" transform="translate(-11.922 -15.67)" fill="#719ce0"/>
            <path id="Path_1031708" data-name="Path 1031708" d="M54.577,98.861c.769-.258,3.753.486,5.012.459,2.358-.052,6.023-1.977,4.5,2.341-1.308,3.7-6.975,4.256-9.143,1.082-.519-.761-1.393-3.538-.367-3.882" transform="translate(-12.952 -23.655)" fill="#925425"/>
            <path id="Path_1031709" data-name="Path 1031709" d="M53.2,83.077c3.064.722,4.445,2.914,4.555,5.993a5.8,5.8,0,0,1-5.568-2.953c-.176-.337-.1-.673-.186-.882Z" transform="translate(-12.45 -19.889)" fill="#d5417a"/>
            <path id="Path_1031710" data-name="Path 1031710" d="M67.691,83.077a5.909,5.909,0,0,1-6.233,5.993,6.388,6.388,0,0,1,6.233-5.993" transform="translate(-14.713 -19.889)" fill="#d5417a"/>
            <path id="Path_1031711" data-name="Path 1031711" d="M67.612,82.973a6.388,6.388,0,0,0-6.233,5.993c-.208.486-.28.218-.243-.119A9.454,9.454,0,0,1,62.928,84.4c.663-.68,4.313-2.5,4.684-1.429" transform="translate(-14.634 -19.785)" fill="#cf6789"/>
            <path id="Path_1031712" data-name="Path 1031712" d="M52.975,82.988l-1.2,2.158a5.261,5.261,0,0,1-.718-2.4,4.142,4.142,0,0,1,1.917.238" transform="translate(-12.222 -19.8)" fill="#cf6789"/>
            <path id="Path_1031713" data-name="Path 1031713" d="M37.19,72.45l1.677-.718c.009.158-.006.319,0,.478a4.332,4.332,0,0,0-1.678.24" transform="translate(-8.903 -17.173)" fill="#8fb0ec"/>
            <path id="Path_1031714" data-name="Path 1031714" d="M60.062,113.2l-1.433-5.4a7.3,7.3,0,0,0,5.433-1.038c.364-.033,1.751,1.491,2.116,1.876.882.931,2.4,2.431,3.115,3.358.185.24.465.3.357.72l-7.089-.02c-.458-.08-.311.481-.341.5-.1.067-1.758-.009-2.158,0" transform="translate(-14.036 -25.56)" fill="#94dc7b"/>
            <path id="Path_1031715" data-name="Path 1031715" d="M28.739,87.639c.036.534.011.845-.6.96a52.5,52.5,0,0,1-6.953,0c-.274-.05-.488-.087-.575-.394l4.051-19.5H18.911V67.5h6.232c.638-3.882,1.149-8.071,3.838-11.145a1.358,1.358,0,0,1,.955-.605l0-.348a9.389,9.389,0,0,1-3.28-5.113c-1.053-4.459.755-2.124,2.742-1.784a3.326,3.326,0,0,0,4.155-3.414c.061-2.314-2.217-5.218-2.956-7.613-1.74-5.642-.755-12.247,1.262-17.679-11.985-2.4-4.885-6.515,2.6-6.988a59.538,59.538,0,0,1,1.771-5.78C38.089,2.107,39.868-1.8,45.882.857c.883.389,3.034,2.057,3.633,2.106.444.037,1.517-.729,2.105-.917,7.159-2.281,8.4,6.109,10.432,10.928,1.714.205,7.519,1.209,8.06,2.98.732,2.4-4.248,3.431-5.894,3.606a21.391,21.391,0,0,1,.837,15.578C64.139,38.2,60.4,44.064,63.128,46.9c2.162,2.248,6.088-.427,6.631.367,1.244,3.439-.221,6.668-3.14,8.611,3.123,2.991,3.661,7.549,4.311,11.626h7.191V64.146a7.4,7.4,0,0,1-7.645-6.857c-.193-1.87-.149-2.147,1.742-1.983a7.589,7.589,0,0,1,6.5,4.527,6.669,6.669,0,0,1,4.913-4.2c3.646-.916,3.9-.346,2.945,3.185-.945,3.477-3.774,5.144-7.258,5.326V67.5h8.51l.36,1.2H71.41l3.973,19.674L53.063,88.6l-.352-.961c.03-.02-.117-.58.342-.5l7.089.02c.108-.415-.172-.479-.357-.72-.711-.927-2.233-2.427-3.115-3.358-.365-.386-1.752-1.909-2.116-1.876a7.3,7.3,0,0,1-5.433,1.038l1.433,5.4c-.4.008-.8,0-1.2,0-.5-1.579-.788-4.43-1.492-5.819-.544-1.072-2.78-1.475-3.245-4.186-.743-4.336,2.03-3.9,5.216-3.18V70.378c-2.518.135-5.575-1.282-6.712-3.6-.357-.728-1.244-4.256-.854-4.811A6.894,6.894,0,0,1,46,61.988a11.3,11.3,0,0,1,2.762,1.672,5.757,5.757,0,0,1,1.672,2.646,7.27,7.27,0,0,1,6.018-4.531c2.973-.319,2.519.893,1.895,3.331-.8,3.142-2.631,4.364-5.623,5.164-.591.158-1.3-.057-1.69.467v3.716c1.536.085,4.121-1.041,5.4-.007,1.047.846.623,3.439.113,4.562-.143.315-1.044,1.015-.85,1.442l5.047,5.508c.543.1.331-.237.357-.595.07-.962-.012-2.021,0-3,.094-8.079.691-18.412.009-26.258a7.432,7.432,0,0,0-.365-1.794c-.259-.4-.837-.146-1.082-.234-.494-.179-.964-.668-1.676-.48-.058,1.67.075,3.366,0,5.034-.018.4.016.8,0,1.2-3.833-.018-7.676.019-11.508,0-2.152-.012-5.053.25-7.084.012-.349-.041-.616-.03-.827-.372V53.359c-.6-.17-1.059.364-1.438.479-.3.091-1.347-.026-1.449.4-.039,6.5.088,13,.011,19.5a1.9,1.9,0,0,0-.257.811c-.055,4.2.078,8.414.016,12.614.558.011,1.122-.017,1.679,0,1.216.034,8.491-.231,8.823.06.108.1.024.4.047.419l-.6.96c-4.71-.24-9.717.318-14.391,0-.682-.046-.25-.592-.352-.961.021-.014-.1-.416.157-.483.589-.157,3.522.162,3.68,0,0-4.152-.01-8.314,0-12.466.013-6.448.272-13.254,0-19.658-.007-.159.008-.319,0-.478l-1.677.717c-3.628,1.164-4.785,4.57-5.636,7.909-1.206,4.729-1.962,9.615-2.994,14.386-.69,3.19-1.647,6.352-2.157,9.587l6.665.062c.107.094.024.4.046.419m6.473-72.4c-.06.2-.164.547-.24.72-.3.667-.152.826-1.2.718l.219-1.644c-1.412-1.05-3.4-.388-4.962.138-.548.185-2.781.892-2.2,1.733a22.685,22.685,0,0,0,5.212,1.62c5.635,1.088,11.537,1.088,17.18,1.018,6.553-.08,13.4-.118,19.535-2.639a.967.967,0,0,0-.1-.715c-.42-.71-5.08-1.864-6.016-1.9-.375-.014-.395-.1-.311.311.111.548.9,2.991.682,3.274l-3.456-2.392c-1.167,2.419-3.806,1-6,1.683-2.6-.355-5.207-.112-7.8-.249l2.158-.959c.477.024.961-.017,1.438,0,1.6.055,7.036.29,8.22-.051,1.154-.332.952-1.915.767-2.82L61.1,15A32.594,32.594,0,0,0,58.7,7.812C57.312,4.683,56.344,2.2,52.276,3.181c-1.556.376-3.546,2.27-4.73,2.464-.774.127-.6-.11-.588-.71.417-.32.754-.933,1.438-.962-.1-.589-.932-.541-1.2-.716A10.989,10.989,0,0,0,45.61,2.088c-4.923-2.365-6.347.68-7.941,4.705-1.106,2.794-1.625,5.626-2.457,8.449M31.376,27.229c-.58,4.613-.741,7.282,1.086,11.738.548,1.337,1.793,3.074,2.106,4.367,1.092,4.505-2.461,7.774-6.787,5.949-.189,1.318,1.911,4.928,3.048,5.239.735.2,2.081-.812,2.88-1.107,3.833-1.418,9.49-1.661,9.663-7.143.04-1.272-2.061-2.049-3.02-2.971a17.649,17.649,0,0,1-3.648-5.7c-.237-.593-.68-2.821-.791-2.924-.214-.2-1.675.234-2.672-1.523a5.261,5.261,0,0,1,.05-5.2,3.252,3.252,0,0,1,1.027-1.012c1.157-.662,1.658.081,1.819-1.535a6.3,6.3,0,0,0,.032-1.05l-2.16,0v-1.2c4.544.336,9.825.711,13.666-2.154l-14.469-.933c-1.383,2.1-1.527,4.729-1.832,7.163m31.855-7.162-9.561.692c1.536,2.181,4.385,3.131,6.949,3.357L60.6,25.3l-.7.015c.246,1.668.486.936,1.538,1.459,2.465,1.227,2.683,4.959.988,6.937a3.092,3.092,0,0,1-2.269.967c-.042.04-.087.824-.183,1.132a17.057,17.057,0,0,1-4.624,7.845c-.917.816-2.684,1.412-2.651,2.621.184,6.616,8.812,5.736,12.793,8.719a5.7,5.7,0,0,0,3.411-6.2c-.414-.611-1.6.161-2.188.232-2.475.3-4.681-.628-5.493-3.1-1.309-3.982,2.194-8.768,3.115-12.7a21.494,21.494,0,0,0-1.107-13.156M47.2,45.208c5.578.557,9.438-3.608,11.277-8.5A23.732,23.732,0,0,1,59.3,33.7c.493-.583,1.713.372,2.569-1.267a4.055,4.055,0,0,0-.173-4c-.777-1.034-1.99-.489-2.4-.96l-.835-2.521a13.275,13.275,0,0,1-3.915-1.6c-1.76-1.206-1.652-2.748-4.368-2.369-.706.1-1.814,1.2-2.658,1.656-2.959,1.6-6.565,1.988-9.88,1.986l-.868,2.848c-.33.383-1.2.16-1.752.409-.538.242-.381.561-.53.784a3.228,3.228,0,0,0-.361,3.6c.829,1.854,2.03.815,2.647,1.428.211.211.91,3.126,1.195,3.839,1.6,4.008,4.805,7.234,9.225,7.675m.72,4.315c1.416-.012,2.68-.43,4.077-.479l-.483-3.117a10.382,10.382,0,0,1-3.833.48,7.839,7.839,0,0,1-3.115-.478L44.1,48.654c.205.691,3.131.875,3.816.869M42.4,51.2A18.212,18.212,0,0,1,39.767,53v5.634c2.473.009,4.958-.013,7.431,0,3.142.017,6.292.017,9.436-.033.622-.2.427-3.277.393-4.042-.02-.427.116-1.108-.11-1.448a11.08,11.08,0,0,1-2.506-1.33c-.461-.366-1.458-1.693-1.622-1.748-.561-.189-3.884.676-4.872.69a11.138,11.138,0,0,1-4.411-.939c-.259.062-.8,1.13-1.1,1.419M62.06,56.715c-.23,10.134.173,20.308,0,30.445,3.35-.06,6.72.078,10.069,0,.637-.015,1.282.013,1.918,0L68.3,60.661A8.82,8.82,0,0,0,62.062,54.8c-.014.637.013,1.281,0,1.917m16.06,6.231c-.116-3.979-2.541-6.224-6.47-6.23a6.156,6.156,0,0,0,6.47,6.23m7.671-6.23c-4.008.12-6.374,2.117-6.47,6.231a6.2,6.2,0,0,0,6.47-6.231m-41.71,8.629c.081.208.01.545.186.882a5.8,5.8,0,0,0,5.568,2.953c-.11-3.079-1.491-5.27-4.555-5.993a4.142,4.142,0,0,0-1.917-.238,5.249,5.249,0,0,0,.718,2.4m13.425-2.158c-.371-1.073-4.021.749-4.684,1.429a9.454,9.454,0,0,0-1.793,4.445c-.037.336.035.6.243.119a5.91,5.91,0,0,0,6.233-5.994M46.153,75.206c-1.027.344-.153,3.121.367,3.882,2.168,3.173,7.835,2.62,9.143-1.082,1.526-4.318-2.14-2.393-4.5-2.341-1.26.027-4.243-.716-5.012-.459" transform="translate(-4.527 0)" fill="#080807"/>
            <path id="Path_1031716" data-name="Path 1031716" d="M73.866,26.384A21.5,21.5,0,0,1,74.974,39.54c-.921,3.934-4.424,8.72-3.115,12.7.812,2.47,3.018,3.4,5.493,3.1.591-.071,1.775-.843,2.189-.233a5.7,5.7,0,0,1-3.411,6.2c-3.981-2.982-12.61-2.1-12.793-8.719-.034-1.209,1.733-1.8,2.651-2.62a17.051,17.051,0,0,0,4.623-7.846c.1-.307.141-1.092.183-1.131a3.093,3.093,0,0,0,2.269-.968c1.695-1.978,1.478-5.709-.988-6.936-1.052-.523-1.291.208-1.537-1.459l.7-.016.022-1.182c-2.565-.226-5.413-1.176-6.949-3.357Z" transform="translate(-15.163 -6.316)" fill="#1e2135"/>
            <path id="Path_1031717" data-name="Path 1031717" d="M36.082,36.52a5.261,5.261,0,0,0-.05,5.2c1,1.758,2.457,1.325,2.672,1.524.111.1.554,2.33.791,2.924a17.641,17.641,0,0,0,3.648,5.7c.958.923,3.059,1.7,3.019,2.971-.173,5.482-5.83,5.726-9.663,7.143-.8.3-2.145,1.309-2.88,1.107-1.138-.311-3.238-3.92-3.048-5.238,4.325,1.824,7.879-1.444,6.787-5.95-.313-1.293-1.558-3.029-2.106-4.367-1.828-4.457-1.666-7.126-1.086-11.739Z" transform="translate(-7.316 -8.571)" fill="#3d4050"/>
            <path id="Path_1031718" data-name="Path 1031718" d="M35.3,33.546c.306-2.434.45-5.062,1.832-7.163l14.469.933c-3.841,2.865-9.122,2.49-13.665,2.154v1.2l2.16,0a6.3,6.3,0,0,1-.032,1.05c-.161,1.616-.662.872-1.819,1.535a3.252,3.252,0,0,0-1.027,1.012Z" transform="translate(-8.451 -6.316)" fill="#1e2135"/>
            <path id="Path_1031719" data-name="Path 1031719" d="M56.731,60.863a10.387,10.387,0,0,0,3.834-.48l.482,3.117c-1.4.049-2.66.467-4.077.479Z" transform="translate(-13.582 -14.456)" fill="#925425"/>
            <path id="Path_1031720" data-name="Path 1031720" d="M55.605,60.863l.24,3.116c-.685.006-3.611-.179-3.816-.869l.462-2.726a7.822,7.822,0,0,0,3.115.479" transform="translate(-12.456 -14.456)" fill="#a16c43"/>
            <path id="Path_1031721" data-name="Path 1031721" d="M52.1,51.8A26.178,26.178,0,0,0,39.4,35.255c.149-.224-.008-.542.53-.785.554-.249,1.422-.026,1.752-.409l.868-2.848c3.315,0,6.921-.389,9.88-1.986.843-.455,1.952-1.557,2.658-1.655,2.716-.38,2.608,1.163,4.368,2.369a13.294,13.294,0,0,0,3.915,1.6l.835,2.521c.405.47,1.619-.074,2.4.959a4.055,4.055,0,0,1,.173,4c-.856,1.64-2.076.685-2.569,1.267a23.8,23.8,0,0,0-.824,3.011c-1.839,4.892-5.7,9.056-11.277,8.5M46.52,33.371c-1.59.4-1.439,4.393.39,4.23,2-.178,1.538-4.713-.39-4.23m11.506,0c-1.692.428-1.384,4.387.391,4.23,1.922-.17,1.565-4.725-.391-4.23M50.868,43.443,49.7,43.407c.107,4.2,6.451,4.1,6.474,0l-1.052-.015a2.144,2.144,0,0,1-4.259.052" transform="translate(-9.432 -6.587)" fill="#935526"/>
            <path id="Path_1031722" data-name="Path 1031722" d="M51.866,54.233c-4.42-.441-7.624-3.668-9.225-7.675-.285-.713-.983-3.629-1.195-3.839-.616-.613-1.818.425-2.646-1.428a3.226,3.226,0,0,1,.361-3.6A26.18,26.18,0,0,1,51.866,54.233" transform="translate(-9.196 -9.024)" fill="#a16c43"/>
            <path id="Path_1031723" data-name="Path 1031723" d="M54.113,48.44a2.144,2.144,0,0,0,4.259-.052l1.052.015c-.023,4.1-6.367,4.2-6.474,0Z" transform="translate(-12.676 -11.584)" fill="#060402"/>
            <path id="Path_1031724" data-name="Path 1031724" d="M63.537,35.2c1.956-.5,2.313,4.06.391,4.23-1.774.157-2.083-3.8-.391-4.23" transform="translate(-14.944 -8.419)" fill="#060402"/>
            <path id="Path_1031725" data-name="Path 1031725" d="M48.416,35.2c1.928-.484,2.385,4.052.39,4.23-1.829.163-1.98-3.831-.39-4.23" transform="translate(-11.329 -8.419)" fill="#060402"/>
            <path id="Path_1031726" data-name="Path 1031726" d="M64.719,8.745l-1.438,1.679c.054-.173-.031-.5,0-.72.087-.618.7-1.787-.411-2.114a40.927,40.927,0,0,0-4.49.45c-1.959.359-1.86,2.6.586,2.384.11.343-.345.917.357.965a28.346,28.346,0,0,0,3.719-.486c-1.054,1.93-5.015,4.388-7.015,5.342-.345.165-.788.024-.656.65-.478-.016-.961.024-1.438,0-1.573-.078-3.706-.28-5.274-.479s-3.068-.678-4.554-.959c-.233-.42.234-1.057.24-1.2l4.805.858c.756-1.287-.159-1.123-1.127-1.3-1.057-.192-2.72-.63-3.678-.278a1.285,1.285,0,0,1-.261-.592c-.056-1.351,1.762-1.706,2.658-2.524,1.142.246,5.692,1.567,6-.125C53.089,8.366,51.3,8.9,50.2,8.755a1.7,1.7,0,0,1-.58-.25,22.71,22.71,0,0,1,3.357-2.637c-.013.6-.187.837.588.71,1.183-.194,3.173-2.087,4.729-2.464,4.068-.985,5.036,1.5,6.429,4.631M51.776,12.1l-4.16-.5-.379.837c.155.793,3.5.491,4.16.835Z" transform="translate(-10.543 -0.933)" fill="#7c5639"/>
            <path id="Path_1031727" data-name="Path 1031727" d="M48.222,21.416c2.6.138,5.209-.106,7.8.25,2.191-.68,4.831.736,6-1.684l3.455,2.393c.214-.284-.57-2.727-.682-3.275-.083-.408-.063-.326.311-.311.936.036,5.6,1.189,6.016,1.9a.97.97,0,0,1,.1.715c-6.132,2.521-12.983,2.559-19.535,2.639-5.644.068-11.545.068-17.18-1.018A22.692,22.692,0,0,1,29.3,21.4c-.583-.841,1.651-1.549,2.2-1.733,1.562-.526,3.55-1.189,4.962-.139l-.218,1.644c1.046.109.9-.05,1.2-.718,3.018,1.195,6.224,1.965,9.349.72.485.058.955.214,1.438.24" transform="translate(-6.99 -4.494)" fill="#663a1c"/>
            <path id="Path_1031728" data-name="Path 1031728" d="M52.328,3.654C50.806,4.8,49.262,5.942,47.744,7.1c-.326.249-.723.32-.69.869-.265,0-.627-.318-.959-.137-.373.2-.392.815-.719,1.1-.441.379-1.57.866-2.137,1.339-1.43,1.2-1.037,2.654-1.219,4.414-.993-.053-.959.967-1.679.959.833-2.823,1.352-5.657,2.458-8.449,1.593-4.026,3.017-7.07,7.941-4.706a11.032,11.032,0,0,1,1.587,1.169" transform="translate(-9.658 -0.396)" fill="#7c5639"/>
            <path id="Path_1031729" data-name="Path 1031729" d="M68.279,10.271a32.6,32.6,0,0,1,2.4,7.191L67.917,15.55c.186.906.387,2.489-.767,2.821-1.184.341-6.615.106-8.22.051-.132-.627.311-.485.656-.65,2-.955,5.961-3.413,7.015-5.342a1.824,1.824,0,0,0,.24-.48Z" transform="translate(-14.102 -2.459)" fill="#663a1c"/>
            <path id="Path_1031730" data-name="Path 1031730" d="M41.945,18.78c.06,0,.959.195,1.2.24,1.486.281,3,.761,4.554.959l.264,1.174a13.1,13.1,0,0,0,1.415.025c-3.125,1.246-6.331.475-9.348-.72.075-.172.179-.516.239-.719.72.008.685-1.012,1.679-.959" transform="translate(-9.583 -4.496)" fill="#a16c43"/>
            <path id="Path_1031731" data-name="Path 1031731" d="M54.44,4.283c.266.175,1.1.127,1.2.716-.684.028-1.021.641-1.438.961A22.75,22.75,0,0,0,50.844,8.6c-.519-.054-1.137,0-1.678,0-.033-.548.364-.619.69-.869,1.518-1.158,3.061-2.3,4.584-3.446" transform="translate(-11.77 -1.025)" fill="#2d2b2a"/>
            <path id="Path_1031732" data-name="Path 1031732" d="M55.387,20.836l-2.159.959c-.484-.026-.954-.183-1.438-.24a13.1,13.1,0,0,1-1.415-.025l-.264-1.174c1.568.2,3.7.4,5.275.479" transform="translate(-11.997 -4.874)" fill="#2d2b2a"/>
            <path id="Path_1031733" data-name="Path 1031733" d="M48.639,9.9c.541,0,1.159-.054,1.678,0a1.719,1.719,0,0,0,.58.25c1.1.148,2.893-.389,2.543,1.543-.307,1.692-4.857.371-6,.124l-.479-.958c.327-.281.345-.892.719-1.1.332-.181.694.135.959.137" transform="translate(-11.243 -2.323)" fill="#a16c43"/>
            <path id="Path_1031734" data-name="Path 1031734" d="M67.365,10.863c-1.382-.118-3.06.609-4.315.72C60.6,11.8,60.506,9.558,62.464,9.2a40.741,40.741,0,0,1,4.49-.45c1.107.327.5,1.5.411,2.114" transform="translate(-14.626 -2.092)" fill="#a16c43"/>
            <path id="Path_1031735" data-name="Path 1031735" d="M45.9,11.217l.479.959c-.9.818-2.714,1.174-2.658,2.524a1.283,1.283,0,0,0,.262.592c.009.237.009.482,0,.719-.006.141-.472.779-.24,1.2-.239-.045-1.137-.237-1.2-.24.183-1.759-.211-3.218,1.219-4.414.567-.474,1.7-.96,2.137-1.339" transform="translate(-10.186 -2.685)" fill="#2d2b2a"/>
            <path id="Path_1031736" data-name="Path 1031736" d="M44.439,16.533c.958-.352,2.621.085,3.678.278.968.176,1.883.012,1.126,1.3l-4.8-.857c.009-.237.01-.483,0-.72" transform="translate(-10.639 -3.926)" fill="#080807"/>
            <path id="Path_1031737" data-name="Path 1031737" d="M67.966,11.528c-.032.222.054.546,0,.72a1.817,1.817,0,0,1-.24.479,28.493,28.493,0,0,1-3.719.486c-.7-.049-.246-.622-.357-.965,1.255-.11,2.933-.837,4.315-.72" transform="translate(-15.227 -2.757)" fill="#0c0a0b"/>
            <path id="Path_1031738" data-name="Path 1031738" d="M52.783,14.527,52.4,15.7c-.664-.345-4-.043-4.16-.835l.379-.837Z" transform="translate(-11.55 -3.358)" fill="#060402"/>
            <rect id="Rectangle_408724" data-name="Rectangle 408724" width="2.404" height="1.204" transform="translate(84.376 67.501) rotate(-0.072)" fill="#101010"/>
            <path id="Path_1031739" data-name="Path 1031739" d="M94.72,80.8a6.158,6.158,0,0,1-6.47-6.23c3.929.006,6.355,2.251,6.47,6.23" transform="translate(-21.127 -17.852)" fill="#d5417a"/>
            <path id="Path_1031740" data-name="Path 1031740" d="M104.805,74.569a6.2,6.2,0,0,1-6.47,6.231c.1-4.114,2.462-6.111,6.47-6.231" transform="translate(-23.542 -17.852)" fill="#d5417a"/>
            <path id="Path_1031741" data-name="Path 1031741" d="M12.856,77.212l1.581-2.368c.706-1.184,6.035-2.915,6.7-1.959.573.822-.478,4.143-.96,5.063-1.237,2.362-4.017,3.525-6.6,3.585.1.945-.14,2.105-.021,3.01.046.352.881.619.5,1.542h-2.16c-.381-.923.453-1.19.5-1.542.119-.905-.119-2.066-.021-3.01A7.393,7.393,0,0,1,4.73,74.912c-.185-1.717-.342-2.366,1.525-2.251,2.762.17,5.725,1.8,6.6,4.551m-.483,3.117a6.363,6.363,0,0,0-6.47-6.47,6.171,6.171,0,0,0,6.47,6.47m7.671-6.47c-3.839.187-6.432,2.534-6.47,6.47a6.211,6.211,0,0,0,6.47-6.47" transform="translate(-1.107 -17.382)" fill="#0c0a0b"/>
            <path id="Path_1031742" data-name="Path 1031742" d="M22.86,74.253a6.211,6.211,0,0,1-6.47,6.47c.038-3.937,2.631-6.283,6.47-6.47" transform="translate(-3.924 -17.777)" fill="#d4427a"/>
            <path id="Path_1031743" data-name="Path 1031743" d="M12.776,80.724a6.171,6.171,0,0,1-6.47-6.47,6.362,6.362,0,0,1,6.47,6.47" transform="translate(-1.51 -17.777)" fill="#d5417a"/>
          </g>
        </g>
      </g>
    </g>
  </g>
</svg>
