<svg xmlns="http://www.w3.org/2000/svg" xmlns:xlink="http://www.w3.org/1999/xlink" width="88.284" height="111.721" viewBox="0 0 88.284 111.721">
  <defs>
    <filter id="Rectangle_401593" x="0" y="0" width="75.588" height="111.721" filterUnits="userSpaceOnUse">
      <feOffset dy="3" input="SourceAlpha"/>
      <feGaussianBlur stdDeviation="3" result="blur"/>
      <feFlood flood-opacity="0.161"/>
      <feComposite operator="in" in2="blur"/>
      <feComposite in="SourceGraphic"/>
    </filter>
  </defs>
  <g id="Group_1199978" data-name="Group 1199978" transform="translate(6875.313 7128.265)">
    <g id="Group_1199974" data-name="Group 1199974" transform="translate(-6866.313 -7122.265)">
      <g id="Group_1199972" data-name="Group 1199972" transform="translate(0)">
        <g id="Group_1182090" data-name="Group 1182090" transform="translate(0 0)">
          <g transform="matrix(1, 0, 0, 1, -9, -6)" filter="url(#Rectangle_401593)">
            <rect id="Rectangle_401593-2" data-name="Rectangle 401593" width="57.588" height="93.721" rx="8" transform="translate(9 6)" fill="#9ad354"/>
          </g>
        </g>
      </g>
    </g>
    <g id="policy_7839234" transform="translate(-6866.313 -7110.384)">
      <g id="Group_1199401" data-name="Group 1199401" transform="translate(1.066 1.066)">
        <path id="Path_1031154" data-name="Path 1031154" d="M141.314,7.5H82.142a2.566,2.566,0,0,0-2.566,2.566V84.641a2.566,2.566,0,0,0,2.566,2.566h51.474a2.566,2.566,0,0,0,2.566-2.566V29.37Z" transform="translate(-69.294 -7.5)" fill="#e5eef9"/>
        <path id="Path_1031155" data-name="Path 1031155" d="M86.155,87.207H82.146a2.566,2.566,0,0,1-2.566-2.566V10.066A2.566,2.566,0,0,1,82.146,7.5h4.009a2.566,2.566,0,0,0-2.566,2.566V84.641A2.566,2.566,0,0,0,86.155,87.207Z" transform="translate(-69.298 -7.5)" fill="#d5e3f4"/>
        <path id="Path_1031156" data-name="Path 1031156" d="M264.7,69.778H262a5.943,5.943,0,0,0-5.944,5.944v2.7h2.7a5.943,5.943,0,0,0,5.943-5.944Z" transform="translate(-217.47 -59.79)" fill="#bbec6c"/>
        <path id="Path_1031157" data-name="Path 1031157" d="M202.14,105.121v2.7a5.943,5.943,0,0,0,5.944,5.943h2.7v-2.7a5.943,5.943,0,0,0-5.944-5.944Z" transform="translate(-172.202 -89.465)" fill="#bbec6c"/>
        <path id="Path_1031158" data-name="Path 1031158" d="M28.531,237.052a1.6,1.6,0,0,1-1.42,0c-2.627-1.3-11.645-6.187-11.645-12.016V209.744a1.6,1.6,0,0,1,.476-1.14c1.643-1.623,2.841-2.705,4.485-4.33a1.607,1.607,0,0,1,1.129-.465H34.087a1.608,1.608,0,0,1,1.129.465c1.644,1.625,2.842,2.707,4.485,4.33a1.6,1.6,0,0,1,.476,1.14v15.291C40.176,230.865,31.158,235.752,28.531,237.052Z" transform="translate(-15.466 -172.327)" fill="#fff0ad"/>
        <path id="Path_1031159" data-name="Path 1031159" d="M440.874,29.37h-8.34V12.632A5.132,5.132,0,0,1,437.666,7.5h0a5.132,5.132,0,0,1,5.132,5.132V27.446A1.925,1.925,0,0,1,440.874,29.37Z" transform="translate(-365.646 -7.5)" fill="#e5eef9"/>
        <path id="Path_1031160" data-name="Path 1031160" d="M439.668,7.906a5.133,5.133,0,0,0-3.129,4.726V29.37H432.53V12.632a5.137,5.137,0,0,1,7.138-4.726Z" transform="translate(-365.643 -7.5)" fill="#d5e3f4"/>
        <path id="Path_1031161" data-name="Path 1031161" d="M60.557,250.224c0,.659-.858,2.4-4.077,4.758a31.834,31.834,0,0,1-2.826,1.835,1.279,1.279,0,0,1-1.281,0,32.082,32.082,0,0,1-2.827-1.835c-3.217-2.354-4.075-4.1-4.075-4.758V236.814a1.281,1.281,0,0,1,.4-.935l1.835-1.721a1.283,1.283,0,0,1,.877-.348H57.44a1.283,1.283,0,0,1,.877.348l1.835,1.721a1.281,1.281,0,0,1,.4.935Z" transform="translate(-40.658 -197.515)" fill="#ffe177"/>
        <path id="Path_1031162" data-name="Path 1031162" d="M20.758,225.036V209.745a1.6,1.6,0,0,1,.476-1.14c1.643-1.623,2.841-2.705,4.485-4.33a1.607,1.607,0,0,1,1.129-.465H21.555a1.608,1.608,0,0,0-1.129.465c-1.644,1.625-2.842,2.707-4.485,4.33a1.6,1.6,0,0,0-.476,1.14v15.291c0,5.829,9.018,10.716,11.645,12.016a1.6,1.6,0,0,0,1.42,0c.47-.233,1.145-.581,1.936-1.027C26.838,233.973,20.758,229.823,20.758,225.036Z" transform="translate(-15.466 -172.327)" fill="#ffe177"/>
        <path id="Path_1031163" data-name="Path 1031163" d="M53.555,254.983c-3.217-2.354-4.075-4.1-4.075-4.758V236.814a1.281,1.281,0,0,1,.4-.935l1.835-1.721a1.283,1.283,0,0,1,.877-.348H48.586a1.283,1.283,0,0,0-.877.348l-1.835,1.721a1.281,1.281,0,0,0-.4.935v13.411c0,.659.858,2.4,4.075,4.758a32.094,32.094,0,0,0,2.827,1.835,1.279,1.279,0,0,0,1.281,0c.429-.249.89-.528,1.364-.833C54.538,255.677,54.045,255.342,53.555,254.983Z" transform="translate(-40.658 -197.515)" fill="#ffd15b"/>
      </g>
      <g id="Group_1199402" data-name="Group 1199402" transform="translate(0 0)">
        <path id="Trazado_1031164" data-name="Trazado 1031164" d="M132.687,294.391H81.212a3.636,3.636,0,0,1-3.632-3.632V277.633a1.066,1.066,0,0,1,2.133,0v13.125a1.5,1.5,0,0,0,1.5,1.5h51.474a1.5,1.5,0,0,0,1.5-1.5V253.166a1.066,1.066,0,1,1,2.133,0v37.592A3.636,3.636,0,0,1,132.687,294.391Z" transform="translate(-67.298 -212.551)"/>
        <path id="Línea_695" data-name="Línea 695" d="M-.934,12.2A1.066,1.066,0,0,1-2,11.131V-.934A1.066,1.066,0,0,1-.934-2,1.066,1.066,0,0,1,.133-.934V11.131A1.066,1.066,0,0,1-.934,12.2Z" transform="translate(68.889 23.87)"/>
        <path id="Trazado_1031165" data-name="Trazado 1031165" d="M78.646,39.116A1.066,1.066,0,0,1,77.58,38.05V9.132A3.636,3.636,0,0,1,81.212,5.5h59.171a1.066,1.066,0,0,1,0,2.133H81.212a1.5,1.5,0,0,0-1.5,1.5V38.05A1.066,1.066,0,0,1,78.646,39.116Z" transform="translate(-67.298 -5.5)"/>
        <path id="Trazado_1031166" data-name="Trazado 1031166" d="M26.887,237.351a2.682,2.682,0,0,1-1.183-.277,38.556,38.556,0,0,1-7.01-4.44c-3.469-2.838-5.229-5.709-5.229-8.532V208.811a2.685,2.685,0,0,1,.792-1.9c.827-.817,1.551-1.507,2.252-2.174s1.416-1.349,2.232-2.155a2.657,2.657,0,0,1,1.879-.773H33.154a2.658,2.658,0,0,1,1.878.772c.817.807,1.536,1.492,2.232,2.155s1.425,1.358,2.252,2.174a2.686,2.686,0,0,1,.792,1.9V224.1c0,2.823-1.759,5.694-5.229,8.532a38.557,38.557,0,0,1-7.01,4.44A2.682,2.682,0,0,1,26.887,237.351Zm-6.266-33.408a.537.537,0,0,0-.38.157c-.83.821-1.557,1.513-2.261,2.183s-1.411,1.344-2.224,2.147a.539.539,0,0,0-.159.381V224.1c0,2.681,2.418,5.222,4.446,6.881a37.048,37.048,0,0,0,6.605,4.179.532.532,0,0,0,.474,0,37.047,37.047,0,0,0,6.606-4.179c2.028-1.659,4.446-4.2,4.446-6.881V208.811a.539.539,0,0,0-.159-.381c-.813-.8-1.53-1.486-2.224-2.147s-1.43-1.362-2.261-2.183a.545.545,0,0,0-.38-.157Z" transform="translate(-13.466 -170.327)"/>
        <path id="Trazado_1031167" data-name="Trazado 1031167" d="M52.079,257.121a2.344,2.344,0,0,1-1.175-.315,33,33,0,0,1-2.923-1.9,16.789,16.789,0,0,1-3.464-3.231,4.3,4.3,0,0,1-1.048-2.388V235.88a2.356,2.356,0,0,1,.741-1.713l1.835-1.721a2.339,2.339,0,0,1,1.607-.637h8.854a2.34,2.34,0,0,1,1.607.637l1.834,1.72a2.356,2.356,0,0,1,.741,1.713v4.906a1.066,1.066,0,1,1-2.133,0V235.88a.216.216,0,0,0-.067-.157L56.655,234a.218.218,0,0,0-.148-.059H47.652a.218.218,0,0,0-.147.059l-1.835,1.721a.216.216,0,0,0-.067.157v13.4a3.267,3.267,0,0,0,.688,1.206,14.921,14.921,0,0,0,2.951,2.7,30.862,30.862,0,0,0,2.733,1.773.212.212,0,0,0,.212,0,30.606,30.606,0,0,0,2.73-1.772,14.928,14.928,0,0,0,2.953-2.7,3.266,3.266,0,0,0,.688-1.206V246.4a1.066,1.066,0,1,1,2.133,0v2.892a4.3,4.3,0,0,1-1.048,2.388,16.786,16.786,0,0,1-3.465,3.231,32.745,32.745,0,0,1-2.92,1.9A2.346,2.346,0,0,1,52.079,257.121Z" transform="translate(-38.658 -195.515)"/>
        <path id="Línea_696" data-name="Línea 696" d="M-.934,13.787A1.066,1.066,0,0,1-2,12.72V-.934A1.066,1.066,0,0,1-.934-2,1.066,1.066,0,0,1,.133-.934V12.72A1.066,1.066,0,0,1-.934,13.787Z" transform="translate(40.585 20.635)"/>
        <path id="Trazado_1031168" data-name="Trazado 1031168" d="M261.065,67.778h2.062a1.71,1.71,0,0,1,1.708,1.708v2.062a7.01,7.01,0,0,1-7.01,7.01h-2.7a1.066,1.066,0,0,1-1.066-1.066v-2.7a7.01,7.01,0,0,1,7.01-7.01Zm1.637,2.133h-1.637a4.883,4.883,0,0,0-4.877,4.877v1.637h1.637a4.883,4.883,0,0,0,4.877-4.877Z" transform="translate(-215.47 -57.79)"/>
        <path id="Trazado_1031169" data-name="Trazado 1031169" d="M201.848,103.121h2.062a7.01,7.01,0,0,1,7.01,7.01v2.7a1.066,1.066,0,0,1-1.066,1.066h-2.7a7.01,7.01,0,0,1-7.01-7.01v-2.062A1.71,1.71,0,0,1,201.848,103.121Zm6.939,8.647v-1.637a4.883,4.883,0,0,0-4.877-4.877h-1.637v1.637a4.883,4.883,0,0,0,4.877,4.877Z" transform="translate(-170.202 -87.465)"/>
        <path id="Línea_697" data-name="Línea 697" d="M33.358.133H-.934A1.066,1.066,0,0,1-2-.934,1.066,1.066,0,0,1-.934-2H33.358A1.066,1.066,0,0,1,34.424-.934,1.066,1.066,0,0,1,33.358.133Z" transform="translate(26.71 42.195)"/>
        <path id="Línea_698" data-name="Línea 698" d="M33.358.133H-.934A1.066,1.066,0,0,1-2-.934,1.066,1.066,0,0,1-.934-2H33.358A1.066,1.066,0,0,1,34.424-.934,1.066,1.066,0,0,1,33.358.133Z" transform="translate(26.71 47.006)"/>
        <path id="Línea_699" data-name="Línea 699" d="M33.358.133H-.934A1.066,1.066,0,0,1-2-.934,1.066,1.066,0,0,1-.934-2H33.358A1.066,1.066,0,0,1,34.424-.934,1.066,1.066,0,0,1,33.358.133Z" transform="translate(26.71 51.818)"/>
        <path id="Línea_700" data-name="Línea 700" d="M33.675.133H-.934A1.066,1.066,0,0,1-2-.934,1.066,1.066,0,0,1-.934-2H33.675A1.066,1.066,0,0,1,34.742-.934,1.066,1.066,0,0,1,33.675.133Z" transform="translate(26.392 56.629)"/>
        <path id="Línea_701" data-name="Línea 701" d="M27.551.133H-.934A1.066,1.066,0,0,1-2-.934,1.066,1.066,0,0,1-.934-2H27.551A1.066,1.066,0,0,1,28.617-.934,1.066,1.066,0,0,1,27.551.133Z" transform="translate(22.992 61.44)"/>
        <path id="Trazado_1031170" data-name="Trazado 1031170" d="M293,420.231a1.387,1.387,0,0,1-1.345-1.051l-.5-1.992-1.038,1.73a1.387,1.387,0,0,1-2.3.123l-1.424-1.883-.8,2.186a1.066,1.066,0,0,1-2-.731l1.267-3.472a1.387,1.387,0,0,1,2.41-.36l1.583,2.094,1.4-2.328a1.387,1.387,0,0,1,2.535.377l.675,2.7,2.021-1.369a1.383,1.383,0,0,1,.778-.239h4.025a1.066,1.066,0,0,1,0,2.133h-3.8l-2.714,1.839A1.386,1.386,0,0,1,293,420.231Z" transform="translate(-240.221 -348.379)"/>
        <path id="Trazado_1031171" data-name="Trazado 1031171" d="M439.94,29.5H431.6a1.066,1.066,0,0,1-1.066-1.066V11.7a6.2,6.2,0,0,1,12.4,0V26.512A2.994,2.994,0,0,1,439.94,29.5Zm-7.273-2.133h7.273a.859.859,0,0,0,.858-.858V11.7a4.066,4.066,0,1,0-8.131,0Z" transform="translate(-363.646 -5.5)"/>
      </g>
    </g>
  </g>
</svg>
