<svg id="Group_1199957" data-name="Group 1199957" xmlns="http://www.w3.org/2000/svg" xmlns:xlink="http://www.w3.org/1999/xlink" width="169.155" height="216.951" viewBox="0 0 169.155 216.951">
  <defs>
    <clipPath id="clip-path">
      <rect id="Rectangle_408743" data-name="Rectangle 408743" width="169.155" height="216.951" fill="none"/>
    </clipPath>
  </defs>
  <g id="Group_1199956" data-name="Group 1199956" clip-path="url(#clip-path)">
    <path id="Path_1031785" data-name="Path 1031785" d="M35.129,377.157h9.325c.19,1.817.677,2.335,2.119,3.391H15.208c1.442-1.056,1.929-1.574,2.119-3.391Z" transform="translate(-6.597 -163.596)" fill="#fdfbf9"/>
    <path id="Path_1031786" data-name="Path 1031786" d="M247.388,377.112a8.126,8.126,0,0,0,1.461.426c2.613.1,5.253-.08,7.863,0,.209,1.527,1,2.08,2.119,2.966H227.043c1.788-.9,2.333-1.333,2.543-3.391,5.919.138,11.886-.186,17.8,0" transform="translate(-98.482 -163.551)" fill="#fdfbf9"/>
    <path id="Path_1031787" data-name="Path 1031787" d="M101.011,21.132c1.41-6.313,5.485-13.956,10.4-18.213,4.348-3.768,6.219-3.934,10.8-.229,2.984,2.413,6.1,7.05,7.7,10.529,1.3,2.834,2.2,8.233,3.367,10.2.668,1.126,3.806,2.765,5.042,3.859,11.78,10.428,14.121,23.683,13.2,38.929,3.749,2.552,7.03,5.355,7.562,10.24a104.489,104.489,0,0,1-.193,18.038c-.542,3.452-2.169,5.4-4.693,7.6-2.109,1.836-2.779.522-2.211,4.355,2.423,16.356,22.575,23.647,15.778,42.275-2.26,6.192-8.15,11.721-14.617,13.15,6.174,5.325,10.83,12.621,11.46,20.959.763,10.124-.621,21.176,0,31.4.05,1.431-1.295,1.869-2.14,2.734H160.35c-1.119-.887-1.91-1.441-2.119-2.967-1.469-10.739,2.277-26.482-1.367-36.568a23.637,23.637,0,0,0-13.652-13.473,30.962,30.962,0,0,1-2.359,3.417c-2.371,3.256-9.148,11.734-9.638,15.157-1.354,9.452.877,21.392-.11,31.043-.211,2.057-.755,2.487-2.543,3.391h-2.119c-.734-1.082-1.74-1.939-2.543-2.967-2.84-3.633-5.673-7.419-8.477-11.02-.263-.337-1.126-2.906-1.9-2.541-3.158,4.048-6.3,8.107-9.544,12.09-.3.368-.319.924-.421,1.047a15.633,15.633,0,0,1-3.815,3.391H97.62c-.8-1.233-2.075-2.248-2.967-3.391-3.37-4.316-6.273-9.05-9.961-13.132-3.691,4.178-6.781,8.894-10.384,13.132a20.653,20.653,0,0,1-3.391,3.391H68.8c-.906-.977-2.644-2.418-3.391-3.391-.184-.24-.244-1.254-.742-1.579l-8.795-11.553c-3.864,4.038-6.861,8.835-10.385,13.132a22.877,22.877,0,0,1-3.391,3.391H39.976c-1.442-1.057-1.929-1.574-2.119-3.391-1.115-10.632,1.441-22.779-.764-33.357L25.954,163.992a18.671,18.671,0,0,0-6.747,3.793c-13.629,10.956-6.875,30.507-8.477,45.776-.19,1.816-.677,2.334-2.119,3.391H6.492c-.845-.865-2.19-1.3-2.14-2.734.682-10.428-.867-21.877.076-32.179.732-8,5.5-15.06,11.388-20.182C8.678,160.382,1.468,152.99.324,145.766c-2.879-18.189,14.287-23.366,16.653-39.334.568-3.833-.1-2.519-2.211-4.355-2.524-2.2-4.151-4.145-4.693-7.6A104.488,104.488,0,0,1,9.88,76.442c.531-4.884,3.812-7.688,7.562-10.24-.576-12.993.394-24.4,8.983-34.673C42.67,12.1,67.173,19.625,89.364,18.156a3.259,3.259,0,0,1,3.169,2.976,3.225,3.225,0,0,1-2.78,3.366c-11.867.712-24.668-.869-36.421.031A31.851,31.851,0,0,0,24.717,49.107h77.989c-2.426-8.863-3.719-18.913-1.7-27.974M114.574,8.841c-5.376,5.415-8.08,13.2-8.049,20.769l9.2-5c2.109-.577,3.853.751,5.632,1.608.724.349,5.538,3.407,5.931,2.965A31.3,31.3,0,0,0,121.108,11a30.483,30.483,0,0,0-3.34-3.456c-1.678-1-2.251.351-3.195,1.3m7.205,25.007c-1.23-.651-3.943-2.68-5.2-2.478l-9.646,5.305c.483,7.676,3.416,15.949,7.221,22.6a29.3,29.3,0,0,0,2.018,3.28c.22.272.509,1.158.952.753a62.6,62.6,0,0,0,9.189-21.757c1.225-6.406.541-5.025-4.529-7.708m10.6,9.325c-.377,1.995-.96,3.928-1.27,5.932,1.126.023,2.263-.022,3.389,0,3.241.07,6.506-.049,9.747,0a32.65,32.65,0,0,0-9.965-16.948c-.954-.177-.591.416-.632,1.048a76.672,76.672,0,0,1-1.27,9.969m-92.4,12.292H25.353a9.9,9.9,0,0,0-1.484,1.484v8.689h7.417Zm33.06,0h-17.8c1.038,1.2,8.351,8.995,9.055,8.87Zm37.3,10.172-5.3-10.172H89.143c2.741,3.776,6.306,6.825,9.537,10.172Zm25.007-10.172a40.863,40.863,0,0,0-6.789.2l-5.083,9.752a117.877,117.877,0,0,0,11.872.216c3.244-.014,6.506.01,9.749,0V56.948c0-2.1-8.081-1.509-9.749-1.484M56.083,65.637c-.854-1.3-8.342-8.612-9.068-8.459-2.3,2.844-5.122,5.359-7.039,8.459Zm33.484,0C88.3,64.531,82.14,57.145,81.3,57.145a66.707,66.707,0,0,0-9.113,8.492ZM24.294,98.273c1.684.074,3.4-.053,5.086,0V71.994c-1.686.054-3.4-.075-5.086,0-4.973.22-7.658.974-8.071,6.552a99.911,99.911,0,0,0,.016,14.006c.557,4.973,3.849,5.535,8.055,5.721m101.3-26.279c-29.944-.189-59.914.143-89.859,0,.523,10.914-.686,22.449-.015,33.292.068,1.1.791,7.349,1.5,7.39,2.735-1.212,7.12-6.614,9.986-3.615,3.888,4.069-5.027,7.866-7.6,9.62-.7,1.185,4.348,8.227,5.726,9.232,2.975-1.348,6.986-7.848,10.49-5.852,5.184,2.953-2.911,7.846-5.032,9.705-.238.208-.83.551-.44.844a38.74,38.74,0,0,0,21.206,7.2c10.594.611,28.22.993,37.931-2.538,3.279-1.193,6.648-2.463,9.317-4.874-.73-1.09-2.07-1.557-2.959-2.331-2.14-1.863-5.766-4.171-3.593-7.2,2.2-3.054,5.437.121,7.408,1.686.634.5,3.208,3.49,3.968,3.359,1.512-1.09,6.536-7.781,5.7-9.214-1.678-1.247-3.772-2.282-5.43-3.47-.7-.5-2.35-1.57-2.653-2.218-1.447-3.091,1.232-5.942,4.349-4.564,1.092.483,5.334,4.419,6.136,4.241.441-.246.479-.656.642-1.065s.851-3.907.851-4.235V71.994c-2.538-.012-5.092.016-7.63,0m19.921,0c-1.96-.116-3.97.083-5.934,0V98.273c1.96-.1,3.98.138,5.934,0,2.971-.21,6.137-.9,7.006-4.226.616-2.357.493-13.529.221-16.352-.424-4.4-3.371-5.474-7.227-5.7M45.486,159.308c.039,1.305-1.075,3.391-2.331,3.391H32.77c2.544,4.752,7.214,9.179,9.668,13.856a21.807,21.807,0,0,1,1.776,4.581v23.1c4.7-3.866,8.046-14.767,15.681-9.112l9.715,13.08.874.267a1.876,1.876,0,0,1,.426-1.041c2.988-3.393,6.942-9.9,9.961-12.525,7.323-6.365,13.928,9.833,18.232,13.561,3.213-3.58,5.894-8.148,9.124-11.637,2.121-2.291,3.282-3.75,6.771-3.19,3.768.6,6.684,8.063,9.748,10.172V181.136a21.808,21.808,0,0,1,1.776-4.581c2.406-4.586,6.985-9.094,9.665-13.647a69.912,69.912,0,0,0-8.9-.209c-1.777-.01-12.131-.243-12.741.187-1.648,7.161-7.381,13.3-14.787,14.458-6.17.96-22.583.768-29.071.206-8.924-.774-17.146-9.039-16.3-18.241.426-4.653,4.515-2.344,7.75-3.058,3.587-.792,1.459-8.037,1.955-10.887-19.321-3.347-34.418-21.094-34.71-40.734l-5.75.4c-.909,7.535-4.379,14.435-8.742,20.5-5.141,7.153-11.138,10.916-7.455,21.176,5.3,14.769,24.272,7.867,35.693,9.659,1.7.267,2.31,1.29,2.358,2.94m92.823-44.5c-3.762,14.724-18.365,28.272-33.44,30.559.289,2.1-.907,9.334.824,10.322a9.367,9.367,0,0,0,3.144.671c10.521.878,26.375.488,37.1-.015,7.574-.355,15.017-3.455,16.34-11.846,1.541-9.77-3.326-12.169-8.208-18.962a48.542,48.542,0,0,1-8.951-20.719l-5.541-.186a55.512,55.512,0,0,1-1.27,10.175M90.838,146.168c-6.775-.042-13.57.032-20.345,0v9.961a25.945,25.945,0,0,1-1.51,2.728A9.757,9.757,0,0,1,61.17,162.7c.642,3.609,3.823,6.674,7.217,7.827,4.342,1.474,21.579.868,27.114.648,3.2-.127,4.158.012,7.064-1.625,2.568-1.447,4.853-3.831,5.23-6.85a11.156,11.156,0,0,1-6.784-2.545c-.16-.147-.779-.755-.848-.848a30.057,30.057,0,0,1-1.7-3.179v-9.961c-2.538-.012-5.092.016-7.629,0" transform="translate(0 0)" fill="#030202"/>
    <path id="Path_1031788" data-name="Path 1031788" d="M119.945,37.32c-2.023,9.061-.731,19.111,1.7,27.974H43.652A31.85,31.85,0,0,1,72.267,40.716c11.753-.9,24.554.681,36.421-.031a3.225,3.225,0,0,0,2.78-3.366Z" transform="translate(-18.935 -16.188)" fill="#9d9696"/>
    <path id="Path_1031789" data-name="Path 1031789" d="M50.31,239.458c-.049-1.649-.653-2.673-2.358-2.94-11.421-1.791-30.391,5.11-35.693-9.659-3.683-10.26,2.313-14.023,7.455-21.175,4.362-6.069,7.833-12.969,8.742-20.5l5.75-.4c.292,19.641,15.389,37.386,34.71,40.734-.5,2.85,1.632,10.095-1.955,10.887-3.235.715-7.324-1.595-7.751,3.058Z" transform="translate(-4.824 -80.15)" fill="#9c9595"/>
    <path id="Path_1031790" data-name="Path 1031790" d="M218.538,202.747c1.98,2.557,3.3,5.525,5.165,8.187,2.73,3.9,6.6,7.123,8.3,11.624a18.168,18.168,0,0,1-1.491,16.531l-4.341,5.2c-10.727.5-26.58.893-37.1.015a9.367,9.367,0,0,1-3.143-.671c-1.731-.989-.536-8.217-.825-10.322,15.076-2.288,29.679-15.835,33.441-30.559" transform="translate(-80.229 -87.944)" fill="#9d9696"/>
    <path id="Path_1031791" data-name="Path 1031791" d="M137.7,258.129c-.332,7.855-.9,14.569,9.325,13.14.069.092.688.7.848.848-.262,4.4-2.449,8.018-5.51,11.02-5.535.22-22.772.826-27.114-.648-3.393-1.152-6.575-4.218-7.217-7.827a9.757,9.757,0,0,0,7.814-3.844,25.944,25.944,0,0,0,1.51-2.728v-9.961c6.775.032,13.57-.043,20.345,0" transform="translate(-46.858 -111.96)" fill="#fdbb85"/>
    <path id="Path_1031792" data-name="Path 1031792" d="M251.889,236.491l4.341-5.2a18.168,18.168,0,0,0,1.491-16.531c-1.7-4.5-5.567-7.721-8.3-11.624-1.861-2.661-3.184-5.63-5.165-8.187a55.512,55.512,0,0,0,1.27-10.174l5.541.185a48.548,48.548,0,0,0,8.951,20.719c4.883,6.792,9.749,9.191,8.208,18.961-1.323,8.391-8.766,11.491-16.34,11.846" transform="translate(-105.951 -80.15)" fill="#8b8585"/>
    <path id="Path_1031793" data-name="Path 1031793" d="M36.538,127.145v26.279c-4.205-.185-7.5-.748-8.054-5.721a100,100,0,0,1-.017-14.006c.413-5.577,3.1-6.332,8.071-6.552" transform="translate(-12.244 -55.151)" fill="#fbcfa1"/>
    <path id="Path_1031794" data-name="Path 1031794" d="M252.439,127.117c.614,1.6,1.5,2.616,1.7,4.45.352,3.246.439,16.007-.289,18.786-.3,1.16-1.159,1.91-1.407,3.044-1.954.138-3.974-.1-5.934,0V127.117c1.964.083,3.974-.116,5.934,0" transform="translate(-106.924 -55.122)" fill="#fdd1a3"/>
    <path id="Path_1031795" data-name="Path 1031795" d="M178.622,108.124H166.966c-3.231-3.347-6.8-6.4-9.537-10.172h15.894Z" transform="translate(-68.287 -42.488)" fill="#fb636e"/>
    <path id="Path_1031796" data-name="Path 1031796" d="M256.985,153.424c.248-1.133,1.1-1.884,1.407-3.044.728-2.779.642-15.539.289-18.786-.2-1.833-1.083-2.851-1.7-4.449,3.855.227,6.8,1.3,7.227,5.7.272,2.823.395,14-.221,16.352-.869,3.328-4.035,4.016-7.006,4.226" transform="translate(-111.47 -55.151)" fill="#f7b883"/>
    <path id="Path_1031797" data-name="Path 1031797" d="M42.9,127.127c1.685-.075,3.4.054,5.086,0v26.279c-1.686-.053-3.4.075-5.086,0Z" transform="translate(-18.61 -55.132)" fill="#fab983"/>
    <path id="Path_1031798" data-name="Path 1031798" d="M58.261,97.952l-8.689,10.172H42.155V99.436a9.929,9.929,0,0,1,1.483-1.484Z" transform="translate(-18.285 -42.488)" fill="#fb636e"/>
    <path id="Path_1031799" data-name="Path 1031799" d="M233.78,67.78a76.574,76.574,0,0,0,1.27-9.969c.042-.632-.322-1.225.632-1.048a32.651,32.651,0,0,1,9.965,16.948c-3.241-.046-6.506.073-9.747,0a10,10,0,0,0-.961-4.783c-.262-.661-.109-1.37-1.159-1.151" transform="translate(-101.405 -24.608)" fill="#8b8585"/>
    <path id="Path_1031800" data-name="Path 1031800" d="M203.691,57.867c-1.069,8.2-2.516,16.944-6.436,24.315-.317.595-.165,1.341-1.194,1.116-3.805-6.656-6.738-14.928-7.221-22.6l9.646-5.306c1.261-.2,3.974,1.828,5.2,2.479" transform="translate(-81.912 -24.019)" fill="#f6f0ee"/>
    <path id="Path_1031801" data-name="Path 1031801" d="M202.957,32.988c-1.779-.857-3.523-2.185-5.632-1.608l-9.2,5c-.031-7.571,2.672-15.354,8.049-20.768.962-.055,1.1.632,1.536,1.22,3.293,4.434,5,10.7,5.246,16.158" transform="translate(-81.602 -6.77)" fill="#9cc8ff"/>
    <path id="Path_1031802" data-name="Path 1031802" d="M201.593,85.208c1.028.225.877-.522,1.193-1.116,3.92-7.372,5.367-16.116,6.436-24.315,5.07,2.682,5.755,1.3,4.529,7.708a62.61,62.61,0,0,1-9.189,21.757c-.443.4-.732-.481-.952-.753a29.243,29.243,0,0,1-2.018-3.28" transform="translate(-87.443 -25.929)" fill="#efe6e2"/>
    <path id="Path_1031803" data-name="Path 1031803" d="M202.342,14.347c.944-.951,1.517-2.3,3.195-1.3a30.528,30.528,0,0,1,3.34,3.456,31.3,31.3,0,0,1,6.179,18.188c-.393.442-5.208-2.616-5.931-2.965-.245-5.463-1.954-11.725-5.246-16.158-.437-.587-.574-1.275-1.536-1.22" transform="translate(-87.768 -5.507)" fill="#6c8bb1"/>
    <path id="Path_1031804" data-name="Path 1031804" d="M239.02,97.878c1.668-.025,9.748-.621,9.748,1.484v8.689c-3.243.01-6.5-.013-9.748,0Z" transform="translate(-103.678 -42.414)" fill="#fb4755"/>
    <path id="Path_1031805" data-name="Path 1031805" d="M160.317,258.137c2.537.016,5.092-.012,7.63,0V268.1a30.059,30.059,0,0,0,1.7,3.179c-10.224,1.43-9.657-5.285-9.325-13.14" transform="translate(-69.479 -111.968)" fill="#f1a66a"/>
    <path id="Path_1031806" data-name="Path 1031806" d="M229.925,97.922v10.172a117.886,117.886,0,0,1-11.872-.216l5.083-9.752a40.933,40.933,0,0,1,6.79-.2" transform="translate(-94.583 -42.458)" fill="#fb636e"/>
    <path id="Path_1031807" data-name="Path 1031807" d="M115.348,97.952l-8.747,8.87c-.7.125-8.016-7.67-9.055-8.87Z" transform="translate(-42.312 -42.488)" fill="#fb636e"/>
    <path id="Path_1031808" data-name="Path 1031808" d="M144.866,109.412H127.488a66.807,66.807,0,0,1,9.112-8.492c.838,0,7,7.387,8.265,8.492" transform="translate(-55.299 -43.775)" fill="#7dce5f"/>
    <path id="Path_1031809" data-name="Path 1031809" d="M86.706,109.435H70.6c1.917-3.1,4.737-5.615,7.038-8.459.725-.153,8.213,7.161,9.068,8.459" transform="translate(-30.624 -43.799)" fill="#7dce5f"/>
    <path id="Path_1031810" data-name="Path 1031810" d="M174.168,282.841a11.16,11.16,0,0,0,6.784,2.546c-.377,3.019-2.661,5.4-5.229,6.849-2.906,1.637-3.861,1.5-7.064,1.625,3.061-3,5.248-6.618,5.51-11.02" transform="translate(-73.157 -122.685)" fill="#f1a66a"/>
    <path id="Path_1031811" data-name="Path 1031811" d="M148.979,377.157c.892,1.143,2.164,2.157,2.967,3.391h-26.7a20.606,20.606,0,0,0,3.39-3.391Z" transform="translate(-54.326 -163.596)" fill="#fcf4f4"/>
    <path id="Path_1031812" data-name="Path 1031812" d="M97.653,377.157c.747.973,2.485,2.414,3.391,3.391h-26.7a22.856,22.856,0,0,0,3.391-3.391Z" transform="translate(-32.246 -163.596)" fill="#f7f7fb"/>
    <path id="Path_1031813" data-name="Path 1031813" d="M191.4,377.126a2.188,2.188,0,0,0,1.026.441c2.615.105,5.263-.111,7.875-.017.8,1.027,1.809,1.885,2.544,2.967h-26.7a15.641,15.641,0,0,0,3.814-3.391c3.8.092,7.644-.126,11.444,0" transform="translate(-76.404 -163.565)" fill="#f7f7fb"/>
    <path id="Path_1031814" data-name="Path 1031814" d="M79.49,281.344c-.844,9.2,7.378,17.467,16.3,18.241,6.487.563,22.9.755,29.071-.206,7.406-1.153,13.14-7.3,14.788-14.458.61-.43,10.963-.2,12.741-.187.189.952-.392,1.306-.815,1.939-2.677,4-6.317,7.893-8.855,11.915-3.537,5.6-2.532,10.725-2.622,17.087-3.489-.56-4.649.9-6.771,3.19-3.229,3.489-5.911,8.056-9.124,11.636-4.3-3.728-10.909-19.926-18.232-13.561-3.019,2.624-6.973,9.132-9.961,12.525a1.873,1.873,0,0,0-.426,1.041l-.874-.268L85,317.16c-7.635-5.655-10.984,5.247-15.681,9.112v-23.1a21.783,21.783,0,0,0-1.776-4.581c-2.454-4.678-7.124-9.1-9.667-13.856H68.258c1.255,0,2.369-2.085,2.331-3.391Z" transform="translate(-25.104 -122.036)" fill="#f7f1ef"/>
    <path id="Path_1031815" data-name="Path 1031815" d="M215.331,287.3a69.9,69.9,0,0,1,8.9.209c-2.68,4.553-7.259,9.061-9.665,13.647a21.81,21.81,0,0,0-1.776,4.581v22.676c-3.064-2.11-5.981-9.568-9.749-10.172.091-6.362-.914-11.483,2.622-17.087,2.538-4.022,6.179-7.916,8.855-11.915.423-.632,1-.986.815-1.939" transform="translate(-88.042 -124.605)" fill="#f0e7e3"/>
    <path id="Path_1031816" data-name="Path 1031816" d="M36.525,342.091h-17.8c1.6-15.27-5.152-34.82,8.477-45.776,4.138,5.113,8.826,9.841,9.341,16.726.7,9.365-.556,19.6-.016,29.05" transform="translate(-7.993 -128.53)" fill="#febc85"/>
    <path id="Path_1031817" data-name="Path 1031817" d="M249.076,341.765c-5.915-.186-11.883.138-17.8,0,.988-9.65-1.243-21.59.11-31.043.49-3.423,7.267-11.9,9.639-15.157.961-.039,1.131.591,1.617,1.138,10.307,11.6,5.194,30.8,6.436,45.062" transform="translate(-100.171 -128.204)" fill="#febc85"/>
    <path id="Path_1031818" data-name="Path 1031818" d="M266.129,339.572c-2.61-.078-5.25.107-7.863,0a8.119,8.119,0,0,1-1.461-.427c-1.242-14.257,3.87-33.457-6.436-45.062-.486-.548-.655-1.176-1.617-1.138a31.031,31.031,0,0,0,2.359-3.417A23.638,23.638,0,0,1,264.762,303c3.645,10.086-.1,25.829,1.367,36.568" transform="translate(-107.899 -125.588)" fill="#f4a86b"/>
    <path id="Path_1031819" data-name="Path 1031819" d="M33.921,293.41a18.653,18.653,0,0,1,6.747-3.793l11.139,16.212c2.2,10.577-.352,22.725.764,33.356H43.246c-.54-9.455.717-19.685.016-29.05-.515-6.884-5.2-11.612-9.341-16.726" transform="translate(-14.714 -125.625)" fill="#f4a86b"/>
    <path id="Path_1031820" data-name="Path 1031820" d="M151.576,367.1H131.23c3.6-4.238,6.693-8.953,10.385-13.132,3.688,4.082,6.591,8.816,9.961,13.132" transform="translate(-56.923 -153.537)" fill="#fb636e"/>
    <path id="Path_1031821" data-name="Path 1031821" d="M100.251,367.1H80.33c3.523-4.3,6.52-9.094,10.385-13.132l8.795,11.553c.5.325.558,1.34.741,1.579" transform="translate(-34.844 -153.537)" fill="#9cc8ff"/>
    <path id="Path_1031822" data-name="Path 1031822" d="M182.88,367.066c.1-.123.122-.679.421-1.046,3.239-3.983,6.386-8.042,9.543-12.091.777-.365,1.64,2.2,1.9,2.541-.971,3.3-.165,7.16-.424,10.6-3.8-.126-7.641.092-11.444,0" transform="translate(-79.326 -153.505)" fill="#9cc8ff"/>
    <path id="Path_1031823" data-name="Path 1031823" d="M211.938,369.463c-2.613-.093-5.26.123-7.875.017a2.178,2.178,0,0,1-1.026-.441c.259-3.435-.546-7.291.424-10.6,2.8,3.6,5.637,7.387,8.477,11.02" transform="translate(-88.039 -155.479)" fill="#6c8bb1"/>
    <path id="Path_1031824" data-name="Path 1031824" d="M232.807,76.213c1.049-.219.9.49,1.159,1.151a10,10,0,0,1,.961,4.783c-1.126-.025-2.264.02-3.39,0,.31-2,.894-3.937,1.27-5.931" transform="translate(-100.432 -33.041)" fill="#9c9595"/>
    <path id="Path_1031825" data-name="Path 1031825" d="M152.8,127.1v36.452c-3.117-1.379-5.8,1.473-4.349,4.563.3.648,1.954,1.717,2.653,2.217a21.18,21.18,0,0,1-4.239,9.325c-1.97-1.566-5.212-4.741-7.407-1.686-2.173,3.025,1.453,5.333,3.593,7.2-1.322,2.868-4.6,4.593-6.358,7.2-9.71,3.532-27.337,3.15-37.931,2.54a38.746,38.746,0,0,1-21.206-7.2c-.39-.294.2-.636.44-.845,2.121-1.858,10.216-6.752,5.032-9.7-3.505-2-7.515,4.5-10.49,5.851-1.378-1-6.423-8.046-5.726-9.231,2.571-1.755,11.486-5.553,7.6-9.62-2.866-3-7.251,2.4-9.986,3.614-.708-.04-1.431-6.292-1.5-7.389-.671-10.843.538-22.378.015-33.291,29.945.144,59.915-.187,89.859,0M81.724,138.255c-1.324,1.209-1.3,8.362-.892,10.159.736,3.277,5.716,3.4,6.242.063a55.4,55.4,0,0,0-.061-9.211c-.618-2.11-3.733-2.433-5.289-1.012m59.935-.017c-1.459-1.454-4.7-1.03-5.3,1.029a55.4,55.4,0,0,0-.061,9.211c.526,3.337,5.506,3.214,6.242-.063.4-1.768.371-8.932-.878-10.176m-39.021,27.555a3.754,3.754,0,0,0-3.242,3.45c.241,3.73,9.2,5.244,12.077,5.243,3.113,0,16.612-2.35,11.469-7.569-2.239-2.272-3.857-.358-6.169.238a20.9,20.9,0,0,1-8.158.524c-1.807-.246-4.744-1.95-5.977-1.887" transform="translate(-27.203 -55.105)" fill="#fcd0a3"/>
    <path id="Path_1031826" data-name="Path 1031826" d="M221.8,127.143c2.537.016,5.092-.012,7.629,0v35.392c0,.328-.692,3.835-.851,4.235s-.2.819-.642,1.065c-.8.178-5.044-3.758-6.136-4.241Z" transform="translate(-96.21 -55.148)" fill="#f2b582"/>
    <path id="Path_1031827" data-name="Path 1031827" d="M215.563,203.5c1.657,1.188,3.752,2.222,5.43,3.47.835,1.434-4.188,8.124-5.7,9.215-.759.13-3.333-2.856-3.968-3.36a21.184,21.184,0,0,0,4.238-9.325" transform="translate(-91.665 -88.269)" fill="#fab983"/>
    <path id="Path_1031828" data-name="Path 1031828" d="M193.359,236.9c1.763-2.612,5.037-4.337,6.358-7.205.89.775,2.229,1.241,2.959,2.332-2.669,2.411-6.038,3.681-9.317,4.874" transform="translate(-83.872 -99.633)" fill="#f7b883"/>
    <path id="Path_1031829" data-name="Path 1031829" d="M130.733,195.478c1.233-.063,4.17,1.64,5.977,1.887a20.9,20.9,0,0,0,8.158-.524c2.311-.6,3.929-2.51,6.169-.238,5.143,5.218-8.355,7.568-11.469,7.569-2.874,0-11.836-1.512-12.077-5.243a3.754,3.754,0,0,1,3.242-3.45" transform="translate(-55.299 -84.79)" fill="#050403"/>
    <path id="Path_1031830" data-name="Path 1031830" d="M95.414,146.183c1.555-1.421,4.67-1.1,5.289,1.012a55.394,55.394,0,0,1,.061,9.21c-.526,3.337-5.506,3.214-6.242-.062-.4-1.8-.432-8.951.892-10.16" transform="translate(-40.894 -63.033)" fill="#050403"/>
    <path id="Path_1031831" data-name="Path 1031831" d="M197.9,146.159c1.249,1.244,1.275,8.408.878,10.176-.736,3.276-5.716,3.4-6.242.062a55.393,55.393,0,0,1,.061-9.21c.6-2.059,3.844-2.482,5.3-1.028" transform="translate(-83.445 -63.026)" fill="#050403"/>
  </g>
</svg>
