<svg xmlns="http://www.w3.org/2000/svg" xmlns:xlink="http://www.w3.org/1999/xlink" width="146.191" height="198" viewBox="0 0 146.191 198">
  <defs>
    <filter id="Rectangle_401593" x="0" y="0" width="113.807" height="198" filterUnits="userSpaceOnUse">
      <feOffset dy="3" input="SourceAlpha"/>
      <feGaussianBlur stdDeviation="3" result="blur"/>
      <feFlood flood-opacity="0.161"/>
      <feComposite operator="in" in2="blur"/>
      <feComposite in="SourceGraphic"/>
    </filter>
  </defs>
  <g id="Group_1200346" data-name="Group 1200346" transform="translate(6962.721 8786.516)">
    <g transform="matrix(1, 0, 0, 1, -6962.72, -8786.52)" filter="url(#Rectangle_401593)">
      <rect id="Rectangle_401593-2" data-name="Rectangle 401593" width="95.806" height="180" rx="8" transform="translate(9 6)" fill="#f5fbee"/>
    </g>
    <g id="farmer_9420512" transform="translate(-6931.77 -8758.938)">
      <g id="Group_1102489" data-name="Group 1102489" transform="translate(0 0.001)">
        <path id="Path_876347" data-name="Path 876347" d="M216.909,268.4l16.955-11.173a5.427,5.427,0,0,1-5.352-5.427V230.06H200.283V251.8a5.428,5.428,0,0,1-5.352,5.427L213.5,268.464A3.188,3.188,0,0,0,216.909,268.4Z" transform="translate(-157.152 -159.119)" fill="#ffb09e"/>
        <path id="Path_876348" data-name="Path 876348" d="M233.864,257.226,216.909,268.4a3.182,3.182,0,0,1-3.4.067l-18.574-11.239a5.427,5.427,0,0,0,5.352-5.428V230.062h28.229V251.8A5.427,5.427,0,0,0,233.864,257.226Z" transform="translate(-157.152 -159.12)" fill="#ffb09e"/>
        <path id="Path_876349" data-name="Path 876349" d="M76.412,446.007v14.82a3.825,3.825,0,0,0,3.825,3.825H187.077a3.825,3.825,0,0,0,3.825-3.825v-14.82Z" transform="translate(-76.412 -306.232)" fill="#ffb09e"/>
        <path id="Path_876350" data-name="Path 876350" d="M190.9,336.24a20.719,20.719,0,0,0-20.432-20.717l-17.347-.241-16.955,11.173a3.188,3.188,0,0,1-3.4.066L114.19,315.282l-17.347.241A20.719,20.719,0,0,0,76.411,336.24v20.712H190.9Z" transform="translate(-76.411 -217.176)" fill="#ffe177"/>
        <path id="Path_876351" data-name="Path 876351" d="M201.656,148.844H138.332a8.58,8.58,0,0,1-8.581-8.581h0a8.581,8.581,0,0,1,8.581-8.581h63.325a8.581,8.581,0,0,1,8.581,8.581h0A8.581,8.581,0,0,1,201.656,148.844Z" transform="translate(-112.749 -92.1)" fill="#ffa78f"/>
        <path id="Path_876352" data-name="Path 876352" d="M239.95,230.062v21.063a37.5,37.5,0,0,1-28.229,0V230.062Z" transform="translate(-168.59 -159.12)" fill="#ffa78f"/>
        <path id="Path_876353" data-name="Path 876353" d="M192.8,140.705h0a29.57,29.57,0,0,0,29.57-29.57V93.716a18.09,18.09,0,0,0-18.09-18.09H181.325a18.09,18.09,0,0,0-18.09,18.09v17.42A29.57,29.57,0,0,0,192.8,140.705Z" transform="translate(-135.559 -53.911)" fill="#ffcebf"/>
        <path id="Path_876354" data-name="Path 876354" d="M258.965,75.625H251a18.09,18.09,0,0,1,18.09,18.09v17.42a29.574,29.574,0,0,1-25.585,29.3,29.822,29.822,0,0,0,3.984.268h0a29.57,29.57,0,0,0,29.57-29.57V93.715A18.09,18.09,0,0,0,258.965,75.625Z" transform="translate(-190.24 -53.91)" fill="#ffb09e"/>
        <path id="Path_876355" data-name="Path 876355" d="M354.85,336.24a20.718,20.718,0,0,0-20.432-20.716l-17.347-.242,9.378.242a20.718,20.718,0,0,1,20.432,20.716v20.711h7.969Z" transform="translate(-240.36 -217.176)" fill="#ffd15b"/>
        <path id="Path_876356" data-name="Path 876356" d="M402.416,446.007v14.82a3.824,3.824,0,0,1-3.825,3.825h7.969a3.824,3.824,0,0,0,3.825-3.825v-14.82Z" transform="translate(-295.895 -306.232)" fill="#ffa78f"/>
        <path id="Path_876357" data-name="Path 876357" d="M218.69,16.35a6.344,6.344,0,0,0-3.971-4.494c-15.58-5.708-31.7-5.908-48.435.02a6.359,6.359,0,0,0-4.05,4.524L159.8,26.583h61.326Z" transform="translate(-133.223 -7.502)" fill="#e8ad8c"/>
        <path id="Path_876358" data-name="Path 876358" d="M152.566,67.361l-3.387,14.2h68.1l-3.387-14.2Z" transform="translate(-125.984 -48.281)" fill="#ffe177"/>
        <path id="Path_876359" data-name="Path 876359" d="M173.947,335.208h-9.563V304.4a1.912,1.912,0,0,1,1.913-1.913h5.738a1.912,1.912,0,0,1,1.913,1.913Z" transform="translate(-136.342 -208.463)" fill="#68ca44"/>
        <path id="Path_876360" data-name="Path 876360" d="M327.181,335.208h-9.563V304.4a1.912,1.912,0,0,1,1.913-1.913h5.738a1.912,1.912,0,0,1,1.913,1.913Z" transform="translate(-240.732 -208.463)" fill="#68ca44"/>
        <path id="Path_876361" data-name="Path 876361" d="M156.317,387.513h59.207a3.187,3.187,0,0,1,3.188,3.188v34.1H153.129V390.7A3.187,3.187,0,0,1,156.317,387.513Z" transform="translate(-128.675 -266.383)" fill="#ade194"/>
        <path id="Path_876362" data-name="Path 876362" d="M238.231,462.374H206.98V445.212a2.55,2.55,0,0,1,2.55-2.55h26.152a2.55,2.55,0,0,1,2.55,2.55v17.162Z" transform="translate(-165.361 -303.953)" fill="#eaf6ff"/>
        <path id="Path_876363" data-name="Path 876363" d="M239.285,229.127h0a7.715,7.715,0,0,1-7.715-7.715v-.368a1.912,1.912,0,0,1,1.912-1.913h11.606A1.912,1.912,0,0,1,247,221.044v.368A7.715,7.715,0,0,1,239.285,229.127Z" transform="translate(-182.112 -151.673)" fill="#eaf6ff"/>
        <path id="Path_876364" data-name="Path 876364" d="M331.842,387.513h-7.969a3.188,3.188,0,0,1,3.188,3.188v34.1h7.969V390.7A3.188,3.188,0,0,0,331.842,387.513Z" transform="translate(-244.993 -266.383)" fill="#80d261"/>
        <path id="Path_876365" data-name="Path 876365" d="M282.54,445.212v17.162h-7.969V445.212a2.549,2.549,0,0,0-2.55-2.55h7.969A2.549,2.549,0,0,1,282.54,445.212Z" transform="translate(-209.669 -303.953)" fill="#d8ecfe"/>
        <path id="Path_876366" data-name="Path 876366" d="M335.167,67.361H327.2l3.387,14.2h7.969Z" transform="translate(-247.259 -48.281)" fill="#ffd15b"/>
        <path id="Path_876367" data-name="Path 876367" d="M276.268,16.356a6.344,6.344,0,0,0-3.971-4.494A68.726,68.726,0,0,0,244.324,7.63a69.949,69.949,0,0,1,20,4.232,6.344,6.344,0,0,1,3.971,4.494l2.441,10.233h7.969Z" transform="translate(-190.801 -7.508)" fill="#e19974"/>
        <path id="Path_876368" data-name="Path 876368" d="M202.916,109.2H116.744a1.912,1.912,0,0,1-1.913-1.913h0a8.606,8.606,0,0,1,8.606-8.606h72.784a8.606,8.606,0,0,1,8.606,8.606h0A1.912,1.912,0,0,1,202.916,109.2Z" transform="translate(-102.584 -69.619)" fill="#e8ad8c"/>
        <path id="Path_876369" data-name="Path 876369" d="M353.14,98.683h-7.969a8.606,8.606,0,0,1,8.606,8.606h0a1.912,1.912,0,0,1-1.912,1.913h7.969a1.912,1.912,0,0,0,1.913-1.913h0A8.606,8.606,0,0,0,353.14,98.683Z" transform="translate(-259.503 -69.619)" fill="#e19974"/>
      </g>
      <g id="Group_1102490" data-name="Group 1102490" transform="translate(0 0)">
        <path id="Path_876370" data-name="Path 876370" d="M162.86,315.712l7.609.105A20.718,20.718,0,0,1,190.9,336.533v35.532a3.824,3.824,0,0,1-3.825,3.825H80.236a3.824,3.824,0,0,1-3.825-3.825V336.533a20.718,20.718,0,0,1,20.432-20.716l7.609-.105" transform="translate(-76.411 -217.468)" fill="none" stroke="#000" stroke-linecap="round" stroke-linejoin="round" stroke-miterlimit="10" stroke-width="1.5"/>
        <path id="Path_876371" data-name="Path 876371" d="M300.281,268.572v9.461a5.427,5.427,0,0,0,5.352,5.428l.175,0" transform="translate(-228.921 -185.354)" fill="none" stroke="#000" stroke-linecap="round" stroke-linejoin="round" stroke-miterlimit="10" stroke-width="1.5"/>
        <path id="Path_876372" data-name="Path 876372" d="M199.908,268.572v9.461a5.427,5.427,0,0,1-5.352,5.428l-.175,0" transform="translate(-156.778 -185.354)" fill="none" stroke="#000" stroke-linecap="round" stroke-linejoin="round" stroke-miterlimit="10" stroke-width="1.5"/>
        <path id="Path_876373" data-name="Path 876373" d="M348.761,131.682h2.094a8.581,8.581,0,1,1,0,17.162h-2.091" transform="translate(-261.948 -92.098)" fill="none" stroke="#000" stroke-linecap="round" stroke-linejoin="round" stroke-miterlimit="10" stroke-width="1.5"/>
        <path id="Path_876374" data-name="Path 876374" d="M140.423,148.844h-2.091a8.581,8.581,0,1,1,0-17.162h2.094" transform="translate(-112.749 -92.098)" fill="none" stroke="#000" stroke-linecap="round" stroke-linejoin="round" stroke-miterlimit="10" stroke-width="1.5"/>
        <path id="Path_876375" data-name="Path 876375" d="M222.37,131.682c0,.073,0,.15,0,.223v17.42a29.571,29.571,0,0,1-59.142,0v-17.42c0-.073,0-.15,0-.223" transform="translate(-135.557 -92.098)" fill="none" stroke="#000" stroke-linecap="round" stroke-linejoin="round" stroke-miterlimit="10" stroke-width="1.5"/>
        <line id="Line_563" data-name="Line 563" y2="2.55" transform="translate(70.993 49.439)" fill="none" stroke="#000" stroke-linecap="round" stroke-linejoin="round" stroke-miterlimit="10" stroke-width="1.5"/>
        <path id="Path_876376" data-name="Path 876376" d="M152.331,36.565l4.81-20.168a6.363,6.363,0,0,1,4.051-4.523c16.731-5.929,32.854-5.728,48.435-.019a6.344,6.344,0,0,1,3.972,4.494l4.823,20.215" transform="translate(-128.131 -7.5)" fill="none" stroke="#000" stroke-linecap="round" stroke-linejoin="round" stroke-miterlimit="10" stroke-width="1.5"/>
        <line id="Line_564" data-name="Line 564" y2="2.55" transform="translate(43.498 49.439)" fill="none" stroke="#000" stroke-linecap="round" stroke-linejoin="round" stroke-miterlimit="10" stroke-width="1.5"/>
        <line id="Line_565" data-name="Line 565" x2="1.661" transform="translate(56.415 57.896)" fill="none" stroke="#000" stroke-linecap="round" stroke-linejoin="round" stroke-miterlimit="10" stroke-width="1.5"/>
        <line id="Line_566" data-name="Line 566" x1="24.238" transform="translate(90.035 139.778)" fill="none" stroke="#000" stroke-linecap="round" stroke-linejoin="round" stroke-miterlimit="10" stroke-width="1.5"/>
        <line id="Line_567" data-name="Line 567" x1="24.238" transform="translate(0.217 139.778)" fill="none" stroke="#000" stroke-linecap="round" stroke-linejoin="round" stroke-miterlimit="10" stroke-width="1.5"/>
        <path id="Path_876377" data-name="Path 876377" d="M151.293,109.2h51.622a1.915,1.915,0,0,0,1.913-1.913,8.607,8.607,0,0,0-8.606-8.606H123.437a8.608,8.608,0,0,0-8.606,8.606,1.914,1.914,0,0,0,1.913,1.913h23.393" transform="translate(-102.584 -69.617)" fill="none" stroke="#000" stroke-linecap="round" stroke-linejoin="round" stroke-miterlimit="10" stroke-width="1.5"/>
        <line id="Line_568" data-name="Line 568" x2="61.182" transform="translate(26.582 19.081)" fill="none" stroke="#000" stroke-linecap="round" stroke-linejoin="round" stroke-miterlimit="10" stroke-width="1.5"/>
        <path id="Path_876378" data-name="Path 876378" d="M164.381,329.592V304.4a1.914,1.914,0,0,1,1.913-1.913h5.738a1.912,1.912,0,0,1,1.913,1.913v25.188" transform="translate(-136.34 -208.462)" fill="none" stroke="#000" stroke-linecap="round" stroke-linejoin="round" stroke-miterlimit="10" stroke-width="1.5"/>
        <path id="Path_876379" data-name="Path 876379" d="M317.621,329.592V304.4a1.912,1.912,0,0,1,1.913-1.913h5.738a1.914,1.914,0,0,1,1.913,1.913v25.188" transform="translate(-240.734 -208.462)" fill="none" stroke="#000" stroke-linecap="round" stroke-linejoin="round" stroke-miterlimit="10" stroke-width="1.5"/>
        <path id="Path_876380" data-name="Path 876380" d="M156.317,387.513h59.207a3.187,3.187,0,0,1,3.188,3.188v34.1H153.129V390.7A3.187,3.187,0,0,1,156.317,387.513Z" transform="translate(-128.675 -266.382)" fill="none" stroke="#000" stroke-linecap="round" stroke-linejoin="round" stroke-miterlimit="10" stroke-width="1.5"/>
        <path id="Path_876381" data-name="Path 876381" d="M206.981,462.374V445.212a2.549,2.549,0,0,1,2.55-2.55h26.151a2.549,2.549,0,0,1,2.55,2.55v1.728" transform="translate(-165.361 -303.952)" fill="none" stroke="#000" stroke-linecap="round" stroke-linejoin="round" stroke-miterlimit="10" stroke-width="1.5"/>
        <path id="Path_876382" data-name="Path 876382" d="M194.931,315.283,213.5,326.522a3.186,3.186,0,0,0,3.4-.066l16.954-11.173" transform="translate(-157.152 -217.176)" fill="none" stroke="#000" stroke-linecap="round" stroke-linejoin="round" stroke-miterlimit="10" stroke-width="1.5"/>
        <path id="Path_876383" data-name="Path 876383" d="M239.285,229.127h0a7.715,7.715,0,0,1-7.715-7.715v-.368a1.912,1.912,0,0,1,1.912-1.913h11.606A1.912,1.912,0,0,1,247,221.044v.368A7.715,7.715,0,0,1,239.285,229.127Z" transform="translate(-182.112 -151.673)" fill="none" stroke="#000" stroke-linecap="round" stroke-linejoin="round" stroke-miterlimit="10" stroke-width="1.5"/>
        <line id="Line_569" data-name="Line 569" y1="4.278" transform="translate(72.87 154.144)" fill="none" stroke="#000" stroke-linecap="round" stroke-linejoin="round" stroke-miterlimit="10" stroke-width="1.5"/>
      </g>
    </g>
  </g>
</svg>
