<svg xmlns="http://www.w3.org/2000/svg" xmlns:xlink="http://www.w3.org/1999/xlink" width="88.284" height="117.059" viewBox="0 0 88.284 117.059">
  <defs>
    <filter id="Rectangle_401593" x="0" y="0" width="78.868" height="117.059" filterUnits="userSpaceOnUse">
      <feOffset dy="3" input="SourceAlpha"/>
      <feGaussianBlur stdDeviation="3" result="blur"/>
      <feFlood flood-opacity="0.161"/>
      <feComposite operator="in" in2="blur"/>
      <feComposite in="SourceGraphic"/>
    </filter>
  </defs>
  <g id="Group_1200329" data-name="Group 1200329" transform="translate(6878.44 6625.188)">
    <g id="Group_1199982" data-name="Group 1199982" transform="translate(-6869.44 -6619.188)">
      <g id="Group_1199972" data-name="Group 1199972" transform="translate(0)">
        <g id="Group_1182090" data-name="Group 1182090" transform="translate(0 0)">
          <g transform="matrix(1, 0, 0, 1, -9, -6)" filter="url(#Rectangle_401593)">
            <rect id="Rectangle_401593-2" data-name="Rectangle 401593" width="60.868" height="99.059" rx="8" transform="translate(9 6)" fill="#9ad354"/>
          </g>
        </g>
      </g>
    </g>
    <g id="environment_18363950" transform="translate(-6881.614 -6609.434)">
      <g id="Group_1197917" data-name="Group 1197917" transform="translate(13.312 10.124)">
        <path id="Path_909708" data-name="Path 909708" d="M321.409,16a5.3,5.3,0,0,0,0,8.458,5.3,5.3,0,0,0,0-8.458Z" transform="translate(-270.508 -16)" fill="#50bc5d" fill-rule="evenodd"/>
        <path id="Path_909709" data-name="Path 909709" d="M340.709,57.18a5.3,5.3,0,0,0-8.458,0,5.3,5.3,0,0,0,8.458,0Z" transform="translate(-281.35 -48.722)" fill="#50bc5d" fill-rule="evenodd"/>
        <path id="Path_909710" data-name="Path 909710" d="M280.229,57.18a5.3,5.3,0,0,0,8.458,0,5.3,5.3,0,0,0-8.458,0Z" transform="translate(-237.786 -48.722)" fill="#50bc5d" fill-rule="evenodd"/>
        <path id="Path_909711" data-name="Path 909711" d="M332.156,217.159a12.34,12.34,0,0,1,13-13,12.34,12.34,0,0,1-13,13Z" transform="translate(-281.254 -173.551)" fill="#50bc5d" fill-rule="evenodd"/>
        <path id="Path_909712" data-name="Path 909712" d="M265.2,217.159a12.34,12.34,0,0,0-13-13,12.34,12.34,0,0,0,13,13Z" transform="translate(-214.294 -173.551)" fill="#50bc5d" fill-rule="evenodd"/>
        <path id="Path_909713" data-name="Path 909713" d="M332.117,99.367A17.339,17.339,0,0,1,350.384,81.1a17.339,17.339,0,0,1-18.268,18.267Z" transform="translate(-281.216 -70.494)" fill="#50bc5d" fill-rule="evenodd"/>
        <path id="Path_909714" data-name="Path 909714" d="M238.027,99.367A17.339,17.339,0,0,0,219.76,81.1a17.339,17.339,0,0,0,18.267,18.267Z" transform="translate(-187.126 -70.494)" fill="#50bc5d" fill-rule="evenodd"/>
        <path id="Path_909715" data-name="Path 909715" d="M261.66,114.5l-9.05-9.05a.975.975,0,1,1,1.379-1.379l7.671,7.671v-12.1a.975.975,0,1,1,1.951,0v12.1l7.671-7.671a.975.975,0,1,1,1.379,1.379l-9.05,9.05V126.48l4.979-4.979a.975.975,0,1,1,1.379,1.379l-6.358,6.358v4.317a.975.975,0,1,1-1.951,0v-4.317L255.3,122.88a.975.975,0,0,1,1.379-1.379l4.979,4.979Zm-6.829,5.146-.43-.43a.975.975,0,1,0-1.379,1.379l.43.43a.975.975,0,0,0,1.379-1.379Zm16.989,1.379.43-.43a.975.975,0,0,0-1.379-1.379l-.43.43a.975.975,0,0,0,1.379,1.379Zm3.442-18.175a.975.975,0,0,1-1.379-1.379l.6-.6a.975.975,0,1,1,1.379,1.379Zm-23.873-1.379a.975.975,0,0,1-1.379,1.379l-.6-.6a.975.975,0,1,1,1.379-1.379Z" transform="translate(-211.734 -85.228)" fill="#3ba452" fill-rule="evenodd"/>
        <path id="Path_909716" data-name="Path 909716" d="M145.33,217.477a11.2,11.2,0,0,0-11.8-11.8,11.2,11.2,0,0,0,11.8,11.8Z" transform="translate(-114.92 -174.821)" fill="#50bc5d" fill-rule="evenodd"/>
        <path id="Path_909717" data-name="Path 909717" d="M100.717,69.215a9,9,0,0,0-9.485-9.485,9,9,0,0,0,9.485,9.485Z" transform="translate(-79.505 -52.609)" fill="#50bc5d" fill-rule="evenodd"/>
        <path id="Path_909718" data-name="Path 909718" d="M28.85,152.3a9.171,9.171,0,0,0-9.662-9.662A9.171,9.171,0,0,0,28.85,152.3Z" transform="translate(-19.174 -122.039)" fill="#50bc5d" fill-rule="evenodd"/>
        <path id="Path_909719" data-name="Path 909719" d="M433.4,250.557a9.171,9.171,0,0,1-9.662,9.662,9.171,9.171,0,0,1,9.662-9.662Z" transform="translate(-357.954 -212.41)" fill="#50bc5d" fill-rule="evenodd"/>
        <path id="Path_909720" data-name="Path 909720" d="M321.409,76.479a5.3,5.3,0,0,0,0-8.458,5.3,5.3,0,0,0,0,8.458Z" transform="translate(-270.508 -59.563)" fill="#50bc5d" fill-rule="evenodd"/>
        <path id="Path_909721" data-name="Path 909721" d="M249.025,306.922a21.662,21.662,0,0,1,20.694,15.264,10.415,10.415,0,0,0-2.182.352L255.184,325.4l-3.652.871c-.021.005,2.148-4.5-2.2-5.946l-9.133-4.341a14.137,14.137,0,0,0-4.322-4.608,21.556,21.556,0,0,1,13.152-4.453Z" transform="translate(-200.641 -259.623)" fill="#cc915d" fill-rule="evenodd"/>
        <path id="Path_909722" data-name="Path 909722" d="M278.15,328.088a22.578,22.578,0,0,1,2.385,5.211c-.7.035-1.113,1.368-1.869,1.571l-12.385,3.044-3.989,1.421a3.336,3.336,0,0,0-1.61-2.812c-.228-1.049,1.11-4.643-.592-5.208l-9.133-4.341a14.591,14.591,0,0,0-2.233-2.892,21.652,21.652,0,0,1,29.426,4.006Z" transform="translate(-211.403 -270.614)" fill="#d79b62" fill-rule="evenodd"/>
        <path id="Path_909723" data-name="Path 909723" d="M72.261,319.158v12.718l3.826.428c4.058.454,4.586.88,8.267,2.633l17.087,8.137c7.855,3.741,6.876,3.275,15.821.411l22.714-7.273a.949.949,0,0,0,.594-1.25c-1.293-3.3-5-5.607-9.8-4.317L118.428,333.5l-3.649.87c-.021.005,2.145-4.5-2.2-5.94l-9.124-4.337c-6.265-10.565-21.083-7.732-31.193-4.939Z" transform="translate(-63.63 -267.716)" fill="#e0c3b3" fill-rule="evenodd"/>
        <path id="Path_909724" data-name="Path 909724" d="M139.37,332.946c-1.789-2.127-4.863-3.3-8.6-2.3l-12.342,2.859-3.649.87c-.077.019,2.307-4.445-2.2-5.94l-9.124-4.337c-6.265-10.565-21.083-7.732-31.193-4.939v10.63l3.826.428c4.058.454,4.586.88,8.267,2.633l17.087,8.137c7.855,3.741,6.876,3.275,15.821.411l21.671-6.939a.949.949,0,0,0,.437-1.514Z" transform="translate(-63.63 -267.717)" fill="#f2d3bd" fill-rule="evenodd"/>
        <path id="Path_909725" data-name="Path 909725" d="M234.489,395.968l-1.681.4s.108-.24.23-.63a.944.944,0,0,0-.223.3l-.007.015h0a3.03,3.03,0,0,1-1.781,1.543,3.225,3.225,0,0,1-2.365-.111l-.041-.021-.016-.008v0l-14.047-6.751a.945.945,0,0,0-.815,1.7l14.049,6.752h0v0l.016.007.056.024a5.108,5.108,0,0,0,3.766.189,4.923,4.923,0,0,0,2.886-2.523v0l0,0,.007-.015a.947.947,0,0,0-.037-.886Z" transform="translate(-181.659 -329.71)" fill="#f2d3bd" fill-rule="evenodd"/>
        <path id="Path_909726" data-name="Path 909726" d="M213.743,392.414a.945.945,0,1,1,.815-1.7l14.047,6.751v0l.016.007.041.021a3.225,3.225,0,0,0,2.365.111,3.069,3.069,0,0,0,1.589-1.2l1.867-.434a.947.947,0,0,1,.042.894l-.007.015h0a4.923,4.923,0,0,1-2.886,2.523,5.108,5.108,0,0,1-3.766-.189l-.056-.024-.016-.008v0h0l-14.049-6.752Z" transform="translate(-181.659 -329.71)" fill="#e0c3b3" fill-rule="evenodd"/>
      </g>
      <rect id="Rectangle_408216" data-name="Rectangle 408216" width="7.599" height="23.385" rx="3.799" transform="translate(14.344 56.831)" fill="#3bc7f5"/>
      <path id="Path_909727" data-name="Path 909727" d="M36.721,409.487v3.6a2.131,2.131,0,0,1-2.124,2.124h-3.35a2.131,2.131,0,0,1-2.124-2.124v-3.6h7.6Z" transform="translate(-14.193 -335.388)" fill="#0dbaf3" fill-rule="evenodd"/>
      <g id="Group_1197918" data-name="Group 1197918" transform="translate(12.173 8.983)">
        <path id="Path_909728" data-name="Path 909728" d="M111.823,340.872c-2.009,0-3.879-.86-7.954-2.8l-17.107-8.147c-.38-.18-.729-.348-1.049-.5a15.689,15.689,0,0,0-6.864-2.029l-2.618-.293.253-2.263,2.619.294a17.881,17.881,0,0,1,7.6,2.24c.319.153.663.319,1.041.5l17.1,8.145c3.374,1.606,5.065,2.411,6.515,2.551,1.413.136,2.892-.354,5.842-1.33.773-.257,1.649-.546,2.645-.865l22.541-7.217a6.19,6.19,0,0,0-2.5-2.847,7.468,7.468,0,0,0-5.877-.606.376.376,0,0,1-.039.01l-12.353,2.861-3.645.87a1.14,1.14,0,0,1-1.3-1.585,4.249,4.249,0,0,0,.2-3.042,2.669,2.669,0,0,0-1.728-1.346,1.075,1.075,0,0,1-.13-.052l-9.134-4.341a1.145,1.145,0,0,1-.49-.447c-2.5-4.224-6.624-6.477-12.594-6.892-5.742-.4-11.966,1.029-16.148,2.14l-.584-2.2c4.338-1.151,10.808-2.634,16.889-2.211,6.538.453,11.316,3.045,14.21,7.7l8.765,4.165a4.843,4.843,0,0,1,3.012,2.535,5.284,5.284,0,0,1,.361,2.917l1.791-.426,12.343-2.86a9.8,9.8,0,0,1,7.612.854,8.454,8.454,0,0,1,3.882,5.273,1.14,1.14,0,0,1-.761,1.348l-23.631,7.567c-.987.316-1.857.6-2.625.859-2.863.948-4.52,1.475-6.092,1.475Z" transform="translate(-65.678 -260.55)" fill-rule="evenodd"/>
        <path id="Path_909729" data-name="Path 909729" d="M226.544,398.324a5.239,5.239,0,0,1-2.247-.5l-13.333-6.338a1.138,1.138,0,1,1,.977-2.055l13.334,6.338a2.993,2.993,0,0,0,3.959-1.332,1.138,1.138,0,0,1,2.057.977,5.246,5.246,0,0,1-4.745,2.914Z" transform="translate(-178.099 -327.48)" fill-rule="evenodd"/>
        <path id="Path_909730" data-name="Path 909730" d="M21.427,298.053a.641.641,0,0,0-.633.631v19.648a.64.64,0,0,0,.632.631H26.4a.64.64,0,0,0,.631-.631V298.684a.64.64,0,0,0-.631-.631Zm4.97,23.186h-4.97a2.912,2.912,0,0,1-2.909-2.907V298.684a2.911,2.911,0,0,1,2.908-2.907H26.4a2.91,2.91,0,0,1,2.907,2.907v19.648A2.91,2.91,0,0,1,26.4,321.239Z" transform="translate(-17.486 -249.149)" fill-rule="evenodd"/>
        <path id="Path_909731" data-name="Path 909731" d="M263.859,317.447a1.136,1.136,0,0,1-1.086-.8A20.521,20.521,0,0,0,230.7,306.4a1.138,1.138,0,1,1-1.384-1.806,22.794,22.794,0,0,1,27.5-.143,22.979,22.979,0,0,1,8.123,11.522,1.136,1.136,0,0,1-1.088,1.473Z" transform="translate(-193.643 -252.607)" fill-rule="evenodd"/>
        <path id="Path_909732" data-name="Path 909732" d="M315.549,11.715a4.076,4.076,0,0,0,0,5.27,4.072,4.072,0,0,0,0-5.27Zm0,8a1.141,1.141,0,0,1-.714-.252,6.44,6.44,0,0,1,0-10.231,1.14,1.14,0,0,1,1.428,0,6.437,6.437,0,0,1,0,10.231A1.136,1.136,0,0,1,315.549,19.718Z" transform="translate(-263.51 -8.983)" fill-rule="evenodd"/>
        <path id="Path_909733" data-name="Path 909733" d="M327.985,51.3a4.071,4.071,0,0,0,5.269,0,4.071,4.071,0,0,0-5.269,0Zm2.634,3.244a6.585,6.585,0,0,1-5.115-2.53,1.14,1.14,0,0,1,0-1.427,6.437,6.437,0,0,1,10.231,0,1.139,1.139,0,0,1,0,1.427A6.586,6.586,0,0,1,330.619,54.545Z" transform="translate(-274.351 -41.705)" fill-rule="evenodd"/>
        <path id="Path_909734" data-name="Path 909734" d="M315.549,63.736a4.079,4.079,0,0,0,0,5.271,4.074,4.074,0,0,0,0-5.271Zm0,8a1.141,1.141,0,0,1-.714-.252,6.438,6.438,0,0,1,0-10.23,1.138,1.138,0,0,1,1.428,0,6.437,6.437,0,0,1,0,10.231A1.136,1.136,0,0,1,315.549,71.739Z" transform="translate(-263.51 -52.546)" fill-rule="evenodd"/>
        <path id="Path_909735" data-name="Path 909735" d="M275.967,51.3a4.071,4.071,0,0,0,5.269,0,4.071,4.071,0,0,0-5.269,0Zm2.634,3.244a6.582,6.582,0,0,1-5.115-2.53,1.14,1.14,0,0,1,0-1.427,6.437,6.437,0,0,1,10.231,0,1.139,1.139,0,0,1,0,1.427A6.586,6.586,0,0,1,278.6,54.545Z" transform="translate(-230.79 -41.705)" fill-rule="evenodd"/>
        <path id="Path_909736" data-name="Path 909736" d="M338.165,199.409a11.2,11.2,0,0,0-10.742,10.742,11.2,11.2,0,0,0,10.742-10.742Zm-11.2,13.028c-.246,0-.49-.006-.735-.019a1.14,1.14,0,0,1-1.074-1.075,13.48,13.48,0,0,1,14.2-14.2,1.137,1.137,0,0,1,1.073,1.075,13.476,13.476,0,0,1-13.463,14.218Z" transform="translate(-274.254 -166.535)" fill-rule="evenodd"/>
        <path id="Path_909737" data-name="Path 909737" d="M334.883,225.008a1.138,1.138,0,0,1-.805-1.943l.43-.429a1.138,1.138,0,1,1,1.609,1.61l-.429.429a1.134,1.134,0,0,1-.8.333Zm-8.495,8.5a1.137,1.137,0,0,0,.8-.333l6.645-6.645a1.138,1.138,0,0,0-1.609-1.61l-6.645,6.645a1.138,1.138,0,0,0,.805,1.943Z" transform="translate(-274.349 -187.619)" fill-rule="evenodd"/>
        <path id="Path_909738" data-name="Path 909738" d="M247.463,199.409A11.2,11.2,0,0,0,258.2,210.151a11.2,11.2,0,0,0-10.741-10.742Zm11.87,11.872h0Zm-.672,1.156A13.479,13.479,0,0,1,245.2,198.219a1.14,1.14,0,0,1,1.075-1.075,13.478,13.478,0,0,1,14.2,14.2,1.138,1.138,0,0,1-1.075,1.075c-.244.013-.489.019-.733.019Z" transform="translate(-207.293 -166.535)" fill-rule="evenodd"/>
        <path id="Path_909739" data-name="Path 909739" d="M271.93,225.008a1.128,1.128,0,0,1-.8-.333l-.431-.429a1.138,1.138,0,0,1,1.61-1.609l.43.429a1.138,1.138,0,0,1-.8,1.943Zm8.493,8.5a1.138,1.138,0,0,0,.8-1.943l-6.643-6.645a1.138,1.138,0,1,0-1.609,1.609l6.643,6.645a1.141,1.141,0,0,0,.805.333Z" transform="translate(-228.384 -187.62)" fill-rule="evenodd"/>
        <path id="Path_909740" data-name="Path 909740" d="M343.409,76.337a16.2,16.2,0,0,0-16.041,16.041,16.2,16.2,0,0,0,16.041-16.041ZM327.2,94.655c-.337,0-.671-.01-1.008-.028a1.14,1.14,0,0,1-1.075-1.075,18.48,18.48,0,0,1,19.466-19.466,1.138,1.138,0,0,1,1.075,1.075A18.48,18.48,0,0,1,327.2,94.655Z" transform="translate(-274.215 -63.479)" fill-rule="evenodd"/>
        <path id="Path_909741" data-name="Path 909741" d="M338.325,112.323a1.138,1.138,0,0,1-.805-1.943l.6-.6a1.138,1.138,0,0,1,1.61,1.608l-.6.6a1.136,1.136,0,0,1-.806.333h0ZM326.388,124.26a1.138,1.138,0,0,1-.805-1.943l9.337-9.336a1.137,1.137,0,0,1,1.608,1.608l-9.335,9.337a1.137,1.137,0,0,1-.8.333Z" transform="translate(-274.349 -93.11)" fill-rule="evenodd"/>
        <path id="Path_909742" data-name="Path 909742" d="M215.013,76.337a16.2,16.2,0,0,0,16.042,16.041,16.2,16.2,0,0,0-16.042-16.041Zm17.155,17.154h0Zm-.945,1.164a18.477,18.477,0,0,1-18.458-19.494,1.137,1.137,0,0,1,1.073-1.075A18.478,18.478,0,0,1,233.3,93.553a1.138,1.138,0,0,1-1.075,1.075c-.334.018-.671.028-1.006.028Z" transform="translate(-180.128 -63.479)" fill-rule="evenodd"/>
        <path id="Path_909743" data-name="Path 909743" d="M249.863,112.323a1.129,1.129,0,0,1-.805-.333l-.6-.6a1.137,1.137,0,1,1,1.609-1.608l.605.6a1.138,1.138,0,0,1,0,1.61,1.126,1.126,0,0,1-.8.333ZM261.8,124.26a1.141,1.141,0,0,1-.805-.333l-9.335-9.337a1.137,1.137,0,1,1,1.609-1.608l9.336,9.335a1.138,1.138,0,0,1-.8,1.943Z" transform="translate(-209.759 -93.11)" fill-rule="evenodd"/>
        <path id="Path_909744" data-name="Path 909744" d="M326.385,145.832a1.138,1.138,0,0,1-1.139-1.138V114.166a1.138,1.138,0,0,1,2.276,0v30.528a1.138,1.138,0,0,1-1.138,1.138Z" transform="translate(-274.346 -96.112)" fill-rule="evenodd"/>
        <path id="Path_909745" data-name="Path 909745" d="M128.8,200.935a10.061,10.061,0,0,0,9.534,9.534,10.065,10.065,0,0,0-9.534-9.534ZM139.472,211.6h0Zm-.611,1.154a12.341,12.341,0,0,1-12.329-13.02,1.136,1.136,0,0,1,1.073-1.075,12.343,12.343,0,0,1,13,13,1.139,1.139,0,0,1-1.074,1.075C139.31,212.752,139.085,212.759,138.861,212.759Z" transform="translate(-107.924 -167.81)" fill-rule="evenodd"/>
        <path id="Path_909746" data-name="Path 909746" d="M86.52,55.008a7.865,7.865,0,0,0,7.18,7.18,7.858,7.858,0,0,0-7.18-7.18Zm8.332,8.332h0Zm-.489,1.151a10.143,10.143,0,0,1-10.132-10.7,1.139,1.139,0,0,1,1.075-1.073A10.139,10.139,0,0,1,95.989,63.4a1.139,1.139,0,0,1-1.075,1.075Q94.639,64.491,94.364,64.491Z" transform="translate(-72.503 -45.595)" fill-rule="evenodd"/>
        <path id="Path_909747" data-name="Path 909747" d="M14.476,137.914a8.032,8.032,0,0,0,7.36,7.36,8.029,8.029,0,0,0-7.36-7.36Zm8.511,8.509h0Zm-.5,1.153a10.31,10.31,0,0,1-10.3-10.877,1.138,1.138,0,0,1,1.075-1.073,10.309,10.309,0,0,1,10.861,10.861,1.139,1.139,0,0,1-1.075,1.073c-.187.011-.376.016-.562.016Z" transform="translate(-12.173 -115.023)" fill-rule="evenodd"/>
        <path id="Path_909748" data-name="Path 909748" d="M426.395,245.827a8.032,8.032,0,0,0-7.36,7.36,8.033,8.033,0,0,0,7.36-7.36Zm-8.01,9.662q-.28,0-.563-.014a1.136,1.136,0,0,1-1.073-1.075,10.308,10.308,0,0,1,10.859-10.861,1.139,1.139,0,0,1,1.075,1.075,10.309,10.309,0,0,1-10.3,10.875Z" transform="translate(-350.958 -205.391)" fill-rule="evenodd"/>
      </g>
    </g>
  </g>
</svg>
