<svg xmlns="http://www.w3.org/2000/svg" xmlns:xlink="http://www.w3.org/1999/xlink" width="92.856" height="125.286" viewBox="0 0 92.856 125.286">
  <defs>
    <filter id="Rectangle_401593" x="0" y="0" width="83.923" height="125.286" filterUnits="userSpaceOnUse">
      <feOffset dy="3" input="SourceAlpha"/>
      <feGaussianBlur stdDeviation="3" result="blur"/>
      <feFlood flood-opacity="0.161"/>
      <feComposite operator="in" in2="blur"/>
      <feComposite in="SourceGraphic"/>
    </filter>
    <clipPath id="clip-path">
      <rect id="Rectangle_409034" data-name="Rectangle 409034" width="83.856" height="83.776" fill="none"/>
    </clipPath>
  </defs>
  <g id="Group_1200123" data-name="Group 1200123" transform="translate(6875.313 7244.265)">
    <g id="Group_1199972" data-name="Group 1199972" transform="translate(-6866.313 -7238.265)">
      <g id="Group_1182090" data-name="Group 1182090" transform="translate(0 0)">
        <g transform="matrix(1, 0, 0, 1, -9, -6)" filter="url(#Rectangle_401593)">
          <rect id="Rectangle_401593-2" data-name="Rectangle 401593" width="65.923" height="107.286" rx="8" transform="translate(9 6)" fill="#9ad354"/>
        </g>
      </g>
    </g>
    <g id="Group_1200320" data-name="Group 1200320" transform="translate(-6866.313 -7214.755)">
      <g id="Group_1200319" data-name="Group 1200319" clip-path="url(#clip-path)">
        <path id="Path_1033760" data-name="Path 1033760" d="M6.036,13.506a3.445,3.445,0,0,1,1.018.076c5.071.992,11.372,3.267,16.29,3.786,4.244.448,9.148-.309,13.462.032L48.09,21.129l7.876,15.4v7.844h-2.7V38.556l-5.149-6.5c-.205-.49,1.1-1.824,1.1-2.1V26.832h-2.7v2.446c0,.374-3.52,5.343-3.916,6.372-.454,1.176.439,1.8,1.131,2.655,2.453,3.027,5.363,5.834,7.818,8.882a1.535,1.535,0,0,1-2.168,2.168L39.255,39.242,29.87,35.216l-2.96-4.209L6.291,28.179l-.256.678c.126-5.108-.094-10.241,0-15.35" transform="translate(-4.657 -10.453)" fill="#f9dfc9"/>
        <path id="Path_1033761" data-name="Path 1033761" d="M186.429,113.794l-5.034-5.788.806-1.529.345-.1c.205.8,3.883,4.658,3.883,4.975Z" transform="translate(-140.518 -82.402)" fill="#f7f7f7"/>
        <path id="Path_1033762" data-name="Path 1033762" d="M147.223,140.045h-3.374v-3.036a.713.713,0,0,1,.6.161,36.354,36.354,0,0,1,2.775,2.876" transform="translate(-111.433 -106.123)" fill="#efb79f"/>
        <path id="Path_1033763" data-name="Path 1033763" d="M260.444,24.475h-6.157c-1.207,0-3.3-2.169-3.275-3.472.409-5.459-.6-11.843-.015-17.192A4.227,4.227,0,0,1,254.623.184c6.3.434,13.366-.574,19.575-.006a4.184,4.184,0,0,1,3.789,3.633c-.374,5.434.493,11.521.006,16.876-.389,4.271-4.587,3.818-7.764,3.875l-7.8,6.532c-.558.459-1.982-.2-1.982-.8ZM253.7,4.571c-.34,5.129.26,10.611-.008,15.78a1.309,1.309,0,0,0,1.115,1.416c2.141.335,5.091-.315,7.233.02.378.059,1.107.566,1.107.918v4.133l6.115-4.933a30.479,30.479,0,0,1,4.343-.127c.954-.063,1.559-.142,1.691-1.262-.366-5.217.473-11.064,0-16.205-.091-1-.432-1.343-1.434-1.434-6-.547-12.818.429-18.9,0-1.12.132-1.2.736-1.262,1.691" transform="translate(-194.291 0.001)" fill="#010101"/>
        <path id="Path_1033764" data-name="Path 1033764" d="M282.982,23.49c-.514-.186-1.554-1.854-2.023-1.613L271.4,31.406l-3.036-2.843-1.9,1.782c.826.881,3.631,4.248,4.67,4.419a1.857,1.857,0,0,0,1.394-.558l10.454-10.378a.708.708,0,0,1,.181.57c.041,4.363-.056,8.732-.012,13.093a30.515,30.515,0,0,0-4.343.127l-6.115,4.934V38.418c0-.352-.728-.859-1.107-.918-2.142-.335-5.092.315-7.233-.02a1.309,1.309,0,0,1-1.115-1.416c.268-5.169-.332-10.651.008-15.78l19.747.073a6.269,6.269,0,0,1-.011,3.131" transform="translate(-203.841 -15.714)" fill="#559a2d"/>
        <path id="Path_1033765" data-name="Path 1033765" d="M283.52,31.076c-.044-4.361.053-8.73.012-13.093a.708.708,0,0,0-.181-.571v-.337a6.268,6.268,0,0,0,.011-3.131l-19.746-.074c.063-.954.142-1.559,1.261-1.691,6.086.424,12.907-.551,18.9,0,1,.091,1.342.431,1.434,1.434.469,5.141-.37,10.988,0,16.205-.132,1.12-.736,1.2-1.691,1.262" transform="translate(-204.21 -9.299)" fill="#4c8b28"/>
        <path id="Path_1033766" data-name="Path 1033766" d="M294.41,28.882v.337L283.955,39.6a1.857,1.857,0,0,1-1.394.558c-1.04-.17-3.844-3.538-4.67-4.419l1.9-1.782,3.036,2.843,9.555-9.528c.469-.241,1.508,1.427,2.023,1.613" transform="translate(-215.269 -21.106)" fill="#040404"/>
        <path id="Path_1033767" data-name="Path 1033767" d="M29.65,258.32v7.169a1.51,1.51,0,0,0,1.426.936H71.407a1.51,1.51,0,0,0,1.426-.936V258.32H90.375v22.941H12.107V258.32Zm-2.7,4.048h-2.7v8.518a1.51,1.51,0,0,0,1.426.936H76.8a1.51,1.51,0,0,0,1.426-.936v-7.169h-2.7v5.4H26.951Z" transform="translate(-9.379 -200.108)" fill="#c08d59"/>
        <path id="Path_1033768" data-name="Path 1033768" d="M1.379,4.241c-.752-.441.393-1.843.17-2.7a5.661,5.661,0,0,1,.908.017C7.692,2.174,13.813,4.854,19.024,5.4c4.35.459,9.354-.339,13.774.058L45.069,9.553l.707.642,8.232,16.4V35.11h8.518a2.1,2.1,0,0,1,.928.928V56.7H82.768c.32,0,1.031.848.932,1.262L83.621,84.2l-.759.759h-82a1.3,1.3,0,0,1-.838-1.186l0-25.651A1.51,1.51,0,0,1,.957,56.7H20.272V36.037a2.1,2.1,0,0,1,.928-.928h8.518V30.724L23.483,28.1,20.66,24.179,1.214,21.611c.048-.682.148-1.331.165-2.02l.256-.678,20.619,2.828,2.96,4.209L34.6,29.976,44.727,40.089A1.535,1.535,0,0,0,46.9,37.921c-2.454-3.047-5.364-5.855-7.818-8.882-.692-.853-1.584-1.479-1.131-2.655.4-1.029,3.917-6,3.917-6.372V17.567h2.7v3.121c0,.275-1.305,1.608-1.1,2.1l5.149,6.5v5.82h2.7V27.266l-7.876-15.4L32.149,8.135c-4.315-.341-9.219.416-13.463-.032C13.769,7.584,7.469,5.309,2.4,4.317a3.447,3.447,0,0,0-1.018-.076M45.911,32.579V30.134c0-.317-3.678-4.171-3.883-4.975l-.345.1-.806,1.529ZM35.79,35.11a36.267,36.267,0,0,0-2.775-2.876.712.712,0,0,0-.6-.161V35.11Zm-12.82,6.747c-.029,7.644.022,15.3,0,22.942,10.68-.037,21.37.047,32.05,0,1.909-.008,3.826.006,5.735,0V37.809H49.791a4.51,4.51,0,0,1-.843,4.048,4.444,4.444,0,0,1-6.41,0c-1.339-1.166-2.573-2.876-3.964-4.048h-15.6c0,1.347,0,2.7,0,4.048M20.272,59.4H2.729V82.341H81V59.4H63.454v7.169a1.509,1.509,0,0,1-1.426.936H21.7a1.509,1.509,0,0,1-1.426-.936Z" transform="translate(0 -1.188)" fill="#010101"/>
        <path id="Path_1033769" data-name="Path 1033769" d="M104.6,180.469c-.355,3.462.256,7.511.01,11.039.164.817.649,1.046,1.416,1.114,3.435.308,7.322-.249,10.807,0a1.284,1.284,0,0,0,1.265-1.265c.389-3.36-.3-7.446,0-10.884h3.374a4.444,4.444,0,0,0,6.41,0h6.073v4.049H123.491v2.7H133.95v2.7H120.792v2.7H133.95v10.8c-10.68.048-21.37-.036-32.05,0,.023-7.644-.028-15.3,0-22.942Z" transform="translate(-78.93 -139.8)" fill="#dcdcdc"/>
        <path id="Path_1033770" data-name="Path 1033770" d="M217.206,166.555a4.51,4.51,0,0,0,.844-4.048h10.964V189.5c-1.909.006-3.826-.008-5.735,0V178.7h3.036V176h-3.036v-2.7h3.036v-2.7h-3.036v-4.049Z" transform="translate(-168.259 -125.886)" fill="#cbcbcb"/>
        <path id="Path_1033771" data-name="Path 1033771" d="M121.5,166.555h-3.374c-.033-.943-.545-1.277-1.426-1.357-3.474-.316-7.435.244-10.962.018a1.279,1.279,0,0,0-1.106,1.339h-2.7c0-1.347,0-2.7,0-4.048h15.6c1.392,1.173,2.625,2.882,3.964,4.048" transform="translate(-78.958 -125.886)" fill="#cbcbcb"/>
        <path id="Path_1033772" data-name="Path 1033772" d="M68.7,276.285v6.747h48.58v-5.4h2.7V284.8a1.51,1.51,0,0,1-1.426.936H67.427A1.51,1.51,0,0,1,66,284.8v-8.518Z" transform="translate(-51.128 -214.024)"/>
        <path id="Path_1033773" data-name="Path 1033773" d="M127.011,175.464c-.294,3.438.392,7.523,0,10.884a1.284,1.284,0,0,1-1.265,1.265c-3.485-.244-7.372.312-10.807,0-.767-.069-1.252-.3-1.416-1.115.246-3.528-.365-7.576-.01-11.039a1.279,1.279,0,0,1,1.106-1.339c3.528.226,7.488-.334,10.962-.018.88.08,1.393.415,1.426,1.357m-10.8,9.449h8.1v-8.1h-8.1Z" transform="translate(-87.847 -134.795)" fill="#010101"/>
        <rect id="Rectangle_409031" data-name="Rectangle 409031" width="16.194" height="2.699" transform="translate(41.862 50.115)"/>
        <rect id="Rectangle_409032" data-name="Rectangle 409032" width="13.495" height="2.699" transform="translate(44.561 44.718)"/>
        <rect id="Rectangle_409033" data-name="Rectangle 409033" width="6.751" height="6.751" transform="translate(28.365 43.368)" fill="#789fd3"/>
        <path id="Path_1033774" data-name="Path 1033774" d="M125.871,187.8v-1.352h8.1v8.1h-1.349V187.8Z" transform="translate(-97.506 -144.432)" fill="#5e86c9"/>
      </g>
    </g>
  </g>
</svg>
