<svg xmlns="http://www.w3.org/2000/svg" xmlns:xlink="http://www.w3.org/1999/xlink" width="95.933" height="125.286" viewBox="0 0 95.933 125.286">
  <defs>
    <filter id="Rectangle_401593" x="0" y="0" width="83.923" height="125.286" filterUnits="userSpaceOnUse">
      <feOffset dy="3" input="SourceAlpha"/>
      <feGaussianBlur stdDeviation="3" result="blur"/>
      <feFlood flood-opacity="0.161"/>
      <feComposite operator="in" in2="blur"/>
      <feComposite in="SourceGraphic"/>
    </filter>
    <clipPath id="clip-path">
      <rect id="Rectangle_409030" data-name="Rectangle 409030" width="82.923" height="98.506" fill="none"/>
    </clipPath>
  </defs>
  <g id="Group_1200122" data-name="Group 1200122" transform="translate(6875.313 7244.265)">
    <g id="Group_1199972" data-name="Group 1199972" transform="translate(-6866.313 -7238.265)">
      <g id="Group_1182090" data-name="Group 1182090" transform="translate(0 0)">
        <g transform="matrix(1, 0, 0, 1, -9, -6)" filter="url(#Rectangle_401593)">
          <rect id="Rectangle_401593-2" data-name="Rectangle 401593" width="65.923" height="107.286" rx="8" transform="translate(9 6)" fill="#9ad354"/>
        </g>
      </g>
    </g>
    <g id="Group_1200318" data-name="Group 1200318" transform="translate(-6862.304 -7229.485)">
      <g id="Group_1200317" data-name="Group 1200317" clip-path="url(#clip-path)">
        <path id="Path_1033734" data-name="Path 1033734" d="M67.143,23.109a1.371,1.371,0,0,1-1.5-1.1c-.481-2.143.19-5.947-.064-8.378C65,8.042,60.029,3.992,54.662,3.348a114.975,114.975,0,0,0-17.577-.2A12.1,12.1,0,0,0,26.67,10.969c-.1.288-.62,1.931-.62,2.067V26.945l2.274-.031,5.131-9.933c3.648-4.868,8.9-.228,13.572-.829,2.311-.3,4.944-1.706,7.326-1.464,4.468.454,5.13,6.032,7.413,9A17.987,17.987,0,0,0,63.3,26.852a35.468,35.468,0,0,0,3.843.093A4.182,4.182,0,0,1,70.55,29.2a11.521,11.521,0,0,1-.043,6.764c-.347.725-1.93,2.108-2.691,2.108H63.879a23.943,23.943,0,0,1-.286,5.374A11.694,11.694,0,0,1,53.727,52.3l.011,5.981,4.1,3c9.569-.348,20.306-.876,23.985,9.994,1.366,4.034,1.2,15.838.87,20.423A6.944,6.944,0,0,1,79.3,97.7l-2.171.8H14.146c-2.938-.98-4.94-3.042-5.191-6.228a139.614,139.614,0,0,1,0-16.9c.076-1.123.41-2.292.552-3.408C6.2,68.785,2.589,66.14,1.082,61.581c-1.113-3.365-1.228-9.3-.961-12.868.182-2.433,1.267-4.585,3.943-4.886,5.3-.6,11.675.447,17.091,0,2.727.522,3.747,2.247,3.943,4.886.284,3.815.14,10.608-1.352,14.108-1.211,2.842-4.41,5.92-6.718,7.965a8.508,8.508,0,0,1-3.6,2.35c-.368.1-1.068-.083-1.213.168-.106.847-.333,1.812-.382,2.651-.312,5.314.232,10.947.029,16.294-.084,1.279,1.755,3.379,2.955,3.379h9.313v-16.4a1.478,1.478,0,0,1,2.063-1.1,3.609,3.609,0,0,1,.817.718V95.629H38.916L41.757,76.2,39.577,71.84c-5.654,3.028-5.434-4.134-6.447-7.65-1.536-.383-5.284.945-5.351-1.368-.017-.591.487-1.535,1.056-1.535H34.02l3.747-2.822-.028-6.074c-.089-.262-2.517-.772-3.043-.988a11.858,11.858,0,0,1-6.183-6.293,18.878,18.878,0,0,1-.925-7.037H23.843c-1.035,0-2.517-1.535-2.877-2.5-.8-2.125-.68-7.166,1.917-8.248l.1-.285c.308-5.072-.639-10.82.55-15.758A14.951,14.951,0,0,1,36.7.271,145.046,145.046,0,0,1,54.563.281,15.7,15.7,0,0,1,68.048,11.364a41.2,41.2,0,0,1,.443,10.5,1.19,1.19,0,0,1-1.348,1.244M52.55,49.392c11.168-.662,8.2-13.245,8.3-20.859l-5.342-10.2a2.871,2.871,0,0,0-1.715-.794,6.729,6.729,0,0,0-2.01.584c-2.488.537-5.221,1.318-7.728.91-1.807-.294-4.325-1.407-6.031-1.472a2.661,2.661,0,0,0-1.9.745L30.7,28.62c.354,7.225-2.785,19.933,7.919,20.78a119.294,119.294,0,0,0,13.928-.007M27.779,35.2V30.111l-.288-.288H24.419a3.633,3.633,0,0,0-.686.466,15.245,15.245,0,0,0-.174,4.039,1.884,1.884,0,0,0,.668.868Zm36.1,0h3.552c.887,0,1.154-5.372-.192-5.372h-3.36ZM11.073,69.345c.879.764,1.209,1.535,2.592.576,2.121-2.283,5.088-4.238,6.657-6.971,2.7-4.707,1.441-10.142,1.656-15.341-.367-1.258-2.944-.883-3.993-.9-3.839-.073-9.716-.433-13.35,0a1.7,1.7,0,0,0-1.4.907c.24,4.044-.7,8.967.53,12.821,1.214,3.806,4.4,6.393,7.3,8.915m36.1-8.442a23.574,23.574,0,0,0,3.648-2.59V52.27c-1.214-.005-2.435.007-3.648,0-2.174-.013-4.355.009-6.529,0v6.043l4.947,3.516c.691.225,1.138-.633,1.582-.926m-8.449.576a19.146,19.146,0,0,0-2.665,1.858c-.217.648.751,3.613.936,4.474a11.33,11.33,0,0,0,.194,1.727c.284.237,1.375-.734,1.635-.954,1.557-1.319,2.979-3.139,4.493-4.54.047-.27-.3-.483-.47-.641-.276-.257-3.169-2.343-3.365-2.409-.569-.193-.539.343-.759.487m12.673.192a21.235,21.235,0,0,0-2.948,1.947c-.138.128-.38.165-.309.437,1.219,1.027,2.3,2.186,3.445,3.29a1.7,1.7,0,0,0,.581.274c.037.036.038.334.186.477a17.829,17.829,0,0,0,1.539,1.54c.258.136.3.132.486-.1l1.258-6.2c-.749-.308-2.463-2.058-3.033-2.214-.752-.205-.873.346-1.2.546m13.249,2.494a60.149,60.149,0,0,0-6.156.085c-.988,2.16-.5,6.565-2.733,7.822-1.55.873-2.48.386-3.974-.232-.435,1.869-2.135,3.484-1.9,5.443l2.855,18.346H64.455v-16.4a1.6,1.6,0,0,1,2.109-1.148,5.181,5.181,0,0,1,.771.764V95.629c.893.006,1.795-.009,2.688,0,1.831.018,6.169.3,7.618-.35a3.431,3.431,0,0,0,1.993-2.805c-1-9.146,3.7-23.2-7.5-27.441-2.644-1-4.735-.828-7.485-.867M44.869,66.851c-.631.51-2.93,2.149-2.883,2.956.053.921,1.969,3.513,2.148,4.686a3.594,3.594,0,0,0,.928.032c.585.02,2.041.133,2.4-.189a41.292,41.292,0,0,0,2.2-4.709L45.9,65.906c-.4-.069-.8.757-1.03.945m-.384,11.895C43.532,84.361,42.6,89.988,41.8,95.628c1.79-.007,3.588.013,5.377,0a13.461,13.461,0,0,0,2.691-.1L46.853,77.4l-2.054.034c-.517.172-.246.913-.315,1.316" transform="translate(0 0)" fill="#030303"/>
        <path id="Path_1033735" data-name="Path 1033735" d="M164.971,203.747v8.633c-.444.293-.892,1.151-1.582.926l-4.947-3.516v-6.043c2.173.009,4.355-.013,6.529,0" transform="translate(-117.797 -151.478)" fill="#facea1"/>
        <path id="Path_1033736" data-name="Path 1033736" d="M183.892,203.755c1.214.007,2.435-.005,3.648,0V209.8a23.563,23.563,0,0,1-3.648,2.59Z" transform="translate(-136.719 -151.486)" fill="#fdbb85"/>
        <path id="Path_1033737" data-name="Path 1033737" d="M175.1,265.521c.474-1.809,1.645-3.346,2.3-5.09-.009-.433-2.032-2.178-2.492-2.584.233-.189.633-1.015,1.03-.946l3.767,3.722a41.285,41.285,0,0,1-2.2,4.708c-.362.322-1.817.209-2.4.189" transform="translate(-130.04 -190.996)" fill="#4e64cc"/>
        <path id="Path_1033738" data-name="Path 1033738" d="M225.566,32.809v3.837a35.532,35.532,0,0,1-3.843-.094,17.976,17.976,0,0,1-1.534-3.168c-.426-3.062.291-7.068,0-10.261-.388-4.213-3.619-7.974-7.1-10.075,5.367.644,10.336,4.694,10.922,10.288.254,2.431-.417,6.234.064,8.377a1.371,1.371,0,0,0,1.5,1.1" transform="translate(-158.423 -9.701)" fill="#fadc07"/>
        <path id="Path_1033739" data-name="Path 1033739" d="M140.276,69,145.5,78.84c0,4.421.5,9.467.156,13.863a10.537,10.537,0,0,1-4.615,7.571,119.293,119.293,0,0,1-13.928.007c-10.7-.846-7.565-13.555-7.919-20.78l5.42-10.316a2.662,2.662,0,0,1,1.9-.745c1.706.065,4.224,1.178,6.031,1.472,2.506.408,5.24-.373,7.728-.91m-6.585,10.4c-1.2.359-1.058,3.991-.893,5.034.3,1.924,2.823,2.122,3.068-.75.128-1.5.3-5.026-2.175-4.284m-3.265,8.25a1.829,1.829,0,0,0-.871,1.06c-.484,2.333,4.145,2.676,5.628,2.542,1.428-.128,4.684-.915,3.533-2.95-.779-1.377-3.064.07-4.487.089-1.34.017-2.922-1.007-3.8-.741" transform="translate(-88.494 -50.882)" fill="#fcd1a3"/>
        <path id="Path_1033740" data-name="Path 1033740" d="M130.164,11.774c3.482,2.1,6.714,5.862,7.1,10.075.294,3.193-.423,7.2,0,10.261-2.283-2.963-2.944-8.542-7.413-9-2.383-.242-5.016,1.167-7.326,1.464-4.674.6-9.924-4.04-13.572.829l-5.131,9.933-2.274.031V21.462c0-.136.515-1.779.62-2.067a12.1,12.1,0,0,1,10.414-7.821,114.939,114.939,0,0,1,17.577.2" transform="translate(-75.502 -8.426)" fill="#fcee55"/>
        <path id="Path_1033741" data-name="Path 1033741" d="M202.625,100.213a10.537,10.537,0,0,0,4.615-7.571c.349-4.4-.152-9.442-.156-13.863l-5.227-9.838a6.735,6.735,0,0,1,2.01-.583,2.873,2.873,0,0,1,1.715.794l5.342,10.2c-.1,7.613,2.868,20.2-8.3,20.859" transform="translate(-150.075 -50.822)" fill="#fdbb85"/>
        <path id="Path_1033742" data-name="Path 1033742" d="M95.9,121.628H92.343a1.881,1.881,0,0,1-.668-.868,15.234,15.234,0,0,1,.174-4.039,3.633,3.633,0,0,1,.686-.466h3.072l.288.288Z" transform="translate(-68.117 -86.433)" fill="#f2c89c"/>
        <path id="Path_1033743" data-name="Path 1033743" d="M249.014,121.628v-5.372h3.36c1.346,0,1.079,5.372.192,5.372Z" transform="translate(-185.135 -86.433)" fill="#f4b580"/>
        <path id="Path_1033744" data-name="Path 1033744" d="M160.836,143.21c.882-.266,2.464.759,3.8.741,1.423-.018,3.707-1.466,4.487-.089,1.152,2.035-2.105,2.821-3.533,2.95-1.483.133-6.112-.21-5.628-2.542a1.829,1.829,0,0,1,.871-1.06" transform="translate(-118.903 -106.44)" fill="#050403"/>
        <path id="Path_1033745" data-name="Path 1033745" d="M173.285,110.882c2.479-.742,2.3,2.784,2.175,4.284-.245,2.872-2.764,2.674-3.068.75-.165-1.043-.308-4.674.893-5.034" transform="translate(-128.088 -82.362)" fill="#070604"/>
        <path id="Path_1033746" data-name="Path 1033746" d="M61.787,244.893c.067,2.313,3.815.985,5.351,1.368,1.013,3.515.794,10.678,6.447,7.65l2.179,4.365L72.924,277.7H61.019V260.913a3.591,3.591,0,0,0-.817-.718,1.478,1.478,0,0,0-2.063,1.1v16.4H48.826c-1.2,0-3.039-2.1-2.955-3.379.2-5.347-.342-10.981-.029-16.294.049-.839.277-1.8.382-2.651.144-.251.844-.073,1.213-.168a8.511,8.511,0,0,0,3.6-2.35c2.308-2.045,5.507-5.122,6.718-7.965Z" transform="translate(-34.008 -182.071)" fill="#dcf0fd"/>
        <path id="Path_1033747" data-name="Path 1033747" d="M209.164,250.032c.281.786,1.38,1.181,2.011,1.733,7.5,6.56,3.854,17.589,4.708,26.372a8.032,8.032,0,0,1-1.342,3.359c-.893-.009-1.795.006-2.688,0V264.709a5.184,5.184,0,0,0-.771-.764,1.6,1.6,0,0,0-2.109,1.148v16.4H197.259L194.4,263.149c-.238-1.96,1.462-3.574,1.9-5.443,1.494.618,2.425,1.105,3.974.232,2.232-1.257,1.745-5.661,2.733-7.822a60.142,60.142,0,0,1,6.156-.085m-8.5,18.464c-1.82.325-1.863,2.775.338,3.024,1.265.143,4.171.336,4.625-1.145.712-2.323-3.677-2.109-4.964-1.879" transform="translate(-144.518 -185.867)" fill="#dcf0fd"/>
        <path id="Path_1033748" data-name="Path 1033748" d="M257.386,281.592a8.032,8.032,0,0,0,1.342-3.359c-.854-8.783,2.789-19.812-4.709-26.372-.63-.552-1.73-.946-2.01-1.733,2.75.04,4.842-.135,7.485.867,11.2,4.243,6.5,18.3,7.5,27.441A3.432,3.432,0,0,1,265,281.242c-1.449.654-5.787.368-7.618.35" transform="translate(-187.362 -185.963)" fill="#c9eafa"/>
        <path id="Path_1033749" data-name="Path 1033749" d="M168.309,323.851c-1.789.012-3.587-.008-5.377,0,.806-5.64,1.735-11.267,2.688-16.882Z" transform="translate(-121.136 -228.222)" fill="#6a7dd5"/>
        <path id="Path_1033750" data-name="Path 1033750" d="M173.38,303.053c.068-.4-.2-1.144.315-1.316l2.054-.034,3.011,18.135a13.458,13.458,0,0,1-2.691.1Z" transform="translate(-128.895 -224.307)" fill="#4e64cc"/>
        <path id="Path_1033751" data-name="Path 1033751" d="M166.743,268.273a3.594,3.594,0,0,1-.928-.032c-.179-1.173-2.094-3.766-2.148-4.687-.047-.807,2.252-2.446,2.883-2.956.461.407,2.483,2.151,2.492,2.585-.656,1.744-1.827,3.281-2.3,5.089" transform="translate(-121.682 -193.748)" fill="#6a7dd5"/>
        <path id="Path_1033752" data-name="Path 1033752" d="M143.143,239.658l2.874,2.385a40.942,40.942,0,0,1-3.733,3.568c-.285.217-.42.462-.869.378-.185-.86-1.153-3.826-.936-4.474a19.137,19.137,0,0,1,2.665-1.857" transform="translate(-104.418 -178.179)" fill="#bdd3ef"/>
        <path id="Path_1033753" data-name="Path 1033753" d="M200.359,238.693c.331-.2.452-.751,1.2-.546.57.155,2.284,1.905,3.033,2.214l-1.258,6.2c-.182.228-.228.232-.486.1a17.829,17.829,0,0,1-1.539-1.54c-.148-.143-.149-.441-.186-.477l.97-4.7c-.066-.426-1.235-1.191-1.738-1.251" transform="translate(-148.962 -177.022)" fill="#a2bfe2"/>
        <path id="Path_1033754" data-name="Path 1033754" d="M190.883,240.406c.5.06,1.672.825,1.738,1.251l-.97,4.7a1.7,1.7,0,0,1-.58-.275c-1.144-1.1-2.226-2.262-3.445-3.29-.071-.271.171-.309.309-.437a21.251,21.251,0,0,1,2.948-1.947" transform="translate(-139.485 -178.735)" fill="#bdd2ee"/>
        <path id="Path_1033755" data-name="Path 1033755" d="M145.947,238.126c.22-.144.19-.68.759-.487.2.067,3.089,2.152,3.365,2.409.17.158.518.371.47.641-1.514,1.4-2.936,3.222-4.493,4.54-.26.22-1.351,1.192-1.635.954a11.327,11.327,0,0,1-.194-1.727c.449.084.584-.162.869-.378a40.938,40.938,0,0,0,3.733-3.568Z" transform="translate(-107.223 -176.648)" fill="#a1bee1"/>
        <path id="Path_1033756" data-name="Path 1033756" d="M214.991,321.714c1.286-.23,5.676-.444,4.964,1.879-.454,1.481-3.36,1.288-4.625,1.145-2.2-.249-2.159-2.7-.338-3.024" transform="translate(-158.843 -239.086)" fill="#070808"/>
        <path id="Path_1033757" data-name="Path 1033757" d="M27.032,181.458c.624,1.79.317,3.7.384,5.564a2.48,2.48,0,0,0-1.72.3l-5.289,5.264c-.865-.822-1.89-2.367-3.277-1.543-1.911,1.134,1,3.732,2.025,4.525.882.684,1.344.891,2.317.195a66.531,66.531,0,0,0,5.944-5.859,16.157,16.157,0,0,1-2.013,8.445,22.984,22.984,0,0,1-5.284,5.752c-2.9-2.522-6.09-5.11-7.3-8.915-1.229-3.854-.29-8.777-.53-12.821a1.7,1.7,0,0,1,1.4-.907c3.634-.429,9.511-.069,13.35,0" transform="translate(-9.046 -134.753)" fill="#5ce0c3"/>
        <path id="Path_1033758" data-name="Path 1033758" d="M43.167,204.6a22.989,22.989,0,0,0,5.284-5.752,16.154,16.154,0,0,0,2.012-8.445c.508-.6,1.061-1.272.669-2.107a8.919,8.919,0,0,0-.669-.771c-.067-1.863.241-3.774-.384-5.564,1.049.02,3.625-.355,3.993.9-.215,5.2,1.047,10.634-1.656,15.341-1.569,2.733-4.535,4.688-6.657,6.97-1.384.959-1.714.188-2.592-.576" transform="translate(-32.094 -135.256)" fill="#0ed0b1"/>
        <path id="Path_1033759" data-name="Path 1033759" d="M39.958,203.612a8.956,8.956,0,0,1,.669.771c.392.836-.161,1.508-.669,2.107a66.564,66.564,0,0,1-5.944,5.859c-.973.7-1.435.489-2.317-.195-1.022-.793-3.936-3.391-2.025-4.525,1.388-.823,2.412.722,3.277,1.543l5.289-5.264a2.48,2.48,0,0,1,1.719-.3" transform="translate(-21.588 -151.342)" fill="#030706"/>
      </g>
    </g>
  </g>
</svg>
