<svg xmlns="http://www.w3.org/2000/svg" xmlns:xlink="http://www.w3.org/1999/xlink" width="117.999" height="118" viewBox="0 0 117.999 118">
  <defs>
    <filter id="Path_874925" x="0" y="0" width="117.999" height="118" filterUnits="userSpaceOnUse">
      <feOffset dy="3" input="SourceAlpha"/>
      <feGaussianBlur stdDeviation="3" result="blur"/>
      <feFlood flood-opacity="0.161"/>
      <feComposite operator="in" in2="blur"/>
      <feComposite in="SourceGraphic"/>
    </filter>
    <clipPath id="clip-path">
      <rect id="Rectangle_408967" data-name="Rectangle 408967" width="64.126" height="64.212" fill="none"/>
    </clipPath>
  </defs>
  <g id="Group_1111549" data-name="Group 1111549" transform="translate(-799.5 -2511.157)">
    <g id="Group_1111316" data-name="Group 1111316" transform="translate(808.5 2517.157)">
      <g id="Group_1109835" data-name="Group 1109835" transform="translate(0 0)">
        <g id="Group_1107913" data-name="Group 1107913" transform="translate(0 0)">
          <g transform="matrix(1, 0, 0, 1, -9, -6)" filter="url(#Path_874925)">
            <g id="Path_874925-2" data-name="Path 874925" transform="translate(9 6)" fill="#9ad354" opacity="0.859">
              <path d="M 49.99972534179688 98.4998779296875 C 43.45164108276367 98.4998779296875 37.10022354125977 97.21776580810547 31.12189674377441 94.68914794921875 C 25.34676742553711 92.24647521972656 20.15985298156738 88.74925994873047 15.70523929595947 84.29464721679688 C 11.25062561035156 79.84004974365234 7.753411293029785 74.65313720703125 5.310725212097168 68.87800598144531 C 2.782111167907715 62.89969253540039 1.499996781349182 56.54829406738281 1.499996781349182 50.00022125244141 C 1.499996781349182 43.45157623291016 2.782111167907715 37.10017776489258 5.310725212097168 31.12186431884766 C 7.753411293029785 25.34673500061035 11.25062561035156 20.15983581542969 15.70523929595947 15.70522117614746 C 20.15985298156738 11.25062084197998 25.34676742553711 7.753406524658203 31.12189674377441 5.31073522567749 C 37.10022354125977 2.782120943069458 43.45164108276367 1.500006556510925 49.99972534179688 1.500006556510925 C 56.54780960083008 1.500006556510925 62.89922714233398 2.782120943069458 68.87755584716797 5.31073522567749 C 74.65267944335938 7.753406524658203 79.839599609375 11.25062084197998 84.29421234130859 15.70522117614746 C 88.74882507324219 20.15983581542969 92.24604034423828 25.34673500061035 94.68872833251953 31.12186431884766 C 97.21733856201172 37.10017776489258 98.49945068359375 43.45157623291016 98.49945068359375 49.99964904785156 C 98.49945068359375 56.54829406738281 97.21733856201172 62.89969253540039 94.68872833251953 68.87800598144531 C 92.24604034423828 74.65313720703125 88.74882507324219 79.84004974365234 84.29421234130859 84.29464721679688 C 79.839599609375 88.74925994873047 74.65267944335938 92.24647521972656 68.87755584716797 94.68914794921875 C 62.89922714233398 97.21776580810547 56.54780960083008 98.4998779296875 49.99972534179688 98.4998779296875 Z" stroke="none"/>
              <path d="M 49.99972534179688 3 C 43.65348052978516 3 37.49866485595703 4.242240905761719 31.70623016357422 6.692230224609375 C 26.10989379882812 9.059272766113281 21.08323669433594 12.44853210449219 16.76589202880859 16.76587677001953 C 12.44855499267578 21.08321380615234 9.059295654296875 26.10985565185547 6.692230224609375 31.70618438720703 C 4.24224853515625 37.49859619140625 3 43.65341186523438 3 50.00022888183594 C 3 56.34645843505859 4.24224853515625 62.50127410888672 6.692230224609375 68.29368591308594 C 9.059295654296875 73.8900146484375 12.44855499267578 78.91665649414062 16.76589202880859 83.23399353027344 C 21.08323669433594 87.55132293701172 26.10989379882812 90.94059753417969 31.70623016357422 93.30764007568359 C 37.49866485595703 95.75762939453125 43.65348052978516 96.99987030029297 49.99972534179688 96.99987030029297 C 56.34597015380859 96.99987030029297 62.50078582763672 95.75762939453125 68.293212890625 93.30764007568359 C 73.88955688476562 90.94059753417969 78.91621398925781 87.55132293701172 83.23355865478516 83.23399353027344 C 87.55089569091797 78.91665649414062 90.94015502929688 73.8900146484375 93.30722045898438 68.29368591308594 C 95.7572021484375 62.50127410888672 96.99945068359375 56.34645843505859 96.99945068359375 49.99964141845703 C 96.99945068359375 43.65341186523438 95.7572021484375 37.49859619140625 93.30722045898438 31.70618438720703 C 90.94015502929688 26.10985565185547 87.55089569091797 21.08321380615234 83.23355865478516 16.76587677001953 C 78.91621398925781 12.44853210449219 73.88955688476562 9.059272766113281 68.293212890625 6.692230224609375 C 62.50078582763672 4.242240905761719 56.34597015380859 3 49.99972534179688 3 M 49.99972534179688 0 C 77.61381530761719 0 99.99945068359375 22.38559722900391 99.99945068359375 49.99964141845703 L 99.99945068359375 50.00022888183594 C 99.99945068359375 77.6142578125 77.61381530761719 99.99987030029297 49.99972534179688 99.99987030029297 C 22.38563537597656 99.99987030029297 0 77.6142578125 0 50.00022888183594 L 0 49.99964141845703 C 0 22.38559722900391 22.38563537597656 0 49.99972534179688 0 Z" stroke="none" fill="#fff"/>
            </g>
          </g>
          <g id="Path_874923" data-name="Path 874923" transform="translate(0 0)" fill="none">
            <path d="M50,0a50,50,0,0,1,50,50h0A50,50,0,0,1,0,50H0A50,50,0,0,1,50,0Z" stroke="none"/>
            <path d="M 49.99972534179688 3 C 43.65348052978516 3 37.49866485595703 4.242240905761719 31.70623016357422 6.692230224609375 C 26.10989379882812 9.059272766113281 21.08323669433594 12.44853210449219 16.76589202880859 16.76587677001953 C 12.44855499267578 21.08321380615234 9.059295654296875 26.10985565185547 6.692230224609375 31.70618438720703 C 4.24224853515625 37.49859619140625 3 43.65341186523438 3 50.00022888183594 C 3 56.34645843505859 4.24224853515625 62.50127410888672 6.692230224609375 68.29368591308594 C 9.059295654296875 73.8900146484375 12.44855499267578 78.91665649414062 16.76589202880859 83.23399353027344 C 21.08323669433594 87.55132293701172 26.10989379882812 90.94059753417969 31.70623016357422 93.30764007568359 C 37.49866485595703 95.75762939453125 43.65348052978516 96.99987030029297 49.99972534179688 96.99987030029297 C 56.34597015380859 96.99987030029297 62.50078582763672 95.75762939453125 68.293212890625 93.30764007568359 C 73.88955688476562 90.94059753417969 78.91621398925781 87.55132293701172 83.23355865478516 83.23399353027344 C 87.55089569091797 78.91665649414062 90.94015502929688 73.8900146484375 93.30722045898438 68.29368591308594 C 95.7572021484375 62.50127410888672 96.99945068359375 56.34645843505859 96.99945068359375 49.99964141845703 C 96.99945068359375 43.65341186523438 95.7572021484375 37.49859619140625 93.30722045898438 31.70618438720703 C 90.94015502929688 26.10985565185547 87.55089569091797 21.08321380615234 83.23355865478516 16.76587677001953 C 78.91621398925781 12.44853210449219 73.88955688476562 9.059272766113281 68.293212890625 6.692230224609375 C 62.50078582763672 4.242240905761719 56.34597015380859 3 49.99972534179688 3 M 49.99972534179688 0 C 77.61381530761719 0 99.99945068359375 22.38559722900391 99.99945068359375 49.99964141845703 L 99.99945068359375 50.00022888183594 C 99.99945068359375 77.6142578125 77.61381530761719 99.99987030029297 49.99972534179688 99.99987030029297 C 22.38563537597656 99.99987030029297 0 77.6142578125 0 50.00022888183594 L 0 49.99964141845703 C 0 22.38559722900391 22.38563537597656 0 49.99972534179688 0 Z" stroke="none" fill="#fff"/>
          </g>
        </g>
      </g>
    </g>
    <g id="Group_1200288" data-name="Group 1200288" transform="translate(826.437 2535.051)">
      <g id="Group_1200287" data-name="Group 1200287" clip-path="url(#clip-path)">
        <path id="Path_1033344" data-name="Path 1033344" d="M11.179,64.212a8.575,8.575,0,0,1-6.994-7.457L4.169,22.943H1.853A2.387,2.387,0,0,1,.1,21.446a13.707,13.707,0,0,1,0-3.259c.5-1.96,2.94-1.428,4.435-1.51A45.959,45.959,0,0,0,6.8,6.622C7.114,4.02,6.491.446,10.109.176c7.553-.561,15.792.436,23.417,0a3.039,3.039,0,0,1,2.751,2.254c.562,1.973.474,5.171.851,7.4a42.182,42.182,0,0,0,1.852,6.84c1.56.07,4-.442,4.437,1.634a9.8,9.8,0,0,1-.1,3.3,2.461,2.461,0,0,1-1.663,1.339H39.342v18.51c-.333,0-.669-.007-1,0-.374.007-.752-.005-1.126,0V22.943h-2c-.4,6.07,1.462,13.082-2.815,18.135a14.174,14.174,0,0,1-6.322,4.189c1.479.864,3.1,1.578,4.029,3.1a6.344,6.344,0,0,1,.6,5.464H35.4a3.465,3.465,0,0,1,1.52.862,4.458,4.458,0,0,1,2.416-.867v-1.99c-2.226-.162-2.28-2.3-2.127-4.074a2.294,2.294,0,0,1,1.131-1.934c.223-.113,1.055-.229,1.1-.271s.231-.886.335-1.1A5.28,5.28,0,0,1,44.1,41.515a7.279,7.279,0,0,1,13.14,0,5.225,5.225,0,0,1,3.912,2.22c.343.486.612,1.5.787,1.715s.738.221,1.025.351a2.605,2.605,0,0,1,1.163,1.4v3.126a2.888,2.888,0,0,1-2.135,1.577L62,64.212H18.689c-.743-.174-1.72-.93-2.378-1a17.44,17.44,0,0,0-1.069-1.5,5.235,5.235,0,0,1-.689-1.938c-.349-3.8.263-8.141.016-12a7.158,7.158,0,0,1,.715-1.786c.131-.216,1.012-1.142.9-1.287A12.364,12.364,0,0,1,8.294,34.016c-.241-3.592.191-7.453.005-11.073h-2V57.022a9.675,9.675,0,0,0,.809,2.068,6.093,6.093,0,0,0,5.325,3v2.126Zm5.257-61.9h-6.7a1.678,1.678,0,0,0-.535.716L8.675,8.436c3.8-.621,5.324,4.737,1.716,6.029-1.161.415-1.864.035-2.967-.276l-.752,2.5h4.193a24.955,24.955,0,0,0,5.57-14.382M13.557,16.69h16.4A27.866,27.866,0,0,1,24.948,2.308L18.636,2.3c-.3,1.539-.417,3.1-.759,4.636a28.316,28.316,0,0,1-4.32,9.753M33.647,2.308H27.075a24.509,24.509,0,0,0,5.57,14.382h4.068L35.9,14.067a3.031,3.031,0,0,1-4.511-1.124,3.171,3.171,0,0,1,3.447-4.508l-.527-5.413a1.171,1.171,0,0,0-.663-.714M10.369,11.546a1.031,1.031,0,1,0-1.031,1.03,1.031,1.031,0,0,0,1.031-1.03m24.812,0a1.034,1.034,0,1,0-1.033,1.033,1.033,1.033,0,0,0,1.033-1.033m6.163,7.274H2.166v2H41.345Zm-8.261,4.127H10.428V34.636c0,1.44,1.5,4.21,2.439,5.317,4.222,4.958,13.448,4.942,17.71.058,1.028-1.179,2.507-3.941,2.507-5.5ZM54.989,41.951a4.949,4.949,0,0,0-5.76-2.315c-.68.188-2.9,1.437-2.761,2.241a5.308,5.308,0,0,1,3.086,3.709l2.294-.02a4.741,4.741,0,0,1,3.142-3.616m-7.636,3.628a3.064,3.064,0,0,0-5.757,0Zm12.392,0c-.829-2.645-4.91-2.711-5.633,0ZM31.081,55.959H24.259l-1.752,1.63-1.43-1.334,1.74-1.987c-.111-1.777.161-3.746,0-5.5a3.132,3.132,0,0,0-6.255-.251c.224,3.429-.307,7.245,0,10.627A3.176,3.176,0,0,0,17.9,61.565a4.11,4.11,0,0,0,.98.522h12.2Zm-2.629-2.126c1.677-3.635-.862-5.645-3.879-7,.485,2.287.154,4.675.249,7Zm10.89-4.127H62v-2H39.342ZM58.368,62.087l-10.2-10.255H43.973l10.2,10.255Zm1.627-1.5V56.4l-4.568-4.565H51.233Zm0-8.755h-1.5c-.181.161,1.185,1.315,1.316,1.5.283.052.173-.124.186-.31.029-.393-.02-.8,0-1.191M43.1,53.956a13.616,13.616,0,0,0-1.376-1.437c-.125-.1-.159-.243-.375-.186.055.34-.131,1.4.117,1.571Zm-7.886,2H33.083v6.065c.476.376,1.321.134,1.921.168l.207-.168Zm2,6.128h5.57c.4,0,.649-.718.688-1.063a26.344,26.344,0,0,0-.007-4.12,1.175,1.175,0,0,0-1.054-.948,20.552,20.552,0,0,0-3.479.031c-.387.079-1.718,1.227-1.718,1.535Zm13.894,0-5.633-5.628v5.315c0,.038-.172.178-.125.312Z" transform="translate(0 0)" fill="#040303"/>
        <path id="Path_1033345" data-name="Path 1033345" d="M49.608,107.307v6.128H37.4a4.111,4.111,0,0,1-.98-.522,3.174,3.174,0,0,1-1.334-2.419c-.307-3.382.224-7.2,0-10.626a3.132,3.132,0,0,1,6.255.251c.16,1.752-.112,3.72,0,5.5L39.6,107.6l1.43,1.335,1.752-1.63Z" transform="translate(-18.527 -51.349)" fill="#f9d56f"/>
        <path id="Path_1033346" data-name="Path 1033346" d="M56.1,106.527h-3.63c-.1-2.329.235-4.717-.249-7,3.016,1.358,5.556,3.368,3.879,7" transform="translate(-27.651 -52.695)" fill="#f8d46e"/>
        <path id="Path_1033347" data-name="Path 1033347" d="M72.44,118.926v6.066l-.208.168c-.6-.034-1.444.208-1.92-.168v-6.066Z" transform="translate(-37.228 -62.968)" fill="#f7c128"/>
        <rect id="Rectangle_408965" data-name="Rectangle 408965" width="22.656" height="2.001" transform="translate(39.342 47.704)" fill="#d29f6c"/>
        <path id="Path_1033348" data-name="Path 1033348" d="M107.85,120.41h-4.193l-10.2-10.255h4.193Z" transform="translate(-49.482 -58.324)" fill="#deb18a"/>
        <path id="Path_1033349" data-name="Path 1033349" d="M79.09,124.986v-4.565c0-.308,1.332-1.456,1.718-1.535a20.553,20.553,0,0,1,3.479-.031,1.175,1.175,0,0,1,1.054.948,26.343,26.343,0,0,1,.007,4.12c-.039.344-.287,1.063-.688,1.063Z" transform="translate(-41.876 -62.899)" fill="#edcdb1"/>
        <path id="Path_1033350" data-name="Path 1033350" d="M107.27,86.339a4.74,4.74,0,0,0-3.142,3.616l-2.294.019a5.309,5.309,0,0,0-3.086-3.708c-.135-.8,2.081-2.053,2.761-2.241a4.95,4.95,0,0,1,5.76,2.315" transform="translate(-52.281 -44.389)" fill="#9ed167"/>
        <path id="Path_1033351" data-name="Path 1033351" d="M117.646,118.91l-8.762-8.754h4.193l4.569,4.565Z" transform="translate(-57.651 -58.324)" fill="#deb18a"/>
        <path id="Path_1033352" data-name="Path 1033352" d="M102.13,125.618H96.372c-.047-.135.125-.274.125-.312V119.99Z" transform="translate(-51.022 -63.531)" fill="#dbaf89"/>
        <path id="Path_1033353" data-name="Path 1033353" d="M94.158,94.6H88.4a3.064,3.064,0,0,1,5.758,0" transform="translate(-46.805 -49.021)" fill="#b1d97d"/>
        <path id="Path_1033354" data-name="Path 1033354" d="M120.635,94.606H115c.723-2.711,4.8-2.645,5.633,0" transform="translate(-60.89 -49.027)" fill="#b1d97d"/>
        <path id="Path_1033355" data-name="Path 1033355" d="M89.6,112.83l-1.635-.053c-.248-.172-.062-1.231-.117-1.571.217-.056.25.09.376.186A13.712,13.712,0,0,1,89.6,112.83" transform="translate(-46.507 -58.873)" fill="#c49c7a"/>
        <path id="Path_1033356" data-name="Path 1033356" d="M125.8,110.154c-.021.393.028.8,0,1.19-.014.186.1.362-.186.31-.13-.184-1.5-1.338-1.315-1.5Z" transform="translate(-65.802 -58.323)" fill="#cea480"/>
        <path id="Path_1033357" data-name="Path 1033357" d="M67.681,71.645a2.294,2.294,0,0,0-1.131,1.934c-.152,1.776-.1,3.912,2.127,4.074v1.99a4.458,4.458,0,0,0-2.416.867,3.465,3.465,0,0,0-1.52-.862H60.046a6.344,6.344,0,0,0-.6-5.464c-.934-1.524-2.55-2.237-4.029-3.1a14.174,14.174,0,0,0,6.322-4.189c4.277-5.053,2.413-12.065,2.815-18.135h2V67.268c.374-.005.752.007,1.126,0Z" transform="translate(-29.341 -25.816)" fill="#646c77"/>
        <path id="Path_1033358" data-name="Path 1033358" d="M19.516,89.028V87.9a6.093,6.093,0,0,1-5.325-3,9.675,9.675,0,0,1-.809-2.068V48.759h2c.186,3.62-.246,7.481-.005,11.073a12.364,12.364,0,0,0,7.891,10.689c.111.145-.77,1.071-.9,1.287a7.141,7.141,0,0,0-.716,1.786c.247,3.859-.365,8.2-.016,12a5.222,5.222,0,0,0,.69,1.937,17.617,17.617,0,0,1,1.068,1.5c-1.217-.13-2.639.1-3.88,0" transform="translate(-7.086 -25.816)" fill="#646c77"/>
        <path id="Path_1033359" data-name="Path 1033359" d="M28.812,19.278a28.316,28.316,0,0,0,4.32-9.753c.342-1.536.462-3.1.759-4.636L40.2,4.9A27.871,27.871,0,0,0,45.21,19.278Zm11.295-5.145a3.1,3.1,0,1,0-3.1,3.1,3.1,3.1,0,0,0,3.1-3.1" transform="translate(-15.255 -2.589)" fill="#cd9c75"/>
        <rect id="Rectangle_408966" data-name="Rectangle 408966" width="39.178" height="2.001" transform="translate(2.166 18.816)" fill="#d29f6c"/>
        <path id="Path_1033360" data-name="Path 1033360" d="M64.113,4.905a1.172,1.172,0,0,1,.663.714l.527,5.413a3.171,3.171,0,0,0-3.447,4.508,3.031,3.031,0,0,0,4.511,1.124l.813,2.623H63.112a24.508,24.508,0,0,1-5.57-14.382Z" transform="translate(-30.467 -2.597)" fill="#cd9c75"/>
        <path id="Path_1033361" data-name="Path 1033361" d="M23.945,4.905a24.95,24.95,0,0,1-5.57,14.382H14.181l.752-2.5c1.1.311,1.806.692,2.966.276,3.608-1.292,2.087-6.65-1.716-6.029l.529-5.412a1.678,1.678,0,0,1,.535-.716Z" transform="translate(-7.508 -2.597)" fill="#cd9c75"/>
        <path id="Path_1033362" data-name="Path 1033362" d="M72.443,23.366a1.034,1.034,0,1,1-1.033-1.032,1.033,1.033,0,0,1,1.033,1.032" transform="translate(-37.262 -11.825)" fill="#cc9b68"/>
        <path id="Path_1033363" data-name="Path 1033363" d="M19.717,23.377a1.031,1.031,0,1,1-1.031-1.03,1.031,1.031,0,0,1,1.031,1.03" transform="translate(-9.347 -11.832)" fill="#cc9b68"/>
        <path id="Path_1033364" data-name="Path 1033364" d="M45.831,21.047a3.1,3.1,0,1,1-3.1-3.1,3.1,3.1,0,0,1,3.1,3.1m-2.073,0a1.038,1.038,0,1,0-1.038,1.037,1.037,1.037,0,0,0,1.038-1.037" transform="translate(-20.98 -9.502)" fill="#030302"/>
        <path id="Path_1033365" data-name="Path 1033365" d="M46.076,23.376a1.038,1.038,0,1,1-1.038-1.037,1.037,1.037,0,0,1,1.038,1.037" transform="translate(-23.297 -11.828)" fill="#cc9b69"/>
        <path id="Path_1033366" data-name="Path 1033366" d="M44.818,48.759V60.327c0,1.558-1.478,4.321-2.507,5.5-4.262,4.885-13.488,4.9-17.71-.057-.942-1.106-2.439-3.877-2.439-5.317V48.759ZM32.426,54.887a4.131,4.131,0,0,0-8.262,0h2.128a2.053,2.053,0,0,1,3.908-.84c.128.3.026.641.285.84Zm10.389,0c-.328-5.429-8.054-5.472-8.261,0h2a2.066,2.066,0,0,1,4.131,0ZM38.555,61.4l-2-.631a3.238,3.238,0,0,1-6.218.118l-1.929.584A5.288,5.288,0,0,0,38.555,61.4" transform="translate(-11.734 -25.816)" fill="#eeceb2"/>
        <path id="Path_1033367" data-name="Path 1033367" d="M45.587,74.9a5.288,5.288,0,0,1-10.144.071l1.929-.584a3.238,3.238,0,0,0,6.218-.118Z" transform="translate(-18.766 -39.325)" fill="#040403"/>
        <path id="Path_1033368" data-name="Path 1033368" d="M34.679,57.185h-1.94c-.259-.2-.157-.545-.286-.84a2.053,2.053,0,0,0-3.908.84H26.418a4.131,4.131,0,0,1,8.261,0" transform="translate(-13.988 -28.114)" fill="#040403"/>
        <path id="Path_1033369" data-name="Path 1033369" d="M56.759,57.182H54.631a2.066,2.066,0,0,0-4.131,0h-2c.207-5.473,7.933-5.43,8.261,0" transform="translate(-25.678 -28.112)" fill="#040303"/>
      </g>
    </g>
  </g>
</svg>
