<svg xmlns="http://www.w3.org/2000/svg" xmlns:xlink="http://www.w3.org/1999/xlink" width="103" height="103" viewBox="0 0 103 103">
  <defs>
    <filter id="Path_874925" x="0" y="0" width="103" height="103" filterUnits="userSpaceOnUse">
      <feOffset dy="3" input="SourceAlpha"/>
      <feGaussianBlur stdDeviation="3" result="blur"/>
      <feFlood flood-opacity="0.161"/>
      <feComposite operator="in" in2="blur"/>
      <feComposite in="SourceGraphic"/>
    </filter>
  </defs>
  <g id="Group_1199421" data-name="Group 1199421" transform="translate(-793.782 -1841.427)">
    <g id="Group_1198308" data-name="Group 1198308" transform="translate(802.781 1847.427)">
      <g id="Group_1111316" data-name="Group 1111316" transform="translate(0 0)">
        <g id="Group_1109835" data-name="Group 1109835" transform="translate(0 0)">
          <g id="Group_1107913" data-name="Group 1107913" transform="translate(0 0)">
            <g transform="matrix(1, 0, 0, 1, -9, -6)" filter="url(#Path_874925)">
              <g id="Path_874925-2" data-name="Path 874925" transform="translate(9 6)" fill="#fdf4e9" opacity="0.859">
                <path d="M 42.49985885620117 83.50006866455078 C 36.96424865722656 83.50006866455078 31.59502410888672 82.41624450683594 26.54131698608398 80.27871704101562 C 21.65927124023438 78.21379089355469 17.27442359924316 75.25733947753906 13.50857639312744 71.49150848388672 C 9.742741584777832 67.72568511962891 6.786293983459473 63.34083557128906 4.721353054046631 58.45878601074219 C 2.583823680877686 53.40509414672852 1.5 48.03588104248047 1.5 42.50028228759766 C 1.5 36.96418762207031 2.583823680877686 31.5949764251709 4.721353054046631 26.54128074645996 C 6.786293983459473 21.65923500061035 9.742741584777832 17.27438735961914 13.50857639312744 13.50856399536133 C 17.27442359924316 9.742728233337402 21.65927124023438 6.786281585693359 26.54131698608398 4.721352100372314 C 31.59502410888672 2.58382248878479 36.96424865722656 1.499999046325684 42.49985885620117 1.499999046325684 C 48.03546905517578 1.499999046325684 53.40469360351562 2.58382248878479 58.45840072631836 4.721352100372314 C 63.34044647216797 6.786281585693359 67.72529602050781 9.742728233337402 71.49114227294922 13.50856399536133 C 75.25697326660156 17.27438735961914 78.21342468261719 21.65923500061035 80.27836608886719 26.54128074645996 C 82.4158935546875 31.5949764251709 83.49971771240234 36.96418762207031 83.49971771240234 42.49978637695312 C 83.49971771240234 48.03588104248047 82.4158935546875 53.40509414672852 80.27836608886719 58.45878601074219 C 78.21342468261719 63.34083557128906 75.25697326660156 67.72568511962891 71.49114227294922 71.49150848388672 C 67.72529602050781 75.25733947753906 63.34044647216797 78.21379089355469 58.45840072631836 80.27871704101562 C 53.40469360351562 82.41624450683594 48.03546905517578 83.50006866455078 42.49985885620117 83.50006866455078 Z" stroke="none"/>
                <path d="M 42.49985885620117 2.999992370605469 C 37.16608428955078 2.999992370605469 31.99345779418945 4.043937683105469 27.12564468383789 6.10284423828125 C 22.42239379882812 8.092155456542969 18.19780731201172 10.94065856933594 14.56922912597656 14.56922149658203 C 10.940673828125 18.19778442382812 8.0921630859375 22.42235565185547 6.102859497070312 27.12560653686523 C 4.043952941894531 31.993408203125 2.999992370605469 37.16603469848633 2.999992370605469 42.50028610229492 C 2.999992370605469 47.83404922485352 4.043952941894531 53.00666046142578 6.102859497070312 57.87445831298828 C 8.0921630859375 62.57770156860352 10.940673828125 66.80229187011719 14.56922912597656 70.43084716796875 C 18.19780731201172 74.05941009521484 22.42239379882812 76.90789794921875 27.12564468383789 78.89720916748047 C 31.99345779418945 80.95611572265625 37.16608428955078 82.00006103515625 42.49985885620117 82.00006103515625 C 47.83363342285156 82.00006103515625 53.00625610351562 80.95611572265625 57.87407302856445 78.89720916748047 C 62.57732391357422 76.90789794921875 66.80191040039062 74.05941009521484 70.43047332763672 70.43084716796875 C 74.05904388427734 66.80229187011719 76.90753936767578 62.57770156860352 78.89684295654297 57.87445831298828 C 80.95576477050781 53.00666046142578 81.99971008300781 47.83404922485352 81.99971008300781 42.49979400634766 C 81.99971008300781 37.16603469848633 80.95574951171875 31.993408203125 78.89684295654297 27.12560653686523 C 76.90753936767578 22.42235565185547 74.05904388427734 18.19778442382812 70.43047332763672 14.56922149658203 C 66.80191040039062 10.94065856933594 62.57732391357422 8.092155456542969 57.87407302856445 6.10284423828125 C 53.00625610351562 4.043937683105469 47.83363342285156 2.999992370605469 42.49985885620117 2.999992370605469 M 42.49985885620117 -7.62939453125e-06 C 65.97188568115234 -7.62939453125e-06 84.99971008300781 19.02779388427734 84.99971008300781 42.49979400634766 L 84.99971008300781 42.50028610229492 C 84.99971008300781 65.97225952148438 65.97188568115234 85.00006103515625 42.49985885620117 85.00006103515625 C 19.02783203125 85.00006103515625 -7.62939453125e-06 65.97225952148438 -7.62939453125e-06 42.50028610229492 L -7.62939453125e-06 42.49979400634766 C -7.62939453125e-06 19.02779388427734 19.02783203125 -7.62939453125e-06 42.49985885620117 -7.62939453125e-06 Z" stroke="none" fill="#fff"/>
              </g>
            </g>
            <g id="Path_874923" data-name="Path 874923" transform="translate(0 0)" fill="none">
              <path d="M42.5,0A42.5,42.5,0,0,1,85,42.5h0a42.5,42.5,0,0,1-85,0H0A42.5,42.5,0,0,1,42.5,0Z" stroke="none"/>
              <path d="M 42.49985885620117 2.999992370605469 C 37.16608428955078 2.999992370605469 31.99345779418945 4.043937683105469 27.12564468383789 6.10284423828125 C 22.42239379882812 8.092155456542969 18.19780731201172 10.94065856933594 14.56922912597656 14.56922149658203 C 10.940673828125 18.19778442382812 8.0921630859375 22.42235565185547 6.102859497070312 27.12560653686523 C 4.043952941894531 31.993408203125 2.999992370605469 37.16603469848633 2.999992370605469 42.50028610229492 C 2.999992370605469 47.83404922485352 4.043952941894531 53.00666046142578 6.102859497070312 57.87445831298828 C 8.0921630859375 62.57770156860352 10.940673828125 66.80229187011719 14.56922912597656 70.43084716796875 C 18.19780731201172 74.05941009521484 22.42239379882812 76.90789794921875 27.12564468383789 78.89720916748047 C 31.99345779418945 80.95611572265625 37.16608428955078 82.00006103515625 42.49985885620117 82.00006103515625 C 47.83363342285156 82.00006103515625 53.00625610351562 80.95611572265625 57.87407302856445 78.89720916748047 C 62.57732391357422 76.90789794921875 66.80191040039062 74.05941009521484 70.43047332763672 70.43084716796875 C 74.05904388427734 66.80229187011719 76.90753936767578 62.57770156860352 78.89684295654297 57.87445831298828 C 80.95576477050781 53.00666046142578 81.99971008300781 47.83404922485352 81.99971008300781 42.49979400634766 C 81.99971008300781 37.16603469848633 80.95574951171875 31.993408203125 78.89684295654297 27.12560653686523 C 76.90753936767578 22.42235565185547 74.05904388427734 18.19778442382812 70.43047332763672 14.56922149658203 C 66.80191040039062 10.94065856933594 62.57732391357422 8.092155456542969 57.87407302856445 6.10284423828125 C 53.00625610351562 4.043937683105469 47.83363342285156 2.999992370605469 42.49985885620117 2.999992370605469 M 42.49985885620117 -7.62939453125e-06 C 65.97188568115234 -7.62939453125e-06 84.99971008300781 19.02779388427734 84.99971008300781 42.49979400634766 L 84.99971008300781 42.50028610229492 C 84.99971008300781 65.97225952148438 65.97188568115234 85.00006103515625 42.49985885620117 85.00006103515625 C 19.02783203125 85.00006103515625 -7.62939453125e-06 65.97225952148438 -7.62939453125e-06 42.50028610229492 L -7.62939453125e-06 42.49979400634766 C -7.62939453125e-06 19.02779388427734 19.02783203125 -7.62939453125e-06 42.49985885620117 -7.62939453125e-06 Z" stroke="none" fill="#905410"/>
            </g>
          </g>
        </g>
      </g>
    </g>
    <g id="farmer_8239819" transform="translate(822.972 1862.181)">
      <g id="Group_1199418" data-name="Group 1199418" transform="translate(0 0)">
        <path id="Path_1031214" data-name="Path 1031214" d="M118.949,172.656h-9.274a5.462,5.462,0,0,1-5.462-5.462v-9.025h20.2v9.025A5.462,5.462,0,0,1,118.949,172.656Z" transform="translate(-95.33 -142.857)" fill="#ffdfcf"/>
        <path id="Path_1031215" data-name="Path 1031215" d="M224.676,158.169v9.025a5.462,5.462,0,0,1-5.462,5.462h3.049a5.462,5.462,0,0,0,5.462-5.462v-9.025Z" transform="translate(-198.644 -142.857)" fill="#ffcebf"/>
        <rect id="Rectangle_408679" data-name="Rectangle 408679" width="6.094" height="4.367" transform="translate(15.935 29.798)" fill="#ffcebf"/>
        <rect id="Rectangle_408680" data-name="Rectangle 408680" width="3.049" height="4.367" transform="translate(18.98 29.798)" fill="#ffb09e"/>
        <path id="Path_1031216" data-name="Path 1031216" d="M22.707,343.7H48.755A5.905,5.905,0,0,1,54.66,349.6v10.436h-36.1a1.759,1.759,0,0,1-1.759-1.759V349.6A5.905,5.905,0,0,1,22.707,343.7Z" transform="translate(-16.802 -309.53)" fill="#6c7fd8"/>
        <path id="Path_1031217" data-name="Path 1031217" d="M124.411,18.95h-20.2l.685-3.464,1.11-5.758a2.748,2.748,0,0,1,2.7-2.228h11.212a2.748,2.748,0,0,1,2.7,2.228l1.11,5.758Z" transform="translate(-95.33 -7.5)" fill="#fd6930"/>
        <path id="Path_1031218" data-name="Path 1031218" d="M235.608,15.486,234.5,9.728A2.748,2.748,0,0,0,231.8,7.5H228.75a2.748,2.748,0,0,1,2.7,2.228l1.11,5.758.685,3.464h3.049Z" transform="translate(-207.211 -7.5)" fill="#fd5426"/>
        <path id="Path_1031219" data-name="Path 1031219" d="M71.656,124.038h-29.3a1.93,1.93,0,0,1-1.93-1.93h0a1.93,1.93,0,0,1,1.93-1.93h29.3a1.93,1.93,0,0,1,1.93,1.93h0A1.93,1.93,0,0,1,71.656,124.038Z" transform="translate(-38.023 -108.726)" fill="#fd6930"/>
        <path id="Path_1031220" data-name="Path 1031220" d="M320.8,120.176h-3.049a1.93,1.93,0,0,1,1.93,1.93h0a1.93,1.93,0,0,1-1.93,1.93H320.8a1.931,1.931,0,0,0,1.931-1.93h0A1.93,1.93,0,0,0,320.8,120.176Z" transform="translate(-287.17 -108.725)" fill="#fd5426"/>
        <path id="Path_1031221" data-name="Path 1031221" d="M124.411,89.546h-20.2l.685-3.464h18.829Z" transform="translate(-95.33 -78.096)" fill="#fef48b"/>
        <path id="Path_1031222" data-name="Path 1031222" d="M269.273,86.082h-3.049l.685,3.464h3.049Z" transform="translate(-240.877 -78.096)" fill="#fef056"/>
        <path id="Path_1031223" data-name="Path 1031223" d="M75.7,163.479H73.628a1.151,1.151,0,0,1-1.151-1.151v-3.007a1.151,1.151,0,0,1,1.151-1.151H75.7v5.309Z" transform="translate(-66.819 -142.858)" fill="#ffcebf"/>
        <path id="Path_1031224" data-name="Path 1031224" d="M302.966,163.479h2.075a1.151,1.151,0,0,0,1.151-1.151v-3.007a1.151,1.151,0,0,0-1.151-1.151h-2.075Z" transform="translate(-273.885 -142.858)" fill="#ffcebf"/>
        <path id="Path_1031225" data-name="Path 1031225" d="M300.629,341.652A2.331,2.331,0,0,0,299,337.658a2.474,2.474,0,0,0-2.331,1.956,26.013,26.013,0,0,1-5.216-4.662,2.32,2.32,0,0,0-1.252.365,2.331,2.331,0,0,0-4.122,2.164,4.116,4.116,0,1,0-3.271,7.548s16.139.616,16.193.616a2.331,2.331,0,0,0,1.634-3.993Z" transform="translate(-253.676 -300.978)" fill="#00c27a"/>
        <g id="Group_1199417" data-name="Group 1199417" transform="translate(42.913 36.681)">
          <path id="Path_1031226" data-name="Path 1031226" d="M443.8,370.557a2.379,2.379,0,0,0-2.655-2.094,2.065,2.065,0,0,0-1.2.551,2.319,2.319,0,0,1,.411,3.08.617.617,0,0,0,0,.693,2.331,2.331,0,0,1-1.281,3.556l2.406.091a82.166,82.166,0,0,0,2.321-5.876Z" transform="translate(-439.076 -368.447)" fill="#08b865"/>
        </g>
        <path id="Path_1031227" data-name="Path 1031227" d="M140.8,360.037h-4.324L131.052,343.7h4.324Z" transform="translate(-119.441 -309.53)" fill="#c68d7a"/>
        <path id="Path_1031228" data-name="Path 1031228" d="M287.965,439.688H270.493a1.636,1.636,0,0,1-1.581-1.217l-1.2-4.532a1.26,1.26,0,0,1,1.218-1.583h20.6a1.26,1.26,0,0,1,1.218,1.583l-1.2,4.532A1.636,1.636,0,0,1,287.965,439.688Z" transform="translate(-242.174 -389.181)" fill="#c68d7a"/>
        <path id="Path_1031229" data-name="Path 1031229" d="M442.006,432.357h-3.049a1.26,1.26,0,0,1,1.218,1.583l-1.2,4.532a1.636,1.636,0,0,1-1.581,1.217h3.049a1.636,1.636,0,0,0,1.581-1.217l1.2-4.532A1.26,1.26,0,0,0,442.006,432.357Z" transform="translate(-394.65 -389.181)" fill="#bc7c63"/>
      </g>
      <g id="Group_1199420" data-name="Group 1199420" transform="translate(0 0)">
        <path id="Path_1031230" data-name="Path 1031230" d="M118.949,172.656h-9.274a5.462,5.462,0,0,1-5.462-5.462v-9.025h20.2v9.025A5.462,5.462,0,0,1,118.949,172.656Z" transform="translate(-95.33 -142.857)" fill="none" stroke="#000" stroke-linecap="round" stroke-linejoin="round" stroke-miterlimit="10" stroke-width="2.5"/>
        <rect id="Rectangle_408681" data-name="Rectangle 408681" width="6.094" height="4.367" transform="translate(15.935 29.798)" fill="none" stroke="#000" stroke-linecap="round" stroke-linejoin="round" stroke-miterlimit="10" stroke-width="2.5"/>
        <path id="Path_1031231" data-name="Path 1031231" d="M131.052,343.69h20.342a5.9,5.9,0,0,1,.66.037" transform="translate(-119.441 -309.525)" fill="none" stroke="#000" stroke-linecap="round" stroke-linejoin="round" stroke-miterlimit="10" stroke-width="2.5"/>
        <path id="Path_1031232" data-name="Path 1031232" d="M45.337,360.032H18.56a1.759,1.759,0,0,1-1.759-1.759V349.6a5.906,5.906,0,0,1,5.905-5.905H24.85" transform="translate(-16.801 -309.525)" fill="none" stroke="#000" stroke-linecap="round" stroke-linejoin="round" stroke-miterlimit="10" stroke-width="2.5"/>
        <path id="Path_1031233" data-name="Path 1031233" d="M71.656,124.038h-29.3a1.93,1.93,0,0,1-1.93-1.93h0a1.93,1.93,0,0,1,1.93-1.93h29.3a1.93,1.93,0,0,1,1.93,1.93h0A1.93,1.93,0,0,1,71.656,124.038Z" transform="translate(-38.022 -108.726)" fill="none" stroke="#000" stroke-linecap="round" stroke-linejoin="round" stroke-miterlimit="10" stroke-width="2.5"/>
        <path id="Path_1031234" data-name="Path 1031234" d="M124.411,89.546h-20.2l.685-3.464h18.829Z" transform="translate(-95.33 -78.096)" fill="none" stroke="#000" stroke-linecap="round" stroke-linejoin="round" stroke-miterlimit="10" stroke-width="2.5"/>
        <path id="Path_1031235" data-name="Path 1031235" d="M123.727,15.486l.685,3.464h-20.2l.685-3.464,1.11-5.758a2.748,2.748,0,0,1,2.7-2.228h11.212a2.748,2.748,0,0,1,2.7,2.228l.429,2.225" transform="translate(-95.33 -7.5)" fill="none" stroke="#000" stroke-linecap="round" stroke-linejoin="round" stroke-miterlimit="10" stroke-width="2.5"/>
        <path id="Path_1031236" data-name="Path 1031236" d="M75.7,163.479H73.628a1.151,1.151,0,0,1-1.151-1.151v-3.007a1.151,1.151,0,0,1,1.151-1.151H75.7v5.309Z" transform="translate(-66.819 -142.858)" fill="none" stroke="#000" stroke-linecap="round" stroke-linejoin="round" stroke-miterlimit="10" stroke-width="2.5"/>
        <path id="Path_1031237" data-name="Path 1031237" d="M302.966,163.479h2.075a1.151,1.151,0,0,0,1.151-1.151v-3.007a1.151,1.151,0,0,0-1.151-1.151h-2.075Z" transform="translate(-273.885 -142.858)" fill="none" stroke="#000" stroke-linecap="round" stroke-linejoin="round" stroke-miterlimit="10" stroke-width="2.5"/>
        <path id="Path_1031238" data-name="Path 1031238" d="M287.965,439.688H270.493a1.636,1.636,0,0,1-1.581-1.217l-1.2-4.532a1.26,1.26,0,0,1,1.218-1.583h20.6a1.26,1.26,0,0,1,1.218,1.583l-1.2,4.532A1.636,1.636,0,0,1,287.965,439.688Z" transform="translate(-242.173 -389.181)" fill="none" stroke="#000" stroke-linecap="round" stroke-linejoin="round" stroke-miterlimit="10" stroke-width="2.5"/>
        <path id="Path_1031239" data-name="Path 1031239" d="M301.168,344.159a3.65,3.65,0,0,1,.159-4.171,2.344,2.344,0,0,0-2.331-2.331,2.473,2.473,0,0,0-2.331,1.955,25.99,25.99,0,0,1-5.216-4.663,2.323,2.323,0,0,0-1.252.366,2.331,2.331,0,0,0-4.122,2.164,247.519,247.519,0,0,0-5.6,5.217,2.315,2.315,0,0,0,.511,1.455" transform="translate(-253.676 -300.976)" fill="none" stroke="#000" stroke-linecap="round" stroke-linejoin="round" stroke-miterlimit="10" stroke-width="2.5"/>
        <path id="Path_1031240" data-name="Path 1031240" d="M337.165,393.068l1.288,1.288,1.319-1.319" transform="translate(-304.608 -353.857)" fill="none" stroke="#000" stroke-linecap="round" stroke-linejoin="round" stroke-miterlimit="10" stroke-width="2.5"/>
        <path id="Path_1031241" data-name="Path 1031241" d="M451.914,352.518l1.288,1.593,1.319-1.624" transform="translate(-407.696 -317.428)" fill="none" stroke="#000" stroke-linecap="round" stroke-linejoin="round" stroke-miterlimit="10" stroke-width="2.5"/>
        <line id="Line_720" data-name="Line 720" transform="translate(40.531 40.473)" fill="none" stroke="#000" stroke-linecap="round" stroke-linejoin="round" stroke-miterlimit="10" stroke-width="2.5"/>
        <line id="Line_721" data-name="Line 721" transform="translate(37.491 37.284)" fill="none" stroke="#000" stroke-linecap="round" stroke-linejoin="round" stroke-miterlimit="10" stroke-width="2.5"/>
        <path id="Path_1031242" data-name="Path 1031242" d="M129.662,455.929h-19v-5.494" transform="translate(-101.126 -405.422)" fill="none" stroke="#000" stroke-linecap="round" stroke-linejoin="round" stroke-miterlimit="10" stroke-width="2.5"/>
        <g id="Group_1199419" data-name="Group 1199419" transform="translate(13.317 18.955)">
          <line id="Line_722" data-name="Line 722" y2="1.416" fill="none" stroke="#000" stroke-linecap="round" stroke-linejoin="round" stroke-miterlimit="10" stroke-width="2.5"/>
          <line id="Line_723" data-name="Line 723" y2="1.416" transform="translate(11.223)" fill="none" stroke="#000" stroke-linecap="round" stroke-linejoin="round" stroke-miterlimit="10" stroke-width="2.5"/>
        </g>
        <path id="Path_1031243" data-name="Path 1031243" d="M187.395,233.617a4.454,4.454,0,0,0,3.185,0" transform="translate(-170.059 -210.638)" fill="none" stroke="#000" stroke-linecap="round" stroke-linejoin="round" stroke-miterlimit="10" stroke-width="2.5"/>
        <path id="Path_1031244" data-name="Path 1031244" d="M140.8,360.037h-4.324L131.052,343.7h4.324Z" transform="translate(-119.441 -309.53)" fill="none" stroke="#000" stroke-linecap="round" stroke-linejoin="round" stroke-miterlimit="10" stroke-width="2.5"/>
      </g>
    </g>
  </g>
</svg>
