<svg xmlns="http://www.w3.org/2000/svg" xmlns:xlink="http://www.w3.org/1999/xlink" width="118" height="118" viewBox="0 0 118 118">
  <defs>
    <filter id="Path_874925" x="0" y="0" width="118" height="118" filterUnits="userSpaceOnUse">
      <feOffset dy="3" input="SourceAlpha"/>
      <feGaussianBlur stdDeviation="3" result="blur"/>
      <feFlood flood-opacity="0.161"/>
      <feComposite operator="in" in2="blur"/>
      <feComposite in="SourceGraphic"/>
    </filter>
    <clipPath id="clip-path">
      <rect id="Rectangle_408990" data-name="Rectangle 408990" width="64.628" height="64.693" fill="none"/>
    </clipPath>
  </defs>
  <g id="Group_1200141" data-name="Group 1200141" transform="translate(-799.5 -2511.157)">
    <g id="Group_1111316" data-name="Group 1111316" transform="translate(808.5 2517.157)">
      <g id="Group_1109835" data-name="Group 1109835" transform="translate(0 0)">
        <g id="Group_1107913" data-name="Group 1107913" transform="translate(0 0)">
          <g transform="matrix(1, 0, 0, 1, -9, -6)" filter="url(#Path_874925)">
            <g id="Path_874925-2" data-name="Path 874925" transform="translate(9 6)" fill="#9ad354" opacity="0.859">
              <path d="M 49.99972534179688 98.4998779296875 C 43.45164108276367 98.4998779296875 37.10022354125977 97.21776580810547 31.12189674377441 94.68914794921875 C 25.34676742553711 92.24647521972656 20.15985298156738 88.74925994873047 15.70523929595947 84.29464721679688 C 11.25062561035156 79.84004974365234 7.753411293029785 74.65313720703125 5.310725212097168 68.87800598144531 C 2.782111167907715 62.89969253540039 1.499996781349182 56.54829406738281 1.499996781349182 50.00022125244141 C 1.499996781349182 43.45157623291016 2.782111167907715 37.10017776489258 5.310725212097168 31.12186431884766 C 7.753411293029785 25.34673500061035 11.25062561035156 20.15983581542969 15.70523929595947 15.70522117614746 C 20.15985298156738 11.25062084197998 25.34676742553711 7.753406524658203 31.12189674377441 5.31073522567749 C 37.10022354125977 2.782120943069458 43.45164108276367 1.500006556510925 49.99972534179688 1.500006556510925 C 56.54780960083008 1.500006556510925 62.89922714233398 2.782120943069458 68.87755584716797 5.31073522567749 C 74.65267944335938 7.753406524658203 79.839599609375 11.25062084197998 84.29421234130859 15.70522117614746 C 88.74882507324219 20.15983581542969 92.24604034423828 25.34673500061035 94.68872833251953 31.12186431884766 C 97.21733856201172 37.10017776489258 98.49945068359375 43.45157623291016 98.49945068359375 49.99964904785156 C 98.49945068359375 56.54829406738281 97.21733856201172 62.89969253540039 94.68872833251953 68.87800598144531 C 92.24604034423828 74.65313720703125 88.74882507324219 79.84004974365234 84.29421234130859 84.29464721679688 C 79.839599609375 88.74925994873047 74.65267944335938 92.24647521972656 68.87755584716797 94.68914794921875 C 62.89922714233398 97.21776580810547 56.54780960083008 98.4998779296875 49.99972534179688 98.4998779296875 Z" stroke="none"/>
              <path d="M 49.99972534179688 3 C 43.65348052978516 3 37.49866485595703 4.242240905761719 31.70623016357422 6.692230224609375 C 26.10989379882812 9.059272766113281 21.08323669433594 12.44853210449219 16.76589202880859 16.76587677001953 C 12.44855499267578 21.08321380615234 9.059295654296875 26.10985565185547 6.692230224609375 31.70618438720703 C 4.24224853515625 37.49859619140625 3 43.65341186523438 3 50.00022888183594 C 3 56.34645843505859 4.24224853515625 62.50127410888672 6.692230224609375 68.29368591308594 C 9.059295654296875 73.8900146484375 12.44855499267578 78.91665649414062 16.76589202880859 83.23399353027344 C 21.08323669433594 87.55132293701172 26.10989379882812 90.94059753417969 31.70623016357422 93.30764007568359 C 37.49866485595703 95.75762939453125 43.65348052978516 96.99987030029297 49.99972534179688 96.99987030029297 C 56.34597015380859 96.99987030029297 62.50078582763672 95.75762939453125 68.293212890625 93.30764007568359 C 73.88955688476562 90.94059753417969 78.91621398925781 87.55132293701172 83.23355865478516 83.23399353027344 C 87.55089569091797 78.91665649414062 90.94015502929688 73.8900146484375 93.30722045898438 68.29368591308594 C 95.7572021484375 62.50127410888672 96.99945068359375 56.34645843505859 96.99945068359375 49.99964141845703 C 96.99945068359375 43.65341186523438 95.7572021484375 37.49859619140625 93.30722045898438 31.70618438720703 C 90.94015502929688 26.10985565185547 87.55089569091797 21.08321380615234 83.23355865478516 16.76587677001953 C 78.91621398925781 12.44853210449219 73.88955688476562 9.059272766113281 68.293212890625 6.692230224609375 C 62.50078582763672 4.242240905761719 56.34597015380859 3 49.99972534179688 3 M 49.99972534179688 0 C 77.61381530761719 0 99.99945068359375 22.38559722900391 99.99945068359375 49.99964141845703 L 99.99945068359375 50.00022888183594 C 99.99945068359375 77.6142578125 77.61381530761719 99.99987030029297 49.99972534179688 99.99987030029297 C 22.38563537597656 99.99987030029297 0 77.6142578125 0 50.00022888183594 L 0 49.99964141845703 C 0 22.38559722900391 22.38563537597656 0 49.99972534179688 0 Z" stroke="none" fill="#fff"/>
            </g>
          </g>
          <g id="Path_874923" data-name="Path 874923" transform="translate(0 0)" fill="none">
            <path d="M50,0a50,50,0,0,1,50,50h0A50,50,0,0,1,0,50H0A50,50,0,0,1,50,0Z" stroke="none"/>
            <path d="M 49.99972534179688 3 C 43.65348052978516 3 37.49866485595703 4.242240905761719 31.70623016357422 6.692230224609375 C 26.10989379882812 9.059272766113281 21.08323669433594 12.44853210449219 16.76589202880859 16.76587677001953 C 12.44855499267578 21.08321380615234 9.059295654296875 26.10985565185547 6.692230224609375 31.70618438720703 C 4.24224853515625 37.49859619140625 3 43.65341186523438 3 50.00022888183594 C 3 56.34645843505859 4.24224853515625 62.50127410888672 6.692230224609375 68.29368591308594 C 9.059295654296875 73.8900146484375 12.44855499267578 78.91665649414062 16.76589202880859 83.23399353027344 C 21.08323669433594 87.55132293701172 26.10989379882812 90.94059753417969 31.70623016357422 93.30764007568359 C 37.49866485595703 95.75762939453125 43.65348052978516 96.99987030029297 49.99972534179688 96.99987030029297 C 56.34597015380859 96.99987030029297 62.50078582763672 95.75762939453125 68.293212890625 93.30764007568359 C 73.88955688476562 90.94059753417969 78.91621398925781 87.55132293701172 83.23355865478516 83.23399353027344 C 87.55089569091797 78.91665649414062 90.94015502929688 73.8900146484375 93.30722045898438 68.29368591308594 C 95.7572021484375 62.50127410888672 96.99945068359375 56.34645843505859 96.99945068359375 49.99964141845703 C 96.99945068359375 43.65341186523438 95.7572021484375 37.49859619140625 93.30722045898438 31.70618438720703 C 90.94015502929688 26.10985565185547 87.55089569091797 21.08321380615234 83.23355865478516 16.76587677001953 C 78.91621398925781 12.44853210449219 73.88955688476562 9.059272766113281 68.293212890625 6.692230224609375 C 62.50078582763672 4.242240905761719 56.34597015380859 3 49.99972534179688 3 M 49.99972534179688 0 C 77.61381530761719 0 99.99945068359375 22.38559722900391 99.99945068359375 49.99964141845703 L 99.99945068359375 50.00022888183594 C 99.99945068359375 77.6142578125 77.61381530761719 99.99987030029297 49.99972534179688 99.99987030029297 C 22.38563537597656 99.99987030029297 0 77.6142578125 0 50.00022888183594 L 0 49.99964141845703 C 0 22.38559722900391 22.38563537597656 0 49.99972534179688 0 Z" stroke="none" fill="#fff"/>
          </g>
        </g>
      </g>
      <g id="Group_1200292" data-name="Group 1200292" transform="translate(17.686 17.654)">
        <g id="Group_1200291" data-name="Group 1200291" clip-path="url(#clip-path)">
          <path id="Path_1033416" data-name="Path 1033416" d="M34.3,0c.129.274.44.374.5.7a14.15,14.15,0,0,1-.005,2.39c-.179,1.154-1.742,1.022-1.89-.243-.1-.843-.2-2.411.634-2.845Z" transform="translate(-17.247)" fill="#060606"/>
          <path id="Path_1033417" data-name="Path 1033417" d="M93.582,15.142a1,1,0,0,1-.945.887,30.357,30.357,0,0,1-6.734-.22c-4.745-1.468-4.071-8.8,1.081-9.349.616-.065,1.429.188,1.834.065.234-.071.6-.6.859-.785a5.8,5.8,0,0,1,8.255,1.2c.223.3.669,1.426.733,1.479s1.009.34,1.318.513a3.851,3.851,0,0,1-.077,6.661c-.85.448-4.244.987-4.176-.449s1.67-.9,2.579-1.022a1.927,1.927,0,0,0,.234-3.749c-.539-.15-.808.1-1.3-.465-.433-.5-.462-1.3-.952-1.954A3.2,3.2,0,0,0,94.971,6.93a3.514,3.514,0,0,0-4.8,1.137,4.615,4.615,0,0,0-.632.632c-1.384-.04-2.058-.669-3.451.023a2.9,2.9,0,0,0,.119,5.142c1.015.464,2.568.247,3.711.268.961.017,3.716-.451,3.664,1.011" transform="translate(-43.427 -2.382)" fill="#040404"/>
          <path id="Path_1033418" data-name="Path 1033418" d="M102.311,17.789h-2.148c.052-1.462-2.7-.994-3.664-1.011a3.969,3.969,0,0,1-1.017-4.238,8.825,8.825,0,0,1,.638-1.194,4.615,4.615,0,0,1,.632-.632,5.087,5.087,0,0,1,4.082-.371l.719-.766a3.2,3.2,0,0,1,1.315,1.022c.489.653.519,1.458.952,1.954.5.568.765.315,1.3.465a1.927,1.927,0,0,1-.234,3.749c-.909.123-2.511-.407-2.579,1.022" transform="translate(-50.009 -5.029)" fill="#e8f4fd"/>
          <path id="Path_1033419" data-name="Path 1033419" d="M34.532,17.265a4.878,4.878,0,1,1-4.879-4.878,4.878,4.878,0,0,1,4.879,4.878M30.589,20.08A2.97,2.97,0,1,0,27.2,18.941a2.971,2.971,0,0,0,3.392,1.139" transform="translate(-13.009 -6.504)" fill="#040403"/>
          <path id="Path_1033420" data-name="Path 1033420" d="M49.777,22.178a.971.971,0,0,1,.41-1.6c.979-.365,4.033-.22,3.077,1.436-.379.658-3.041.616-3.488.168" transform="translate(-25.991 -10.717)" fill="#070707"/>
          <path id="Path_1033421" data-name="Path 1033421" d="M43.109,2.71c.809-.078,1.183.645.985,1.367a11.013,11.013,0,0,1-1.2,1.96A.945.945,0,0,1,41.3,5.08c.04-.151,1.095-1.982,1.2-2.087a1.153,1.153,0,0,1,.6-.284" transform="translate(-21.666 -1.42)" fill="#070707"/>
          <path id="Path_1033422" data-name="Path 1033422" d="M23.463,2.685a.916.916,0,0,1,.859.355,11.958,11.958,0,0,1,1.136,1.895c.32,1.181-.863,1.852-1.585,1.081a10,10,0,0,1-1.26-2.394,1.306,1.306,0,0,1,.851-.937" transform="translate(-11.874 -1.402)" fill="#070707"/>
          <path id="Path_1033423" data-name="Path 1033423" d="M15.762,10.406c.573-.17,2.288.754,2.7,1.166a.987.987,0,0,1-.8,1.693,14.377,14.377,0,0,1-2.179-1.242.966.966,0,0,1,.279-1.616" transform="translate(-7.966 -5.453)" fill="#060606"/>
          <path id="Path_1033424" data-name="Path 1033424" d="M42.081,34.889a1.151,1.151,0,0,1,.866.349,17.988,17.988,0,0,1,1.134,1.9c.332,1.079-.728,1.823-1.523,1.145a8.975,8.975,0,0,1-1.324-2.456,1.3,1.3,0,0,1,.847-.934" transform="translate(-21.652 -18.316)" fill="#060606"/>
          <path id="Path_1033425" data-name="Path 1033425" d="M47.946,29.023c.722-.218,2.989,1.034,3.032,1.825a1.014,1.014,0,0,1-1.106,1,13.62,13.62,0,0,1-2.208-1.206.972.972,0,0,1,.282-1.619" transform="translate(-24.863 -15.227)" fill="#050505"/>
          <path id="Path_1033426" data-name="Path 1033426" d="M50.729,11.974A15.77,15.77,0,0,1,48.4,13.25.993.993,0,0,1,47.7,11.5,12.24,12.24,0,0,1,49.83,10.37a.965.965,0,0,1,.9,1.6" transform="translate(-24.867 -5.44)" fill="#050505"/>
          <path id="Path_1033427" data-name="Path 1033427" d="M23.934,35.161a.96.96,0,0,1,1.6.9,5.816,5.816,0,0,1-1.546,2.379.945.945,0,0,1-1.334-.947,14.664,14.664,0,0,1,1.279-2.329" transform="translate(-11.894 -18.319)" fill="#050505"/>
          <path id="Path_1033428" data-name="Path 1033428" d="M12.9,20.742a13.992,13.992,0,0,1,2.823.029c.81.263.634,1.681-.331,1.832a10.207,10.207,0,0,1-2.337-.049c-.841-.255-.93-1.587-.156-1.812" transform="translate(-6.496 -10.861)" fill="#070707"/>
          <path id="Path_1033429" data-name="Path 1033429" d="M17.388,29.007c.9-.245,1.734.482,1.221,1.348a5.467,5.467,0,0,1-2.517,1.415.937.937,0,0,1-.806-1.453,13.608,13.608,0,0,1,2.1-1.309" transform="translate(-7.945 -15.206)" fill="#050505"/>
          <path id="Path_1033430" data-name="Path 1033430" d="M33.517,37.246a1.112,1.112,0,0,1,1.161.3,9.191,9.191,0,0,1,.113,2.866.966.966,0,0,1-1.861-.233c-.1-.652-.182-2.706.588-2.936" transform="translate(-17.257 -19.533)" fill="#060606"/>
          <path id="Path_1033431" data-name="Path 1033431" d="M0,85.057V45.136c.677-1,1.669-.522,2.585-.5a57.612,57.612,0,0,1,6.051.392,30.746,30.746,0,0,1,5.64,1.055,1.039,1.039,0,0,1,.632,1.2c-.221.068-.265.658-1.068.637-.883-.023-2.571-.569-3.581-.726s-2.046-.307-3.058-.416C5.43,46.587,3.665,46.534,1.9,46.4V56.38c1.767,0,3.539-.006,5.306,0,8.589.026,17.184-.019,25.772,0h.253c.072-.076-.19-.2-.253-.251-3.031-2.335-7.876-4.518-11.465-5.906a39.562,39.562,0,0,1-4.123-1.436,1.159,1.159,0,0,1-.331-1.122,1.137,1.137,0,0,1,.936-.627L22.9,48.654a36.394,36.394,0,0,1,37.858-5.725,25.817,25.817,0,0,1,3.659,1.9.712.712,0,0,1,.207.3l-.04,40.024-.442.442-63.078.1C.547,85.734.282,85.43,0,85.057M42.827,42.1A33.013,33.013,0,0,0,24.89,49.494a65.153,65.153,0,0,1,11.625,6.817,17.186,17.186,0,0,0,2.522.068c7.912.1,15.838-.076,23.751,0V46.02a36.207,36.207,0,0,0-10.459-3.627,34.918,34.918,0,0,0-9.5-.29M5.18,58.274H1.9v6.317Zm3.538,0c-.455.009-.917-.03-1.37.021L1.9,68.824V79.877l1.582-3.539a1.255,1.255,0,0,0,.06-.5l7.44-17.387c.054-.241,0-.153-.173-.174a17.577,17.577,0,0,0-2.087,0m8.085,0H13.2L2.4,83.794H9.6Zm4.169,0c-.71-.008-1.426-.007-2.135.012L11.623,83.793c.714,0,1.433,0,2.148,0,1.512.01,3.03,0,4.542-.007l4.3-25.513c-.546,0-1.1.007-1.643,0m7.454,0h-3.79L20.213,83.794h6.822Zm4.169,0c-.688-.012-1.381.014-2.07-.008-.1.028-.176.472-.189.59-.358,3.374-.323,7.055-.522,10.471-.255,4.382-.587,8.752-.758,13.139a4.939,4.939,0,0,0-.125,1.328c.756,0,1.518-.005,2.274,0,1.514.009,3.034-.008,4.549,0l-.508-8.784a.949.949,0,0,1,1.891-.116l.512,8.9H44.47L40.048,58.274h-3.79L36.9,70.85a.809.809,0,0,1-.89.942c-.591.019-.859-.269-1-.828l-.758-12.608-.084-.089c-.521,0-1.045.017-1.565.008m11.623,0c-.714-.006-1.434,0-2.148,0l4.3,25.513c.712.017,1.429,0,2.142.007,1.514.009,3.034-.007,4.548,0L45.847,58.287c-.541-.03-1.088-.008-1.63-.012M62.283,83.794l-10.8-25.519h-3.6l7.2,25.519ZM55.84,58.274a16.663,16.663,0,0,0-1.96,0c-.173.02-.227-.067-.174.174l8.958,21.428c.22.03.119-.287.125-.44.06-1.613,0-3.251,0-4.865,0-1.936.048-3.881-.059-5.815L57.336,58.3c-.5-.05-1-.013-1.5-.021m6.948,0H59.5l3.285,6.317Z" transform="translate(0 -21.006)" fill="#020201"/>
          <path id="Path_1033432" data-name="Path 1033432" d="M115.224,104h-7.2l-7.2-25.519h3.6Z" transform="translate(-52.941 -41.207)" fill="#da8657"/>
          <path id="Path_1033433" data-name="Path 1033433" d="M19.457,78.476,12.256,104h-7.2l10.8-25.519Z" transform="translate(-2.654 -41.207)" fill="#da8657"/>
          <path id="Path_1033434" data-name="Path 1033434" d="M75.816,91.994a.809.809,0,0,0,.89-.942l-.637-12.576h3.79L84.28,104H77.458l-.512-8.9a.963.963,0,0,0-1-.828Z" transform="translate(-39.811 -41.207)" fill="#da8657"/>
          <path id="Path_1033435" data-name="Path 1033435" d="M50.775,78.476,49.385,104H42.563l4.421-25.519Z" transform="translate(-22.35 -41.207)" fill="#da8657"/>
          <path id="Path_1033436" data-name="Path 1033436" d="M67.1,78.468c.52.01,1.044,0,1.565-.008l.084.089L69.5,91.157c.145.559.413.847,1,.828l.126,2.274a.97.97,0,0,0-.887.945l.508,8.784c-1.514-.008-3.035.009-4.549,0Z" transform="translate(-34.502 -41.199)" fill="#a1e42e"/>
          <path id="Path_1033437" data-name="Path 1033437" d="M36.2,78.474c.546.006,1.1,0,1.643,0l-4.3,25.513c-1.512,0-3.03.017-4.542.007Z" transform="translate(-15.226 -41.206)" fill="#8ac527"/>
          <path id="Path_1033438" data-name="Path 1033438" d="M93.107,78.472c.542,0,1.089-.018,1.63.012l7.213,25.507c-1.514-.006-3.034.01-4.548,0Z" transform="translate(-48.89 -41.203)" fill="#8ac527"/>
          <path id="Path_1033439" data-name="Path 1033439" d="M64.552,78.468l-1.39,25.52c-.757,0-1.518,0-2.275,0a4.958,4.958,0,0,1,.126-1.328c.171-4.387.5-8.756.758-13.139.2-3.416.165-7.1.522-10.471.013-.118.084-.562.189-.59.689.022,1.382,0,2.07.008" transform="translate(-31.957 -41.199)" fill="#95d529"/>
          <path id="Path_1033440" data-name="Path 1033440" d="M90.731,78.474l4.3,25.52c-.712,0-1.429.01-2.142-.007l-4.3-25.513c.715.005,1.434-.006,2.148,0" transform="translate(-46.514 -41.205)" fill="#80b623"/>
          <path id="Path_1033441" data-name="Path 1033441" d="M33.822,78.471l-7.2,25.52c-.714,0-1.434,0-2.148,0l7.213-25.507c.71-.019,1.426-.02,2.136-.012" transform="translate(-12.851 -41.202)" fill="#80b623"/>
          <path id="Path_1033442" data-name="Path 1033442" d="M69.431,73.953c.063.048.324.176.253.251h-.253Z" transform="translate(-36.458 -38.832)" fill="#91cf28"/>
          <path id="Path_1033443" data-name="Path 1033443" d="M22.869,54.773c.5-.153,1.571.451,2.148.379a1.158,1.158,0,0,0,.331,1.122,39.624,39.624,0,0,0,4.122,1.436c3.589,1.388,8.433,3.571,11.465,5.906v.253c-8.589-.019-17.183.026-25.772,0v-9.6c1.012.109,2.05.259,3.058.416s2.7.7,3.58.727c.8.021.847-.569,1.068-.637" transform="translate(-7.962 -28.496)" fill="#a1e42e"/>
          <path id="Path_1033444" data-name="Path 1033444" d="M76.761,44.211a34.918,34.918,0,0,1,9.5.289,36.194,36.194,0,0,1,10.459,3.627V58.486c-7.913-.075-15.838.1-23.751,0,.019-.284-.2-.325-.36-.46-1.074-.877-2.362-1.77-3.516-2.548A43.391,43.391,0,0,1,65.2,53.053a1.956,1.956,0,0,1,0-2.777c2.534-2.475,7.854-4.578,11.184-5.752.2-.071.449.028.375-.313" transform="translate(-33.934 -23.113)" fill="#8ac627"/>
          <path id="Path_1033445" data-name="Path 1033445" d="M70.348,44.425c.074.341-.174.243-.375.313-3.33,1.173-8.65,3.276-11.184,5.752a1.956,1.956,0,0,0,0,2.777,43.389,43.389,0,0,0,3.892,2.425c1.154.778,2.442,1.671,3.516,2.548.165.135.38.176.36.46a17.056,17.056,0,0,1-2.522-.068,65.182,65.182,0,0,0-11.625-6.817,33.016,33.016,0,0,1,17.937-7.39" transform="translate(-27.521 -23.327)" fill="#7cb122"/>
          <path id="Path_1033446" data-name="Path 1033446" d="M9.3,53.849v9.6c-1.767-.005-3.539,0-5.306,0V53.47c1.77.135,3.535.188,5.306.379" transform="translate(-2.095 -28.077)" fill="#91cf28"/>
          <path id="Path_1033447" data-name="Path 1033447" d="M12.462,78.438a17.58,17.58,0,0,1,2.087,0c.173.02.227-.067.174.174L7.283,96c-.075-2.32-.23-4.742-.1-7.109Z" transform="translate(-3.746 -41.169)" fill="#a0e32d"/>
          <path id="Path_1033448" data-name="Path 1033448" d="M115.2,78.441l6.948,16.3c0,1.614.06,3.252,0,4.865-.006.152.095.47-.125.44l-8.958-21.428c-.054-.241,0-.153.174-.174a16.665,16.665,0,0,1,1.96,0" transform="translate(-59.359 -41.172)" fill="#95d429"/>
          <path id="Path_1033449" data-name="Path 1033449" d="M117.581,78.469c.5.008,1-.029,1.5.021l5.393,10.461c.107,1.934.061,3.879.059,5.815Z" transform="translate(-61.741 -41.201)" fill="#a0e42e"/>
          <path id="Path_1033450" data-name="Path 1033450" d="M10.812,78.469,5.534,88.92c-.132,2.367.023,4.789.1,7.109a1.254,1.254,0,0,1-.059.5L3.99,100.072V89.018L9.442,78.49c.453-.051.915-.012,1.37-.021" transform="translate(-2.095 -41.201)" fill="#95d429"/>
          <path id="Path_1033451" data-name="Path 1033451" d="M7.275,78.476,3.99,84.793V78.476Z" transform="translate(-2.095 -41.207)" fill="#d98557"/>
          <path id="Path_1033452" data-name="Path 1033452" d="M128.58,78.476v6.317l-3.285-6.317Z" transform="translate(-65.792 -41.207)" fill="#d98557"/>
          <path id="Path_1033453" data-name="Path 1033453" d="M91.625,12.969a8.824,8.824,0,0,0-.638,1.194A3.969,3.969,0,0,0,92,18.4c-1.143-.02-2.7.2-3.711-.268a2.9,2.9,0,0,1-.119-5.142c1.393-.691,2.067-.063,3.451-.023" transform="translate(-45.513 -6.653)" fill="#d6e9fb"/>
          <path id="Path_1033454" data-name="Path 1033454" d="M103.228,9.043l-.719.766a5.085,5.085,0,0,0-4.082.37,3.514,3.514,0,0,1,4.8-1.137" transform="translate(-51.684 -4.494)" fill="#d1e4f5"/>
          <path id="Path_1033455" data-name="Path 1033455" d="M32.946,16.649c-.412.09-.715.572-.882.89a4.26,4.26,0,0,0,.629,4.646,2.97,2.97,0,1,1,.254-5.536" transform="translate(-15.112 -8.61)" fill="#fbcd5a"/>
          <path id="Path_1033456" data-name="Path 1033456" d="M36.1,16.927a2.97,2.97,0,0,1-.254,5.536,4.26,4.26,0,0,1-.629-4.646c.168-.318.47-.8.882-.89" transform="translate(-18.264 -8.888)" fill="#fcde75"/>
        </g>
      </g>
    </g>
  </g>
</svg>
