<svg xmlns="http://www.w3.org/2000/svg" xmlns:xlink="http://www.w3.org/1999/xlink" width="118" height="118" viewBox="0 0 118 118">
  <defs>
    <filter id="Path_874925" x="0" y="0" width="118" height="118" filterUnits="userSpaceOnUse">
      <feOffset dy="3" input="SourceAlpha"/>
      <feGaussianBlur stdDeviation="3" result="blur"/>
      <feFlood flood-opacity="0.161"/>
      <feComposite operator="in" in2="blur"/>
      <feComposite in="SourceGraphic"/>
    </filter>
    <clipPath id="clip-path">
      <rect id="Rectangle_408991" data-name="Rectangle 408991" width="65.993" height="68.104" fill="none"/>
    </clipPath>
  </defs>
  <g id="Group_1200142" data-name="Group 1200142" transform="translate(-799.5 -2511.157)">
    <g id="Group_1111316" data-name="Group 1111316" transform="translate(808.5 2517.157)">
      <g id="Group_1109835" data-name="Group 1109835" transform="translate(0 0)">
        <g id="Group_1107913" data-name="Group 1107913" transform="translate(0 0)">
          <g transform="matrix(1, 0, 0, 1, -9, -6)" filter="url(#Path_874925)">
            <g id="Path_874925-2" data-name="Path 874925" transform="translate(9 6)" fill="#9ad354" opacity="0.859">
              <path d="M 49.99972534179688 98.4998779296875 C 43.45164108276367 98.4998779296875 37.10022354125977 97.21776580810547 31.12189674377441 94.68914794921875 C 25.34676742553711 92.24647521972656 20.15985298156738 88.74925994873047 15.70523929595947 84.29464721679688 C 11.25062561035156 79.84004974365234 7.753411293029785 74.65313720703125 5.310725212097168 68.87800598144531 C 2.782111167907715 62.89969253540039 1.499996781349182 56.54829406738281 1.499996781349182 50.00022125244141 C 1.499996781349182 43.45157623291016 2.782111167907715 37.10017776489258 5.310725212097168 31.12186431884766 C 7.753411293029785 25.34673500061035 11.25062561035156 20.15983581542969 15.70523929595947 15.70522117614746 C 20.15985298156738 11.25062084197998 25.34676742553711 7.753406524658203 31.12189674377441 5.31073522567749 C 37.10022354125977 2.782120943069458 43.45164108276367 1.500006556510925 49.99972534179688 1.500006556510925 C 56.54780960083008 1.500006556510925 62.89922714233398 2.782120943069458 68.87755584716797 5.31073522567749 C 74.65267944335938 7.753406524658203 79.839599609375 11.25062084197998 84.29421234130859 15.70522117614746 C 88.74882507324219 20.15983581542969 92.24604034423828 25.34673500061035 94.68872833251953 31.12186431884766 C 97.21733856201172 37.10017776489258 98.49945068359375 43.45157623291016 98.49945068359375 49.99964904785156 C 98.49945068359375 56.54829406738281 97.21733856201172 62.89969253540039 94.68872833251953 68.87800598144531 C 92.24604034423828 74.65313720703125 88.74882507324219 79.84004974365234 84.29421234130859 84.29464721679688 C 79.839599609375 88.74925994873047 74.65267944335938 92.24647521972656 68.87755584716797 94.68914794921875 C 62.89922714233398 97.21776580810547 56.54780960083008 98.4998779296875 49.99972534179688 98.4998779296875 Z" stroke="none"/>
              <path d="M 49.99972534179688 3 C 43.65348052978516 3 37.49866485595703 4.242240905761719 31.70623016357422 6.692230224609375 C 26.10989379882812 9.059272766113281 21.08323669433594 12.44853210449219 16.76589202880859 16.76587677001953 C 12.44855499267578 21.08321380615234 9.059295654296875 26.10985565185547 6.692230224609375 31.70618438720703 C 4.24224853515625 37.49859619140625 3 43.65341186523438 3 50.00022888183594 C 3 56.34645843505859 4.24224853515625 62.50127410888672 6.692230224609375 68.29368591308594 C 9.059295654296875 73.8900146484375 12.44855499267578 78.91665649414062 16.76589202880859 83.23399353027344 C 21.08323669433594 87.55132293701172 26.10989379882812 90.94059753417969 31.70623016357422 93.30764007568359 C 37.49866485595703 95.75762939453125 43.65348052978516 96.99987030029297 49.99972534179688 96.99987030029297 C 56.34597015380859 96.99987030029297 62.50078582763672 95.75762939453125 68.293212890625 93.30764007568359 C 73.88955688476562 90.94059753417969 78.91621398925781 87.55132293701172 83.23355865478516 83.23399353027344 C 87.55089569091797 78.91665649414062 90.94015502929688 73.8900146484375 93.30722045898438 68.29368591308594 C 95.7572021484375 62.50127410888672 96.99945068359375 56.34645843505859 96.99945068359375 49.99964141845703 C 96.99945068359375 43.65341186523438 95.7572021484375 37.49859619140625 93.30722045898438 31.70618438720703 C 90.94015502929688 26.10985565185547 87.55089569091797 21.08321380615234 83.23355865478516 16.76587677001953 C 78.91621398925781 12.44853210449219 73.88955688476562 9.059272766113281 68.293212890625 6.692230224609375 C 62.50078582763672 4.242240905761719 56.34597015380859 3 49.99972534179688 3 M 49.99972534179688 0 C 77.61381530761719 0 99.99945068359375 22.38559722900391 99.99945068359375 49.99964141845703 L 99.99945068359375 50.00022888183594 C 99.99945068359375 77.6142578125 77.61381530761719 99.99987030029297 49.99972534179688 99.99987030029297 C 22.38563537597656 99.99987030029297 0 77.6142578125 0 50.00022888183594 L 0 49.99964141845703 C 0 22.38559722900391 22.38563537597656 0 49.99972534179688 0 Z" stroke="none" fill="#fff"/>
            </g>
          </g>
          <g id="Path_874923" data-name="Path 874923" transform="translate(0 0)" fill="none">
            <path d="M50,0a50,50,0,0,1,50,50h0A50,50,0,0,1,0,50H0A50,50,0,0,1,50,0Z" stroke="none"/>
            <path d="M 49.99972534179688 3 C 43.65348052978516 3 37.49866485595703 4.242240905761719 31.70623016357422 6.692230224609375 C 26.10989379882812 9.059272766113281 21.08323669433594 12.44853210449219 16.76589202880859 16.76587677001953 C 12.44855499267578 21.08321380615234 9.059295654296875 26.10985565185547 6.692230224609375 31.70618438720703 C 4.24224853515625 37.49859619140625 3 43.65341186523438 3 50.00022888183594 C 3 56.34645843505859 4.24224853515625 62.50127410888672 6.692230224609375 68.29368591308594 C 9.059295654296875 73.8900146484375 12.44855499267578 78.91665649414062 16.76589202880859 83.23399353027344 C 21.08323669433594 87.55132293701172 26.10989379882812 90.94059753417969 31.70623016357422 93.30764007568359 C 37.49866485595703 95.75762939453125 43.65348052978516 96.99987030029297 49.99972534179688 96.99987030029297 C 56.34597015380859 96.99987030029297 62.50078582763672 95.75762939453125 68.293212890625 93.30764007568359 C 73.88955688476562 90.94059753417969 78.91621398925781 87.55132293701172 83.23355865478516 83.23399353027344 C 87.55089569091797 78.91665649414062 90.94015502929688 73.8900146484375 93.30722045898438 68.29368591308594 C 95.7572021484375 62.50127410888672 96.99945068359375 56.34645843505859 96.99945068359375 49.99964141845703 C 96.99945068359375 43.65341186523438 95.7572021484375 37.49859619140625 93.30722045898438 31.70618438720703 C 90.94015502929688 26.10985565185547 87.55089569091797 21.08321380615234 83.23355865478516 16.76587677001953 C 78.91621398925781 12.44853210449219 73.88955688476562 9.059272766113281 68.293212890625 6.692230224609375 C 62.50078582763672 4.242240905761719 56.34597015380859 3 49.99972534179688 3 M 49.99972534179688 0 C 77.61381530761719 0 99.99945068359375 22.38559722900391 99.99945068359375 49.99964141845703 L 99.99945068359375 50.00022888183594 C 99.99945068359375 77.6142578125 77.61381530761719 99.99987030029297 49.99972534179688 99.99987030029297 C 22.38563537597656 99.99987030029297 0 77.6142578125 0 50.00022888183594 L 0 49.99964141845703 C 0 22.38559722900391 22.38563537597656 0 49.99972534179688 0 Z" stroke="none" fill="#fff"/>
          </g>
        </g>
      </g>
    </g>
    <g id="Group_1200294" data-name="Group 1200294" transform="translate(825.503 2533.105)">
      <g id="Group_1200293" data-name="Group 1200293" clip-path="url(#clip-path)">
        <path id="Path_1033457" data-name="Path 1033457" d="M25.675.022c2.01.271,3.132,2.211,3.54,4l2.713-.007c-.317-2.7,2.442-2.707,2.127,0h1.864c-.052-.92.049-2.142,1.251-1.992,1.3.163.893,3.343.685,4.259a5.715,5.715,0,0,1-5.526,4.382c-.056.2.053.221.13.334.8,1.167,2.595,2.421,3.177,3.739a3.672,3.672,0,0,1-2.858,5.221c-4.93-.251-10.274.385-15.154.021A3.671,3.671,0,0,1,14.195,15.2c.481-1.6,2.47-2.9,3.369-4.212.077-.113.186-.131.131-.334a5.729,5.729,0,0,1-5.551-4.49c-.164-.816-.44-3.524.311-4.007,1.2-.776,1.867.838,1.649,1.849h1.864c-.315-2.707,2.443-2.7,2.127,0l2.713.007a4.961,4.961,0,0,1,3.274-4c.507.047,1.107-.067,1.6,0m-.133,2.128A1.888,1.888,0,0,0,23.015,4.01c.885-.008,1.776.014,2.661,0a10.241,10.241,0,0,0,1.136,0c.38-.055.167-.479.067-.738a1.664,1.664,0,0,0-1.336-1.124m5.72,6.515c.454-.013.955.046,1.4,0a3.544,3.544,0,0,0,3.127-2.657c-.973,0-1.953,0-2.926,0-6.2-.026-12.416.018-18.621,0A3.57,3.57,0,0,0,17.244,8.65c4.666-.075,9.356.151,14.018.014M26.34,17.706a4.846,4.846,0,0,0,3.58-5.64,5.1,5.1,0,0,0-.45-1.278,9.173,9.173,0,0,0-2.6-.13c-2.052-.023-4.111,0-6.164.022a4.85,4.85,0,0,0,3.078,7.12,4.044,4.044,0,0,0,2.554-.094m-6.251.266a6.672,6.672,0,0,1-2-4.521c-.93,1.033-2.419,1.965-1.889,3.553a1.88,1.88,0,0,0,1.158.969Zm9.843,0h2.727a2.421,2.421,0,0,0,1.114-.881c.741-1.448-.968-2.7-1.844-3.64a6.674,6.674,0,0,1-2,4.521" transform="translate(-5.978 0)" fill="#020202"/>
        <path id="Path_1033458" data-name="Path 1033458" d="M35.139,12a4.867,4.867,0,0,1-1.6,2.66c-4.663.136-9.353-.09-14.018-.015A3.571,3.571,0,0,1,16.518,12c6.2.018,12.417-.026,18.621,0" transform="translate(-8.259 -5.997)" fill="#fee1a7"/>
        <path id="Path_1033459" data-name="Path 1033459" d="M34.953,21.308a17.72,17.72,0,0,1-.532,7.048,4.044,4.044,0,0,1-2.554.093,4.85,4.85,0,0,1-3.078-7.119c2.053-.023,4.112-.045,6.164-.021" transform="translate(-14.058 -10.649)" fill="#c17648"/>
        <path id="Path_1033460" data-name="Path 1033460" d="M40.725,28.342a17.72,17.72,0,0,0,.532-7.048,9.158,9.158,0,0,1,2.6.129,5.135,5.135,0,0,1,.451,1.278,4.847,4.847,0,0,1-3.58,5.64" transform="translate(-20.362 -10.636)" fill="#a25d42"/>
        <path id="Path_1033461" data-name="Path 1033461" d="M24.226,31.423H21.5a1.878,1.878,0,0,1-1.158-.969c-.531-1.588.958-2.52,1.888-3.553a6.674,6.674,0,0,0,2,4.521" transform="translate(-10.115 -13.451)" fill="#5e302b"/>
        <path id="Path_1033462" data-name="Path 1033462" d="M47.908,31.423a6.674,6.674,0,0,0,2-4.521c.876.941,2.585,2.193,1.844,3.64a2.421,2.421,0,0,1-1.114.881Z" transform="translate(-23.954 -13.451)" fill="#3f201c"/>
        <path id="Path_1033463" data-name="Path 1033463" d="M52.164,12.009c.974,0,1.953,0,2.926,0a3.544,3.544,0,0,1-3.126,2.658c-.441.046-.941-.012-1.4,0a4.867,4.867,0,0,0,1.6-2.66" transform="translate(-25.284 -6.004)" fill="#fbc862"/>
        <path id="Path_1033464" data-name="Path 1033464" d="M36.6,4.208l.133,1.862c-.885.013-1.776-.009-2.661,0A1.888,1.888,0,0,1,36.6,4.208" transform="translate(-17.037 -2.059)" fill="#f9c660"/>
        <path id="Path_1033465" data-name="Path 1033465" d="M39.129,4.3a1.664,1.664,0,0,1,1.336,1.124c.1.26.312.684-.068.739a10.244,10.244,0,0,1-1.136,0Z" transform="translate(-19.564 -2.149)" fill="#f7a251"/>
        <path id="Path_1033466" data-name="Path 1033466" d="M81.524.042a4.478,4.478,0,0,1,3.471,3.976l2.781.014c-.315-2.707,2.443-2.7,2.127,0h1.864C91.3,2.051,93.637,1.016,93.894,3.3c.465,4.131-2.02,7.673-6.385,7.381a7.139,7.139,0,0,1-3.058,8.312,7.038,7.038,0,0,1-10.245-8.312A5.793,5.793,0,0,1,68.015,6.3c-.2-.928-.621-4.1.686-4.26,1.2-.151,1.3,1.077,1.251,1.992h1.864c-.316-2.7,2.442-2.707,2.127,0l2.782-.014A4.707,4.707,0,0,1,79.928.042ZM81.391,2.17a1.888,1.888,0,0,0-2.527,1.861c.885-.008,1.775.013,2.66,0a10.241,10.241,0,0,0,1.136,0c.38-.055.166-.479.067-.738A1.665,1.665,0,0,0,81.391,2.17m5.72,6.516c.454-.013.954.046,1.4,0a3.543,3.543,0,0,0,3.127-2.657c-.973,0-1.952,0-2.926,0-6.2-.026-12.416.018-18.621,0a3.564,3.564,0,0,0,3.007,2.644c4.666-.075,9.356.151,14.018.014m-4.922,9.042a4.787,4.787,0,0,0,3.577-5.5,4.733,4.733,0,0,0-.448-1.414,9.159,9.159,0,0,0-2.6-.13c-2.052-.023-4.111,0-6.164.022a4.849,4.849,0,0,0,3.077,7.12,4.028,4.028,0,0,0,2.555-.094" transform="translate(-33.894 -0.021)" fill="#030302"/>
        <path id="Path_1033467" data-name="Path 1033467" d="M91,12a4.867,4.867,0,0,1-1.6,2.66c-4.663.136-9.353-.09-14.018-.015A3.564,3.564,0,0,1,72.382,12C78.587,12.02,84.8,11.976,91,12" transform="translate(-36.191 -5.997)" fill="#fee1a7"/>
        <path id="Path_1033468" data-name="Path 1033468" d="M90.816,21.308a17.72,17.72,0,0,1-.532,7.048,4.029,4.029,0,0,1-2.555.094,4.849,4.849,0,0,1-3.077-7.12c2.053-.023,4.112-.045,6.164-.021" transform="translate(-41.989 -10.649)" fill="#df8e4d"/>
        <path id="Path_1033469" data-name="Path 1033469" d="M96.589,28.342a17.72,17.72,0,0,0,.532-7.048,9.159,9.159,0,0,1,2.6.129,4.733,4.733,0,0,1,.447,1.414,4.787,4.787,0,0,1-3.577,5.5" transform="translate(-48.294 -10.636)" fill="#c07648"/>
        <path id="Path_1033470" data-name="Path 1033470" d="M108.028,12.009c.974,0,1.953,0,2.926,0a3.544,3.544,0,0,1-3.127,2.658c-.441.046-.941-.012-1.4,0a4.867,4.867,0,0,0,1.6-2.66" transform="translate(-53.216 -6.004)" fill="#fbc862"/>
        <path id="Path_1033471" data-name="Path 1033471" d="M92.465,4.208,92.6,6.07c-.885.013-1.776-.009-2.661,0a1.888,1.888,0,0,1,2.527-1.861" transform="translate(-44.969 -2.059)" fill="#f9c660"/>
        <path id="Path_1033472" data-name="Path 1033472" d="M94.993,4.3a1.664,1.664,0,0,1,1.336,1.124c.1.26.312.684-.067.739a10.244,10.244,0,0,1-1.136,0Z" transform="translate(-47.496 -2.149)" fill="#f7a251"/>
        <path id="Path_1033473" data-name="Path 1033473" d="M77.854,56.326c-.02-.068-.756-.844-.908-1.087a8.234,8.234,0,0,1-1.086-3.568c-.365-5.127.273-10.658-.007-15.827.079-.854.246-1.185,1.129-1.264,3.8-.345,8.121.273,11.981,0,1.3.125.956,1.584.994,2.53a10.894,10.894,0,0,0,9.826-9.525c.09-.637-.173-1.664.418-2.109a1.074,1.074,0,0,1,1.723.808A12.7,12.7,0,0,1,101.6,29,13.157,13.157,0,0,1,89.973,39.254l-.016,12.417a8.755,8.755,0,0,1-1.086,3.569c-.156.249-.908,1.017-.908,1.087V70.089h3.258c.364,0,.7.791.735,1.127.258,2.171-.215,4.81.015,7.033.145.429,1.934.271,1.962,1.478.02.858-.745,1.068-1.454.941a45.666,45.666,0,0,1-5.98-2c-.277-.137-.665-.481-.665-.8V57.989a8.316,8.316,0,0,1-5.852,0V77.867c0,.317-.388.661-.665.8a45.641,45.641,0,0,1-5.98,2c-.731.131-1.45-.076-1.45-.938,0-1.243,1.8-1.02,1.958-1.48.218-2.236-.23-4.84.018-7.029.042-.367.3-1.131.732-1.131h3.259Zm6.119-14.294a7.115,7.115,0,0,0,3.859-5.384,23.24,23.24,0,0,0-2.928-.068c-2.3-.016-4.613.011-6.916,0a7.564,7.564,0,0,0,3.681,5.428,1.853,1.853,0,0,0,2.3.023m.931,1.862a3.522,3.522,0,0,1-4.038-.019,13.908,13.908,0,0,1-2.879-2.242v8.909c2.3-.007,4.613.011,6.917,0,.973,0,1.953,0,2.927,0V41.633A14.509,14.509,0,0,1,84.9,43.894M84.239,56.26A4.421,4.421,0,0,0,87.7,52.537c-.93,0-1.864,0-2.794,0-2.259-.01-4.525.007-6.784,0a4.842,4.842,0,0,0,5.24,3.974,5.482,5.482,0,0,0,.879-.25M77.987,72.083H75.859v5.585a6.826,6.826,0,0,0,2.128-.731Zm11.971,0H87.83v4.854a13.418,13.418,0,0,0,2.128.731Z" transform="translate(-35.944 -12.625)" fill="#070707"/>
        <path id="Path_1033474" data-name="Path 1033474" d="M91,60.278v6.649c-2.3.01-4.613-.007-6.917,0V58.017a13.876,13.876,0,0,0,2.879,2.242A3.521,3.521,0,0,0,91,60.278" transform="translate(-42.043 -29.008)" fill="#fdefd2"/>
        <path id="Path_1033475" data-name="Path 1033475" d="M91,47.906a23.722,23.722,0,0,1-.931,5.452,1.853,1.853,0,0,1-2.3-.023,7.564,7.564,0,0,1-3.681-5.428c2.3.01,4.613-.016,6.916,0" transform="translate(-42.043 -23.95)" fill="#fd6a89"/>
        <path id="Path_1033476" data-name="Path 1033476" d="M97.919,60.278a14.541,14.541,0,0,0,2.926-2.261v8.909c-.974,0-1.952,0-2.926,0Z" transform="translate(-48.959 -29.008)" fill="#f7dba3"/>
        <path id="Path_1033477" data-name="Path 1033477" d="M91.135,79.82a23.28,23.28,0,0,1-.665,3.723,5.462,5.462,0,0,1-.879.251,4.843,4.843,0,0,1-5.24-3.974c2.26.007,4.525-.011,6.784,0" transform="translate(-42.175 -39.908)" fill="#198fc0"/>
        <path id="Path_1033478" data-name="Path 1033478" d="M81.958,118.917v4.854a6.835,6.835,0,0,1-2.128.731v-5.585Z" transform="translate(-39.915 -59.458)" fill="#eebd5c"/>
        <path id="Path_1033479" data-name="Path 1033479" d="M96.988,47.9a23.243,23.243,0,0,1,2.928.068,7.114,7.114,0,0,1-3.859,5.384,23.722,23.722,0,0,0,.931-5.452" transform="translate(-48.028 -23.943)" fill="#fb4894"/>
        <path id="Path_1033480" data-name="Path 1033480" d="M105.9,118.917V124.5a13.418,13.418,0,0,1-2.128-.731v-4.854Z" transform="translate(-51.886 -59.458)" fill="#ee9c4e"/>
        <path id="Path_1033481" data-name="Path 1033481" d="M97.254,79.823c.93,0,1.864,0,2.794,0a4.42,4.42,0,0,1-3.459,3.723,23.28,23.28,0,0,0,.665-3.723" transform="translate(-48.294 -39.911)" fill="#116e95"/>
        <path id="Path_1033482" data-name="Path 1033482" d="M13.978,59.859c-.975.532-3.71,1.519-3.983-.207.118-4.365-.763-8.872,1.994-12.619l-.02-7.771A13.21,13.21,0,0,1,.611,30.073,14.765,14.765,0,0,1,0,26.549c0-1.573,1.909-1.747,2.132-.256.112.746.035,1.491.2,2.323a10.86,10.86,0,0,0,9.825,8.51,3.92,3.92,0,0,1,2.848-2.5,50.213,50.213,0,0,1,7.688-.037,3.687,3.687,0,0,1,3.2,2.674l7.161-.016a1.016,1.016,0,0,0,.844-1.361c-.331-1.1-3.041-.4-3.969-.686a1.013,1.013,0,0,1,.1-1.906,19.144,19.144,0,0,1,3.418-.017,3.024,3.024,0,0,1,1.08,5.578,9.5,9.5,0,0,1-.936.394H26.082v8.045c0,.116,1.021,1.5,1.221,1.971,1.329,3.121.572,7.063.767,10.388-.273,1.726-3.008.738-3.983.207V77.61c.836.673,5.135,1,3.705,2.774a.979.979,0,0,1-1.077.321,33.755,33.755,0,0,1-4.094-1.365c-.229-.121-.663-.582-.663-.8V59.859a6,6,0,0,1-5.853,0v5.252a4.422,4.422,0,0,1-2.171,3.149L5.082,71.309c-.11.126.051,2.8-.047,3.345C4.8,75.988,3.149,75.962,2.95,74.54a22.814,22.814,0,0,1-.012-3.711,1.272,1.272,0,0,1,.894-1.234c2.623-1.205,6.725-1.8,9.118-3.118.219-.12,1.028-.913,1.028-1.1Zm6.651-23.27a36.013,36.013,0,0,0-5.223.03c-.423.075-1.295.685-1.295,1.1v8.843c2.3-.007,4.613.01,6.917,0,.974,0,1.953,0,2.926,0V37.719a5.136,5.136,0,0,0-.444-.687c-.668-.639-2.01-.427-2.882-.444m1.2,11.967c-2.76-.028-5.526.022-8.286,0-.336.081-1.424,2.689-1.424,3.128V58.4c1.292.052,1.969-1.913,2.99-1.871.725.03.909.711,1.4,1.141A4.011,4.011,0,0,0,21.63,57.6c.494-.452.6-1.067,1.393-1.067.965,0,1.659,1.917,2.927,1.862V51.681a9.851,9.851,0,0,0-1.357-3.1Z" transform="translate(0 -12.633)" fill="#060505"/>
        <path id="Path_1033483" data-name="Path 1033483" d="M33.942,71.837c1.538,2.432,1.172,5.234,1.2,7.978-.8,0-.9.615-1.393,1.067a4.011,4.011,0,0,1-5.126.064c-.49-.43-.674-1.111-1.4-1.141-1.021-.042-1.7,1.923-2.99,1.871V74.962c0-.439,1.088-3.047,1.424-3.128,2.761.024,5.527-.025,8.286,0" transform="translate(-12.116 -35.914)" fill="#fd6a89"/>
        <path id="Path_1033484" data-name="Path 1033484" d="M34.74,47.826l.4,1.4V57.8c-2.3.01-4.613-.007-6.917,0V48.956c0-.415.872-1.025,1.295-1.1a36.085,36.085,0,0,1,5.223-.03" transform="translate(-14.111 -23.87)" fill="#fe4128"/>
        <path id="Path_1033485" data-name="Path 1033485" d="M41.257,47.891c.872.017,2.214-.195,2.882.444a5.2,5.2,0,0,1,.444.687v8.843c-.973,0-1.953,0-2.926,0V49.287Z" transform="translate(-20.628 -23.935)" fill="#ce301b"/>
        <path id="Path_1033486" data-name="Path 1033486" d="M43.651,71.846l2.767.028a9.85,9.85,0,0,1,1.357,3.1v6.715c-1.268.055-1.962-1.862-2.927-1.862-.025-2.745.341-5.547-1.2-7.978" transform="translate(-21.825 -35.923)" fill="#fd4895"/>
      </g>
    </g>
  </g>
</svg>
