<svg xmlns="http://www.w3.org/2000/svg" xmlns:xlink="http://www.w3.org/1999/xlink" width="90.784" height="114.674" viewBox="0 0 90.784 114.674">
  <defs>
    <filter id="Rectangle_401593" x="0" y="0" width="77.403" height="114.674" filterUnits="userSpaceOnUse">
      <feOffset dy="3" input="SourceAlpha"/>
      <feGaussianBlur stdDeviation="3" result="blur"/>
      <feFlood flood-opacity="0.161"/>
      <feComposite operator="in" in2="blur"/>
      <feComposite in="SourceGraphic"/>
    </filter>
    <clipPath id="clip-path">
      <path id="path1377" d="M0-682.665H81.784v81.784H0Z" transform="translate(0 682.665)"/>
    </clipPath>
  </defs>
  <g id="Group_1199977" data-name="Group 1199977" transform="translate(6896.81 7011.542)">
    <g id="Group_1199975" data-name="Group 1199975" transform="translate(-6887.81 -7005.542)">
      <g id="Group_1199972" data-name="Group 1199972" transform="translate(0 0)">
        <g id="Group_1182090" data-name="Group 1182090" transform="translate(0 0)">
          <g transform="matrix(1, 0, 0, 1, -9, -6)" filter="url(#Rectangle_401593)">
            <rect id="Rectangle_401593-2" data-name="Rectangle 401593" width="59.403" height="96.674" rx="8" transform="translate(9 6)" fill="#9ad354"/>
          </g>
        </g>
      </g>
    </g>
    <g id="g1371" transform="translate(-6887.81 -6990.651)">
      <g id="g1373" transform="translate(0 0)">
        <g id="g1375" transform="translate(0 0)" clip-path="url(#clip-path)">
          <g id="g1381" transform="translate(18.529 71.241)">
            <path id="path1383" d="M-328.607-65.721h-44.725a8.945,8.945,0,0,1,8.945-8.945h26.835A8.945,8.945,0,0,1-328.607-65.721Z" transform="translate(373.332 74.666)" fill="#91def5"/>
          </g>
          <g id="g1385" transform="translate(36.419 1.597)">
            <path id="path1387" d="M-65.721-511.688h-8.945v-65.171a4.473,4.473,0,0,1,4.473-4.473h0a4.473,4.473,0,0,1,4.473,4.473Z" transform="translate(74.666 581.332)" fill="#91def5"/>
          </g>
          <g id="g1389" transform="translate(17.555 70.267)">
            <path id="path1391" d="M-329.632-65.772h-44.725a.975.975,0,0,1-.975-.975,9.859,9.859,0,0,1,.78-3.861,9.885,9.885,0,0,1,2.126-3.153,9.885,9.885,0,0,1,3.153-2.125,9.859,9.859,0,0,1,3.861-.78h26.835a9.859,9.859,0,0,1,3.862.78,9.886,9.886,0,0,1,3.153,2.125,9.885,9.885,0,0,1,2.125,3.153,9.859,9.859,0,0,1,.78,3.861A.975.975,0,0,1-329.632-65.772Zm-43.692-1.949h42.658a7.983,7.983,0,0,0-7.911-7h-26.835A7.983,7.983,0,0,0-373.324-67.721Z" transform="translate(375.332 76.666)"/>
          </g>
          <g id="g1393" transform="translate(35.445 0.623)">
            <path id="path1395" d="M-66.747-459.739h-8.945a.975.975,0,0,1-.975-.975v-65.171a5.412,5.412,0,0,1,1.6-3.852,5.412,5.412,0,0,1,3.852-1.6,5.412,5.412,0,0,1,3.852,1.6,5.412,5.412,0,0,1,1.6,3.852v44.566a.975.975,0,0,1-.975.975.975.975,0,0,1-.975-.975v-44.566a3.5,3.5,0,0,0-3.5-3.5,3.5,3.5,0,0,0-3.5,3.5v64.2h7v-5.255a.975.975,0,0,1,.975-.975.975.975,0,0,1,.975.975v6.23A.975.975,0,0,1-66.747-459.739Z" transform="translate(76.666 531.332)"/>
          </g>
          <g id="g1397" transform="translate(9.248 7.012)">
            <path id="path1399" d="M60.312-.051H-1.025A.975.975,0,0,1-2-1.025.975.975,0,0,1-1.025-2H60.312a.975.975,0,0,1,.975.975A.975.975,0,0,1,60.312-.051Z" transform="translate(2 2)"/>
          </g>
          <g id="g1401" transform="translate(1.79 40.892)">
            <path id="path1403" d="M-133.79-65.721h-9.265A8.945,8.945,0,0,1-152-74.666h27.155a8.945,8.945,0,0,1-8.945,8.945" transform="translate(152 74.666)" fill="#ffcb7c"/>
          </g>
          <g id="g1405" transform="translate(8.932 7.012)">
            <path id="path1407" d="M9.964-97.117a.975.975,0,0,1-.9-.6L4.435-108.937-.125-97.886a.975.975,0,0,1-1.273.529.975.975,0,0,1-.529-1.273l5.461-13.234a.975.975,0,0,1,.9-.6.975.975,0,0,1,.9.6l5.529,13.4a.975.975,0,0,1-.529,1.273A.972.972,0,0,1,9.964-97.117Z" transform="translate(2.001 112.466)"/>
          </g>
          <g id="g1409" transform="translate(0.815 30.687)">
            <path id="path1411" d="M-168.756,9.156H-195.91a.975.975,0,0,1-.81-.433.975.975,0,0,1-.091-.914L-193-1.42a.975.975,0,0,1,1.273-.529A.975.975,0,0,1-191.2-.677l-3.253,7.884h24.242l-3.252-7.881a.975.975,0,0,1,.529-1.273.975.975,0,0,1,1.273.529l3.807,9.227a.975.975,0,0,1-.091.914A.975.975,0,0,1-168.756,9.156Z" transform="translate(196.885 2.023)"/>
          </g>
          <g id="g1413" transform="translate(0.815 39.917)">
            <path id="path1415" d="M-134.815-65.772h-9.265a9.859,9.859,0,0,1-3.861-.78,9.885,9.885,0,0,1-3.153-2.125,9.885,9.885,0,0,1-2.125-3.153,9.859,9.859,0,0,1-.78-3.861.975.975,0,0,1,.975-.975h27.155a.975.975,0,0,1,.975.975,9.859,9.859,0,0,1-.78,3.861,9.886,9.886,0,0,1-2.125,3.153,9.885,9.885,0,0,1-3.153,2.125A9.859,9.859,0,0,1-134.815-65.772Zm-17.176-8.945a7.983,7.983,0,0,0,7.911,7h9.265a7.983,7.983,0,0,0,7.911-7Z" transform="translate(154 76.666)"/>
          </g>
          <g id="g1417" transform="translate(14.392 32.666)">
            <path id="path1419" d="M-1.025,6.614A.975.975,0,0,1-2,5.64V-1.025A.975.975,0,0,1-1.025-2a.975.975,0,0,1,.975.975V5.64A.975.975,0,0,1-1.025,6.614Z" transform="translate(2 2)"/>
          </g>
          <g id="g1421" transform="translate(15.366 20.074)">
            <path id="path1423" d="M-78.258-78.258A10.647,10.647,0,0,1-88.548-75.5,10.647,10.647,0,0,1-85.79-85.79,10.647,10.647,0,0,1-75.5-88.548a10.647,10.647,0,0,1-2.758,10.29" transform="translate(88.909 88.909)" fill="#d8ec84"/>
          </g>
          <g id="g1425" transform="translate(1.597 20.074)">
            <path id="path1427" d="M-2.656-2.656A10.647,10.647,0,0,1,7.634.1a10.647,10.647,0,0,1,2.758,10.29A10.647,10.647,0,0,1,.1,7.634,10.647,10.647,0,0,1-2.656-2.656" transform="translate(3.018 3.018)" fill="#d8ec84"/>
          </g>
          <g id="g1429" transform="translate(14.391 19.099)">
            <path id="path1431" d="M-86.815-75.189a11.671,11.671,0,0,1-3.01-.394.975.975,0,0,1-.69-.69,11.69,11.69,0,0,1-.024-5.927A11.617,11.617,0,0,1-87.5-87.5a11.554,11.554,0,0,1,3.846-2.554,11.587,11.587,0,0,1,4.374-.851,11.67,11.67,0,0,1,3.01.395.975.975,0,0,1,.69.69,11.69,11.69,0,0,1,.024,5.927,11.616,11.616,0,0,1-3.035,5.3,11.553,11.553,0,0,1-3.846,2.554A11.586,11.586,0,0,1-86.815-75.189Zm-1.948-2.146a9.731,9.731,0,0,0,1.948.2,9.613,9.613,0,0,0,6.842-2.834,9.716,9.716,0,0,0,2.637-8.791,9.732,9.732,0,0,0-1.948-.2,9.614,9.614,0,0,0-6.842,2.834A9.716,9.716,0,0,0-88.763-77.335Z" transform="translate(90.909 90.91)"/>
          </g>
          <g id="g1433" transform="translate(0.623 19.099)">
            <path id="path1435" d="M-.923-5.018a11.586,11.586,0,0,1,4.374.851A11.554,11.554,0,0,1,7.3-1.613a11.616,11.616,0,0,1,3.035,5.3,11.691,11.691,0,0,1-.024,5.927.975.975,0,0,1-.69.69,11.672,11.672,0,0,1-3.01.394,11.586,11.586,0,0,1-4.374-.851A11.553,11.553,0,0,1-1.612,7.3a11.617,11.617,0,0,1-3.035-5.3,11.689,11.689,0,0,1,.024-5.927.975.975,0,0,1,.69-.69A11.67,11.67,0,0,1-.923-5.018ZM8.557,8.556A9.716,9.716,0,0,0,5.92-.234,9.613,9.613,0,0,0-.923-3.069a9.731,9.731,0,0,0-1.948.2A9.716,9.716,0,0,0-.234,5.919,9.613,9.613,0,0,0,6.608,8.753,9.732,9.732,0,0,0,8.557,8.556Z" transform="translate(5.017 5.018)"/>
          </g>
          <g id="g1437" transform="translate(52.839 40.892)">
            <path id="path1439" d="M-65.721-65.721h9.265a8.945,8.945,0,0,0,8.945-8.945H-74.666a8.945,8.945,0,0,0,8.945,8.945" transform="translate(74.666 74.666)" fill="#ffcb7c"/>
          </g>
          <g id="g1441" transform="translate(59.913 7.012)">
            <path id="path1443" d="M-92.759-97.117a.971.971,0,0,1-.371-.074.975.975,0,0,1-.529-1.273l5.529-13.4a.975.975,0,0,1,.9-.6.975.975,0,0,1,.9.6l5.461,13.234a.975.975,0,0,1-.529,1.273.975.975,0,0,1-1.273-.529l-4.56-11.051L-91.858-97.72A.975.975,0,0,1-92.759-97.117Z" transform="translate(93.734 112.466)"/>
          </g>
          <g id="g1445" transform="translate(51.865 30.687)">
            <path id="path1447" d="M-5.652,9.156H-32.807a.975.975,0,0,1-.81-.433.975.975,0,0,1-.091-.914L-29.9-1.417a.975.975,0,0,1,1.273-.529A.975.975,0,0,1-28.1-.674L-31.35,7.207H-7.108L-10.362-.677a.975.975,0,0,1,.529-1.273A.975.975,0,0,1-8.56-1.42l3.809,9.23a.975.975,0,0,1-.091.914A.975.975,0,0,1-5.652,9.156Z" transform="translate(33.781 2.023)"/>
          </g>
          <g id="g1449" transform="translate(51.865 39.917)">
            <path id="path1451" d="M-57.482-65.772h-9.265a9.859,9.859,0,0,1-3.861-.78,9.886,9.886,0,0,1-3.153-2.125,9.885,9.885,0,0,1-2.125-3.153,9.858,9.858,0,0,1-.78-3.861.975.975,0,0,1,.975-.975h27.155a.975.975,0,0,1,.975.975,9.858,9.858,0,0,1-.78,3.861,9.886,9.886,0,0,1-2.125,3.153,9.885,9.885,0,0,1-3.153,2.125A9.859,9.859,0,0,1-57.482-65.772Zm-17.176-8.945a7.983,7.983,0,0,0,7.911,7h9.265a7.983,7.983,0,0,0,7.911-7Z" transform="translate(76.666 76.666)"/>
          </g>
          <g id="g1453" transform="translate(65.442 32.666)">
            <path id="path1455" d="M-1.025,6.614A.975.975,0,0,1-2,5.64V-1.025A.975.975,0,0,1-1.025-2a.975.975,0,0,1,.975.975V5.64A.975.975,0,0,1-1.025,6.614Z" transform="translate(2 2)"/>
          </g>
          <g id="g1457" transform="translate(52.647 20.074)">
            <path id="path1459" d="M-2.656-2.656A10.647,10.647,0,0,1,7.634.1a10.647,10.647,0,0,1,2.758,10.29A10.647,10.647,0,0,1,.1,7.634,10.647,10.647,0,0,1-2.656-2.656" transform="translate(3.018 3.018)" fill="#d8ec84"/>
          </g>
          <g id="g1461" transform="translate(66.415 20.074)">
            <path id="path1463" d="M-78.258-78.258A10.647,10.647,0,0,1-88.548-75.5,10.647,10.647,0,0,1-85.79-85.79,10.647,10.647,0,0,1-75.5-88.548a10.647,10.647,0,0,1-2.758,10.29" transform="translate(88.909 88.909)" fill="#d8ec84"/>
          </g>
          <g id="g1465" transform="translate(51.673 19.099)">
            <path id="path1467" d="M-.923-5.018a11.586,11.586,0,0,1,4.374.851A11.554,11.554,0,0,1,7.3-1.613a11.616,11.616,0,0,1,3.035,5.3,11.691,11.691,0,0,1-.024,5.927.975.975,0,0,1-.69.69,11.672,11.672,0,0,1-3.01.394,11.586,11.586,0,0,1-4.374-.851A11.553,11.553,0,0,1-1.612,7.3a11.617,11.617,0,0,1-3.035-5.3,11.689,11.689,0,0,1,.024-5.927.975.975,0,0,1,.69-.69A11.67,11.67,0,0,1-.923-5.018ZM8.557,8.556A9.716,9.716,0,0,0,5.92-.234,9.613,9.613,0,0,0-.923-3.069a9.731,9.731,0,0,0-1.948.2A9.716,9.716,0,0,0-.234,5.919,9.613,9.613,0,0,0,6.608,8.753,9.732,9.732,0,0,0,8.557,8.556Z" transform="translate(5.017 5.018)"/>
          </g>
          <g id="g1469" transform="translate(65.441 19.099)">
            <path id="path1471" d="M-86.815-75.189a11.671,11.671,0,0,1-3.01-.394.975.975,0,0,1-.69-.69,11.69,11.69,0,0,1-.024-5.927A11.617,11.617,0,0,1-87.5-87.5a11.554,11.554,0,0,1,3.846-2.554,11.587,11.587,0,0,1,4.374-.851,11.67,11.67,0,0,1,3.01.395.975.975,0,0,1,.69.69,11.69,11.69,0,0,1,.024,5.927,11.616,11.616,0,0,1-3.035,5.3,11.553,11.553,0,0,1-3.846,2.554A11.586,11.586,0,0,1-86.815-75.189Zm-1.948-2.146a9.731,9.731,0,0,0,1.948.2,9.613,9.613,0,0,0,6.842-2.834,9.716,9.716,0,0,0,2.637-8.791,9.732,9.732,0,0,0-1.948-.2,9.614,9.614,0,0,0-6.842,2.834A9.716,9.716,0,0,0-88.763-77.335Z" transform="translate(90.909 90.91)"/>
          </g>
          <g id="g1473" transform="translate(45.364 57.823)">
            <path id="path1475" transform="translate(0)"/>
          </g>
        </g>
      </g>
    </g>
  </g>
</svg>
