<svg xmlns="http://www.w3.org/2000/svg" xmlns:xlink="http://www.w3.org/1999/xlink" width="161.368" height="178" viewBox="0 0 161.368 178">
  <defs>
    <clipPath id="clip-path">
      <rect id="Rectangle_408734" data-name="Rectangle 408734" width="131.122" height="129.196" fill="none"/>
    </clipPath>
  </defs>
  <g id="Group_1200348" data-name="Group 1200348" transform="translate(5974.45 8043.66)">
    <rect id="Rectangle_401593" data-name="Rectangle 401593" width="95.806" height="178" rx="8" transform="translate(-5974.45 -8043.66)" fill="#f5fbee"/>
    <g id="farmer_9420512" transform="translate(-5944.205 -7994.856)">
      <g id="Group_1199938" data-name="Group 1199938" transform="translate(0 0)">
        <g id="Group_1199937" data-name="Group 1199937" clip-path="url(#clip-path)">
          <path id="Path_1031744" data-name="Path 1031744" d="M185.862,173.575v4.031c0,8.055-9.236,10.738-11.719,16.781-1.415,3.442-1.07,6.407.092,9.84-4.259,2.054-7.618,5.347-10.637,8.879-.622-8.435-12.089-11.591-16.511-4.074-1.784,3.033-.982,6.041-2.2,9.274-.231.613-2.79,5.353-3.552,4.684-1.63-6.447-5.926-11.8-10.987-15.988.7-1.276.517-2.771.825-4.054.694-2.888,7.464-5.553,9.767-8.044a10.689,10.689,0,0,0-2.765-16.523l-7.644-3.244c3.205.109,6.418.152,9.626.247a312.169,312.169,0,0,0,32.657-.512c4.35-.325,8.688-1.03,13.045-1.3" transform="translate(-84.468 -113.265)" fill="#a5dbf6"/>
          <path id="Path_1031745" data-name="Path 1031745" d="M31.312,162.347c6.628,2.2,13.494,2.274,19.754,4.039,6.743,1.9,14.021,6.176,20.836,8.3,4.085,2.528,4.619,7.635.9,10.8-4.043,3.443-10.76,4.871-10.139,11.709l-17.177-7.619a6.8,6.8,0,0,0-5.48.6c-4.844-8.5-8.32-17.988-8.695-27.829" transform="translate(-20.291 -105.938)" fill="#b2d032"/>
          <path id="Path_1031746" data-name="Path 1031746" d="M275.791,199.369l6.828-4.574c5.473-4.537.985-12.69-6.112-10.455-1.554.49-11.552,5.576-12.044,5.146-2.654-7.374,3.794-9.426,7.51-13.782a19.843,19.843,0,0,0,4.6-10.8c.125-.971-.19-4.052.528-4.68,7-1.5,14.251-2.573,20.551-6.109a62.026,62.026,0,0,1-3.753,23.472c-.917,2.362-2.22,3.7-3.031,5.591-2.152,5.011-1.583,10.374-6.519,14.112a16.1,16.1,0,0,1-4.479,2.081Z" transform="translate(-170.971 -100.566)" fill="#b1d032"/>
          <path id="Path_1031747" data-name="Path 1031747" d="M52.877,109.459c.727-.043,1.385-.25,2.107-.261.928,8.647,8.775,15.658,17.509,16.139,9.833.541,18.7-6.438,19.905-16.139.722.011,1.381.218,2.107.261A20.769,20.769,0,0,1,87.132,122.6c-1.252,1.04-2.705,1.713-3.955,2.725,13.259-.228,26.765-.725,39.84-2.934,3.7-.624,7.327-1.59,11.011-2.265-4.085,4.357-23.041,7.071-29.381,7.8a277.746,277.746,0,0,1-40.3,1.293c-14.137-.438-31.713-1.314-45.074-5.962-1.432-.5-6.9-2.534-6.723-4.287,1.46-2.352,4.839-3.457,7.391-4.3.69,1.687,3.216,2.729,4.829,3.426a59.409,59.409,0,0,0,9.871,3c9.345,2.135,18.979,2.847,28.511,3.714-5.333-3.66-9.518-8.746-10.276-15.342" transform="translate(-8.131 -71.256)" fill="#72b3e0"/>
          <path id="Path_1031748" data-name="Path 1031748" d="M264.058,120.613c-3.684.674-7.312,1.64-11.011,2.265-13.075,2.209-26.581,2.705-39.84,2.934,1.251-1.012,2.7-1.685,3.955-2.725a20.768,20.768,0,0,0,7.374-13.137c9.731.586,20.166,1.7,29.566,4.235,2.1.565,10.115,2.941,10.708,5.054.269.958-.368.964-.753,1.375" transform="translate(-138.161 -71.747)" fill="#87c1e5"/>
          <path id="Path_1031749" data-name="Path 1031749" d="M66.492,109.949c.757,6.6,4.942,11.682,10.276,15.342-9.531-.867-19.166-1.58-28.511-3.714a59.408,59.408,0,0,1-9.871-3c-1.612-.7-4.139-1.739-4.829-3.426,9.859-3.276,22.53-4.577,32.934-5.2" transform="translate(-21.746 -71.746)" fill="#87c1e5"/>
          <path id="Path_1031750" data-name="Path 1031750" d="M19.144,156.974c.375,9.841,3.851,19.332,8.695,27.829-3.24,2.19-3.553,7.5-.389,9.877l6.976,4.688H30.342c-1.742,0-5.467-2.784-6.59-4.158-3.026-3.7-2.625-9.505-5.02-13.251A31.772,31.772,0,0,1,14.42,171.65a64.467,64.467,0,0,1-1.861-17.537,44.356,44.356,0,0,0,6.584,2.861" transform="translate(-8.123 -100.565)" fill="#9abc2c"/>
          <path id="Path_1031751" data-name="Path 1031751" d="M151.1,37.682A154.652,154.652,0,0,1,162.673,17.3l.544-.161C167.649,24.98,173.848,33.1,176.669,41.7c2.309,7.041.283,13.186-6.069,17.045a17.039,17.039,0,0,1-20.3-15.2l.273-4.822c.084-.2.195-.361.263-.52Zm13.7-8.057-3.692-1.964c-2.162,3.772-4.5,7.517-6.283,11.488-1.9,4.245-3.644,8.1-1.087,12.578l3.573-2.083a6.643,6.643,0,0,1-.161-5.079c1.589-5.119,5.213-10.169,7.65-14.941" transform="translate(-97.398 -11.183)" fill="#a4dbf5"/>
          <path id="Path_1031752" data-name="Path 1031752" d="M166.718,99.286c-7.632,4.637-17.506,1.977-21.123-6.327-2.424-5.566-1.041-8.545,1.1-13.7l-.273,4.822a17.039,17.039,0,0,0,20.3,15.2" transform="translate(-93.517 -51.72)" fill="#86bee3"/>
          <path id="Path_1031753" data-name="Path 1031753" d="M151.827,76.785c.085-.2.19-.358.264-.52Z" transform="translate(-98.386 -49.766)" fill="#86bee3"/>
          <path id="Path_1031754" data-name="Path 1031754" d="M168.772,49.389c-2.437,4.772-6.061,9.821-7.65,14.941a6.643,6.643,0,0,0,.161,5.079l-3.573,2.083c-2.557-4.48-.816-8.333,1.087-12.578,1.78-3.971,4.121-7.716,6.283-11.488Z" transform="translate(-101.366 -30.947)" fill="#040404"/>
          <path id="Path_1031755" data-name="Path 1031755" d="M44.483,128.973c-1.4-.011-2.814.008-4.216,0v-6.892c0-.362-1.25-2.028-1.844-2.081-5.855-1.437-11.981-1.893-17.567-4.246C9.562,111,2.677,100.965.6,89.193-.155,84.9-.361,80.9,4.446,79.148A68.543,68.543,0,0,1,.208,59.671C.05,56.561-.2,49.826.282,46.978c.973-5.735,13.732-8.7,18.594-9.735,9.19-1.955,18.611-2.772,27.981-3.46.876-6.041,4.091-12.02,7.067-17.342,1.749-3.127,3.77-6.422,5.732-9.427C60.386,5.9,63.707.669,64.431.287a2.32,2.32,0,0,1,2.937.63C68.9,2.527,71.468,7,72.784,9.1c3.681,5.851,7.864,12.862,10.171,19.35a15.655,15.655,0,0,1,1.312,5.338c9.768.746,19.741,1.554,29.3,3.721,4.637,1.051,16.355,4.035,17.277,9.474.483,2.848.232,9.583.074,12.693a68.543,68.543,0,0,1-4.238,19.477c4.775,1.749,4.6,5.779,3.845,10.045-2.077,11.776-8.97,21.807-20.255,26.561-5.586,2.353-11.712,2.81-17.567,4.246-.594.052-1.844,1.719-1.844,2.081v6.892c-1.4.008-2.813-.011-4.215,0,.194-4.045-1.014-8.692,2.509-11.7,2.464-2.1,10.039-2.731,13.515-3.565,13.387-3.209,21.465-12.1,23.678-25.523.222-1.346,1.067-6.237-1.761-4.73a1.8,1.8,0,0,0-.923,1.04c-1.181,2.661-1.557,6.381-2.76,9.239-2.8,6.659-9.62,10.007-16.732,9.224-2.522-.278-9.179-.972-6.328-4.678L109.3,90.615c1.481-1.857-.286-3.594-2.385-2.873-10.637,5.02-21.562,7.676-27.091,19.031-3.362,6.9-2.791,14.761-3.726,22.2-.033,0-.172.226-.384.223a14.438,14.438,0,0,0-3.174-.222l-.622-.427.492-8.158a93.957,93.957,0,0,1-13.7,0l.412,8.341a21.529,21.529,0,0,1-3.715.466c-.212,0-.351-.223-.384-.223-.961-8.668-.327-17.023-5.16-24.686C43.8,94.682,33.907,92.426,24.2,87.742c-2.064-.748-3.833,1.057-2.385,2.873l11.466,7.667a2.075,2.075,0,0,1-.859,3.574c-9.306,3.472-19.27.052-22.732-9.416-.854-2.337-1.357-6.284-2.422-8.278a1.414,1.414,0,0,0-.73-.7c-2.952-1.579-1.983,3.765-1.726,5.215,2.344,13.19,10.5,21.886,23.643,25.037,3.476.834,11.051,1.462,13.515,3.565,3.523,3.006,2.314,7.653,2.509,11.7M53.7,26.5c-.073.163-.178.324-.264.52-.069.159-.18.318-.264.52-2.14,5.154-3.524,8.134-1.1,13.7C55.7,49.543,65.57,52.2,73.2,47.566c6.352-3.859,8.378-10,6.07-17.045C76.451,21.92,70.252,13.8,65.82,5.954l-.544.162A154.674,154.674,0,0,0,53.7,26.5M44.747,38.2c-10.4.625-23.075,1.926-32.934,5.2-2.553.848-5.931,1.953-7.391,4.3C4.247,49.463,9.713,51.5,11.144,52c13.362,4.647,30.938,5.523,45.075,5.962a277.746,277.746,0,0,0,40.3-1.293c6.34-.729,25.3-3.442,29.381-7.8.385-.411,1.021-.417.753-1.375-.593-2.113-8.612-4.488-10.708-5.053-9.4-2.534-19.835-3.649-29.566-4.235-.727-.044-1.385-.25-2.107-.261-1.208,9.7-10.072,16.68-19.905,16.139-8.735-.481-16.581-7.491-17.509-16.139-.722.011-1.381.218-2.107.261M11.022,56.409a44.389,44.389,0,0,1-6.584-2.861A64.478,64.478,0,0,0,6.3,71.085,31.754,31.754,0,0,0,10.61,81.394C13,85.139,12.6,90.942,15.629,94.645c1.123,1.375,4.848,4.158,6.59,4.158H26.3l-6.976-4.688c-3.164-2.381-2.851-7.686.389-9.877a6.8,6.8,0,0,1,5.481-.6l17.177,7.62c-.622-6.838,6.1-8.265,10.139-11.709,3.718-3.167,3.183-8.274-.9-10.8-6.815-2.125-14.093-6.4-20.837-8.3-6.259-1.764-13.126-1.836-19.754-4.039m93.8,42.394H108.9a16.092,16.092,0,0,0,4.479-2.081c4.936-3.737,4.367-9.1,6.519-14.112.811-1.888,2.114-3.229,3.031-5.591a62.027,62.027,0,0,0,3.753-23.472c-6.3,3.536-13.553,4.6-20.551,6.109-.719.629-.4,3.709-.528,4.681a19.843,19.843,0,0,1-4.6,10.8c-3.716,4.356-10.164,6.408-7.51,13.782.491.43,10.489-4.656,12.044-5.146,7.1-2.236,11.585,5.917,6.112,10.455ZM101.394,60.31c-4.356.268-8.694.973-13.045,1.3a312.268,312.268,0,0,1-32.658.512c-3.208-.1-6.421-.138-9.626-.247l7.644,3.244A10.689,10.689,0,0,1,56.474,81.64c-2.3,2.491-9.074,5.156-9.767,8.044-.308,1.283-.13,2.778-.825,4.054,5.061,4.188,9.357,9.541,10.987,15.988.762.669,3.321-4.071,3.552-4.684,1.216-3.232.415-6.241,2.2-9.274,4.422-7.517,15.889-4.361,16.511,4.074,3.019-3.532,6.378-6.825,10.637-8.879-1.162-3.433-1.507-6.4-.092-9.84,2.483-6.042,11.719-8.726,11.719-16.78Zm-41.1,52.537c-.65.66-3.27,1.814-2.044,3.06.472.479,8.087.633,9.3.594a37.562,37.562,0,0,0,5.328-.592,6.151,6.151,0,0,0,.325-1.5,50.919,50.919,0,0,1,2.9-9.988c-1.473-3.317-1.221-9.534-6.653-8.678-4.412.695-3.617,4.939-4.226,8.055a19.569,19.569,0,0,1-4.928,9.05" transform="translate(0 0)" fill="#030303"/>
          <path id="Path_1031756" data-name="Path 1031756" d="M224.632,285.71c-2.806.01-5.625.02-8.431,0,.935-7.439.364-15.3,3.726-22.2,5.529-11.354,16.454-14.01,27.091-19.031,2.1-.721,3.866,1.016,2.385,2.873l-11.466,7.667c-2.852,3.706,3.806,4.4,6.328,4.678,7.112.783,13.927-2.565,16.732-9.224,1.2-2.857,1.579-6.577,2.76-9.238a1.8,1.8,0,0,1,.923-1.04c-1.143,14.21-9.71,26.118-23.922,29.833-3.875,1.013-8.261,1.311-12.082,2.378-6.006,1.677-3.552,8.709-4.044,13.3" transform="translate(-140.101 -156.737)" fill="#f2d7b4"/>
          <path id="Path_1031757" data-name="Path 1031757" d="M18.587,240.2a1.41,1.41,0,0,1,.73.7c1.066,1.994,1.568,5.941,2.422,8.278,3.462,9.469,13.426,12.888,22.732,9.416a2.075,2.075,0,0,0,.86-3.574l-11.466-7.667c-1.448-1.816.321-3.621,2.385-2.873,9.7,4.684,19.6,6.939,25.658,16.545,4.833,7.663,4.2,16.019,5.16,24.686-2.806.02-5.625.01-8.431,0-.52-4.733,2.016-11.475-4.046-13.3-4-1.2-8.728-1.467-12.874-2.637-13.777-3.887-22.049-15.748-23.129-29.576" transform="translate(-12.045 -156.737)" fill="#f2d7b4"/>
          <path id="Path_1031758" data-name="Path 1031758" d="M14.749,239.653c1.08,13.828,9.352,25.689,23.129,29.576,4.146,1.17,8.876,1.432,12.874,2.637,6.062,1.827,3.526,8.569,4.046,13.3-.7,0-1.407.006-2.108,0-.194-4.045,1.014-8.692-2.509-11.7-2.464-2.1-10.039-2.731-13.515-3.564-13.144-3.151-21.3-11.848-23.642-25.037-.258-1.45-1.226-6.794,1.726-5.215" transform="translate(-8.207 -156.195)" fill="#ebc49a"/>
          <path id="Path_1031759" data-name="Path 1031759" d="M242.088,285.174c-.7.006-1.406,0-2.108,0,.492-4.594-1.962-11.627,4.044-13.3,3.821-1.067,8.207-1.364,12.082-2.378,14.212-3.716,22.78-15.623,23.922-29.833,2.829-1.507,1.983,3.384,1.761,4.73-2.212,13.427-10.29,22.313-23.678,25.523-3.476.834-11.051,1.462-13.515,3.564-3.523,3.006-2.315,7.653-2.509,11.7" transform="translate(-155.449 -156.201)" fill="#ebc49a"/>
          <path id="Path_1031760" data-name="Path 1031760" d="M184.2,294.065a53.729,53.729,0,0,1-12.91-1.56,19.569,19.569,0,0,0,4.927-9.05c.609-3.116-.185-7.361,4.227-8.055,5.432-.855,5.179,5.361,6.653,8.678a50.864,50.864,0,0,0-2.9,9.988" transform="translate(-110.997 -179.657)" fill="#b1cf31"/>
          <path id="Path_1031761" data-name="Path 1031761" d="M179.843,326.34a6.145,6.145,0,0,1-.325,1.5,37.505,37.505,0,0,1-5.328.592c-1.215.04-8.83-.114-9.3-.594-1.226-1.246,1.393-2.4,2.044-3.059a53.729,53.729,0,0,0,12.91,1.56" transform="translate(-106.641 -211.933)" fill="#98b92b"/>
        </g>
      </g>
    </g>
  </g>
</svg>
