<svg xmlns="http://www.w3.org/2000/svg" xmlns:xlink="http://www.w3.org/1999/xlink" width="96.894" height="117.059" viewBox="0 0 96.894 117.059">
  <defs>
    <filter id="Rectangle_401593" x="0" y="0" width="78.868" height="117.059" filterUnits="userSpaceOnUse">
      <feOffset dy="3" input="SourceAlpha"/>
      <feGaussianBlur stdDeviation="3" result="blur"/>
      <feFlood flood-opacity="0.161"/>
      <feComposite operator="in" in2="blur"/>
      <feComposite in="SourceGraphic"/>
    </filter>
  </defs>
  <g id="Group_1200328" data-name="Group 1200328" transform="translate(6878.44 6758.128)">
    <g id="Group_1199981" data-name="Group 1199981" transform="translate(-6869.44 -6752.128)">
      <g id="Group_1199972" data-name="Group 1199972" transform="translate(0)">
        <g id="Group_1182090" data-name="Group 1182090" transform="translate(0 0)">
          <g transform="matrix(1, 0, 0, 1, -9, -6)" filter="url(#Rectangle_401593)">
            <rect id="Rectangle_401593-2" data-name="Rectangle 401593" width="60.868" height="99.059" rx="8" transform="translate(9 6)" fill="#9ad354"/>
          </g>
        </g>
      </g>
    </g>
    <g id="book_7210512" transform="translate(-6874.94 -6781.229)">
      <g id="Group_1199409" data-name="Group 1199409" transform="translate(6.455 59.615)">
        <g id="Group_1199407" data-name="Group 1199407" transform="translate(0 50.253)">
          <path id="Path_1031190" data-name="Path 1031190" d="M50.492,351.129v7.462a2.4,2.4,0,0,1-2.394,2.394H9.894A2.4,2.4,0,0,1,7.5,358.591v-7.462Z" transform="translate(-7.5 -351.129)" fill="#d88a55"/>
          <path id="Path_1031191" data-name="Path 1031191" d="M211.543,351.129v7.462a2.4,2.4,0,0,1-2.394,2.394h5.711a2.4,2.4,0,0,0,2.394-2.394v-7.462Z" transform="translate(-174.262 -351.129)" fill="#c57a44"/>
          <path id="Path_1031192" data-name="Path 1031192" d="M298.992,351.129v7.462a2.4,2.4,0,0,1-2.394,2.394h-38.2A2.4,2.4,0,0,1,256,358.591v-7.462Z" transform="translate(-213.008 -351.129)" fill="#d88a55"/>
          <path id="Path_1031193" data-name="Path 1031193" d="M460.043,351.129v7.462a2.4,2.4,0,0,1-2.394,2.394h5.711a2.4,2.4,0,0,0,2.394-2.394v-7.462Z" transform="translate(-379.77 -351.129)" fill="#c57a44"/>
        </g>
        <path id="Path_1031194" data-name="Path 1031194" d="M48.1,114.483H9.894A2.394,2.394,0,0,1,7.5,112.089V63.055a2.394,2.394,0,0,1,2.394-2.394H40.8a9.69,9.69,0,0,1,9.69,9.69v41.737A2.394,2.394,0,0,1,48.1,114.483Z" transform="translate(-7.5 -60.661)" fill="#f3f0f3"/>
        <path id="Path_1031195" data-name="Path 1031195" d="M172.688,60.661h-5.711a9.69,9.69,0,0,1,9.69,9.69v41.737a2.394,2.394,0,0,1-2.394,2.394h5.711a2.394,2.394,0,0,0,2.394-2.394V70.351A9.69,9.69,0,0,0,172.688,60.661Z" transform="translate(-139.386 -60.661)" fill="#e2dee2"/>
        <path id="Path_1031196" data-name="Path 1031196" d="M296.6,114.482h-38.2A2.394,2.394,0,0,1,256,112.088V70.35a9.69,9.69,0,0,1,9.69-9.69H296.6a2.394,2.394,0,0,1,2.394,2.394v49.033A2.4,2.4,0,0,1,296.6,114.482Z" transform="translate(-213.008 -60.66)" fill="#f3f0f3"/>
        <path id="Path_1031197" data-name="Path 1031197" d="M463.36,60.661h-5.711a2.394,2.394,0,0,1,2.394,2.394v49.033a2.394,2.394,0,0,1-2.394,2.394h5.711a2.394,2.394,0,0,0,2.394-2.394V63.055A2.394,2.394,0,0,0,463.36,60.661Z" transform="translate(-379.77 -60.661)" fill="#e2dee2"/>
        <path id="Path_1031198" data-name="Path 1031198" d="M41.579,291.975H70.994a1.079,1.079,0,0,0,1.079-1.079V288.15a1.079,1.079,0,0,0-1.079-1.079H41.579A1.079,1.079,0,0,0,40.5,288.15V290.9A1.079,1.079,0,0,0,41.579,291.975Z" transform="translate(-34.791 -247.9)" fill="#ffd15b"/>
        <g id="Group_1199408" data-name="Group 1199408" transform="translate(61.336 7.964)">
          <path id="Path_1031199" data-name="Path 1031199" d="M363.646,117.394l-1.52-4.085a1.49,1.49,0,0,1,1.149-1.989l4.3-.726,2.778-3.358a1.491,1.491,0,0,1,2.3,0l2.778,3.358,4.3.726a1.49,1.49,0,0,1,1.149,1.989l-1.52,4.085,1.52,4.085a1.49,1.49,0,0,1-1.149,1.989l-4.3.726-2.778,3.359a1.491,1.491,0,0,1-2.3,0l-2.778-3.359-4.3-.726a1.49,1.49,0,0,1-1.149-1.989Z" transform="translate(-362.032 -106.695)" fill="#ffd15b"/>
          <circle id="Ellipse_12182" data-name="Ellipse 12182" cx="3.387" cy="3.387" r="3.387" transform="translate(6.079 7.312)" fill="#60b7ff"/>
        </g>
        <path id="Path_1031200" data-name="Path 1031200" d="M102.084,225.762H89.769a1.335,1.335,0,0,1-1.16-1.995l.628-1.1a4.46,4.46,0,0,1,3.877-2.255h5.625a4.46,4.46,0,0,1,3.877,2.255l.628,1.1A1.335,1.335,0,0,1,102.084,225.762Z" transform="translate(-74.43 -192.77)" fill="#d88a55"/>
        <path id="Path_1031201" data-name="Path 1031201" d="M188.989,385.251l-1.462-1.029-1.462,1.029a1.5,1.5,0,0,1-2.37-1.23V371.76h7.665v12.261A1.5,1.5,0,0,1,188.989,385.251Z" transform="translate(-153.211 -317.938)" fill="#4f66d0"/>
        <path id="Path_1031202" data-name="Path 1031202" d="M203.011,371.76v12.807l.491-.345,1.462,1.029a1.5,1.5,0,0,0,2.37-1.23V371.76Z" transform="translate(-169.186 -317.938)" fill="#314dc9"/>
      </g>
      <g id="Group_1199415" data-name="Group 1199415" transform="translate(5.5 58.66)">
        <path id="Trazado_1031203" data-name="Trazado 1031203" d="M47.053,114.393H8.849A3.353,3.353,0,0,1,5.5,111.044V62.01a3.353,3.353,0,0,1,3.349-3.349h4.4a.955.955,0,1,1,0,1.91h-4.4a1.441,1.441,0,0,0-1.44,1.44v49.033a1.441,1.441,0,0,0,1.44,1.44h38.2a1.441,1.441,0,0,0,1.44-1.44V69.306a8.745,8.745,0,0,0-8.736-8.736H19.306a.955.955,0,0,1,0-1.91h20.45A10.637,10.637,0,0,1,50.4,69.306v41.737A3.353,3.353,0,0,1,47.053,114.393Z" transform="translate(-5.5 -58.661)"/>
        <path id="Trazado_1031204" data-name="Trazado 1031204" d="M69.949,291.885H40.534A2.037,2.037,0,0,1,38.5,289.85v-2.745a2.037,2.037,0,0,1,2.034-2.034H69.949a2.037,2.037,0,0,1,2.034,2.034v2.745A2.037,2.037,0,0,1,69.949,291.885Zm-29.415-4.9a.125.125,0,0,0-.125.125v2.745a.125.125,0,0,0,.125.125H69.949a.125.125,0,0,0,.124-.125v-2.745a.125.125,0,0,0-.124-.125Z" transform="translate(-32.791 -245.9)"/>
        <path id="Línea_706" data-name="Línea 706" d="M15.607-.09H-1.045A.955.955,0,0,1-2-1.045.955.955,0,0,1-1.045-2H15.607a.955.955,0,0,1,.955.955A.955.955,0,0,1,15.607-.09Z" transform="translate(15.17 50.978)"/>
        <g id="Group_1199410" data-name="Group 1199410" transform="translate(48.701 9.748)">
          <path id="Línea_707" data-name="Línea 707" d="M6.522-.09H-1.045A.955.955,0,0,1-2-1.045.955.955,0,0,1-1.045-2H6.522a.955.955,0,0,1,.955.955A.955.955,0,0,1,6.522-.09Z" transform="translate(2 2)"/>
          <path id="Línea_708" data-name="Línea 708" d="M6.522-.09H-1.045A.955.955,0,0,1-2-1.045.955.955,0,0,1-1.045-2H6.522a.955.955,0,0,1,.955.955A.955.955,0,0,1,6.522-.09Z" transform="translate(2 6.904)"/>
          <path id="Línea_709" data-name="Línea 709" d="M6.522-.09H-1.045A.955.955,0,0,1-2-1.045.955.955,0,0,1-1.045-2H6.522a.955.955,0,0,1,.955.955A.955.955,0,0,1,6.522-.09Z" transform="translate(2 11.808)"/>
          <path id="Línea_710" data-name="Línea 710" d="M6.522-.09H-1.045A.955.955,0,0,1-2-1.045.955.955,0,0,1-1.045-2H6.522a.955.955,0,0,1,.955.955A.955.955,0,0,1,6.522-.09Z" transform="translate(2 16.711)"/>
          <path id="Línea_711" data-name="Línea 711" d="M6.522-.09H-1.045A.955.955,0,0,1-2-1.045.955.955,0,0,1-1.045-2H6.522a.955.955,0,0,1,.955.955A.955.955,0,0,1,6.522-.09Z" transform="translate(2 21.615)"/>
          <path id="Línea_712" data-name="Línea 712" d="M29.209-.09H-1.045A.955.955,0,0,1-2-1.045.955.955,0,0,1-1.045-2H29.209a.955.955,0,0,1,.955.955A.955.955,0,0,1,29.209-.09Z" transform="translate(2 26.519)"/>
          <path id="Línea_713" data-name="Línea 713" d="M29.209-.09H-1.045A.955.955,0,0,1-2-1.045.955.955,0,0,1-1.045-2H29.209a.955.955,0,0,1,.955.955A.955.955,0,0,1,29.209-.09Z" transform="translate(2 31.423)"/>
          <path id="Línea_714" data-name="Línea 714" d="M18.971-.09H-1.045A.955.955,0,0,1-2-1.045.955.955,0,0,1-1.045-2H18.971a.955.955,0,0,1,.955.955A.955.955,0,0,1,18.971-.09Z" transform="translate(2 36.326)"/>
          <path id="Línea_715" data-name="Línea 715" d="M3.114-.09H-1.045A.955.955,0,0,1-2-1.045.955.955,0,0,1-1.045-2H3.114a.955.955,0,0,1,.955.955A.955.955,0,0,1,3.114-.09Z" transform="translate(28.096 36.326)"/>
          <path id="Línea_716" data-name="Línea 716" d="M29.209-.09H-1.045A.955.955,0,0,1-2-1.045.955.955,0,0,1-1.045-2H29.209a.955.955,0,0,1,.955.955A.955.955,0,0,1,29.209-.09Z" transform="translate(2 41.23)"/>
        </g>
        <g id="Group_1199411" data-name="Group 1199411" transform="translate(61.336 7.964)">
          <path id="Trazado_1031205" data-name="Trazado 1031205" d="M370.453,104.695a2.438,2.438,0,0,1,1.884.887l2.551,3.085,3.947.667a2.445,2.445,0,0,1,1.884,3.264l-1.4,3.752,1.4,3.752a2.445,2.445,0,0,1-1.884,3.264l-3.947.667-2.551,3.085a2.445,2.445,0,0,1-3.769,0l-2.551-3.085-3.947-.667a2.445,2.445,0,0,1-1.884-3.264l1.4-3.752-1.4-3.752a2.445,2.445,0,0,1,1.884-3.264l3.947-.667,2.551-3.085A2.438,2.438,0,0,1,370.453,104.695Zm0,21.4a.529.529,0,0,0,.413-.194l2.778-3.359a.955.955,0,0,1,.577-.333l4.3-.726a.536.536,0,0,0,.413-.715l-1.52-4.085a.955.955,0,0,1,0-.666l1.52-4.085a.536.536,0,0,0-.413-.715l-4.3-.726a.955.955,0,0,1-.577-.333l-2.778-3.358a.536.536,0,0,0-.826,0l-2.778,3.358a.955.955,0,0,1-.577.333l-4.3.726a.536.536,0,0,0-.413.715l1.52,4.085a.955.955,0,0,1,0,.666l-1.52,4.085a.536.536,0,0,0,.413.715l4.3.726a.955.955,0,0,1,.577.333l2.778,3.359A.528.528,0,0,0,370.453,126.093Z" transform="translate(-360.032 -104.695)"/>
          <path id="Elipse_12183" data-name="Elipse 12183" d="M2.342-2A4.342,4.342,0,1,1-2,2.342,4.347,4.347,0,0,1,2.342-2Zm0,6.775A2.433,2.433,0,1,0-.09,2.342,2.435,2.435,0,0,0,2.342,4.775Z" transform="translate(8.079 9.312)"/>
        </g>
        <path id="Trazado_1031206" data-name="Trazado 1031206" d="M295.553,114.392h-38.2A3.353,3.353,0,0,1,254,111.043V69.305A10.637,10.637,0,0,1,264.645,58.66h30.907a3.353,3.353,0,0,1,3.349,3.349v49.033A3.353,3.353,0,0,1,295.553,114.392ZM264.645,60.57a8.745,8.745,0,0,0-8.736,8.736v41.737a1.441,1.441,0,0,0,1.44,1.44h38.2a1.441,1.441,0,0,0,1.44-1.44V62.009a1.441,1.441,0,0,0-1.44-1.44Z" transform="translate(-211.008 -58.66)"/>
        <g id="Group_1199412" data-name="Group 1199412" transform="translate(0 50.253)">
          <path id="Trazado_1031207" data-name="Trazado 1031207" d="M36.939,360.9H8.849A3.353,3.353,0,0,1,5.5,357.547v-7.462a.955.955,0,1,1,1.91,0v7.462a1.441,1.441,0,0,0,1.44,1.44H36.939a.955.955,0,1,1,0,1.91Z" transform="translate(-5.5 -349.13)"/>
          <path id="Trazado_1031208" data-name="Trazado 1031208" d="M229.4,360.9h-2.45a.955.955,0,1,1,0-1.91h2.45a1.441,1.441,0,0,0,1.44-1.44v-7.462a.955.955,0,1,1,1.91,0v7.462A3.353,3.353,0,0,1,229.4,360.9Z" transform="translate(-187.852 -349.13)"/>
          <path id="Trazado_1031209" data-name="Trazado 1031209" d="M295.553,360.895h-38.2A3.353,3.353,0,0,1,254,357.546v-7.462a.955.955,0,1,1,1.91,0v7.462a1.441,1.441,0,0,0,1.44,1.44h38.2a1.441,1.441,0,0,0,1.44-1.44v-7.462a.955.955,0,1,1,1.91,0v7.462A3.353,3.353,0,0,1,295.553,360.895Z" transform="translate(-211.008 -349.129)"/>
        </g>
        <path id="Línea_717" data-name="Línea 717" d="M-1.045,19.334A.955.955,0,0,1-2,18.379V-1.045A.955.955,0,0,1-1.045-2a.955.955,0,0,1,.955.955V18.379A.955.955,0,0,1-1.045,19.334Z" transform="translate(23.496 9.478)"/>
        <path id="Trazado_1031210" data-name="Trazado 1031210" d="M101.037,225.672H88.722a2.29,2.29,0,0,1-1.99-3.422l.628-1.1a5.426,5.426,0,0,1,4.707-2.738h5.625a5.426,5.426,0,0,1,4.707,2.738l.628,1.1a2.29,2.29,0,0,1-1.99,3.422Zm-8.97-5.355a3.512,3.512,0,0,0-3.047,1.773l-.628,1.1a.38.38,0,0,0,.33.568h12.315a.38.38,0,0,0,.33-.568l-.628-1.1a3.512,3.512,0,0,0-3.047-1.773Z" transform="translate(-72.429 -190.77)"/>
        <g id="Group_1199413" data-name="Group 1199413" transform="translate(7.24 9.841)">
          <path id="Trazado_1031211" data-name="Trazado 1031211" d="M49.435,121.763a3.448,3.448,0,0,1-1.557-.371.955.955,0,1,1,.854-1.708c1.147.573,2.47-.383,4.513-2.026l.374-.3a8.088,8.088,0,0,1,3.122-1.52,10.686,10.686,0,0,1,2.973-.289,12.416,12.416,0,0,1,3.146.512.955.955,0,0,1-.6,1.814h0a10.706,10.706,0,0,0-2.67-.42,7.077,7.077,0,0,0-4.781,1.393l-.369.3a17.1,17.1,0,0,1-3.013,2.1,4.729,4.729,0,0,1-1.707.5Q49.578,121.763,49.435,121.763Z" transform="translate(-47.351 -115.541)"/>
          <path id="Línea_718" data-name="Línea 718" d="M-1.045,5.963A.955.955,0,0,1-2,5.008V-1.045A.955.955,0,0,1-1.045-2a.955.955,0,0,1,.955.955V5.008A.955.955,0,0,1-1.045,5.963Z" transform="translate(5.139 5.662)"/>
        </g>
        <g id="Group_1199414" data-name="Group 1199414" transform="translate(21.496 9.841)">
          <path id="Trazado_1031212" data-name="Trazado 1031212" d="M143.831,121.763q-.143,0-.288-.012a4.73,4.73,0,0,1-1.707-.5,17.1,17.1,0,0,1-3.013-2.1l-.369-.3c-3-2.4-7.405-.989-7.45-.974a.955.955,0,0,1-.6-1.814,12.418,12.418,0,0,1,3.146-.512,10.685,10.685,0,0,1,2.973.289,8.088,8.088,0,0,1,3.122,1.52l.374.3c2.043,1.643,3.367,2.6,4.513,2.026a.955.955,0,1,1,.854,1.708A3.448,3.448,0,0,1,143.831,121.763Z" transform="translate(-129.749 -115.541)"/>
          <path id="Línea_719" data-name="Línea 719" d="M-1.045,5.963A.955.955,0,0,1-2,5.008V-1.045A.955.955,0,0,1-1.045-2a.955.955,0,0,1,.955.955V5.008A.955.955,0,0,1-1.045,5.963Z" transform="translate(13.117 5.662)"/>
        </g>
        <path id="Trazado_1031213" data-name="Trazado 1031213" d="M188.8,385.438a2.441,2.441,0,0,1-1.41-.451l-.913-.642-.913.642a2.441,2.441,0,0,1-1.41.451,2.5,2.5,0,0,1-1.706-.683,2.429,2.429,0,0,1-.759-1.779V370.715a.955.955,0,0,1,.955-.955h7.665a.955.955,0,0,1,.955.955v12.261a2.429,2.429,0,0,1-.759,1.779A2.5,2.5,0,0,1,188.8,385.438Zm-2.323-3.215a.954.954,0,0,1,.549.174l1.462,1.029a.534.534,0,0,0,.311.1.55.55,0,0,0,.555-.552V371.67H183.6v11.306a.523.523,0,0,0,.165.394.572.572,0,0,0,.39.158.534.534,0,0,0,.311-.1l1.462-1.029A.954.954,0,0,1,186.481,382.222Z" transform="translate(-151.211 -315.938)"/>
      </g>
    </g>
  </g>
</svg>
