<svg xmlns="http://www.w3.org/2000/svg" xmlns:xlink="http://www.w3.org/1999/xlink" width="151.567" height="177.827" viewBox="0 0 151.567 177.827">
  <defs>
    <clipPath id="clip-path">
      <rect id="Rectangle_408739" data-name="Rectangle 408739" width="109.273" height="123.257" fill="none"/>
    </clipPath>
  </defs>
  <g id="Group_1200350" data-name="Group 1200350" transform="translate(5973.95 7634.439)">
    <rect id="Rectangle_401593" data-name="Rectangle 401593" width="104.323" height="177.827" rx="8" transform="translate(-5973.95 -7634.439)" fill="#f5fbee"/>
    <g id="Group_1199942" data-name="Group 1199942" transform="translate(-5931.656 -7579.87)">
      <g id="Group_1199941" data-name="Group 1199941" clip-path="url(#clip-path)">
        <path id="Path_1031776" data-name="Path 1031776" d="M123.478,42.038a11.619,11.619,0,0,1-2.053-6.67c.679,0,1.364.02,2.042-.012,1.335-6.743,6.059-12.6,10.172-17.934.353-.073.644.411.862.638,2.531,2.627,8.084,11.591,9.053,15.06,2.994,10.729-11.883,17.13-18.192,8.169a5.211,5.211,0,0,0-1.884.748" transform="translate(-38.734 -5.555)" fill="#5fa9be"/>
        <path id="Path_1031777" data-name="Path 1031777" d="M120.463,32.752c-.683,0-1.371,0-2.053,0,.8-6.8,5.537-13.589,9.643-18.963,1.433-1.875,3.861-6.269,6.4-3.883,3.257,3.054,9.757,13.328,11.448,17.54C151.373,41.06,136,52.628,124.334,44.4c-.694-.489-3.773-3.158-3.327-3.924.677-.042,1.147-.844,1.508-1.055a5.2,5.2,0,0,1,1.884-.748c6.308,8.961,21.185,2.56,18.192-8.168-.968-3.47-6.521-12.434-9.053-15.061-.219-.227-.51-.712-.863-.638C128.563,20.136,123.84,26,122.5,32.74c-.677.033-1.363.012-2.041.012" transform="translate(-37.772 -2.94)" fill="#181f2d"/>
        <path id="Path_1031778" data-name="Path 1031778" d="M16.4,109.331a24.142,24.142,0,0,1-4.874-6.157,12.732,12.732,0,0,1,1.427-1.022l.088-.347a43.745,43.745,0,0,1-6.9-21.081c-.659-12.957,9.841-29.511,16.976-39.97A319.292,319.292,0,0,1,49.146,8.018c.449-.078,4.233,4.4,4.843,5.108C64.158,24.9,74.853,38.742,82.633,52.207,90.734,66.227,95.641,77.824,89.451,94c-10.5,27.439-44.57,36.2-67.525,17.887-.63-.5-3.651-3.49-3.907-3.557-.479-.125-1.226.635-1.616,1M46.161,74.442h1.026V91.886h4.105V74.442h.77a7.589,7.589,0,0,0,2.68,1.808c3.58,1.025,9.379-2.586,11.678-5.278,3.568-4.179,5.208-12.114,3.479-17.317-.69-2.076-1.915-1.907-3.852-1.784A24.23,24.23,0,0,0,53.734,56.49l-4.62,4.871a21.689,21.689,0,0,0-16.681-9.49c-1.572-.1-3.039-.3-3.736,1.388-2.115,5.131-.076,13.89,3.6,17.983,2.711,3.015,10.882,7.976,13.86,3.2m42.072,4.1H84.128l-.258,5.389,3.7.479c.3-.1.358-.328.4-.61a34.025,34.025,0,0,0,.257-5.259M15.566,87.308c-1.359.244-2.022,2.206-2,3.422.061,4.132,4.789,12.937,9.187,13.664,4.119.681,2.9-5.144,2.061-7.448-1.043-2.86-5.694-10.276-9.245-9.638M49.24,117.54c15.044.223,29.586-9.315,35.622-23,.394-.894,2.312-5.783,1.982-6.258l-4-1.018C79.414,102.519,64.8,113.476,49.24,113.435Z" transform="translate(-1.951 -2.557)" fill="#74c0d3"/>
        <path id="Path_1031779" data-name="Path 1031779" d="M14.453,106.774c.39-.364,1.137-1.124,1.616-1,.255.067,3.277,3.055,3.907,3.557C42.932,127.649,77,118.885,87.5,91.445c6.19-16.178,1.283-27.775-6.818-41.795C72.9,36.185,62.208,22.347,52.04,10.569c-.61-.707-4.394-5.187-4.843-5.108A319.4,319.4,0,0,0,21.17,38.2C14.036,48.657,3.535,65.211,4.195,78.167a43.742,43.742,0,0,0,6.9,21.081l-.088.348a12.8,12.8,0,0,0-1.426,1.021c-.527.346-1.8,1.2-2.176.766A34.3,34.3,0,0,1,4.741,96.6C1.551,89.969-.458,81.189.091,73.812,1.412,56.041,22.642,28.1,33.957,14.3c3.4-4.149,7.62-9.567,11.4-13.226,1.893-1.831,2.8-1.092,4.371.518,8.833,9.027,18.5,21.812,25.732,32.246,8.312,12,19.8,29.847,19.041,44.857-1.8,35.549-42.473,56.583-72.588,37.165-1.307-.842-8.454-6.218-8.716-7.213-.123-.464.889-1.531,1.255-1.873" transform="translate(0 0)" fill="#171f2d"/>
        <path id="Path_1031780" data-name="Path 1031780" d="M69.44,154.662v-4.1c15.558.041,30.174-10.916,33.606-26.168l4,1.018c.33.475-1.587,5.364-1.982,6.258-6.036,13.681-20.578,23.22-35.622,23" transform="translate(-22.151 -39.679)" fill="#161e2c"/>
        <path id="Path_1031781" data-name="Path 1031781" d="M19.054,124.432c3.551-.638,8.2,6.779,9.245,9.638.841,2.3,2.057,8.129-2.061,7.448-4.4-.727-9.127-9.532-9.187-13.664-.018-1.216.645-3.178,2-3.422" transform="translate(-5.439 -39.681)" fill="#c0e0e9"/>
        <path id="Path_1031782" data-name="Path 1031782" d="M124.656,111.584a33.929,33.929,0,0,1-.257,5.258c-.046.283-.1.507-.4.609l-3.7-.479.258-5.389Z" transform="translate(-38.373 -35.595)" fill="#171f2d"/>
        <path id="Path_1031783" data-name="Path 1031783" d="M56.339,94.953c-2.977,4.776-11.149-.185-13.86-3.2-3.681-4.094-5.72-12.852-3.6-17.983.7-1.692,2.164-1.489,3.736-1.389a21.694,21.694,0,0,1,16.681,9.491L63.913,77a24.232,24.232,0,0,1,12.311-4.62c1.938-.123,3.163-.291,3.852,1.786,1.73,5.2.09,13.137-3.479,17.315-2.3,2.692-8.1,6.3-11.677,5.28a7.593,7.593,0,0,1-2.681-1.809,12.8,12.8,0,0,1-.534-2.693c-.007-2.194,1.931-3.839,3.349-5.395,1.5-1.647,3.222-3.133,4.788-4.721l2.9,2.9c-.089.507-5.72,5.48-6.535,6.566-1.969,2.622,3.451.11,4.254-.365,5.2-3.086,6.6-9.079,5.889-14.758-5.675.6-10.975,3.273-13.895,8.293-.624,1.073-1.12,3.286-2.252,3.647-2.614.834-2.857-2-3.818-3.647-2.913-5.008-8.133-7.6-13.765-8.3-1.088,5.445.667,11.66,5.59,14.676a16.69,16.69,0,0,0,3.963,1.7c1.022.114.977-.56.458-1.25-.814-1.086-6.446-6.059-6.534-6.566a14.4,14.4,0,0,1,2.549-2.8c.247-.127.262-.127.509,0a63.052,63.052,0,0,1,4.5,4.5c2.23,2.448,4.906,4.659,2.69,8.213" transform="translate(-12.128 -23.068)" fill="#171e2b"/>
        <path id="Path_1031784" data-name="Path 1031784" d="M58.348,96.9c2.216-3.554-.46-5.765-2.69-8.213a63.052,63.052,0,0,0-4.5-4.5c-.247-.127-.262-.127-.509,0a14.4,14.4,0,0,0-2.549,2.8c.089.507,5.72,5.48,6.534,6.566.519.691.564,1.364-.458,1.25a16.689,16.689,0,0,1-3.963-1.7c-4.923-3.017-6.678-9.231-5.59-14.676,5.631.7,10.851,3.291,13.765,8.3.96,1.651,1.2,4.482,3.818,3.647,1.133-.362,1.628-2.574,2.252-3.647,2.919-5.02,8.219-7.7,13.895-8.293.71,5.679-.685,11.672-5.889,14.758-.8.475-6.222,2.987-4.254.365.815-1.086,6.446-6.06,6.535-6.566l-2.9-2.9c-1.566,1.588-3.287,3.073-4.788,4.721-1.419,1.556-3.356,3.2-3.349,5.395a12.8,12.8,0,0,0,.534,2.693h-5.9Z" transform="translate(-14.137 -25.018)" fill="#8bae4b"/>
        <rect id="Rectangle_408738" data-name="Rectangle 408738" width="4.104" height="17.445" transform="translate(45.237 71.884)" fill="#151c2a"/>
      </g>
    </g>
  </g>
</svg>
