<svg xmlns="http://www.w3.org/2000/svg" xmlns:xlink="http://www.w3.org/1999/xlink" width="151.684" height="178.688" viewBox="0 0 151.684 178.688">
  <defs>
    <clipPath id="clip-path">
      <rect id="Rectangle_408737" data-name="Rectangle 408737" width="120.801" height="156.227" fill="none"/>
    </clipPath>
  </defs>
  <g id="Group_1200351" data-name="Group 1200351" transform="translate(5305.634 7839.488)">
    <rect id="Rectangle_401593" data-name="Rectangle 401593" width="95.806" height="178.688" rx="8" transform="translate(-5249.757 -7839.488)" fill="#f5fbee"/>
    <g id="Group_1199940" data-name="Group 1199940" transform="translate(-5305.634 -7817.026)">
      <g id="Group_1199939" data-name="Group 1199939" clip-path="url(#clip-path)">
        <path id="Path_1031762" data-name="Path 1031762" d="M87.482,15.492C85.466,15.208,82.7,12.858,81.926,11A7.631,7.631,0,0,1,88.413.411a202.869,202.869,0,0,1,25.769,0c7.68.57,10.108,9.785,3.89,13.964a10.564,10.564,0,0,1-2.647,1.12h-6.436v5.023c4.152.331,1.94,5.939,2.562,8.741,1.455-.255,4.807,3.817,5.13,3.817h9.89V30.562h5.023v2.512h18.366c1.035,0,1.661,1.755,1.742,2.654.441,4.875-.343,10.428-.034,15.38.081.671-1.211,2.059-1.708,2.059H131.593v2.512H126.57V53.166H113.854c-.19,0-2.407,1.964-3.008,2.329a17.5,17.5,0,0,1-18.592.12c-1.013-.613-2.582-2.259-3.531-2.434a69.722,69.722,0,0,0-10.9.058c-5.9,1.076-3.4,9-4.016,12.938-.235,1.5-1.25,1.948-2.635,2.074a105.489,105.489,0,0,1-15.092-.008,2.381,2.381,0,0,1-2.355-2.355C51.9,50.34,59.53,34.47,76.5,33.078c2.112-.173,8.528.446,9.879-.167,1.126-.511,2.981-3.588,4.978-3.654.623-2.8-1.59-8.411,2.563-8.741V15.492c-2.012-.2-4.491.274-6.436,0m29.041-7.535a2.383,2.383,0,0,0-2.059-2.493C106.357,5.758,97.9,5,89.837,5.445c-1.162.064-2.176-.166-2.975.949a2.543,2.543,0,0,0,1.58,4.056h26.021a2.383,2.383,0,0,0,2.059-2.493m-12.558,7.535H98.941v5.023h5.023ZM74.139,38.724c-7.155,1.6-15.384,9.417-15.384,17.111v7.378c0,.251,4.507,0,5.023,0H68.8v-6.75c0-3.6,4.961-7.775,8.4-8.239,2.184-.294,11.76-.445,13.667-.015.956.216,2.773,2.331,3.889,3.018a12.466,12.466,0,0,0,12.984.223c.876-.492,3.959-3.307,4.228-3.307h14.6V38.1H114.482c-1.523-.746-2.123-2.456-3.454-3.453-1.038-.778-4.552-1.723-4.552-2.983V25.538H96.43V31.66c0,1.261-3.513,2.206-4.552,2.983-1.292.967-1.853,2.6-3.281,3.312-4.921.4-9.6-.315-14.458.768m57.454,9.419h15.07V38.1h-15.07Z" transform="translate(-31.038 0)" fill="#010101"/>
        <path id="Path_1031763" data-name="Path 1031763" d="M88.278,74.075c4.856-1.084,9.538-.365,14.458-.768,1.427-.711,1.989-2.345,3.281-3.312,1.039-.778,4.552-1.723,4.552-2.983V60.889h10.046v6.122c0,1.261,3.514,2.206,4.552,2.983,1.331,1,1.931,2.706,3.454,3.453h12.087V83.494h-14.6c-.268,0-3.352,2.815-4.228,3.307a12.466,12.466,0,0,1-12.984-.223c-1.117-.687-2.933-2.8-3.889-3.018-1.907-.431-11.483-.279-13.667.015-3.44.463-8.4,4.638-8.4,8.238v6.75H77.917c-.464-7.272.531-13.931,5.347-19.613Z" transform="translate(-45.177 -35.351)" fill="#e4e4e4"/>
        <rect id="Rectangle_408735" data-name="Rectangle 408735" width="15.07" height="10.046" transform="translate(100.555 38.097)" fill="#87c1e6"/>
        <path id="Path_1031764" data-name="Path 1031764" d="M81.467,92.328,76.453,97.2c-4.816,5.682-5.811,12.341-5.347,19.613-.516,0-5.023.251-5.023,0v-7.378c0-7.694,8.228-15.513,15.384-17.11" transform="translate(-38.366 -53.603)" fill="#c8c8c8"/>
        <path id="Path_1031765" data-name="Path 1031765" d="M135.363,12.983c.385,1.581,2.144,2.348,3.61,2.513h23.077a2.382,2.382,0,0,1-2.059,2.493H133.969a2.543,2.543,0,0,1-1.58-4.055c.8-1.115,1.813-.886,2.975-.949" transform="translate(-76.564 -7.538)" fill="#86c0e4"/>
        <path id="Path_1031766" data-name="Path 1031766" d="M166.874,15.3H143.8c-1.466-.164-3.225-.932-3.61-2.512,8.062-.441,16.52.313,24.627.018a2.383,2.383,0,0,1,2.059,2.493" transform="translate(-81.39 -7.341)" fill="#a5dbf6"/>
        <rect id="Rectangle_408736" data-name="Rectangle 408736" width="5.023" height="5.023" transform="translate(67.903 15.492)" fill="#b0b0b0"/>
        <path id="Path_1031767" data-name="Path 1031767" d="M32.026,174.7a3.279,3.279,0,0,1,1.158-.055c1.312.169,5.175,4.695,6.311,5.955,8.55,9.481,25.018,30.124,25.909,42.847,1.213,17.313-13.182,32.957-30.3,34.089C15.892,258.806-1.684,242.454.129,222.87c1.212-13.082,19.765-36.217,29-45.725.687-.708,2.008-2.249,2.9-2.446m-10.274,19.09c-6.292,8.02-17.057,22-16.654,32.51.733,19.146,22.083,32.348,39.259,23.374,4.867-1.063,11.143-8.214,13.245-12.657,5.134-10.857,2.392-18.582-3.259-28.254-5.872-10.052-13.817-19.12-21.451-27.844l-3.452,3.447c-2.607,3.111-5.183,6.231-7.688,9.423" transform="translate(0 -101.377)" fill="#030404"/>
        <path id="Path_1031768" data-name="Path 1031768" d="M60.558,258.4a26.3,26.3,0,0,1-15.7-2.2c19.092,1.052,28.467-8.145,26.7-27.486-.125-1.376-.567-2.4-2.074-2.635a61.62,61.62,0,0,0-9.412-.031,22.942,22.942,0,0,0-7.845,2.2c-1.851-1.322-3.214-2.99-5.2-4.208a21.32,21.32,0,0,0-9.224-3.02c-1.634-.12-8.71-.294-9.9.012a92.443,92.443,0,0,1,8.5-16.063c.406-.63,1.7-1.452,1.549-2.461,2.5-3.192,5.081-6.312,7.688-9.423l3.453-3.448c7.634,8.724,15.579,17.792,21.451,27.844,5.65,9.672,8.393,17.4,3.259,28.254-2.1,4.443-8.378,11.593-13.245,12.657" transform="translate(-16.202 -110.101)" fill="#a4dbf6"/>
        <path id="Path_1031769" data-name="Path 1031769" d="M28.793,220.328c.147,1.008-1.143,1.83-1.55,2.461a92.469,92.469,0,0,0-8.5,16.063,3.25,3.25,0,0,0-1.551,2.059,58.965,58.965,0,0,0,.021,9.674,20.631,20.631,0,0,0,4.669,11.186c-.649.2-.012.941.183,1.231,2.926,4.354,5.956,6.566,10.178,9.443.452.308.7,1.121,1.333,1.336a4.854,4.854,0,0,0,2.121.234,26.3,26.3,0,0,0,15.7,2.2c-17.176,8.974-38.526-4.228-39.259-23.374-.4-10.51,10.362-24.49,16.654-32.51" transform="translate(-7.041 -127.917)" fill="#86bfe3"/>
        <path id="Path_1031770" data-name="Path 1031770" d="M45.36,329.81c-4.222-2.878-7.251-5.089-10.178-9.444-.194-.289-.831-1.034-.182-1.231a21.166,21.166,0,0,0,10.216,6.58Z" transform="translate(-20.155 -185.282)" fill="#a2d8f3"/>
        <path id="Path_1031771" data-name="Path 1031771" d="M42.447,299.418a4.848,4.848,0,0,1-2.121-.234c-.634-.216-.881-1.028-1.333-1.336l-.144-4.094a21.156,21.156,0,0,1-10.217-6.58,20.631,20.631,0,0,1-4.669-11.186,58.919,58.919,0,0,1-.021-9.674,3.25,3.25,0,0,1,1.551-2.059c1.191-.306,8.268-.133,9.9-.012a21.323,21.323,0,0,1,9.225,3.02c1.982,1.217,3.346,2.886,5.2,4.207a22.948,22.948,0,0,1,7.845-2.2,61.564,61.564,0,0,1,9.412.031c1.507.236,1.949,1.259,2.074,2.635,1.766,19.341-7.609,28.538-26.7,27.486m-9.733-30.137,9.262,9.41,3.274-3.962c-2.63-3.963-7.933-5.726-12.536-5.448m6.277,19.148.473-5.016L28.95,273.045A15.152,15.152,0,0,0,38.992,288.43M60.343,274.3A15.306,15.306,0,0,0,44.02,290.627ZM47.785,294.391a15.287,15.287,0,0,0,16.322-16.322Z" transform="translate(-13.789 -153.32)" fill="#020302"/>
        <path id="Path_1031772" data-name="Path 1031772" d="M88.345,288.4,72.023,304.718A15.306,15.306,0,0,1,88.345,288.4" transform="translate(-41.791 -167.411)" fill="#99bb2b"/>
        <path id="Path_1031773" data-name="Path 1031773" d="M81.054,313.75l16.322-16.322A15.287,15.287,0,0,1,81.054,313.75" transform="translate(-47.058 -172.679)" fill="#b0ce31"/>
        <path id="Path_1031774" data-name="Path 1031774" d="M46.131,300.836a15.152,15.152,0,0,1-10.041-15.384L46.6,295.82Z" transform="translate(-20.928 -165.726)" fill="#798f22"/>
        <path id="Path_1031775" data-name="Path 1031775" d="M45.124,276.437c4.6-.277,9.906,1.486,12.536,5.448l-3.274,3.962Z" transform="translate(-26.198 -160.476)" fill="#8ba627"/>
      </g>
    </g>
  </g>
</svg>
