<svg xmlns="http://www.w3.org/2000/svg" xmlns:xlink="http://www.w3.org/1999/xlink" width="208" height="249.997" viewBox="0 0 208 249.997">
  <defs>
    <filter id="Rectangle_408798" x="0" y="0" width="208" height="249.997" filterUnits="userSpaceOnUse">
      <feOffset dy="3" input="SourceAlpha"/>
      <feGaussianBlur stdDeviation="3" result="blur"/>
      <feFlood flood-opacity="0.161"/>
      <feComposite operator="in" in2="blur"/>
      <feComposite in="SourceGraphic"/>
    </filter>
  </defs>
  <g id="Group_1200335" data-name="Group 1200335" transform="translate(-276 -4777)">
    <g transform="matrix(1, 0, 0, 1, 276, 4777)" filter="url(#Rectangle_408798)">
      <rect id="Rectangle_408798-2" data-name="Rectangle 408798" width="190" height="231.997" transform="translate(9 6)" fill="#9ad354"/>
    </g>
    <g id="environment_18363950" transform="translate(306.065 4824.096)">
      <g id="Group_1197917" data-name="Group 1197917" transform="translate(2.123 2.128)">
        <path id="Path_909708" data-name="Path 909708" d="M323.23,16a9.886,9.886,0,0,0,0,15.775,9.886,9.886,0,0,0,0-15.775Z" transform="translate(-228.296 -16)" fill="#50bc5d" fill-rule="evenodd"/>
        <path id="Path_909709" data-name="Path 909709" d="M348.025,59a9.886,9.886,0,0,0-15.774,0,9.886,9.886,0,0,0,15.774,0Z" transform="translate(-237.317 -43.226)" fill="#50bc5d" fill-rule="evenodd"/>
        <path id="Path_909710" data-name="Path 909710" d="M280.229,59A9.886,9.886,0,0,0,296,59a9.886,9.886,0,0,0-15.774,0Z" transform="translate(-201.07 -43.226)" fill="#50bc5d" fill-rule="evenodd"/>
        <path id="Path_909711" data-name="Path 909711" d="M332.172,228.42a23.014,23.014,0,0,1,24.246-24.246,23.014,23.014,0,0,1-24.246,24.246Z" transform="translate(-237.238 -147.091)" fill="#50bc5d" fill-rule="evenodd"/>
        <path id="Path_909712" data-name="Path 909712" d="M276.458,228.42a23.014,23.014,0,0,0-24.246-24.246,23.014,23.014,0,0,0,24.246,24.246Z" transform="translate(-181.524 -147.091)" fill="#50bc5d" fill-rule="evenodd"/>
        <path id="Path_909713" data-name="Path 909713" d="M332.139,115.192a32.339,32.339,0,0,1,34.07-34.07,32.339,32.339,0,0,1-34.07,34.07Z" transform="translate(-237.206 -61.342)" fill="#50bc5d" fill-rule="evenodd"/>
        <path id="Path_909714" data-name="Path 909714" d="M253.852,115.192a32.339,32.339,0,0,0-34.07-34.07,32.339,32.339,0,0,0,34.07,34.07Z" transform="translate(-158.919 -61.342)" fill="#50bc5d" fill-rule="evenodd"/>
        <path id="Path_909715" data-name="Path 909715" d="M272.508,128.2l-16.879-16.879a1.819,1.819,0,0,1,2.573-2.573l14.306,14.306V100.487a1.819,1.819,0,1,1,3.639,0v22.572l14.307-14.306a1.819,1.819,0,0,1,2.573,2.573L276.146,128.2v22.334l9.286-9.286A1.819,1.819,0,0,1,288,143.825l-11.859,11.858v8.052a1.819,1.819,0,1,1-3.639,0v-8.052l-11.858-11.858a1.819,1.819,0,0,1,2.573-2.573l9.286,9.286Zm-12.737,9.6-.8-.8a1.819,1.819,0,1,0-2.573,2.573l.8.8a1.819,1.819,0,1,0,2.573-2.573Zm31.686,2.573.8-.8A1.819,1.819,0,1,0,289.685,137l-.8.8a1.819,1.819,0,1,0,2.573,2.573Zm6.419-33.9A1.819,1.819,0,1,1,295.3,103.9l1.127-1.126A1.819,1.819,0,0,1,299,105.349ZM253.351,103.9a1.819,1.819,0,1,1-2.573,2.573l-1.126-1.126a1.819,1.819,0,1,1,2.573-2.573Z" transform="translate(-179.394 -73.601)" fill="#3ba452" fill-rule="evenodd"/>
        <path id="Path_909716" data-name="Path 909716" d="M155.556,227.7a20.9,20.9,0,0,0-22.015-22.015A20.9,20.9,0,0,0,155.556,227.7Z" transform="translate(-98.84 -148.147)" fill="#50bc5d" fill-rule="evenodd"/>
        <path id="Path_909717" data-name="Path 909717" d="M108.934,77.432a16.791,16.791,0,0,0-17.69-17.69,16.791,16.791,0,0,0,17.69,17.69Z" transform="translate(-69.373 -46.461)" fill="#50bc5d" fill-rule="evenodd"/>
        <path id="Path_909718" data-name="Path 909718" d="M37.22,160.672a17.1,17.1,0,0,0-18.02-18.02,17.1,17.1,0,0,0,18.02,18.019Z" transform="translate(-19.174 -104.23)" fill="#50bc5d" fill-rule="evenodd"/>
        <path id="Path_909719" data-name="Path 909719" d="M441.773,250.569a17.1,17.1,0,0,1-18.019,18.02,17.1,17.1,0,0,1,18.019-18.019Z" transform="translate(-301.056 -179.423)" fill="#50bc5d" fill-rule="evenodd"/>
        <path id="Path_909720" data-name="Path 909720" d="M323.23,83.8a9.886,9.886,0,0,0,0-15.775,9.886,9.886,0,0,0,0,15.775Z" transform="translate(-228.296 -52.247)" fill="#50bc5d" fill-rule="evenodd"/>
        <path id="Path_909721" data-name="Path 909721" d="M260.4,306.922A40.4,40.4,0,0,1,299,335.389a19.427,19.427,0,0,0-4.069.656l-23.041,5.337-6.812,1.625c-.039.009,4.005-8.4-4.109-11.09l-17.033-8.1a26.367,26.367,0,0,0-8.061-8.594,40.2,40.2,0,0,1,24.53-8.3Z" transform="translate(-170.164 -218.706)" fill="#cc915d" fill-rule="evenodd"/>
        <path id="Path_909722" data-name="Path 909722" d="M303.6,335.043a42.107,42.107,0,0,1,4.448,9.719c-1.3.065-2.076,2.551-3.486,2.93l-23.1,5.678-7.439,2.65a6.222,6.222,0,0,0-3-5.245c-.426-1.956,2.07-8.66-1.1-9.713l-17.033-8.1a27.213,27.213,0,0,0-4.164-5.394,40.382,40.382,0,0,1,54.88,7.471Z" transform="translate(-179.118 -227.852)" fill="#d79b62" fill-rule="evenodd"/>
        <path id="Path_909723" data-name="Path 909723" d="M72.261,321.383V345.1l7.136.8c7.569.847,8.554,1.642,15.418,4.91l31.868,15.177c14.65,6.977,12.824,6.109,29.508.767l42.363-13.564a1.769,1.769,0,0,0,1.108-2.331c-2.412-6.154-9.325-10.457-18.278-8.051l-23.019,5.331-6.805,1.623c-.039.009,4-8.389-4.1-11.079l-17.017-8.089c-11.684-19.7-39.321-14.42-58.176-9.212Z" transform="translate(-56.164 -225.441)" fill="#e0c3b3" fill-rule="evenodd"/>
        <path id="Path_909724" data-name="Path 909724" d="M197.423,347.1c-3.336-3.968-9.07-6.161-16.04-4.288l-23.019,5.332-6.805,1.623c-.144.035,4.3-8.289-4.1-11.079L130.437,330.6c-11.684-19.7-39.321-14.42-58.176-9.212V341.21l7.136.8c7.569.847,8.554,1.642,15.418,4.91L126.682,362.1c14.65,6.977,12.824,6.109,29.508.767l40.418-12.941a1.77,1.77,0,0,0,.815-2.824Z" transform="translate(-56.164 -225.442)" fill="#f2d3bd" fill-rule="evenodd"/>
        <path id="Path_909725" data-name="Path 909725" d="M252.9,400.6l-3.136.748c-.009,0,.2-.448.428-1.174a1.759,1.759,0,0,0-.417.558l-.013.028.005,0a5.651,5.651,0,0,1-3.322,2.878,6.015,6.015,0,0,1-4.41-.207l-.076-.039-.029-.014,0,.006-26.2-12.592a1.762,1.762,0,0,0-1.521,3.179l26.2,12.593h0l0,.005.029.014c.035.016.069.032.1.045a9.527,9.527,0,0,0,7.023.353,9.182,9.182,0,0,0,5.383-4.705v0l.005,0,.013-.028a1.767,1.767,0,0,0-.069-1.652Z" transform="translate(-154.37 -277.023)" fill="#f2d3bd" fill-rule="evenodd"/>
        <path id="Path_909726" data-name="Path 909726" d="M214.208,393.969a1.762,1.762,0,0,1,1.521-3.179l26.2,12.592,0-.006.029.014.076.039a6.015,6.015,0,0,0,4.41.208,5.724,5.724,0,0,0,2.963-2.245l3.482-.81a1.767,1.767,0,0,1,.079,1.667l-.013.028-.005,0v0a9.182,9.182,0,0,1-5.383,4.705,9.528,9.528,0,0,1-7.023-.353c-.035-.014-.07-.029-.1-.045l-.029-.014,0-.006h0l-26.2-12.593Z" transform="translate(-154.37 -277.023)" fill="#e0c3b3" fill-rule="evenodd"/>
      </g>
      <rect id="Rectangle_408216" data-name="Rectangle 408216" width="14.172" height="43.614" rx="7.086" transform="translate(4.048 89.24)" fill="#3bc7f5"/>
      <path id="Path_909727" data-name="Path 909727" d="M43.295,409.487v6.706a3.974,3.974,0,0,1-3.962,3.962H33.084a3.974,3.974,0,0,1-3.962-3.962v-6.706H43.294Z" transform="translate(-23.983 -288.043)" fill="#0dbaf3" fill-rule="evenodd"/>
      <g id="Group_1197918" data-name="Group 1197918" transform="translate(0 0)">
        <path id="Path_909728" data-name="Path 909728" d="M142.755,368.1c-3.747,0-7.235-1.6-14.834-5.221l-31.905-15.2c-.71-.337-1.359-.649-1.956-.937-5.142-2.477-6.365-3.066-12.8-3.784l-4.883-.546.472-4.221,4.885.549c7.157.8,8.924,1.65,14.17,4.179.595.285,1.237.594,1.941.928l31.9,15.192c6.293,3,9.446,4.5,12.15,4.758,2.636.254,5.394-.661,10.895-2.48,1.441-.479,3.075-1.019,4.934-1.613l42.04-13.46a11.544,11.544,0,0,0-4.665-5.31,13.929,13.929,0,0,0-10.962-1.131.676.676,0,0,1-.073.018l-23.039,5.336-6.8,1.623a2.125,2.125,0,0,1-2.424-2.956c.331-.8,1.335-3.578.376-5.673a4.978,4.978,0,0,0-3.223-2.511,2.006,2.006,0,0,1-.243-.1l-17.035-8.1a2.135,2.135,0,0,1-.913-.834c-4.669-7.878-12.354-12.081-23.488-12.854-10.71-.746-22.318,1.919-30.117,3.99l-1.088-4.1c8.09-2.146,20.158-4.912,31.5-4.124,12.193.846,21.1,5.679,26.5,14.364l16.348,7.768a9.033,9.033,0,0,1,5.618,4.728,9.854,9.854,0,0,1,.673,5.44l3.34-.794,23.021-5.334a18.285,18.285,0,0,1,14.2,1.592,15.767,15.767,0,0,1,7.241,9.834,2.125,2.125,0,0,1-1.419,2.514l-44.073,14.112c-1.841.589-3.463,1.125-4.895,1.6-5.339,1.768-8.43,2.75-11.362,2.75Z" transform="translate(-56.692 -218.299)" fill-rule="evenodd"/>
        <path id="Path_909729" data-name="Path 909729" d="M240.584,406.115a9.769,9.769,0,0,1-4.192-.94l-24.867-11.82a2.122,2.122,0,1,1,1.822-3.832l24.868,11.82a5.582,5.582,0,0,0,7.383-2.483,2.123,2.123,0,0,1,3.836,1.822,9.784,9.784,0,0,1-8.85,5.434Z" transform="translate(-150.232 -273.989)" fill-rule="evenodd"/>
        <path id="Path_909730" data-name="Path 909730" d="M23.943,300.022a1.2,1.2,0,0,0-1.18,1.177v36.645a1.194,1.194,0,0,0,1.18,1.177h9.27a1.193,1.193,0,0,0,1.176-1.177V301.2a1.193,1.193,0,0,0-1.176-1.177Zm9.269,43.243H23.943a5.43,5.43,0,0,1-5.425-5.421V301.2a5.43,5.43,0,0,1,5.424-5.422h9.27a5.427,5.427,0,0,1,5.421,5.422v36.645A5.428,5.428,0,0,1,33.213,343.265Z" transform="translate(-16.594 -208.813)" fill-rule="evenodd"/>
        <path id="Path_909731" data-name="Path 909731" d="M294.121,332.619a2.119,2.119,0,0,1-2.026-1.5,38.273,38.273,0,0,0-59.809-19.1,2.122,2.122,0,0,1-2.581-3.369A42.511,42.511,0,0,1,281,308.382a42.857,42.857,0,0,1,15.149,21.49,2.119,2.119,0,0,1-2.029,2.747Z" transform="translate(-163.165 -211.691)" fill-rule="evenodd"/>
        <path id="Path_909732" data-name="Path 909732" d="M318.354,14.078a7.6,7.6,0,0,0,0,9.828,7.595,7.595,0,0,0,0-9.828Zm0,14.925a2.128,2.128,0,0,1-1.332-.47,12.279,12.279,0,0,1-4.715-9.54,12.283,12.283,0,0,1,4.715-9.543,2.126,2.126,0,0,1,2.663,0,12.276,12.276,0,0,1,4.718,9.543,12.265,12.265,0,0,1-4.718,9.54A2.119,2.119,0,0,1,318.354,29Z" transform="translate(-221.298 -8.983)" fill-rule="evenodd"/>
        <path id="Path_909733" data-name="Path 909733" d="M330.349,54.107a7.592,7.592,0,0,0,9.827,0,7.593,7.593,0,0,0-9.827,0Zm4.912,6.05a12.281,12.281,0,0,1-9.54-4.718,2.126,2.126,0,0,1,0-2.662,12.006,12.006,0,0,1,19.082,0,2.125,2.125,0,0,1,0,2.662A12.284,12.284,0,0,1,335.261,60.157Z" transform="translate(-230.318 -36.209)" fill-rule="evenodd"/>
        <path id="Path_909734" data-name="Path 909734" d="M318.354,66.1a7.607,7.607,0,0,0,0,9.831,7.6,7.6,0,0,0,0-9.831Zm0,14.925a2.128,2.128,0,0,1-1.332-.47,12.008,12.008,0,0,1,0-19.079,2.122,2.122,0,0,1,2.663,0,12.006,12.006,0,0,1,0,19.082A2.119,2.119,0,0,1,318.354,81.024Z" transform="translate(-221.298 -45.23)" fill-rule="evenodd"/>
        <path id="Path_909735" data-name="Path 909735" d="M278.33,54.107a7.592,7.592,0,0,0,9.827,0,7.593,7.593,0,0,0-9.827,0Zm4.912,6.05a12.276,12.276,0,0,1-9.54-4.718,2.126,2.126,0,0,1,0-2.662,12.006,12.006,0,0,1,19.082,0,2.124,2.124,0,0,1,0,2.662A12.284,12.284,0,0,1,283.242,60.157Z" transform="translate(-194.073 -36.209)" fill-rule="evenodd"/>
        <path id="Path_909736" data-name="Path 909736" d="M349.435,201.385A20.886,20.886,0,0,0,329.4,221.42a20.889,20.889,0,0,0,20.035-20.034Zm-20.887,24.3c-.458,0-.914-.012-1.371-.036a2.126,2.126,0,0,1-2-2,25.141,25.141,0,0,1,26.484-26.481,2.12,2.12,0,0,1,2,2,25.134,25.134,0,0,1-25.11,26.517Z" transform="translate(-230.237 -140.074)" fill-rule="evenodd"/>
        <path id="Path_909737" data-name="Path 909737" d="M343.216,227.349a2.123,2.123,0,0,1-1.5-3.624l.8-.8a2.122,2.122,0,0,1,3,3l-.8.8a2.114,2.114,0,0,1-1.5.622Zm-15.843,15.844a2.121,2.121,0,0,0,1.5-.622l12.392-12.393a2.123,2.123,0,0,0-3-3L325.871,239.57a2.122,2.122,0,0,0,1.5,3.623Z" transform="translate(-230.316 -157.618)" fill-rule="evenodd"/>
        <path id="Path_909738" data-name="Path 909738" d="M249.441,201.385a20.885,20.885,0,0,0,20.033,20.034,20.887,20.887,0,0,0-20.033-20.034Zm22.138,22.141h0Zm-1.253,2.156a25.138,25.138,0,0,1-25.113-26.517,2.127,2.127,0,0,1,2-2A25.137,25.137,0,0,1,273.7,223.642a2.122,2.122,0,0,1-2,2c-.454.024-.913.036-1.367.036Z" transform="translate(-174.523 -140.074)" fill-rule="evenodd"/>
        <path id="Path_909739" data-name="Path 909739" d="M273.287,227.349a2.1,2.1,0,0,1-1.5-.622l-.8-.8a2.123,2.123,0,0,1,3-3l.8.8a2.123,2.123,0,0,1-1.5,3.624Zm15.841,15.844a2.122,2.122,0,0,0,1.5-3.623l-12.39-12.393a2.122,2.122,0,1,0-3,3l12.389,12.393a2.128,2.128,0,0,0,1.5.621Z" transform="translate(-192.072 -157.618)" fill-rule="evenodd"/>
        <path id="Path_909740" data-name="Path 909740" d="M359.255,78.307a30.215,30.215,0,0,0-29.917,29.917,30.211,30.211,0,0,0,29.918-29.917Zm-30.23,34.165c-.628,0-1.252-.018-1.88-.052a2.126,2.126,0,0,1-2-2A34.466,34.466,0,0,1,361.447,74.11a2.123,2.123,0,0,1,2,2,34.465,34.465,0,0,1-34.425,36.357Z" transform="translate(-230.205 -54.326)" fill-rule="evenodd"/>
        <path id="Path_909741" data-name="Path 909741" d="M349.636,114.814a2.122,2.122,0,0,1-1.5-3.623l1.128-1.125a2.122,2.122,0,0,1,3,3l-1.127,1.128a2.119,2.119,0,0,1-1.5.622h0Zm-22.264,22.263a2.122,2.122,0,0,1-1.5-3.623l17.415-17.412a2.121,2.121,0,1,1,3,3l-17.411,17.414a2.12,2.12,0,0,1-1.5.622Z" transform="translate(-230.316 -78.981)" fill-rule="evenodd"/>
        <path id="Path_909742" data-name="Path 909742" d="M216.982,78.307a30.215,30.215,0,0,0,29.92,29.917,30.216,30.216,0,0,0-29.92-29.917ZM248.976,110.3h0Zm-1.762,2.171a34.461,34.461,0,0,1-34.426-36.357,2.121,2.121,0,0,1,2-2,34.461,34.461,0,0,1,36.305,36.305,2.122,2.122,0,0,1-2,2c-.624.033-1.252.052-1.876.052Z" transform="translate(-151.92 -54.326)" fill-rule="evenodd"/>
        <path id="Path_909743" data-name="Path 909743" d="M251.371,114.814a2.105,2.105,0,0,1-1.5-.621l-1.127-1.128a2.121,2.121,0,1,1,3-3l1.129,1.125a2.123,2.123,0,0,1,0,3,2.1,2.1,0,0,1-1.5.621Zm22.26,22.263a2.129,2.129,0,0,1-1.5-.621l-17.41-17.415a2.121,2.121,0,1,1,3-3l17.412,17.411a2.123,2.123,0,0,1-1.5,3.624Z" transform="translate(-176.575 -78.981)" fill-rule="evenodd"/>
        <path id="Path_909744" data-name="Path 909744" d="M327.37,174.21a2.123,2.123,0,0,1-2.123-2.122V115.15a2.123,2.123,0,0,1,4.245,0v56.937a2.122,2.122,0,0,1-2.123,2.123Z" transform="translate(-230.314 -81.479)" fill-rule="evenodd"/>
        <path id="Path_909745" data-name="Path 909745" d="M130.785,202.916A18.765,18.765,0,0,0,148.566,220.7a18.773,18.773,0,0,0-17.781-17.782Zm19.9,19.9h0Zm-1.14,2.153a23.017,23.017,0,0,1-22.995-24.282,2.12,2.12,0,0,1,2-2A23.02,23.02,0,0,1,152.8,222.929a2.124,2.124,0,0,1-2,2C150.379,224.955,149.961,224.967,149.543,224.966Z" transform="translate(-91.842 -141.135)" fill-rule="evenodd"/>
        <path id="Path_909746" data-name="Path 909746" d="M88.514,57A14.669,14.669,0,0,0,101.9,70.392,14.656,14.656,0,0,0,88.514,57Zm15.54,15.54h0Zm-.913,2.147a18.917,18.917,0,0,1-18.9-19.955,2.124,2.124,0,0,1,2-2,18.91,18.91,0,0,1,19.925,19.925,2.124,2.124,0,0,1-2,2Q103.655,74.688,103.141,74.688Z" transform="translate(-62.371 -39.446)" fill-rule="evenodd"/>
        <path id="Path_909747" data-name="Path 909747" d="M16.469,139.907A14.979,14.979,0,0,0,30.2,153.634a14.974,14.974,0,0,0-13.727-13.727Zm15.874,15.871h0Zm-.933,2.15A19.228,19.228,0,0,1,12.2,137.642a2.122,2.122,0,0,1,2-2A19.226,19.226,0,0,1,34.462,155.9a2.124,2.124,0,0,1-2,2c-.348.021-.7.03-1.048.03Z" transform="translate(-12.173 -97.214)" fill-rule="evenodd"/>
        <path id="Path_909748" data-name="Path 909748" d="M434.753,247.819a14.98,14.98,0,0,0-13.727,13.727,14.982,14.982,0,0,0,13.728-13.727Zm-14.94,18.021q-.522,0-1.05-.027a2.119,2.119,0,0,1-2-2,19.226,19.226,0,0,1,20.252-20.256,2.124,2.124,0,0,1,2,2,19.227,19.227,0,0,1-19.206,20.283Z" transform="translate(-294.059 -172.405)" fill-rule="evenodd"/>
      </g>
    </g>
  </g>
</svg>
