<svg xmlns="http://www.w3.org/2000/svg" xmlns:xlink="http://www.w3.org/1999/xlink" width="96.984" height="96.984" viewBox="0 0 96.984 96.984">
  <defs>
    <filter id="Path_874925" x="0" y="0" width="96.984" height="96.984" filterUnits="userSpaceOnUse">
      <feOffset dy="3" input="SourceAlpha"/>
      <feGaussianBlur stdDeviation="3" result="blur"/>
      <feFlood flood-opacity="0.161"/>
      <feComposite operator="in" in2="blur"/>
      <feComposite in="SourceGraphic"/>
    </filter>
    <clipPath id="clip-path">
      <rect id="Rectangle_408854" data-name="Rectangle 408854" width="46.151" height="48.177" fill="none"/>
    </clipPath>
  </defs>
  <g id="Group_1200336" data-name="Group 1200336" transform="translate(-203.584 -1370.456)">
    <g id="Group_1199421" data-name="Group 1199421" transform="translate(-590.197 -470.971)">
      <g id="Group_1198308" data-name="Group 1198308" transform="translate(802.781 1847.427)">
        <g id="Group_1111316" data-name="Group 1111316" transform="translate(0 0)">
          <g id="Group_1109835" data-name="Group 1109835" transform="translate(0 0)">
            <g id="Group_1107913" data-name="Group 1107913" transform="translate(0 0)">
              <g transform="matrix(1, 0, 0, 1, -9, -6)" filter="url(#Path_874925)">
                <g id="Path_874925-2" data-name="Path 874925" transform="translate(9 6)" fill="#fdf4e9" opacity="0.859">
                  <path d="M 39.49201202392578 77.48435211181641 C 34.36245727539062 77.48435211181641 29.38714599609375 76.48006439208984 24.70426750183105 74.49937438964844 C 20.18037796020508 72.58592987060547 16.11720085144043 69.84636688232422 12.62760066986084 66.35676574707031 C 9.13800048828125 62.8671760559082 6.398423194885254 58.80399703979492 4.484978675842285 54.28012084960938 C 2.504289865493774 49.59725570678711 1.500000953674316 44.62194442749023 1.500000953674316 39.49239730834961 C 1.500000953674316 34.36240005493164 2.504289865493774 29.38709831237793 4.484978675842285 24.70421981811523 C 6.398423194885254 20.18035316467285 9.13800048828125 16.1171760559082 12.62760066986084 12.62757587432861 C 16.11720085144043 9.13798713684082 20.18037796020508 6.398420333862305 24.70426750183105 4.484976291656494 C 29.38714599609375 2.504287242889404 34.36245727539062 1.499998331069946 39.49201202392578 1.499998331069946 C 44.62155532836914 1.499998331069946 49.59687805175781 2.504287242889404 54.27975463867188 4.484976291656494 C 58.80364608764648 6.398420333862305 62.86681365966797 9.13798713684082 66.35642242431641 12.62757587432861 C 69.84602355957031 16.1171760559082 72.58560180664062 20.18035316467285 74.49903106689453 24.70421981811523 C 76.479736328125 29.38709831237793 77.48402404785156 34.36240005493164 77.48402404785156 39.491943359375 C 77.48402404785156 44.62194442749023 76.479736328125 49.59725570678711 74.49903106689453 54.28012084960938 C 72.58560180664062 58.80399703979492 69.84602355957031 62.86716461181641 66.35642242431641 66.35676574707031 C 62.86681365966797 69.84636688232422 58.80364608764648 72.58592987060547 54.27975463867188 74.49937438964844 C 49.59687805175781 76.48006439208984 44.62155532836914 77.48435211181641 39.49201202392578 77.48435211181641 Z" stroke="none"/>
                  <path d="M 39.49201202392578 3 C 34.56430053710938 3 29.78557586669922 3.964424133300781 25.2885856628418 5.866485595703125 C 20.94351196289062 7.704299926757812 17.04058837890625 10.33591461181641 13.68826293945312 13.68824005126953 C 10.33592224121094 17.04056167602539 7.704315185546875 20.94347763061523 5.866485595703125 25.28855133056641 C 3.964424133300781 29.78553771972656 3 34.56425094604492 3 39.49240112304688 C 3 44.42010116577148 3.964424133300781 49.19881439208984 5.866485595703125 53.6957893371582 C 7.704315185546875 58.04086303710938 10.33592224121094 61.94377517700195 13.68826293945312 65.29609680175781 C 17.04058837890625 68.64842224121094 20.94351196289062 71.28005218505859 25.2885856628418 73.11786651611328 C 29.78557586669922 75.01992797851562 34.56430053710938 75.98435211181641 39.49201202392578 75.98435211181641 C 44.41972351074219 75.98435211181641 49.19844818115234 75.01992797851562 53.6954345703125 73.11786651611328 C 58.04051208496094 71.28005218505859 61.94343566894531 68.64842224121094 65.29576110839844 65.29609680175781 C 68.64810180664062 61.94377517700195 71.27970886230469 58.04086303710938 73.11753845214844 53.6957893371582 C 75.01959991455078 49.19881439208984 75.98402404785156 44.42010116577148 75.98402404785156 39.49195098876953 C 75.98402404785156 34.56425094604492 75.01959991455078 29.78553771972656 73.11753845214844 25.28855133056641 C 71.27970886230469 20.94347763061523 68.64810180664062 17.04056167602539 65.29576110839844 13.68824005126953 C 61.94343566894531 10.33591461181641 58.04051208496094 7.704299926757812 53.6954345703125 5.866485595703125 C 49.19844818115234 3.964424133300781 44.41972351074219 3 39.49201202392578 3 M 39.49201202392578 0 C 61.30284881591797 0 78.98402404785156 17.68113708496094 78.98402404785156 39.49195098876953 L 78.98402404785156 39.49240112304688 C 78.98402404785156 61.30319976806641 61.30284881591797 78.98435211181641 39.49201202392578 78.98435211181641 C 17.68117523193359 78.98435211181641 0 61.30319976806641 0 39.49240112304688 L 0 39.49195098876953 C 0 17.68113708496094 17.68117523193359 0 39.49201202392578 0 Z" stroke="none" fill="#fff"/>
                </g>
              </g>
              <g id="Path_874923" data-name="Path 874923" transform="translate(0 0)" fill="#ebf6dd">
                <path d="M 39.49201202392578 77.48435211181641 C 34.36245727539062 77.48435211181641 29.38714599609375 76.48006439208984 24.70426750183105 74.49937438964844 C 20.18037796020508 72.58592987060547 16.11720085144043 69.84636688232422 12.62760066986084 66.35676574707031 C 9.13800048828125 62.8671760559082 6.398423194885254 58.80399703979492 4.484978675842285 54.28012084960938 C 2.504289865493774 49.59725570678711 1.500000953674316 44.62194442749023 1.500000953674316 39.49239730834961 C 1.500000953674316 34.36240005493164 2.504289865493774 29.38709831237793 4.484978675842285 24.70421981811523 C 6.398423194885254 20.18035316467285 9.13800048828125 16.1171760559082 12.62760066986084 12.62757587432861 C 16.11720085144043 9.13798713684082 20.18037796020508 6.398420333862305 24.70426750183105 4.484976291656494 C 29.38714599609375 2.504287242889404 34.36245727539062 1.499998331069946 39.49201202392578 1.499998331069946 C 44.62155532836914 1.499998331069946 49.59687805175781 2.504287242889404 54.27975463867188 4.484976291656494 C 58.80364608764648 6.398420333862305 62.86681365966797 9.13798713684082 66.35642242431641 12.62757587432861 C 69.84602355957031 16.1171760559082 72.58560180664062 20.18035316467285 74.49903106689453 24.70421981811523 C 76.479736328125 29.38709831237793 77.48402404785156 34.36240005493164 77.48402404785156 39.491943359375 C 77.48402404785156 44.62194442749023 76.479736328125 49.59725570678711 74.49903106689453 54.28012084960938 C 72.58560180664062 58.80399703979492 69.84602355957031 62.86716461181641 66.35642242431641 66.35676574707031 C 62.86681365966797 69.84636688232422 58.80364608764648 72.58592987060547 54.27975463867188 74.49937438964844 C 49.59687805175781 76.48006439208984 44.62155532836914 77.48435211181641 39.49201202392578 77.48435211181641 Z" stroke="none"/>
                <path d="M 39.49201202392578 3 C 34.56430053710938 3 29.78557586669922 3.964424133300781 25.2885856628418 5.866485595703125 C 20.94351196289062 7.704299926757812 17.04058837890625 10.33591461181641 13.68826293945312 13.68824005126953 C 10.33592224121094 17.04056167602539 7.704315185546875 20.94347763061523 5.866485595703125 25.28855133056641 C 3.964424133300781 29.78553771972656 3 34.56425094604492 3 39.49240112304688 C 3 44.42010116577148 3.964424133300781 49.19881439208984 5.866485595703125 53.6957893371582 C 7.704315185546875 58.04086303710938 10.33592224121094 61.94377517700195 13.68826293945312 65.29609680175781 C 17.04058837890625 68.64842224121094 20.94351196289062 71.28005218505859 25.2885856628418 73.11786651611328 C 29.78557586669922 75.01992797851562 34.56430053710938 75.98435211181641 39.49201202392578 75.98435211181641 C 44.41972351074219 75.98435211181641 49.19844818115234 75.01992797851562 53.6954345703125 73.11786651611328 C 58.04051208496094 71.28005218505859 61.94343566894531 68.64842224121094 65.29576110839844 65.29609680175781 C 68.64810180664062 61.94377517700195 71.27970886230469 58.04086303710938 73.11753845214844 53.6957893371582 C 75.01959991455078 49.19881439208984 75.98402404785156 44.42010116577148 75.98402404785156 39.49195098876953 C 75.98402404785156 34.56425094604492 75.01959991455078 29.78553771972656 73.11753845214844 25.28855133056641 C 71.27970886230469 20.94347763061523 68.64810180664062 17.04056167602539 65.29576110839844 13.68824005126953 C 61.94343566894531 10.33591461181641 58.04051208496094 7.704299926757812 53.6954345703125 5.866485595703125 C 49.19844818115234 3.964424133300781 44.41972351074219 3 39.49201202392578 3 M 39.49201202392578 0 C 61.30284881591797 0 78.98402404785156 17.68113708496094 78.98402404785156 39.49195098876953 L 78.98402404785156 39.49240112304688 C 78.98402404785156 61.30319976806641 61.30284881591797 78.98435211181641 39.49201202392578 78.98435211181641 C 17.68117523193359 78.98435211181641 0 61.30319976806641 0 39.49240112304688 L 0 39.49195098876953 C 0 17.68113708496094 17.68117523193359 0 39.49201202392578 0 Z" stroke="none" fill="#4c6929"/>
              </g>
            </g>
          </g>
        </g>
      </g>
    </g>
    <g id="Group_1200120" data-name="Group 1200120" transform="translate(229.001 1390.221)">
      <g id="Group_1200119" data-name="Group 1200119" clip-path="url(#clip-path)">
        <path id="Path_1032254" data-name="Path 1032254" d="M63.047,304.722a21.114,21.114,0,0,0,0,2.6c.052.272.214.334.471.334v.963a.482.482,0,1,0,0,.963v.917a.551.551,0,0,0-.472.429,19.254,19.254,0,0,0,0,2.889H53.473a20.379,20.379,0,0,0-.063-3.2c-.1-.23-.761-.235-1.073-.355a1.832,1.832,0,0,1-1.1-1.274c-.09-.279.035-.722-.319-.816l-15.7-.046c-.9-.109-.635.681-.907,1.273-.4.877-1.194.9-1.988,1.164a19.545,19.545,0,0,0-.087,3.255H22.667c.044-3.03-.059-6.07,0-9.1Z" transform="translate(-19.78 -266.135)" fill="#fa5c3d"/>
        <path id="Path_1032255" data-name="Path 1032255" d="M341.78,350.383a.551.551,0,0,1,.472.429,19,19,0,0,1-.006,2.931.47.47,0,0,1-.939-.042,19.263,19.263,0,0,1,0-2.889.551.551,0,0,1,.472-.429" transform="translate(-298.039 -306.013)" fill="#030303"/>
        <path id="Path_1032256" data-name="Path 1032256" d="M342.575,336.017a.482.482,0,1,0-.482.482.482.482,0,0,0,.482-.482" transform="translate(-298.353 -293.046)" fill="#0d0908"/>
        <path id="Path_1032257" data-name="Path 1032257" d="M22.787,298.827c.006-.284,0-.57,0-.854H63.112c.1.015.052.7.055.855Z" transform="translate(-19.9 -260.239)" fill="#ab4d33"/>
        <rect id="Rectangle_408850" data-name="Rectangle 408850" width="44.18" height="3.042" transform="translate(0.987 33.749)" fill="#efbf20"/>
        <path id="Path_1032258" data-name="Path 1032258" d="M125.089,343.859H105.752a22.759,22.759,0,0,1,.042-2.47,3.058,3.058,0,0,0,1.874-1.349c.192-.342.179-.927.591-.926l14.5.018c.161.055.3.682.42.907a3.005,3.005,0,0,0,1.874,1.349,22.761,22.761,0,0,1,.042,2.47m-15.84-1.322h12.342v-.958H109.249Z" transform="translate(-92.344 -296.171)" fill="#ececec"/>
        <path id="Path_1032259" data-name="Path 1032259" d="M98.21,337.258A19.547,19.547,0,0,1,98.3,334c.794-.268,1.585-.286,1.988-1.163.272-.592.012-1.383.907-1.273l15.7.046c.354.094.23.537.319.816a1.832,1.832,0,0,0,1.1,1.273c.312.12.975.125,1.073.355a20.36,20.36,0,0,1,.063,3.2.474.474,0,1,1-.948,0,22.761,22.761,0,0,0-.042-2.47,3,3,0,0,1-1.874-1.349c-.123-.225-.259-.853-.42-.907l-14.5-.018c-.412,0-.4.584-.591.926a3.059,3.059,0,0,1-1.874,1.349,22.759,22.759,0,0,0-.042,2.47.474.474,0,1,1-.948,0" transform="translate(-85.749 -289.571)" fill="#050302"/>
        <rect id="Rectangle_408851" data-name="Rectangle 408851" width="12.342" height="0.958" transform="translate(16.905 45.408)" fill="#080808"/>
        <path id="Path_1032260" data-name="Path 1032260" d="M23.551.564c-.016-.514.576-.6.9-.286l6.759,7.838c1.263,1.64.1,3.719-.078,5.528a1.986,1.986,0,0,1,1.939.668,3.72,3.72,0,0,1,.241.517V32.792H44.641a1.735,1.735,0,0,1,1.425,1.04A15.9,15.9,0,0,1,46.1,36.72c-.132.853-1.122,1.217-1.889,1.192-.121.117.092,2.865,0,3.362-.052.272-.215.334-.471.334s-.419-.062-.472-.334a21.14,21.14,0,0,1,0-2.6c0-.156.047-.84-.055-.855H2.886c0,.283.006.57,0,.853-.059,3.03.044,6.07,0,9.1a.475.475,0,1,1-.948-.046V37.911a1.692,1.692,0,0,1-1.9-1.278,15.452,15.452,0,0,1,.047-2.8,1.735,1.735,0,0,1,1.425-1.04H12.839c.112-1.063-.153-2.431.006-3.454a.561.561,0,0,1,.468-.527c.011.017.288.035.381.139a17.555,17.555,0,0,1,.093,3.084c.005.283,0,.57,0,.854H32.311c.1-.015.052-.7.055-.855.1-5.541-.08-11.1,0-16.639-.054-.65-.156-.752-.806-.806-2.05-.171-4.771-.037-6.876,0-.283.005-.57,0-.853,0-.058.914.345,1.652.047,2.559a2.271,2.271,0,0,1-3.1,1.3c-1.455-.683-1.33-2.444-1.73-3.768-.123-.163-.669-.087-.9-.093a24.557,24.557,0,0,0-4.108.11c-.22.131-.236.454-.256.692-.271,3.244.207,6.866.008,10.15,0,.314-.189.42-.478.422-.375,0-.436-.176-.476-.52-.371-3.218.281-7.136,0-10.429a1.625,1.625,0,0,1,1.28-1.374h4.6c.055-.752-.789-2.351-.641-2.964.024-.1.155-.2.167-.259.176.008.416-.046.57.046.472.282,1.454,5.714,1.78,6.561a1.308,1.308,0,0,0,2.447-.444c.033-1.578-.678-3.556-.636-5.073a1.087,1.087,0,0,1,.7-1.017,6.056,6.056,0,0,1,2.665.222c1.208.521,1.322,1.772,1.49,2.917l2.885-.08c.074-1.308,1.1-3.383.475-4.559L23.74.99a.706.706,0,0,1-.189-.426M26.2,13.645c.07-.843-.2-2.026-1.191-2.174a12.975,12.975,0,0,0-1.415-.1c-.167.006-.252-.069-.239.146.04.687.271,1.434.286,2.133ZM45.166,33.83H.987v3.042h44.18Z" transform="translate(0 -0.081)" fill="#070604"/>
        <path id="Path_1032261" data-name="Path 1032261" d="M129.755,3.81a.706.706,0,0,0,.189.427l6.877,8c.621,1.176-.4,3.251-.475,4.559l-2.885.081c-.168-1.145-.282-2.4-1.49-2.917a6.056,6.056,0,0,0-2.665-.222,1.086,1.086,0,0,0-.7,1.017c-.043,1.518.669,3.5.635,5.073a1.308,1.308,0,0,1-2.447.444c-.327-.847-1.308-6.279-1.78-6.561-.154-.092-.394-.037-.57-.046.056-.276-.154-.584-.192-.862a.493.493,0,1,0-.284-.945l-.093-.943c.683-.052.43-1.018.475-1.468a3.445,3.445,0,0,0,0-1.9A25.163,25.163,0,0,0,121.6,3.81Zm-1.45,1.061c-.513.155-.169.7.031.974a64.354,64.354,0,0,0,4.688,5.454,2.988,2.988,0,0,0,.5.459.513.513,0,0,0,.506-.8l-5.164-6.02a.632.632,0,0,0-.556-.07m6.448,7.389c-.984.263.488,2.009.927,1.124.213-.428-.469-1.246-.927-1.124" transform="translate(-106.204 -3.328)" fill="#fdb59e"/>
        <path id="Path_1032262" data-name="Path 1032262" d="M114.543.482A25.166,25.166,0,0,1,117.3,4.221a3.447,3.447,0,0,1,0,1.9c-.045.45.208,1.417-.475,1.468-.909.069-.38-1.887-.372-2.415a1.521,1.521,0,0,0-.127-.735l-2.8-3.746.069-.528c.5-.392.66-.011.955.316" transform="translate(-99.144 0)" fill="#070605"/>
        <path id="Path_1032263" data-name="Path 1032263" d="M138.587,67.7a.493.493,0,1,0-.493.493.493.493,0,0,0,.493-.493" transform="translate(-120.175 -58.696)" fill="#0c0a0a"/>
        <path id="Path_1032264" data-name="Path 1032264" d="M172.675,11.963a.632.632,0,0,1,.556.07l5.164,6.02a.513.513,0,0,1-.506.8,2.989,2.989,0,0,1-.5-.459,64.351,64.351,0,0,1-4.688-5.454c-.2-.275-.544-.819-.031-.974" transform="translate(-150.574 -10.42)" fill="#fadedf"/>
        <path id="Path_1032265" data-name="Path 1032265" d="M223.154,70.458c.458-.123,1.14.7.927,1.124-.439.885-1.911-.86-.927-1.124" transform="translate(-194.605 -61.525)" fill="#fadedf"/>
        <path id="Path_1032266" data-name="Path 1032266" d="M109.854,113.984c.364,1.167.344,2.7,1.1,3.689a3.113,3.113,0,0,0,5.471-.959,7.661,7.661,0,0,0-.029-2.73c2.1-.041,4.826-.174,6.876,0,.65.054.752.156.806.806-.083,5.544.1,11.1,0,16.639H105.494a17.555,17.555,0,0,0-.093-3.084c-.093-.1-.37-.122-.381-.139-.052-.076.037-.767,0-.921a.486.486,0,1,0,0-.972v-.951c.29,0,.475-.108.478-.422.2-3.284-.279-6.906-.008-10.15.02-.237.037-.561.256-.692a24.557,24.557,0,0,1,4.108-.11m-3.251,1.251c-.432.13-.408,1.537.25,1.478.587-.053.561-1.1.253-1.45a.709.709,0,0,0-.5-.028m16.622-.028h-.958v12.721h.958ZM107.3,117.671h-.958v12.721h.958Zm11.06,2.4c-.7.144-1.31,1.1-1.773,1.545-1.051,1.007-2.145,1.962-3.1,3.068-.118.044-.181-.02-.27-.079-.539-.362-1.148-1.4-1.749-1.665a1.822,1.822,0,0,0-2.422,2.422,23.2,23.2,0,0,0,3.148,3.3c1.073.78,1.8.532,2.735-.266A55.286,55.286,0,0,0,120,123.324a3.729,3.729,0,0,0,.588-.833,1.841,1.841,0,0,0-2.228-2.417m4.353,8.814c-.621.056-.686,1.549.08,1.505.706-.041.564-1.564-.08-1.505" transform="translate(-91.706 -99.473)" fill="#71c0e7"/>
        <path id="Path_1032267" data-name="Path 1032267" d="M102.39,212.41a.486.486,0,1,0-.486.486.486.486,0,0,0,.486-.486" transform="translate(-88.575 -185.088)" fill="#080a0b"/>
        <path id="Path_1032268" data-name="Path 1032268" d="M127.447,252.325c0,.157.047.84-.055.855H108.868c0-.284.006-.57,0-.854Z" transform="translate(-95.081 -220.373)" fill="#489bbb"/>
        <rect id="Rectangle_408852" data-name="Rectangle 408852" width="0.958" height="12.721" transform="translate(30.561 15.734)" fill="#c3e4fd"/>
        <rect id="Rectangle_408853" data-name="Rectangle 408853" width="0.958" height="12.721" transform="translate(14.635 18.198)" fill="#c3e4fd"/>
        <path id="Path_1032269" data-name="Path 1032269" d="M143.31,114.505c.234.006.779-.071.9.093.4,1.324.275,3.085,1.73,3.768a2.271,2.271,0,0,0,3.1-1.3c.3-.907-.105-1.645-.047-2.559.283,0,.57.006.853,0a7.655,7.655,0,0,1,.029,2.73,3.113,3.113,0,0,1-5.471.958c-.754-.993-.734-2.522-1.1-3.689" transform="translate(-125.162 -99.994)" fill="#499dbf"/>
        <path id="Path_1032270" data-name="Path 1032270" d="M115.635,124.248a.708.708,0,0,1,.5.028c.307.352.334,1.4-.253,1.45-.659.059-.682-1.348-.25-1.478" transform="translate(-100.739 -108.486)" fill="#c1e3fc"/>
        <path id="Path_1032271" data-name="Path 1032271" d="M241.544,232.261c.644-.058.785,1.465.08,1.505-.766.044-.7-1.449-.08-1.505" transform="translate(-210.538 -202.848)" fill="#c1e3fc"/>
        <path id="Path_1032272" data-name="Path 1032272" d="M145.1,162.339a1.841,1.841,0,0,1,2.228,2.417,3.73,3.73,0,0,1-.588.833,55.3,55.3,0,0,1-5.071,5.071c-.94.8-1.662,1.045-2.735.266a23.2,23.2,0,0,1-3.148-3.3,1.822,1.822,0,0,1,2.422-2.422c.6.269,1.209,1.3,1.749,1.665.088.059.152.123.27.079.957-1.106,2.051-2.061,3.1-3.068.463-.444,1.073-1.4,1.773-1.545m1.13,1.149a.87.87,0,0,0-1.1-.077l-4.835,4.743a.5.5,0,0,1-.237.042c-.412-.044-1.836-2.041-2.394-2.164a.87.87,0,0,0-1.027,1.124c.2.618,2.523,2.388,3,3.071a.953.953,0,0,0,.854.1l5.923-5.923a.888.888,0,0,0-.18-.92" transform="translate(-118.444 -141.739)" fill="#050606"/>
        <path id="Path_1032273" data-name="Path 1032273" d="M152.925,170.116a.888.888,0,0,1,.18.92l-5.923,5.923a.953.953,0,0,1-.854-.1c-.472-.683-2.8-2.453-3-3.071a.87.87,0,0,1,1.027-1.124c.559.124,1.982,2.12,2.394,2.165a.5.5,0,0,0,.237-.042l4.835-4.743a.87.87,0,0,1,1.1.077" transform="translate(-125.143 -148.367)" fill="#ededed"/>
      </g>
    </g>
  </g>
</svg>
