<svg xmlns="http://www.w3.org/2000/svg" xmlns:xlink="http://www.w3.org/1999/xlink" width="101.09" height="125.286" viewBox="0 0 101.09 125.286">
  <defs>
    <filter id="Rectangle_401593" x="0" y="0" width="83.923" height="125.286" filterUnits="userSpaceOnUse">
      <feOffset dy="3" input="SourceAlpha"/>
      <feGaussianBlur stdDeviation="3" result="blur"/>
      <feFlood flood-opacity="0.161"/>
      <feComposite operator="in" in2="blur"/>
      <feComposite in="SourceGraphic"/>
    </filter>
    <clipPath id="clip-path">
      <rect id="Rectangle_409029" data-name="Rectangle 409029" width="82.679" height="102.598" fill="none"/>
    </clipPath>
  </defs>
  <g id="Group_1200121" data-name="Group 1200121" transform="translate(6875.313 7244.264)">
    <g id="Group_1199972" data-name="Group 1199972" transform="translate(-6866.313 -7238.265)">
      <g id="Group_1182090" data-name="Group 1182090" transform="translate(0 0)">
        <g transform="matrix(1, 0, 0, 1, -9, -6)" filter="url(#Rectangle_401593)">
          <rect id="Rectangle_401593-2" data-name="Rectangle 401593" width="65.923" height="107.286" rx="8" transform="translate(9 6)" fill="#9ad354"/>
        </g>
      </g>
    </g>
    <g id="Group_1200316" data-name="Group 1200316" transform="translate(-6856.902 -7233.576)">
      <g id="Group_1200315" data-name="Group 1200315" clip-path="url(#clip-path)">
        <path id="Path_1033712" data-name="Path 1033712" d="M52.915,19.937H78.641a16.049,16.049,0,0,1,1.623.65,5.746,5.746,0,0,1,2.407,3.791l.007,73.57a5.11,5.11,0,0,1-4.856,4.649H4.658A5.143,5.143,0,0,1,.009,97.949V24.577c-.182-1.732,2.436-4.64,4.038-4.64H29.773V7.229c0-2.653,3.1-5.838,5.521-6.67,2.293-.786,10.128-.742,12.389.124,2.3.881,5.232,3.992,5.232,6.546ZM49.607,8.366A5.04,5.04,0,0,0,44.969,3.4a51.841,51.841,0,0,0-7.449.007c-2.327.251-4.679,2.549-4.339,4.959A9.9,9.9,0,0,1,35,7.293c2.256-.884,10.26-.9,12.535-.06a20.865,20.865,0,0,1,2.069,1.132m0,18.183v-12.5c0-1.1-1.84-3.113-2.836-3.57-1.5-.691-6.988-.613-8.848-.468a5.112,5.112,0,0,0-4.154,2.458,12.032,12.032,0,0,0-.693,1.58v12.5ZM29.773,23.243H4.461c-1.167,0-1.284,2.476-1.136,3.306H29.773Zm49.591,3.306c.148-.83.03-3.306-1.136-3.306H52.915v3.306Zm0,3.306H3.324V99.293h76.04Z" transform="translate(0 0)"/>
        <path id="Path_1033713" data-name="Path 1033713" d="M88.081,177.59H12.041V108.153h76.04ZM64.938,111.459H15.347V161.05H64.938Zm3.306,16.53h16.53v-16.53H68.244Zm16.53,3.306H68.244V134.6h16.53Zm0,6.612H68.244v3.306h16.53ZM71.551,144.52H68.244v3.306h3.306Zm3.306,3.306h9.918V144.52H74.857Zm9.918,3.306H68.244v3.306h16.53Zm0,6.612H68.244v3.306h16.53Zm-59.509,6.612H15.347v9.918h9.918Zm13.224,0H28.571v9.918H38.49Zm3.306,9.918h9.918v-9.918H41.8Zm23.143-9.918H55.02v9.918h9.918Zm13.224,0H68.244v9.918h9.918Z" transform="translate(-8.717 -78.298)" fill="#e5e8ec"/>
        <path id="Path_1033714" data-name="Path 1033714" d="M38.356,84.2v3.306H11.908c-.148-.83-.03-3.306,1.136-3.306Z" transform="translate(-8.584 -60.957)" fill="#cbd0d8"/>
        <path id="Path_1033715" data-name="Path 1033715" d="M218.139,87.505H191.69V84.2H217c1.167,0,1.285,2.477,1.136,3.306" transform="translate(-138.775 -60.956)" fill="#cbd0d8"/>
        <path id="Path_1033716" data-name="Path 1033716" d="M215.643,120.129h16.53v16.53h-16.53Zm13.224,3.306h-9.918v9.918h9.918Z" transform="translate(-156.116 -86.968)"/>
        <rect id="Rectangle_409017" data-name="Rectangle 409017" width="16.53" height="3.306" transform="translate(59.527 52.998)"/>
        <rect id="Rectangle_409018" data-name="Rectangle 409018" width="16.53" height="3.306" transform="translate(59.527 59.61)"/>
        <rect id="Rectangle_409019" data-name="Rectangle 409019" width="16.53" height="3.306" transform="translate(59.527 72.834)"/>
        <rect id="Rectangle_409020" data-name="Rectangle 409020" width="16.53" height="3.306" transform="translate(59.527 79.446)"/>
        <rect id="Rectangle_409021" data-name="Rectangle 409021" width="9.918" height="3.306" transform="translate(66.14 66.222)"/>
        <rect id="Rectangle_409022" data-name="Rectangle 409022" width="3.306" height="3.306" transform="translate(59.527 66.222)"/>
        <path id="Path_1033717" data-name="Path 1033717" d="M78.973,132.106v42.979H73.6a14.288,14.288,0,0,0-11.583-9.83c-.271-1.1.979-1.22,1.745-1.97a8.83,8.83,0,0,0,1.771-2.982,5.219,5.219,0,0,0,5.175-5.572c-.077-.854-.844-1.971-.826-2.455.057-1.564.963-2.973.833-5.2-.9-15.485-25.324-15.609-26.453-.2-.172,2.353.762,3.734.822,5.392.017.473-.713,1.519-.806,2.266a5.21,5.21,0,0,0,5.155,5.761,9.879,9.879,0,0,0,1.647,2.9c.757.777,2.151.922,1.869,2.053a14.288,14.288,0,0,0-11.583,9.83H35.994V132.106Z" transform="translate(-26.058 -95.639)" fill="#68d5f2"/>
        <path id="Path_1033718" data-name="Path 1033718" d="M73.609,169.721H24.018V120.13H73.609ZM70.3,123.436H27.324v42.979H32.7a14.288,14.288,0,0,1,11.583-9.83c.282-1.131-1.111-1.276-1.869-2.053a9.886,9.886,0,0,1-1.647-2.9,5.21,5.21,0,0,1-5.155-5.761c.094-.748.823-1.793.806-2.267-.059-1.659-.994-3.039-.822-5.392,1.129-15.414,25.551-15.289,26.453.2.13,2.224-.776,3.634-.833,5.2-.018.484.749,1.6.826,2.455a5.219,5.219,0,0,1-5.175,5.572,8.827,8.827,0,0,1-1.771,2.982c-.766.75-2.016.865-1.745,1.97a14.288,14.288,0,0,1,11.583,9.83H70.3ZM58.315,141.827a9.158,9.158,0,0,0-6.4-11.47c-7.6-1.9-14.678,3.486-12.6,11.47,1.889.053,1.666-1.2,2.675-2.178a6.307,6.307,0,0,1,2.268-1.244,50.322,50.322,0,0,1,9.116,0,6.162,6.162,0,0,1,2.372,1.348c.944.979.7,2.113,2.572,2.074m-13.28-.164a1.586,1.586,0,0,0-1.185,1.5,46.917,46.917,0,0,0,0,7.031c.364,3.4,4.288,3.278,6.923,3a3.335,3.335,0,0,0,2.977-2.808,46.056,46.056,0,0,0,.023-7.218,1.567,1.567,0,0,0-1.55-1.55,46.9,46.9,0,0,0-7.192.049m-4.487,3.262a1.653,1.653,0,1,0,0,3.306Zm16.53,3.306a1.653,1.653,0,1,0,0-3.306Zm-7.053,8.292H47.6c-2.005,4.418,4.432,4.411,2.425,0m11.392,9.892a10.545,10.545,0,0,0-7.937-6.374c-2.167,4.031-7.174,4.08-9.336,0a10.55,10.55,0,0,0-7.937,6.374Z" transform="translate(-17.388 -86.969)" fill="#010101"/>
        <path id="Path_1033719" data-name="Path 1033719" d="M97.464,167.643c-1.87.039-1.628-1.1-2.572-2.075a6.159,6.159,0,0,0-2.371-1.348,50.319,50.319,0,0,0-9.115,0,6.305,6.305,0,0,0-2.269,1.244c-1.009.978-.786,2.231-2.675,2.178-2.075-7.984,5-13.372,12.6-11.47a9.158,9.158,0,0,1,6.4,11.47" transform="translate(-56.537 -112.785)" fill="#646c77"/>
        <path id="Path_1033720" data-name="Path 1033720" d="M96.7,197.712a46.863,46.863,0,0,1,7.192-.049,1.567,1.567,0,0,1,1.55,1.55,46.056,46.056,0,0,1-.023,7.218,3.335,3.335,0,0,1-2.977,2.808c-2.635.282-6.559.407-6.923-3a46.882,46.882,0,0,1,0-7.031,1.585,1.585,0,0,1,1.185-1.5" transform="translate(-69.058 -143.017)" fill="#eeceb3"/>
        <path id="Path_1033721" data-name="Path 1033721" d="M93.39,271.086H68.181a10.55,10.55,0,0,1,7.937-6.374c2.162,4.08,7.169,4.031,9.336,0a10.545,10.545,0,0,1,7.937,6.374" transform="translate(-49.36 -191.64)" fill="#f9d46f"/>
        <path id="Path_1033722" data-name="Path 1033722" d="M110.846,251.969c2.007,4.411-4.431,4.418-2.425,0Z" transform="translate(-78.208 -182.414)" fill="#e8c9ae"/>
        <path id="Path_1033723" data-name="Path 1033723" d="M79.512,209.954v3.306a1.653,1.653,0,1,1,0-3.306" transform="translate(-56.352 -151.997)" fill="#e4c5ab"/>
        <path id="Path_1033724" data-name="Path 1033724" d="M143.784,213.26v-3.306a1.653,1.653,0,1,1,0,3.306" transform="translate(-104.093 -151.997)" fill="#e4c5ab"/>
        <rect id="Rectangle_409023" data-name="Rectangle 409023" width="9.918" height="9.918" transform="translate(62.833 36.467)" fill="#ee7384"/>
        <path id="Path_1033725" data-name="Path 1033725" d="M33.936,321.673H24.018v-9.918h9.918Zm-6.612-3.306H30.63v-3.306H27.324Z" transform="translate(-17.388 -225.697)"/>
        <path id="Path_1033726" data-name="Path 1033726" d="M81.842,321.673H71.924v-9.918h9.918Zm-6.612-3.306h3.306v-3.306H75.23Z" transform="translate(-52.07 -225.697)"/>
        <path id="Path_1033727" data-name="Path 1033727" d="M119.831,311.755h9.918v9.918h-9.918Zm3.306,6.612h3.306v-3.306h-3.306Z" transform="translate(-86.752 -225.697)"/>
        <path id="Path_1033728" data-name="Path 1033728" d="M177.655,321.673h-9.918v-9.918h9.918Zm-3.306-6.612h-3.306v3.306h3.306Z" transform="translate(-121.434 -225.697)"/>
        <rect id="Rectangle_409024" data-name="Rectangle 409024" width="3.306" height="3.306" transform="translate(9.936 89.365)" fill="#ee7384"/>
        <rect id="Rectangle_409025" data-name="Rectangle 409025" width="3.306" height="3.306" transform="translate(23.16 89.365)" fill="#ee7384"/>
        <rect id="Rectangle_409026" data-name="Rectangle 409026" width="3.306" height="3.306" transform="translate(36.385 89.365)" fill="#ee7384"/>
        <rect id="Rectangle_409027" data-name="Rectangle 409027" width="3.306" height="3.306" transform="translate(49.609 89.364)" fill="#ee7384"/>
        <path id="Path_1033729" data-name="Path 1033729" d="M225.561,321.673h-9.918v-9.918h9.918Zm-3.306-6.612h-3.306v3.306h3.306Z" transform="translate(-156.116 -225.697)"/>
        <rect id="Rectangle_409028" data-name="Rectangle 409028" width="3.306" height="3.306" transform="translate(62.833 89.364)" fill="#ee7384"/>
        <path id="Path_1033730" data-name="Path 1033730" d="M136.36,52.545H119.83v-12.5a12,12,0,0,1,.693-1.58,5.111,5.111,0,0,1,4.154-2.458c1.86-.144,7.344-.222,8.848.468,1,.457,2.835,2.467,2.835,3.57Zm-3.311-8.268a4.952,4.952,0,1,0-4.952,4.952,4.952,4.952,0,0,0,4.952-4.952" transform="translate(-86.752 -25.996)" fill="#b2db7e"/>
        <path id="Path_1033731" data-name="Path 1033731" d="M136.54,16.934a20.805,20.805,0,0,0-2.069-1.132c-2.275-.844-10.279-.825-12.535.06a9.881,9.881,0,0,0-1.822,1.071c-.34-2.41,2.013-4.708,4.339-4.959a51.8,51.8,0,0,1,7.449-.007,5.04,5.04,0,0,1,4.638,4.968" transform="translate(-86.933 -8.569)" fill="#9ed166"/>
        <path id="Path_1033732" data-name="Path 1033732" d="M141.743,53.236a4.952,4.952,0,1,1-4.952-4.952,4.952,4.952,0,0,1,4.952,4.952m-3.272,0a1.682,1.682,0,1,0-1.682,1.682,1.682,1.682,0,0,0,1.682-1.682" transform="translate(-95.445 -34.955)" fill="#020202"/>
        <path id="Path_1033733" data-name="Path 1033733" d="M147.044,61.824a1.682,1.682,0,1,1-1.682-1.682,1.682,1.682,0,0,1,1.682,1.682" transform="translate(-104.018 -43.54)" fill="#f2f2f2"/>
      </g>
    </g>
  </g>
</svg>
