<svg xmlns="http://www.w3.org/2000/svg" xmlns:xlink="http://www.w3.org/1999/xlink" width="118" height="118" viewBox="0 0 118 118">
  <defs>
    <filter id="Path_874925" x="0" y="0" width="117.999" height="118" filterUnits="userSpaceOnUse">
      <feOffset dy="3" input="SourceAlpha"/>
      <feGaussianBlur stdDeviation="3" result="blur"/>
      <feFlood flood-opacity="0.161"/>
      <feComposite operator="in" in2="blur"/>
      <feComposite in="SourceGraphic"/>
    </filter>
    <clipPath id="clip-path">
      <rect id="Rectangle_408989" data-name="Rectangle 408989" width="63.298" height="62.35" fill="none"/>
    </clipPath>
  </defs>
  <g id="Group_1200140" data-name="Group 1200140" transform="translate(-799.5 -2511.157)">
    <g id="Group_1111316" data-name="Group 1111316" transform="translate(808.5 2517.157)">
      <g id="Group_1109835" data-name="Group 1109835" transform="translate(0 0)">
        <g id="Group_1107913" data-name="Group 1107913" transform="translate(0 0)">
          <g transform="matrix(1, 0, 0, 1, -9, -6)" filter="url(#Path_874925)">
            <g id="Path_874925-2" data-name="Path 874925" transform="translate(9 6)" fill="#9ad354" opacity="0.859">
              <path d="M 49.99972534179688 98.4998779296875 C 43.45164108276367 98.4998779296875 37.10022354125977 97.21776580810547 31.12189674377441 94.68914794921875 C 25.34676742553711 92.24647521972656 20.15985298156738 88.74925994873047 15.70523929595947 84.29464721679688 C 11.25062561035156 79.84004974365234 7.753411293029785 74.65313720703125 5.310725212097168 68.87800598144531 C 2.782111167907715 62.89969253540039 1.499996781349182 56.54829406738281 1.499996781349182 50.00022125244141 C 1.499996781349182 43.45157623291016 2.782111167907715 37.10017776489258 5.310725212097168 31.12186431884766 C 7.753411293029785 25.34673500061035 11.25062561035156 20.15983581542969 15.70523929595947 15.70522117614746 C 20.15985298156738 11.25062084197998 25.34676742553711 7.753406524658203 31.12189674377441 5.31073522567749 C 37.10022354125977 2.782120943069458 43.45164108276367 1.500006556510925 49.99972534179688 1.500006556510925 C 56.54780960083008 1.500006556510925 62.89922714233398 2.782120943069458 68.87755584716797 5.31073522567749 C 74.65267944335938 7.753406524658203 79.839599609375 11.25062084197998 84.29421234130859 15.70522117614746 C 88.74882507324219 20.15983581542969 92.24604034423828 25.34673500061035 94.68872833251953 31.12186431884766 C 97.21733856201172 37.10017776489258 98.49945068359375 43.45157623291016 98.49945068359375 49.99964904785156 C 98.49945068359375 56.54829406738281 97.21733856201172 62.89969253540039 94.68872833251953 68.87800598144531 C 92.24604034423828 74.65313720703125 88.74882507324219 79.84004974365234 84.29421234130859 84.29464721679688 C 79.839599609375 88.74925994873047 74.65267944335938 92.24647521972656 68.87755584716797 94.68914794921875 C 62.89922714233398 97.21776580810547 56.54780960083008 98.4998779296875 49.99972534179688 98.4998779296875 Z" stroke="none"/>
              <path d="M 49.99972534179688 3 C 43.65348052978516 3 37.49866485595703 4.242240905761719 31.70623016357422 6.692230224609375 C 26.10989379882812 9.059272766113281 21.08323669433594 12.44853210449219 16.76589202880859 16.76587677001953 C 12.44855499267578 21.08321380615234 9.059295654296875 26.10985565185547 6.692230224609375 31.70618438720703 C 4.24224853515625 37.49859619140625 3 43.65341186523438 3 50.00022888183594 C 3 56.34645843505859 4.24224853515625 62.50127410888672 6.692230224609375 68.29368591308594 C 9.059295654296875 73.8900146484375 12.44855499267578 78.91665649414062 16.76589202880859 83.23399353027344 C 21.08323669433594 87.55132293701172 26.10989379882812 90.94059753417969 31.70623016357422 93.30764007568359 C 37.49866485595703 95.75762939453125 43.65348052978516 96.99987030029297 49.99972534179688 96.99987030029297 C 56.34597015380859 96.99987030029297 62.50078582763672 95.75762939453125 68.293212890625 93.30764007568359 C 73.88955688476562 90.94059753417969 78.91621398925781 87.55132293701172 83.23355865478516 83.23399353027344 C 87.55089569091797 78.91665649414062 90.94015502929688 73.8900146484375 93.30722045898438 68.29368591308594 C 95.7572021484375 62.50127410888672 96.99945068359375 56.34645843505859 96.99945068359375 49.99964141845703 C 96.99945068359375 43.65341186523438 95.7572021484375 37.49859619140625 93.30722045898438 31.70618438720703 C 90.94015502929688 26.10985565185547 87.55089569091797 21.08321380615234 83.23355865478516 16.76587677001953 C 78.91621398925781 12.44853210449219 73.88955688476562 9.059272766113281 68.293212890625 6.692230224609375 C 62.50078582763672 4.242240905761719 56.34597015380859 3 49.99972534179688 3 M 49.99972534179688 0 C 77.61381530761719 0 99.99945068359375 22.38559722900391 99.99945068359375 49.99964141845703 L 99.99945068359375 50.00022888183594 C 99.99945068359375 77.6142578125 77.61381530761719 99.99987030029297 49.99972534179688 99.99987030029297 C 22.38563537597656 99.99987030029297 0 77.6142578125 0 50.00022888183594 L 0 49.99964141845703 C 0 22.38559722900391 22.38563537597656 0 49.99972534179688 0 Z" stroke="none" fill="#fff"/>
            </g>
          </g>
          <g id="Path_874923" data-name="Path 874923" transform="translate(0 0)" fill="none">
            <path d="M50,0a50,50,0,0,1,50,50h0A50,50,0,0,1,0,50H0A50,50,0,0,1,50,0Z" stroke="none"/>
            <path d="M 49.99972534179688 3 C 43.65348052978516 3 37.49866485595703 4.242240905761719 31.70623016357422 6.692230224609375 C 26.10989379882812 9.059272766113281 21.08323669433594 12.44853210449219 16.76589202880859 16.76587677001953 C 12.44855499267578 21.08321380615234 9.059295654296875 26.10985565185547 6.692230224609375 31.70618438720703 C 4.24224853515625 37.49859619140625 3 43.65341186523438 3 50.00022888183594 C 3 56.34645843505859 4.24224853515625 62.50127410888672 6.692230224609375 68.29368591308594 C 9.059295654296875 73.8900146484375 12.44855499267578 78.91665649414062 16.76589202880859 83.23399353027344 C 21.08323669433594 87.55132293701172 26.10989379882812 90.94059753417969 31.70623016357422 93.30764007568359 C 37.49866485595703 95.75762939453125 43.65348052978516 96.99987030029297 49.99972534179688 96.99987030029297 C 56.34597015380859 96.99987030029297 62.50078582763672 95.75762939453125 68.293212890625 93.30764007568359 C 73.88955688476562 90.94059753417969 78.91621398925781 87.55132293701172 83.23355865478516 83.23399353027344 C 87.55089569091797 78.91665649414062 90.94015502929688 73.8900146484375 93.30722045898438 68.29368591308594 C 95.7572021484375 62.50127410888672 96.99945068359375 56.34645843505859 96.99945068359375 49.99964141845703 C 96.99945068359375 43.65341186523438 95.7572021484375 37.49859619140625 93.30722045898438 31.70618438720703 C 90.94015502929688 26.10985565185547 87.55089569091797 21.08321380615234 83.23355865478516 16.76587677001953 C 78.91621398925781 12.44853210449219 73.88955688476562 9.059272766113281 68.293212890625 6.692230224609375 C 62.50078582763672 4.242240905761719 56.34597015380859 3 49.99972534179688 3 M 49.99972534179688 0 C 77.61381530761719 0 99.99945068359375 22.38559722900391 99.99945068359375 49.99964141845703 L 99.99945068359375 50.00022888183594 C 99.99945068359375 77.6142578125 77.61381530761719 99.99987030029297 49.99972534179688 99.99987030029297 C 22.38563537597656 99.99987030029297 0 77.6142578125 0 50.00022888183594 L 0 49.99964141845703 C 0 22.38559722900391 22.38563537597656 0 49.99972534179688 0 Z" stroke="none" fill="#fff"/>
          </g>
        </g>
      </g>
    </g>
    <g id="Group_1200290" data-name="Group 1200290" transform="translate(826.851 2535.982)">
      <g id="Group_1200289" data-name="Group 1200289" clip-path="url(#clip-path)">
        <path id="Path_1033370" data-name="Path 1033370" d="M25.417,16.9c3.86.02,4.126,5.717.3,6.06-2.791.251-5.963-.188-8.8-.016a3.045,3.045,0,0,1,.534-6.044,4.147,4.147,0,0,1,7.964,0m-9.074,3.038a.954.954,0,0,0,.825,1c2.653-.217,5.832.315,8.42.01,1.944-.229.761-2.977-.82-1.637-1.856,0-.824-1.713-1.817-2.772a2.151,2.151,0,0,0-3.562.977c-.11.558.174,1.19-.462,1.549-.725.41-2.586-.861-2.584.874" transform="translate(-8.146 -7.872)" fill="#020202"/>
        <path id="Path_1033371" data-name="Path 1033371" d="M109.975,7.644c3.86.02,4.126,5.717.3,6.06-2.791.251-5.963-.188-8.8-.016a3.045,3.045,0,0,1,.534-6.044,4.149,4.149,0,0,1,7.964,0M100.9,10.682a.954.954,0,0,0,.825,1c2.653-.217,5.832.315,8.42.01,1.944-.229.761-2.977-.82-1.637-1.856,0-.824-1.713-1.817-2.772a2.16,2.16,0,0,0-3.562.977c-.11.558.174,1.19-.462,1.549-.725.41-2.586-.861-2.584.874" transform="translate(-55.986 -2.637)" fill="#020202"/>
        <path id="Path_1033372" data-name="Path 1033372" d="M71.647,13.207a4.08,4.08,0,1,1-4.079-4.078,4.079,4.079,0,0,1,4.079,4.078m-5.778,1.008c.159.266.162.469.509.686,2.291,1.438,4.734-1.841,2.258-3.326-.059-.036-.1-.187-.3-.261a2.073,2.073,0,0,0-2.79,2.408c.081.345.235.348.322.493" transform="translate(-35.917 -5.165)" fill="#040303"/>
        <rect id="Rectangle_408968" data-name="Rectangle 408968" width="2.138" height="3.017" transform="translate(30.58 13.074)"/>
        <rect id="Rectangle_408969" data-name="Rectangle 408969" width="2.138" height="3.017" transform="translate(30.58)"/>
        <rect id="Rectangle_408970" data-name="Rectangle 408970" width="3.018" height="2.011" transform="translate(36.742 7.039)"/>
        <rect id="Rectangle_408971" data-name="Rectangle 408971" width="3.018" height="2.011" transform="translate(23.538 7.04)"/>
        <rect id="Rectangle_408972" data-name="Rectangle 408972" width="2.952" height="2.063" transform="translate(34.969 3.332) rotate(-45.008)" fill="#080808"/>
        <rect id="Rectangle_408973" data-name="Rectangle 408973" width="2.063" height="2.952" transform="matrix(0.707, -0.707, 0.707, 0.707, 24.783, 2.703)" fill="#080808"/>
        <rect id="Rectangle_408974" data-name="Rectangle 408974" width="2.063" height="2.952" transform="translate(34.969 12.76) rotate(-45.012)" fill="#080808"/>
        <rect id="Rectangle_408975" data-name="Rectangle 408975" width="2.952" height="2.063" transform="matrix(0.707, -0.707, 0.707, 0.707, 24.783, 13.388)" fill="#080808"/>
        <path id="Path_1033373" data-name="Path 1033373" d="M18.876,22.577c0-1.735,1.86-.464,2.584-.874.635-.359.351-.991.462-1.549a2.151,2.151,0,0,1,3.562-.977c.993,1.059-.038,2.772,1.817,2.772a.542.542,0,0,1-.2.363,2.364,2.364,0,0,1-.871.265c-2.291.252-5.018-.189-7.356,0" transform="translate(-10.679 -10.509)" fill="#2f77e2"/>
        <path id="Path_1033374" data-name="Path 1033374" d="M18.876,26.493c2.338-.188,5.065.253,7.356,0a2.364,2.364,0,0,0,.871-.265.542.542,0,0,0,.2-.363c1.581-1.341,2.764,1.408.82,1.637-2.588.305-5.767-.227-8.42-.01a.954.954,0,0,1-.825-1" transform="translate(-10.679 -14.425)" fill="#2762b9"/>
        <path id="Path_1033375" data-name="Path 1033375" d="M103.428,13.323c0-1.735,1.86-.464,2.584-.874.635-.359.351-.991.462-1.549a2.16,2.16,0,0,1,3.562-.977c.993,1.059-.038,2.772,1.817,2.772a.542.542,0,0,1-.2.363,2.367,2.367,0,0,1-.871.265c-2.291.252-5.018-.189-7.356,0" transform="translate(-58.513 -5.278)" fill="#2f77e2"/>
        <path id="Path_1033376" data-name="Path 1033376" d="M103.428,17.23c2.338-.188,5.065.253,7.356,0a2.367,2.367,0,0,0,.871-.265.542.542,0,0,0,.2-.363c1.581-1.341,2.764,1.408.82,1.637-2.588.305-5.767-.227-8.42-.01a.954.954,0,0,1-.825-1" transform="translate(-58.513 -9.184)" fill="#2762b9"/>
        <path id="Path_1033377" data-name="Path 1033377" d="M71.238,14.243a2.231,2.231,0,0,1-2.766,2.64c-.087-.145-.241-.148-.323-.493a2.073,2.073,0,0,1,2.79-2.408c.2.074.24.225.3.261" transform="translate(-38.52 -7.832)" fill="#eac85f"/>
        <path id="Path_1033378" data-name="Path 1033378" d="M68.971,17.4a2.231,2.231,0,0,0,2.766-2.64c2.476,1.485.033,4.764-2.258,3.326-.347-.218-.349-.42-.509-.686" transform="translate(-39.019 -8.352)" fill="#eba343"/>
        <path id="Path_1033379" data-name="Path 1033379" d="M.053,41.379c.006-.669,0-1.343,0-2.011H16.715c.262,0,.64.542.684.824a28.314,28.314,0,0,1,0,4.385c-.158,1.008-1.229.834-2.005.824.072.467-.158,1.351.128,1.7a17.339,17.339,0,0,0,1.646,1.371,23.8,23.8,0,0,0,28.119.732,19.411,19.411,0,0,0,2.557-2.1c.263-.461.058-1.176.12-1.7-.776.01-1.847.184-2.005-.824a28.313,28.313,0,0,1,0-4.385c.044-.282.422-.824.684-.824H63.3c0,.668-.005,1.342,0,2.011H47.962c0,.334,0,.672,0,1.006s0,.672,0,1.006H63.3c0,.669,0,1.343,0,2.012H50.1V64.509h9.494c.262,0,.64.542.684.824a29.9,29.9,0,0,1-.02,4.491c-.211.943-1.394.7-2.111.718V82.61H63.3c-.005.668,0,1.342,0,2.011H.053c0-.669.005-1.343,0-2.011H5.209V70.543c-.7,0-1.913.172-2.111-.719a29.662,29.662,0,0,1-.02-4.491c.056-.363.455-.824.81-.824h9.494V45.4H.053c0-.669,0-1.342,0-2.012H15.4c0-.334,0-.672,0-1.006s0-.672,0-1.006H.053ZM25.58,54.7v5.091c0,.31-.621.686-.946.7-1.052.044-2.2-2.176-3.249-2.51-1.067.73-3.069,4.153-3.982,1.561l-.018-8.4-1.991-1.466V64.509h5.344c.262,0,.64.542.684.824a29.9,29.9,0,0,1-.019,4.491c-.2.9-1.28.721-1.985.718V82.61h8.174V81.6c-.891.011-1.882.195-2.015-.939a5.88,5.88,0,0,1,.634-3.9c.393-.512,1.458-1.018,1.565-1.2.529-.9.369-3.812,1.646-4.011a27.94,27.94,0,0,1,4.274-.013c.474.043.723.1.964.545.427.784.565,3.135.882,3.58.211.3,1.409.484,1.95,1.634a8.54,8.54,0,0,1,.229,3.681c-.252.8-1.294.614-1.956.621V82.61h8.174V70.543c-.706,0-1.784.18-1.985-.718a29.9,29.9,0,0,1-.02-4.491c.044-.282.422-.824.684-.824h5.344V49.8l-1.988,1.47-.021,8.275c-.91,2.59-2.92-.829-3.981-1.565-.345-.06-2.226,2.556-3.25,2.514-.324-.013-.946-.39-.946-.7V54.83l-2.012.251c-.175,2.047.236,4.477,0,6.477a1,1,0,0,1-1.559.8C33.724,62.1,32,59.939,31.7,59.992c-1.172.632-3.042,4.05-4.1,1.681l-.014-6.586Zm-6.162,1.634c0,.186-.062.5.063.628C21.086,55,21.9,55,23.506,56.966c.124-.133.057-.442.062-.628.019-.745,0-1.5-.017-2.246a23.876,23.876,0,0,1-4.132-1.777c.023,1.338-.035,2.685,0,4.022m20.371-.125c.005.251,0,.5,0,.754.715-.25,1.3-1.464,2.084-1.507.729-.04,1.493,1.08,2,1.506.122-.19.057-.522.062-.753.025-1.255-.017-2.517,0-3.771l-4.093,1.752a10.421,10.421,0,0,0-.055,2.019M29.6,58.349c0,.186-.062.5.062.628,1.6-1.922,2.444-1.963,4.025,0,.124-.133.057-.442.062-.628.026-1-.018-2.014,0-3.016a13.693,13.693,0,0,1-2.96.131c-.358-.011-.674-.133-1-.136-.267,0-.162-.005-.191.189a20.964,20.964,0,0,0,0,2.832M5.209,68.532H19.42V66.518H5.209Zm38.728,0H58.148V66.518H43.937Zm-26.531,2.01H7.221V82.61H9.233c-.623-5.351,6.792-5.364,6.162,0h2.012Zm38.73,0H45.951V82.61h2.012c-.628-5.282,6.809-5.384,6.161,0h2.012ZM32.748,73.559c-.741-.081-1.619.048-2.377.013l-.39,2c.418.006.84-.007,1.258,0,.711.012,1.427-.009,2.138,0L33,73.64c-.028-.145-.162-.07-.256-.081m3.018,4.9a.958.958,0,0,0-.94-.882,42.928,42.928,0,0,0-6.293,0c-1.142.132-.948,1.143-.941,2.015,2.345-.035,4.7.045,7.042,0,.376-.007.756.006,1.133,0-.034-.361.046-.783,0-1.132M13.383,82.61c.522-2.707-2.661-2.756-2.138,0Zm38.73,0c.483-2.728-2.5-2.725-2.012,0ZM33.753,81.6H29.6V82.61h4.15Z" transform="translate(-0.03 -22.272)" fill="#010101"/>
        <path id="Path_1033380" data-name="Path 1033380" d="M95.681,73.243c-.523-.043-1.738-1.807-2.058-1.751-.712.491-1.223,1.568-2.092,1.751a10.456,10.456,0,0,1,.055-2.019l4.093-1.752c-.016,1.255.026,2.517,0,3.771" transform="translate(-51.771 -39.303)" fill="#6abf47"/>
        <path id="Path_1033381" data-name="Path 1033381" d="M95.7,75.873c0,.231.06.563-.062.753-.51-.426-1.274-1.546-2-1.506-.781.043-1.368,1.257-2.084,1.507-.006-.251,0-.5,0-.754.869-.183,1.381-1.26,2.092-1.751.32-.056,1.535,1.708,2.058,1.751" transform="translate(-51.795 -41.933)" fill="#559c39"/>
        <path id="Path_1033382" data-name="Path 1033382" d="M44.633,73.2c-.034-1.338.024-2.685,0-4.023a23.841,23.841,0,0,0,4.131,1.777c.02.745.036,1.5.017,2.246-.44-.231-1.785-1.941-2.183-1.872Z" transform="translate(-25.244 -39.139)" fill="#ebc960"/>
        <path id="Path_1033383" data-name="Path 1033383" d="M48.779,76c0,.186.062.5-.062.628-1.606-1.964-2.42-1.964-4.025,0-.124-.133-.058-.442-.063-.628L46.6,74.131c.4-.069,1.743,1.641,2.183,1.872" transform="translate(-25.241 -41.938)" fill="#f2a745"/>
        <path id="Path_1033384" data-name="Path 1033384" d="M68.033,79.14a21.035,21.035,0,0,1,0-2.832c.03-.195-.076-.192.191-.189.325,0,.641.125,1,.136a13.669,13.669,0,0,0,2.96-.131c-.017,1,.026,2.014,0,3.016l-2.058-1.876Z" transform="translate(-38.459 -43.062)" fill="#cf3f34"/>
        <path id="Path_1033385" data-name="Path 1033385" d="M72.233,80.632c0,.186.062.5-.062.628-1.582-1.963-2.425-1.922-4.025,0-.124-.133-.058-.442-.063-.628l2.092-1.876Z" transform="translate(-38.51 -44.555)" fill="#a92b24"/>
        <path id="Path_1033386" data-name="Path 1033386" d="M71.62,128.091l-1.132,1.131c-2.344.046-4.7-.034-7.042,0-.007-.872-.2-1.882.941-2.015a43.052,43.052,0,0,1,6.293,0,.958.958,0,0,1,.94.883" transform="translate(-35.884 -71.901)" fill="#3078e4"/>
        <path id="Path_1033387" data-name="Path 1033387" d="M71.737,118.066a2.145,2.145,0,0,1-1.509,2.011c-.418-.007-.84.006-1.258,0l.39-2c.758.035,1.636-.094,2.377-.013" transform="translate(-39.019 -66.779)" fill="#d6e6fa"/>
        <rect id="Rectangle_408976" data-name="Rectangle 408976" width="4.15" height="1.006" transform="translate(29.574 59.333)" fill="#fefefe"/>
        <path id="Path_1033388" data-name="Path 1033388" d="M73.375,118.089c.1.01.228-.065.256.081L74,120.1c-.711-.008-1.427.012-2.138,0a2.145,2.145,0,0,0,1.509-2.011" transform="translate(-40.657 -66.801)" fill="#bcd6f6"/>
        <path id="Path_1033389" data-name="Path 1033389" d="M80.816,129.391c.047.349-.033.77,0,1.132-.376,0-.756-.008-1.132,0Z" transform="translate(-45.08 -73.201)" fill="#2762b9"/>
        <path id="Path_1033390" data-name="Path 1033390" d="M13.31,101.887c.132.587.906.947,1.446,1.008H26.138V103.9H11.927v-2.013Z" transform="translate(-6.748 -57.641)" fill="#2763ba"/>
        <path id="Path_1033391" data-name="Path 1033391" d="M15.112,101.887H27.94v1.008H16.558c-.54-.061-1.315-.421-1.446-1.008" transform="translate(-8.549 -57.641)" fill="#3078e5"/>
        <path id="Path_1033392" data-name="Path 1033392" d="M26.745,111.155v12.068H24.734c.63-5.364-6.785-5.351-6.162,0H16.56V111.155Zm-6.161,2.011H18.572v4.023h2.012Zm4.15,0H22.722v4.023h2.012Z" transform="translate(-9.369 -62.884)" fill="#3078e5"/>
        <path id="Path_1033393" data-name="Path 1033393" d="M27.888,136.275H25.75c-.523-2.756,2.659-2.707,2.138,0" transform="translate(-14.535 -75.937)" fill="#2661b7"/>
        <rect id="Rectangle_408977" data-name="Rectangle 408977" width="2.012" height="4.023" transform="translate(9.203 50.282)"/>
        <rect id="Rectangle_408978" data-name="Rectangle 408978" width="2.012" height="4.023" transform="translate(13.353 50.282)"/>
        <path id="Path_1033394" data-name="Path 1033394" d="M.024,53.262H13.353V72.369H3.859c-.355,0-.753.462-.809.824a29.725,29.725,0,0,0,.02,4.491c.2.891,1.41.714,2.111.718V90.471H.024c-.055-7.036,0-14.082,0-21.119,1-.138,2.849.517,3.02-.94a27.57,27.57,0,0,0,0-4.031C2.9,62.745,1.178,63.47.024,63.318c0-.669,0-1.342,0-2.011,1.154-.152,2.876.573,3.023-1.063a27.57,27.57,0,0,0,0-4.031c-.171-1.457-2.022-.8-3.02-.94,0-.669,0-1.342,0-2.011M5.9,55.3a.965.965,0,0,0-.722.913,27.745,27.745,0,0,0,0,4.154.971.971,0,0,0,.625.884,29.638,29.638,0,0,0,4.473.059.971.971,0,0,0,.884-.624,29.56,29.56,0,0,0,.059-4.472.955.955,0,0,0-.944-.943A28.56,28.56,0,0,0,5.9,55.3m0,8.045a.965.965,0,0,0-.722.913,27.745,27.745,0,0,0,0,4.154A.971.971,0,0,0,5.8,69.3a29.635,29.635,0,0,0,4.473.059.972.972,0,0,0,.884-.625,29.554,29.554,0,0,0,.059-4.472.954.954,0,0,0-.944-.943,28.451,28.451,0,0,0-4.377.03" transform="translate(0 -30.132)" fill="#d14034"/>
        <path id="Path_1033395" data-name="Path 1033395" d="M2.442,44c.184.716.933.928,1.573,1l11.379,0c0,.334,0,.672,0,1.006H.053c0-.669-.005-1.342,0-2.011Z" transform="translate(-0.029 -24.892)" fill="#a92b24"/>
        <path id="Path_1033396" data-name="Path 1033396" d="M.055,63.887c0-.669,0-1.342,0-2.011H1.061l0-1.939L.055,59.865c0-.669,0-1.342,0-2.011,1,.138,2.85-.517,3.021.94a27.754,27.754,0,0,1,0,4.031c-.148,1.635-1.87.911-3.024,1.063" transform="translate(-0.031 -32.712)" fill="#010000"/>
        <path id="Path_1033397" data-name="Path 1033397" d="M.055,62.525l1.008.073,0,1.939H.055c0-.669,0-1.342,0-2.011" transform="translate(-0.031 -35.373)" fill="#a92b24"/>
        <path id="Path_1033398" data-name="Path 1033398" d="M.055,82.409V80.4H1.061l0-1.939L.055,78.387c0-.669,0-1.342,0-2.011,1.154.152,2.876-.573,3.024,1.062a27.754,27.754,0,0,1,0,4.031c-.171,1.457-2.022.8-3.021.94" transform="translate(-0.031 -43.19)" fill="#010000"/>
        <path id="Path_1033399" data-name="Path 1033399" d="M.055,81.051l1.008.072,0,1.94H.055c0-.669,0-1.342,0-2.011" transform="translate(-0.031 -45.853)" fill="#a92b24"/>
        <path id="Path_1033400" data-name="Path 1033400" d="M5.557,44q6.473,0,12.952,0c0,.334,0,.672,0,1.007L7.13,45c-.641-.076-1.39-.288-1.573-1" transform="translate(-3.144 -24.891)" fill="#d14034"/>
        <path id="Path_1033401" data-name="Path 1033401" d="M12.54,76.352a28.51,28.51,0,0,1,4.377-.03.954.954,0,0,1,.943.943,29.561,29.561,0,0,1-.059,4.472.97.97,0,0,1-.884.624,29.574,29.574,0,0,1-4.473-.059.97.97,0,0,1-.625-.884,27.573,27.573,0,0,1,0-4.154.964.964,0,0,1,.721-.913m1.292,1.982v2.015h2.018V78.336Z" transform="translate(-6.642 -43.139)" fill="#010000"/>
        <rect id="Rectangle_408979" data-name="Rectangle 408979" width="1.009" height="2.015" transform="translate(7.189 35.195)" fill="#da665d"/>
        <rect id="Rectangle_408980" data-name="Rectangle 408980" width="1.009" height="2.014" transform="translate(8.197 35.196)" fill="#a92b24"/>
        <path id="Path_1033402" data-name="Path 1033402" d="M12.54,57.827a28.511,28.511,0,0,1,4.377-.03.954.954,0,0,1,.943.943,29.561,29.561,0,0,1-.059,4.472.97.97,0,0,1-.884.624,29.573,29.573,0,0,1-4.473-.059.97.97,0,0,1-.625-.884,27.573,27.573,0,0,1,0-4.154.964.964,0,0,1,.721-.913m1.292,1.982v2.015h2.018V59.811Z" transform="translate(-6.642 -32.659)" fill="#010000"/>
        <rect id="Rectangle_408981" data-name="Rectangle 408981" width="1.009" height="2.014" transform="translate(8.197 27.151)" fill="#a92b24"/>
        <rect id="Rectangle_408982" data-name="Rectangle 408982" width="1.009" height="2.015" transform="translate(7.189 27.15)" fill="#da665d"/>
        <path id="Path_1033403" data-name="Path 1033403" d="M115.93,111.155v12.068h-2.012c.648-5.384-6.789-5.282-6.161,0h-2.012V111.155Zm-6.036,2.011h-2.138v4.023h2.138Zm4.024,0h-2.012v4.023h2.012Z" transform="translate(-59.824 -62.884)" fill="#3078e5"/>
        <path id="Path_1033404" data-name="Path 1033404" d="M113.935,101.887h1.383V103.9H101.107v-1.007H112.49a1.584,1.584,0,0,0,1.446-1.008" transform="translate(-57.2 -57.641)" fill="#2763ba"/>
        <path id="Path_1033405" data-name="Path 1033405" d="M113.935,101.887a1.584,1.584,0,0,1-1.446,1.008H101.107v-1.008Z" transform="translate(-57.2 -57.641)" fill="#3078e5"/>
        <path id="Path_1033406" data-name="Path 1033406" d="M117.242,136.28h-2.012c-.484-2.725,2.495-2.728,2.012,0" transform="translate(-65.16 -75.941)" fill="#2661b7"/>
        <rect id="Rectangle_408983" data-name="Rectangle 408983" width="2.138" height="4.023" transform="translate(47.933 50.282)"/>
        <rect id="Rectangle_408984" data-name="Rectangle 408984" width="2.012" height="4.023" transform="translate(52.083 50.282)"/>
        <path id="Path_1033407" data-name="Path 1033407" d="M128.5,53.262c0,.669,0,1.342,0,2.011-1,.139-2.85-.516-3.02.94a27.693,27.693,0,0,0,0,4.031c.148,1.635,1.87.911,3.024,1.063,0,.669,0,1.342,0,2.011-1,.139-2.85-.516-3.02.94a27.693,27.693,0,0,0,0,4.031c.148,1.635,1.87.911,3.024,1.062,0,7.036.055,14.083,0,21.119h-5.156V78.4c.717-.017,1.9.225,2.111-.718a29.9,29.9,0,0,0,.02-4.491c-.044-.282-.422-.824-.684-.824H115.3V53.262ZM118.031,55.3a.965.965,0,0,0-.721.913,27.629,27.629,0,0,0,0,4.154.971.971,0,0,0,.625.884,29.638,29.638,0,0,0,4.473.059.972.972,0,0,0,.884-.624,29.562,29.562,0,0,0,.059-4.472.954.954,0,0,0-.943-.943,28.566,28.566,0,0,0-4.377.03m0,8.045a.964.964,0,0,0-.721.913,27.629,27.629,0,0,0,0,4.154.971.971,0,0,0,.625.884,29.635,29.635,0,0,0,4.473.059.972.972,0,0,0,.884-.625,29.556,29.556,0,0,0,.059-4.472.954.954,0,0,0-.943-.943,28.457,28.457,0,0,0-4.377.03" transform="translate(-65.23 -30.132)" fill="#edcb61"/>
        <path id="Path_1033408" data-name="Path 1033408" d="M125.718,44c.005.669,0,1.342,0,2.011H110.376c0-.334,0-.672,0-1.006h11.506A1.585,1.585,0,0,0,123.328,44Z" transform="translate(-62.444 -24.892)" fill="#f2a745"/>
        <path id="Path_1033409" data-name="Path 1033409" d="M141.671,57.853c0,.669,0,1.342,0,2.011h-1.007l0,1.939,1.008.073c0,.669,0,1.342,0,2.011-1.154-.152-2.876.573-3.024-1.062a27.754,27.754,0,0,1,0-4.031c.171-1.457,2.022-.8,3.021-.94" transform="translate(-78.397 -32.712)" fill="#010100"/>
        <path id="Path_1033410" data-name="Path 1033410" d="M144.39,62.524c0,.669,0,1.342,0,2.011l-1.008-.072,0-1.939Z" transform="translate(-81.116 -35.372)" fill="#f2a745"/>
        <path id="Path_1033411" data-name="Path 1033411" d="M141.671,76.379c0,.669,0,1.342,0,2.011h-1.007l0,1.939,1.008.073v2.011c-1.154-.152-2.876.573-3.024-1.062a27.754,27.754,0,0,1,0-4.031c.171-1.457,2.022-.8,3.021-.94" transform="translate(-78.397 -43.193)" fill="#010100"/>
        <path id="Path_1033412" data-name="Path 1033412" d="M144.39,81.05c0,.669,0,1.342,0,2.011l-1.008-.072,0-1.939Z" transform="translate(-81.116 -45.853)" fill="#f2a745"/>
        <path id="Path_1033413" data-name="Path 1033413" d="M123.329,44A1.585,1.585,0,0,1,121.884,45H110.377c0-.334,0-.672,0-1.007q6.473,0,12.952,0" transform="translate(-62.444 -24.891)" fill="#edcb61"/>
        <path id="Path_1033414" data-name="Path 1033414" d="M120.546,76.352a28.51,28.51,0,0,1,4.377-.03.954.954,0,0,1,.943.943,29.561,29.561,0,0,1-.059,4.472.97.97,0,0,1-.884.624,29.574,29.574,0,0,1-4.473-.059.97.97,0,0,1-.625-.884,27.571,27.571,0,0,1,0-4.154.964.964,0,0,1,.721-.913m1.292,1.982v2.015h2.018V78.336Z" transform="translate(-67.745 -43.139)" fill="#010100"/>
        <rect id="Rectangle_408985" data-name="Rectangle 408985" width="1.009" height="2.015" transform="translate(54.092 35.195)" fill="#f4b86a"/>
        <rect id="Rectangle_408986" data-name="Rectangle 408986" width="1.009" height="2.014" transform="translate(55.101 35.196)" fill="#f2a745"/>
        <path id="Path_1033415" data-name="Path 1033415" d="M120.546,57.827a28.511,28.511,0,0,1,4.377-.03.954.954,0,0,1,.943.943,29.561,29.561,0,0,1-.059,4.472.97.97,0,0,1-.884.624,29.573,29.573,0,0,1-4.473-.059.97.97,0,0,1-.625-.884,27.571,27.571,0,0,1,0-4.154.964.964,0,0,1,.721-.913m1.292,1.982v2.015h2.018V59.811Z" transform="translate(-67.745 -32.659)" fill="#010100"/>
        <rect id="Rectangle_408987" data-name="Rectangle 408987" width="1.009" height="2.014" transform="translate(55.101 27.151)" fill="#f2a745"/>
        <rect id="Rectangle_408988" data-name="Rectangle 408988" width="1.009" height="2.015" transform="translate(54.092 27.15)" fill="#f4b86a"/>
      </g>
    </g>
  </g>
</svg>
