<svg xmlns="http://www.w3.org/2000/svg" xmlns:xlink="http://www.w3.org/1999/xlink" width="118" height="118" viewBox="0 0 118 118">
  <defs>
    <filter id="Path_874925" x="0" y="0" width="118" height="118" filterUnits="userSpaceOnUse">
      <feOffset dy="3" input="SourceAlpha"/>
      <feGaussianBlur stdDeviation="3" result="blur"/>
      <feFlood flood-opacity="0.161"/>
      <feComposite operator="in" in2="blur"/>
      <feComposite in="SourceGraphic"/>
    </filter>
    <clipPath id="clip-path">
      <rect id="Rectangle_408992" data-name="Rectangle 408992" width="63.432" height="43.945" fill="none"/>
    </clipPath>
  </defs>
  <g id="Group_1200143" data-name="Group 1200143" transform="translate(-799.5 -2511.157)">
    <g id="Group_1111316" data-name="Group 1111316" transform="translate(808.5 2517.157)">
      <g id="Group_1109835" data-name="Group 1109835" transform="translate(0 0)">
        <g id="Group_1107913" data-name="Group 1107913" transform="translate(0 0)">
          <g transform="matrix(1, 0, 0, 1, -9, -6)" filter="url(#Path_874925)">
            <g id="Path_874925-2" data-name="Path 874925" transform="translate(9 6)" fill="#9ad354" opacity="0.859">
              <path d="M 49.99972534179688 98.4998779296875 C 43.45164108276367 98.4998779296875 37.10022354125977 97.21776580810547 31.12189674377441 94.68914794921875 C 25.34676742553711 92.24647521972656 20.15985298156738 88.74925994873047 15.70523929595947 84.29464721679688 C 11.25062561035156 79.84004974365234 7.753411293029785 74.65313720703125 5.310725212097168 68.87800598144531 C 2.782111167907715 62.89969253540039 1.499996781349182 56.54829406738281 1.499996781349182 50.00022125244141 C 1.499996781349182 43.45157623291016 2.782111167907715 37.10017776489258 5.310725212097168 31.12186431884766 C 7.753411293029785 25.34673500061035 11.25062561035156 20.15983581542969 15.70523929595947 15.70522117614746 C 20.15985298156738 11.25062084197998 25.34676742553711 7.753406524658203 31.12189674377441 5.31073522567749 C 37.10022354125977 2.782120943069458 43.45164108276367 1.500006556510925 49.99972534179688 1.500006556510925 C 56.54780960083008 1.500006556510925 62.89922714233398 2.782120943069458 68.87755584716797 5.31073522567749 C 74.65267944335938 7.753406524658203 79.839599609375 11.25062084197998 84.29421234130859 15.70522117614746 C 88.74882507324219 20.15983581542969 92.24604034423828 25.34673500061035 94.68872833251953 31.12186431884766 C 97.21733856201172 37.10017776489258 98.49945068359375 43.45157623291016 98.49945068359375 49.99964904785156 C 98.49945068359375 56.54829406738281 97.21733856201172 62.89969253540039 94.68872833251953 68.87800598144531 C 92.24604034423828 74.65313720703125 88.74882507324219 79.84004974365234 84.29421234130859 84.29464721679688 C 79.839599609375 88.74925994873047 74.65267944335938 92.24647521972656 68.87755584716797 94.68914794921875 C 62.89922714233398 97.21776580810547 56.54780960083008 98.4998779296875 49.99972534179688 98.4998779296875 Z" stroke="none"/>
              <path d="M 49.99972534179688 3 C 43.65348052978516 3 37.49866485595703 4.242240905761719 31.70623016357422 6.692230224609375 C 26.10989379882812 9.059272766113281 21.08323669433594 12.44853210449219 16.76589202880859 16.76587677001953 C 12.44855499267578 21.08321380615234 9.059295654296875 26.10985565185547 6.692230224609375 31.70618438720703 C 4.24224853515625 37.49859619140625 3 43.65341186523438 3 50.00022888183594 C 3 56.34645843505859 4.24224853515625 62.50127410888672 6.692230224609375 68.29368591308594 C 9.059295654296875 73.8900146484375 12.44855499267578 78.91665649414062 16.76589202880859 83.23399353027344 C 21.08323669433594 87.55132293701172 26.10989379882812 90.94059753417969 31.70623016357422 93.30764007568359 C 37.49866485595703 95.75762939453125 43.65348052978516 96.99987030029297 49.99972534179688 96.99987030029297 C 56.34597015380859 96.99987030029297 62.50078582763672 95.75762939453125 68.293212890625 93.30764007568359 C 73.88955688476562 90.94059753417969 78.91621398925781 87.55132293701172 83.23355865478516 83.23399353027344 C 87.55089569091797 78.91665649414062 90.94015502929688 73.8900146484375 93.30722045898438 68.29368591308594 C 95.7572021484375 62.50127410888672 96.99945068359375 56.34645843505859 96.99945068359375 49.99964141845703 C 96.99945068359375 43.65341186523438 95.7572021484375 37.49859619140625 93.30722045898438 31.70618438720703 C 90.94015502929688 26.10985565185547 87.55089569091797 21.08321380615234 83.23355865478516 16.76587677001953 C 78.91621398925781 12.44853210449219 73.88955688476562 9.059272766113281 68.293212890625 6.692230224609375 C 62.50078582763672 4.242240905761719 56.34597015380859 3 49.99972534179688 3 M 49.99972534179688 0 C 77.61381530761719 0 99.99945068359375 22.38559722900391 99.99945068359375 49.99964141845703 L 99.99945068359375 50.00022888183594 C 99.99945068359375 77.6142578125 77.61381530761719 99.99987030029297 49.99972534179688 99.99987030029297 C 22.38563537597656 99.99987030029297 0 77.6142578125 0 50.00022888183594 L 0 49.99964141845703 C 0 22.38559722900391 22.38563537597656 0 49.99972534179688 0 Z" stroke="none" fill="#fff"/>
            </g>
          </g>
          <g id="Path_874923" data-name="Path 874923" transform="translate(0 0)" fill="none">
            <path d="M50,0a50,50,0,0,1,50,50h0A50,50,0,0,1,0,50H0A50,50,0,0,1,50,0Z" stroke="none"/>
            <path d="M 49.99972534179688 3 C 43.65348052978516 3 37.49866485595703 4.242240905761719 31.70623016357422 6.692230224609375 C 26.10989379882812 9.059272766113281 21.08323669433594 12.44853210449219 16.76589202880859 16.76587677001953 C 12.44855499267578 21.08321380615234 9.059295654296875 26.10985565185547 6.692230224609375 31.70618438720703 C 4.24224853515625 37.49859619140625 3 43.65341186523438 3 50.00022888183594 C 3 56.34645843505859 4.24224853515625 62.50127410888672 6.692230224609375 68.29368591308594 C 9.059295654296875 73.8900146484375 12.44855499267578 78.91665649414062 16.76589202880859 83.23399353027344 C 21.08323669433594 87.55132293701172 26.10989379882812 90.94059753417969 31.70623016357422 93.30764007568359 C 37.49866485595703 95.75762939453125 43.65348052978516 96.99987030029297 49.99972534179688 96.99987030029297 C 56.34597015380859 96.99987030029297 62.50078582763672 95.75762939453125 68.293212890625 93.30764007568359 C 73.88955688476562 90.94059753417969 78.91621398925781 87.55132293701172 83.23355865478516 83.23399353027344 C 87.55089569091797 78.91665649414062 90.94015502929688 73.8900146484375 93.30722045898438 68.29368591308594 C 95.7572021484375 62.50127410888672 96.99945068359375 56.34645843505859 96.99945068359375 49.99964141845703 C 96.99945068359375 43.65341186523438 95.7572021484375 37.49859619140625 93.30722045898438 31.70618438720703 C 90.94015502929688 26.10985565185547 87.55089569091797 21.08321380615234 83.23355865478516 16.76587677001953 C 78.91621398925781 12.44853210449219 73.88955688476562 9.059272766113281 68.293212890625 6.692230224609375 C 62.50078582763672 4.242240905761719 56.34597015380859 3 49.99972534179688 3 M 49.99972534179688 0 C 77.61381530761719 0 99.99945068359375 22.38559722900391 99.99945068359375 49.99964141845703 L 99.99945068359375 50.00022888183594 C 99.99945068359375 77.6142578125 77.61381530761719 99.99987030029297 49.99972534179688 99.99987030029297 C 22.38563537597656 99.99987030029297 0 77.6142578125 0 50.00022888183594 L 0 49.99964141845703 C 0 22.38559722900391 22.38563537597656 0 49.99972534179688 0 Z" stroke="none" fill="#fff"/>
          </g>
        </g>
      </g>
    </g>
    <g id="Group_1200296" data-name="Group 1200296" transform="translate(826.784 2545.185)">
      <g id="Group_1200295" data-name="Group 1200295" clip-path="url(#clip-path)">
        <path id="Path_1033487" data-name="Path 1033487" d="M109.468,20.664c-.334-.016-.866-.391-.866-.68V17.942h-6.865c-.538,0-1.291-.874-1.484-1.361-.133-.333-.006-.9-.495-.989l-16.368-.085c-2.062-.579-1.582-2.832-1.631-4.492H79.841a3.4,3.4,0,0,1-1.379-.662,3.7,3.7,0,0,1-.662-1.5V6.933c-1,.309-4.367.723-5.081.071a1.6,1.6,0,0,1-.362-.69,1.122,1.122,0,0,1,.582-.84c1.164-.341,2.744.363,4.083-.37C78.6,4.238,80.536,1.936,82.14.82A4.2,4.2,0,0,1,83.832.037L101.123,0a4.139,4.139,0,0,1,2.409,1.178,71.34,71.34,0,0,1,5.816,5.689,3.922,3.922,0,0,1,1.114,2.349c.291,3.357-.228,7.121,0,10.522-.075.584-.383.954-.993.925M79.779,5.943a28.341,28.341,0,0,0,0,2.907.4.4,0,0,0,.186.309h2.227a3.619,3.619,0,0,1,.746.491c1.206,1.078.436,2.345.68,3.649a.476.476,0,0,0,.331.412l16.169.036a2.3,2.3,0,0,1,1.928,2.34H108.6V9.1a4.5,4.5,0,0,0-.43-.684,53.284,53.284,0,0,0-4.7-4.7,11.023,11.023,0,0,0-2.258-1.824c-5.4.2-11.121-.361-16.486-.028-1.181.073-1.289.312-2.162.993-.962.75-1.841,1.635-2.792,2.4-.307.261,0,.587.006.688" transform="translate(-47.121)" fill="#020202"/>
        <path id="Path_1033488" data-name="Path 1033488" d="M98.487,5.133c5.365-.332,11.084.225,16.486.029a11.01,11.01,0,0,1,2.258,1.824,53.333,53.333,0,0,1,4.7,4.7,4.5,4.5,0,0,1,.43.684v6.989h-6.556a2.3,2.3,0,0,0-1.928-2.34l-16.169-.036a.478.478,0,0,1-.331-.412c-.244-1.3.526-2.57-.68-3.649a3.611,3.611,0,0,0-.746-.491H93.724a.4.4,0,0,1-.186-.309,28.339,28.339,0,0,1,0-2.907Zm-.032,1.638c-1.336.223-1.377,1.782.094,1.949,2.837.323,6.254-.24,9.154,0,1.553-.175,1.607-1.8-.126-1.977-2.863-.288-6.209.186-9.123.028m13.363,0c-1.433.217-1.344,1.746-.021,1.935.938.134,2.17.055,2.038-1.168-.09-.829-1.374-.864-2.017-.767m-11.879,3.46a.917.917,0,0,0-.031,1.829c3.7.429,8.214-.327,12,0,1.15-.134,1.195-1.693-.25-1.858-3.615-.412-8.025.284-11.723.029m4.449,3.717c-.4-.5-3.669-.74-2.849,1.174.217.505,1.953.479,2.4.344a.994.994,0,0,0,.451-1.517m9.773,0a1.22,1.22,0,0,0-.638-.288,45.492,45.492,0,0,0-6.566,0,.932.932,0,0,0,.012,1.854,44.413,44.413,0,0,0,6.541,0,.96.96,0,0,0,.651-1.565m2.476-.257a.93.93,0,0,0,.218,1.832c.587.069,1.71.116,2.029-.45.8-1.419-1.3-1.593-2.247-1.382" transform="translate(-60.881 -3.272)" fill="#70bbf3"/>
        <path id="Path_1033489" data-name="Path 1033489" d="M98.323,5.335,93.374,9.417c0-.1-.313-.427-.006-.688.95-.767,1.83-1.652,2.792-2.4.873-.681.981-.919,2.162-.993" transform="translate(-60.716 -3.474)" fill="#488fc6"/>
        <path id="Path_1033490" data-name="Path 1033490" d="M110.364,19.657c3.7.255,8.107-.441,11.723-.029,1.444.165,1.4,1.724.25,1.858-3.79-.327-8.3.429-12,0a.917.917,0,0,1,.031-1.829" transform="translate(-71.306 -12.695)" fill="#020304"/>
        <path id="Path_1033491" data-name="Path 1033491" d="M105.855,9.8c2.913.159,6.26-.316,9.123-.028,1.732.174,1.678,1.8.126,1.978-2.9-.24-6.317.322-9.154,0-1.472-.167-1.431-1.727-.094-1.95" transform="translate(-68.281 -6.303)" fill="#030507"/>
        <path id="Path_1033492" data-name="Path 1033492" d="M137.76,29.861a.96.96,0,0,1-.652,1.565,44.413,44.413,0,0,1-6.541,0,.932.932,0,0,1-.012-1.854,45.492,45.492,0,0,1,6.566,0,1.22,1.22,0,0,1,.638.288" transform="translate(-84.48 -19.181)" fill="#010202"/>
        <path id="Path_1033493" data-name="Path 1033493" d="M119.179,29.961a1,1,0,0,1-.451,1.517c-.445.135-2.182.162-2.4-.344-.82-1.914,2.447-1.673,2.849-1.174" transform="translate(-75.672 -19.281)" fill="#020304"/>
        <path id="Path_1033494" data-name="Path 1033494" d="M144.1,9.97c.642-.1,1.927-.063,2.017.767.133,1.223-1.1,1.3-2.038,1.168-1.323-.189-1.412-1.718.021-1.935" transform="translate(-93.162 -6.468)" fill="#030506"/>
        <path id="Path_1033495" data-name="Path 1033495" d="M158.545,29.747c.948-.211,3.047-.037,2.247,1.382-.319.566-1.442.519-2.029.45a.93.93,0,0,1-.218-1.832" transform="translate(-102.79 -19.324)" fill="#030406"/>
        <path id="Path_1033496" data-name="Path 1033496" d="M31.22,18.1a1.6,1.6,0,0,0,.362.69c.714.651,4.08.238,5.081-.071V20.64a3.7,3.7,0,0,0,.662,1.5,3.4,3.4,0,0,0,1.379.662h1.918c.049,1.66-.431,3.913,1.631,4.492l16.368.085c.489.085.362.656.495.989.194.488.947,1.361,1.484,1.361h6.865v2.041c0,.289.532.665.866.68v2.474c-1.469.075-.505,2.687-1.132,3.755a40.489,40.489,0,0,1-3.482,3.445c-1.063.55-4.867.086-6.338.218-2.351.211-3.552,3.3-5.1,3.563-3.156.26-6.629-.244-9.747.025-1.747.151-2.674,1.515-3.957,2.475-.195.146-.425.372-.677.374V43.526c0-.9-1.357-2.123-2.2-2.378a30.517,30.517,0,0,0-6.151-.158c-1.39.15-1.779,1.177-2.123,2.356l-15.937,0A2.378,2.378,0,0,0,9.447,44.7c.022-5.647-.491-11.877-.129-17.51a3.206,3.206,0,0,1,.994-2.47c1.764-1.772,4.359-3.516,6.313-5.192a1.589,1.589,0,0,0,.368-.435c3.392-.182,7.431.369,10.7,0,.63-.071,1.05-.3,1.052-.99ZM19.36,33.427l.045-3.449c.808-.6,3.72-1.39,4.116-2.192.9-1.813-2.962-2.465-4.019-3.223-.512-.367-.458-.934-1.329-.768a1.02,1.02,0,0,0-.688.923l.008,8.642c-1.265.362-3.457.834-3.217,2.607.381,2.813,8.457,2.759,8.288-.356-.076-1.4-2.056-2.009-3.205-2.186M46.282,28.9c-3.562.511-5.269,5.143-3.114,8,.631.836,1.535,1.138,2.034,1.677.535.578.9,2.224,1.723,2.486,1.4.444,1.774-1.828,2.424-2.539.2-.215.7-.385.981-.627a5.065,5.065,0,0,0-4.047-9m1.906,14.137a.936.936,0,1,0-.936.936.936.936,0,0,0,.936-.936" transform="translate(-5.984 -11.79)" fill="#99d04b"/>
        <path id="Path_1033497" data-name="Path 1033497" d="M14.474,20.927a1.583,1.583,0,0,1-.368.435c-1.954,1.676-4.55,3.42-6.313,5.192a3.207,3.207,0,0,0-.994,2.47c-.362,5.634.151,11.863.13,17.51,0,.186-.127.425-.129.675,0,.806.015,1.614,0,2.418A2.593,2.593,0,0,1,5.32,47.709l.054-19.616a2.936,2.936,0,0,1,.934-1.168,72.078,72.078,0,0,1,6.62-5.5c.248-.17.519-.307.774-.464a3.331,3.331,0,0,1,.773-.03" transform="translate(-3.465 -13.623)" fill="#75a929"/>
        <path id="Path_1033498" data-name="Path 1033498" d="M117.514,87.841a.936.936,0,1,1-.936-.936.936.936,0,0,1,.936.936" transform="translate(-75.309 -56.595)" fill="#070903"/>
        <path id="Path_1033499" data-name="Path 1033499" d="M28.828,44c1.149.178,3.129.784,3.205,2.186.168,3.115-7.907,3.169-8.288.356C23.5,44.77,25.7,44.3,26.962,43.936l-.008-8.642a1.019,1.019,0,0,1,.687-.923c.871-.166.817.4,1.329.768,1.057.758,4.917,1.41,4.019,3.223-.4.8-3.308,1.587-4.116,2.192Zm1.344-6.047c.235-.312-1.285-.82-1.36-.74V38.45ZM27.2,45.873a2.958,2.958,0,0,0-1.36.434,2.422,2.422,0,0,0,1.236.309,4.263,4.263,0,0,0,2.843-.309c0-.394-2.365-.466-2.719-.433" transform="translate(-15.452 -22.364)" fill="#020201"/>
        <path id="Path_1033500" data-name="Path 1033500" d="M33.341,68.136l.124-.742c.354-.033,2.72.039,2.719.433a4.265,4.265,0,0,1-2.843.309" transform="translate(-21.713 -43.884)" fill="#4e5063"/>
        <path id="Path_1033501" data-name="Path 1033501" d="M39.668,43.3l-1.36.5V42.563c.076-.08,1.6.428,1.36.74" transform="translate(-24.947 -27.713)" fill="#de3c3c"/>
        <path id="Path_1033502" data-name="Path 1033502" d="M31.156,67.407l-.124.742a2.422,2.422,0,0,1-1.236-.309,2.958,2.958,0,0,1,1.36-.434" transform="translate(-19.404 -43.898)" fill="#3b3e4d"/>
        <path id="Path_1033503" data-name="Path 1033503" d="M107.955,48.934a5.065,5.065,0,0,1,4.047,9c-.281.243-.785.412-.981.627-.649.71-1.028,2.983-2.424,2.539-.824-.263-1.187-1.908-1.723-2.486-.5-.539-1.4-.841-2.034-1.677-2.155-2.855-.448-7.487,3.114-8m.525,1.823a3.2,3.2,0,0,0-2.03,5.185c.755.955,2.1,1.026,2.4,2.485.376-.086.409-.741.493-.866.377-.558,1.044-.714,1.546-1.113a3.19,3.19,0,0,0-2.412-5.69" transform="translate(-67.656 -31.825)" fill="#030201"/>
        <path id="Path_1033504" data-name="Path 1033504" d="M116.585,54.248A3.19,3.19,0,0,1,119,59.938c-.5.4-1.169.555-1.546,1.113-.416-.281-.992-.592-1.093-1.188a2.542,2.542,0,1,0,.119-4.928l-.141-.134Z" transform="translate(-75.762 -35.316)" fill="#e23d3d"/>
        <path id="Path_1033505" data-name="Path 1033505" d="M111.951,54.283l-.249.554.141.134a2.542,2.542,0,0,0-.119,4.928c.1.6.677.907,1.093,1.188-.084.125-.117.779-.493.866-.3-1.458-1.648-1.529-2.4-2.485a3.2,3.2,0,0,1,2.03-5.185" transform="translate(-71.128 -35.351)" fill="#c9322d"/>
        <path id="Path_1033506" data-name="Path 1033506" d="M116.149,58.616a2.542,2.542,0,1,0-2.542,2.542,2.542,2.542,0,0,0,2.542-2.542M114.3,58.6a.7.7,0,1,0-.7.7.7.7,0,0,0,.7-.7" transform="translate(-72.329 -36.517)" fill="#030101"/>
        <path id="Path_1033507" data-name="Path 1033507" d="M117.737,62.019a.7.7,0,1,1-.7-.7.7.7,0,0,1,.7.7" transform="translate(-75.764 -39.934)" fill="#93c748"/>
        <path id="Path_1033508" data-name="Path 1033508" d="M22.762,15.975c0,.685-.422.919-1.052.99-3.269.369-7.308-.182-10.7,0a3.331,3.331,0,0,0-.773.03c-.256.158-.526.295-.774.464a72.035,72.035,0,0,0-6.62,5.5,2.939,2.939,0,0,0-.934,1.168L1.855,43.747a2.593,2.593,0,0,0,1.484,1.917c.011-.8-.009-1.613,0-2.418,0-.249.128-.489.129-.675a2.377,2.377,0,0,1,2.042-1.359l15.937,0c.343-1.178.732-2.206,2.122-2.356a30.542,30.542,0,0,1,6.151.158c.842.255,2.2,1.475,2.2,2.378v5.257c.252,0,.482-.228.677-.374,1.283-.96,2.21-2.325,3.957-2.476,3.118-.269,6.591.235,9.747-.025,1.545-.259,2.746-3.351,5.1-3.563,1.471-.132,5.276.333,6.338-.218a40.392,40.392,0,0,0,3.482-3.445c.627-1.068-.337-3.68,1.132-3.754a.941.941,0,0,1,.982.811,8.043,8.043,0,0,1-.34,3.6,29.38,29.38,0,0,1-3.794,4c-2.017,1.661-5.514.462-7.962.945-1.616,1.035-2.6,3.191-4.691,3.473-2.95.4-6.6-.242-9.622.027a2.582,2.582,0,0,0-1.477.626c-2.626,1.866-5.1,4.679-7.745,6.481a3.277,3.277,0,0,1-1.444.659c-5.257-.279-11.111.482-16.3.037a3.26,3.26,0,0,1-1.915-.807,73.181,73.181,0,0,1-6-5.5A6.591,6.591,0,0,1,0,44.427V23.768c.271-.284.311-.68.519-1.027.686-1.148,5.842-5.212,7.216-6.268a5.121,5.121,0,0,1,3.456-1.493,84.192,84.192,0,0,1,9.906,0c.741.053,1.666.074,1.665.994M10.639,51.6c5.126.268,10.431-.12,15.552-.1L30.035,48.3c-.129-2.013.261-4.448.029-6.41a1.413,1.413,0,0,0-1.425-1.173c-1.537-.165-3.362.108-4.932.017-.28.094-.279.714-.391.97a2.148,2.148,0,0,1-1.6,1.366L5.533,43.1l-.342.173c.039,1.083-.036,2.176.005,3.258a2.724,2.724,0,0,0,.064.988c.35.35.691.713,1.048,1.055a33.787,33.787,0,0,0,2.979,2.711,1.968,1.968,0,0,0,1.352.318" transform="translate(0 -9.661)" fill="#020302"/>
        <path id="Path_1033509" data-name="Path 1033509" d="M20.316,99.827l-5.443-5.072c-.041-1.081.033-2.175-.005-3.257l.342-.173,16.181-.031a2.15,2.15,0,0,0,1.6-1.366c.112-.256.111-.876.391-.97,1.569.091,3.395-.182,4.932-.017a1.412,1.412,0,0,1,1.425,1.173c.232,1.962-.157,4.4-.028,6.41l-3.844,3.207c-5.121-.023-10.426.364-15.552.1m-.53-6.777c-.923.2-1.023,1.676.345,1.829,2.953.33,6.5-.24,9.518-.007a.928.928,0,0,0-.114-1.851Zm13.36,0a.93.93,0,0,0,.218,1.832c.826.1,2.4.106,2.146-1.149-.178-.868-1.7-.831-2.364-.683m.994,5.014a.944.944,0,0,0-.519-1.582c-3.863.315-8.343-.4-12.132.006-1.246.134-.99,1.831.247,1.859,3.687-.239,7.748.308,11.389,0a2.378,2.378,0,0,0,1.015-.285" transform="translate(-9.678 -57.886)" fill="#70baf2"/>
        <path id="Path_1033510" data-name="Path 1033510" d="M20.316,110.786a1.968,1.968,0,0,1-1.352-.318,33.787,33.787,0,0,1-2.979-2.711c-.357-.342-.7-.705-1.048-1.055a2.724,2.724,0,0,1-.064-.988Z" transform="translate(-9.678 -68.845)" fill="#4a95d0"/>
        <path id="Path_1033511" data-name="Path 1033511" d="M44.991,112.015a2.378,2.378,0,0,1-1.015.285c-3.641.306-7.7-.241-11.389,0-1.237-.028-1.493-1.725-.247-1.859,3.789-.406,8.269.309,12.132-.006a.944.944,0,0,1,.519,1.582" transform="translate(-20.529 -71.838)" fill="#030506"/>
        <path id="Path_1033512" data-name="Path 1033512" d="M27.7,100.769l9.749-.03a.929.929,0,0,1,.114,1.851c-3.017-.233-6.565.337-9.518.007-1.368-.153-1.268-1.625-.345-1.829" transform="translate(-17.588 -65.605)" fill="#010202"/>
        <path id="Path_1033513" data-name="Path 1033513" d="M65.97,100.67c.664-.148,2.187-.185,2.364.684.256,1.255-1.32,1.245-2.146,1.148a.93.93,0,0,1-.218-1.832" transform="translate(-42.502 -65.507)" fill="#030506"/>
      </g>
    </g>
  </g>
</svg>
