<svg xmlns="http://www.w3.org/2000/svg" xmlns:xlink="http://www.w3.org/1999/xlink" width="103" height="103" viewBox="0 0 103 103">
  <defs>
    <filter id="Path_874925" x="0" y="0" width="103" height="103" filterUnits="userSpaceOnUse">
      <feOffset dy="3" input="SourceAlpha"/>
      <feGaussianBlur stdDeviation="3" result="blur"/>
      <feFlood flood-opacity="0.161"/>
      <feComposite operator="in" in2="blur"/>
      <feComposite in="SourceGraphic"/>
    </filter>
    <clipPath id="clip-path">
      <rect id="Rectangle_409016" data-name="Rectangle 409016" width="43.789" height="52.588" fill="none"/>
    </clipPath>
  </defs>
  <g id="Group_1199421" data-name="Group 1199421" transform="translate(-793.782 -1841.427)">
    <g id="Group_1198308" data-name="Group 1198308" transform="translate(802.781 1847.427)">
      <g id="Group_1111316" data-name="Group 1111316" transform="translate(0 0)">
        <g id="Group_1109835" data-name="Group 1109835" transform="translate(0 0)">
          <g id="Group_1107913" data-name="Group 1107913" transform="translate(0 0)">
            <g transform="matrix(1, 0, 0, 1, -9, -6)" filter="url(#Path_874925)">
              <g id="Path_874925-2" data-name="Path 874925" transform="translate(9 6)" fill="#fdf4e9" opacity="0.859">
                <path d="M 42.49985885620117 83.50006866455078 C 36.96424865722656 83.50006866455078 31.59502410888672 82.41624450683594 26.54131698608398 80.27871704101562 C 21.65927124023438 78.21379089355469 17.27442359924316 75.25733947753906 13.50857639312744 71.49150848388672 C 9.742741584777832 67.72568511962891 6.786293983459473 63.34083557128906 4.721353054046631 58.45878601074219 C 2.583823680877686 53.40509414672852 1.5 48.03588104248047 1.5 42.50028228759766 C 1.5 36.96418762207031 2.583823680877686 31.5949764251709 4.721353054046631 26.54128074645996 C 6.786293983459473 21.65923500061035 9.742741584777832 17.27438735961914 13.50857639312744 13.50856399536133 C 17.27442359924316 9.742728233337402 21.65927124023438 6.786281585693359 26.54131698608398 4.721352100372314 C 31.59502410888672 2.58382248878479 36.96424865722656 1.499999046325684 42.49985885620117 1.499999046325684 C 48.03546905517578 1.499999046325684 53.40469360351562 2.58382248878479 58.45840072631836 4.721352100372314 C 63.34044647216797 6.786281585693359 67.72529602050781 9.742728233337402 71.49114227294922 13.50856399536133 C 75.25697326660156 17.27438735961914 78.21342468261719 21.65923500061035 80.27836608886719 26.54128074645996 C 82.4158935546875 31.5949764251709 83.49971771240234 36.96418762207031 83.49971771240234 42.49978637695312 C 83.49971771240234 48.03588104248047 82.4158935546875 53.40509414672852 80.27836608886719 58.45878601074219 C 78.21342468261719 63.34083557128906 75.25697326660156 67.72568511962891 71.49114227294922 71.49150848388672 C 67.72529602050781 75.25733947753906 63.34044647216797 78.21379089355469 58.45840072631836 80.27871704101562 C 53.40469360351562 82.41624450683594 48.03546905517578 83.50006866455078 42.49985885620117 83.50006866455078 Z" stroke="none"/>
                <path d="M 42.49985885620117 2.999992370605469 C 37.16608428955078 2.999992370605469 31.99345779418945 4.043937683105469 27.12564468383789 6.10284423828125 C 22.42239379882812 8.092155456542969 18.19780731201172 10.94065856933594 14.56922912597656 14.56922149658203 C 10.940673828125 18.19778442382812 8.0921630859375 22.42235565185547 6.102859497070312 27.12560653686523 C 4.043952941894531 31.993408203125 2.999992370605469 37.16603469848633 2.999992370605469 42.50028610229492 C 2.999992370605469 47.83404922485352 4.043952941894531 53.00666046142578 6.102859497070312 57.87445831298828 C 8.0921630859375 62.57770156860352 10.940673828125 66.80229187011719 14.56922912597656 70.43084716796875 C 18.19780731201172 74.05941009521484 22.42239379882812 76.90789794921875 27.12564468383789 78.89720916748047 C 31.99345779418945 80.95611572265625 37.16608428955078 82.00006103515625 42.49985885620117 82.00006103515625 C 47.83363342285156 82.00006103515625 53.00625610351562 80.95611572265625 57.87407302856445 78.89720916748047 C 62.57732391357422 76.90789794921875 66.80191040039062 74.05941009521484 70.43047332763672 70.43084716796875 C 74.05904388427734 66.80229187011719 76.90753936767578 62.57770156860352 78.89684295654297 57.87445831298828 C 80.95576477050781 53.00666046142578 81.99971008300781 47.83404922485352 81.99971008300781 42.49979400634766 C 81.99971008300781 37.16603469848633 80.95574951171875 31.993408203125 78.89684295654297 27.12560653686523 C 76.90753936767578 22.42235565185547 74.05904388427734 18.19778442382812 70.43047332763672 14.56922149658203 C 66.80191040039062 10.94065856933594 62.57732391357422 8.092155456542969 57.87407302856445 6.10284423828125 C 53.00625610351562 4.043937683105469 47.83363342285156 2.999992370605469 42.49985885620117 2.999992370605469 M 42.49985885620117 -7.62939453125e-06 C 65.97188568115234 -7.62939453125e-06 84.99971008300781 19.02779388427734 84.99971008300781 42.49979400634766 L 84.99971008300781 42.50028610229492 C 84.99971008300781 65.97225952148438 65.97188568115234 85.00006103515625 42.49985885620117 85.00006103515625 C 19.02783203125 85.00006103515625 -7.62939453125e-06 65.97225952148438 -7.62939453125e-06 42.50028610229492 L -7.62939453125e-06 42.49979400634766 C -7.62939453125e-06 19.02779388427734 19.02783203125 -7.62939453125e-06 42.49985885620117 -7.62939453125e-06 Z" stroke="none" fill="#fff"/>
              </g>
            </g>
            <g id="Path_874923" data-name="Path 874923" transform="translate(0 0)" fill="none">
              <path d="M42.5,0A42.5,42.5,0,0,1,85,42.5h0a42.5,42.5,0,0,1-85,0H0A42.5,42.5,0,0,1,42.5,0Z" stroke="none"/>
              <path d="M 42.49985885620117 2.999992370605469 C 37.16608428955078 2.999992370605469 31.99345779418945 4.043937683105469 27.12564468383789 6.10284423828125 C 22.42239379882812 8.092155456542969 18.19780731201172 10.94065856933594 14.56922912597656 14.56922149658203 C 10.940673828125 18.19778442382812 8.0921630859375 22.42235565185547 6.102859497070312 27.12560653686523 C 4.043952941894531 31.993408203125 2.999992370605469 37.16603469848633 2.999992370605469 42.50028610229492 C 2.999992370605469 47.83404922485352 4.043952941894531 53.00666046142578 6.102859497070312 57.87445831298828 C 8.0921630859375 62.57770156860352 10.940673828125 66.80229187011719 14.56922912597656 70.43084716796875 C 18.19780731201172 74.05941009521484 22.42239379882812 76.90789794921875 27.12564468383789 78.89720916748047 C 31.99345779418945 80.95611572265625 37.16608428955078 82.00006103515625 42.49985885620117 82.00006103515625 C 47.83363342285156 82.00006103515625 53.00625610351562 80.95611572265625 57.87407302856445 78.89720916748047 C 62.57732391357422 76.90789794921875 66.80191040039062 74.05941009521484 70.43047332763672 70.43084716796875 C 74.05904388427734 66.80229187011719 76.90753936767578 62.57770156860352 78.89684295654297 57.87445831298828 C 80.95576477050781 53.00666046142578 81.99971008300781 47.83404922485352 81.99971008300781 42.49979400634766 C 81.99971008300781 37.16603469848633 80.95574951171875 31.993408203125 78.89684295654297 27.12560653686523 C 76.90753936767578 22.42235565185547 74.05904388427734 18.19778442382812 70.43047332763672 14.56922149658203 C 66.80191040039062 10.94065856933594 62.57732391357422 8.092155456542969 57.87407302856445 6.10284423828125 C 53.00625610351562 4.043937683105469 47.83363342285156 2.999992370605469 42.49985885620117 2.999992370605469 M 42.49985885620117 -7.62939453125e-06 C 65.97188568115234 -7.62939453125e-06 84.99971008300781 19.02779388427734 84.99971008300781 42.49979400634766 L 84.99971008300781 42.50028610229492 C 84.99971008300781 65.97225952148438 65.97188568115234 85.00006103515625 42.49985885620117 85.00006103515625 C 19.02783203125 85.00006103515625 -7.62939453125e-06 65.97225952148438 -7.62939453125e-06 42.50028610229492 L -7.62939453125e-06 42.49979400634766 C -7.62939453125e-06 19.02779388427734 19.02783203125 -7.62939453125e-06 42.49985885620117 -7.62939453125e-06 Z" stroke="none" fill="#905410"/>
            </g>
          </g>
        </g>
      </g>
    </g>
    <g id="Group_1200314" data-name="Group 1200314" transform="translate(823.387 1863.632)">
      <g id="Group_1200313" data-name="Group 1200313" clip-path="url(#clip-path)">
        <path id="Path_1033696" data-name="Path 1033696" d="M10.084,0c.288.226.534.412.514.822-.042.846-.96.7-1.541.719-.751.022-1.509-.016-2.259,0V5.7c0,2.4,2.424,3.758,4.519,3.851,1.022.045,2.058-.033,3.081,0V5.29a5.072,5.072,0,0,0-.975-2.209c-.213-.265-.93-.813-1.026-1.027-.118-.261,0-.534-.053-.717.759-.848,1.515-.14,2.107.512a6.458,6.458,0,0,1,1.489,3.288c2.437-1.193,5.535.387,5.107,3.311-.155,1.061-1.479,2.646-2.592,2.646H15.938v9.962h7.7C23.5,20.663,23.185,20.393,23,20a8.634,8.634,0,0,1-.391-3.82,1.38,1.38,0,0,1,1.279-1.289c2.655-.248,5.174.177,6.117,2.983a4.473,4.473,0,0,1,3.734-.6c1.311.673.705,2.77.167,3.787h2.516a7.631,7.631,0,0,1,.84.29A2.564,2.564,0,0,1,38.59,23.1a17.369,17.369,0,0,1,.024,3.321.786.786,0,0,1-.8.587c-.72-.037-.7-.609-.719-1.13-.031-.681.186-2.58-.28-2.983a2.983,2.983,0,0,0-.7-.3H32.062c0,1.094.006,2.193,0,3.286a26.914,26.914,0,0,1,0,3.438.8.8,0,0,1-1.536,0,26.937,26.937,0,0,1,0-3.438c-.006-1.094,0-2.193,0-3.286H26.362c-.147.09-.142.2-.159.354-.1.841.01,2.041.005,2.932-.034,5.842-.423,12.828.1,18.537a21.081,21.081,0,0,0,1.848,6.625h7.6c-1.487-2.1-3.265-3.839-4.259-6.268-1.508-3.685-.84-7.463-.983-11.35.081-.447.261-.658.723-.664a.771.771,0,0,1,.819.567c.17,3.364-.454,6.932.617,10.167.981,2.963,3.377,5,5.034,7.547H42.23c.029-.17-.081-.275-.163-.4-.94-1.459-2.249-2.653-3.141-4.253C36,41.151,37.427,35.164,37.089,29.42a.749.749,0,0,1,.724-.662c.475-.025.7.228.816.673.346,6.084-1.256,12,2.387,17.332.579.848,2.39,2.751,2.656,3.506a1.678,1.678,0,0,1-1.49,2.32L1.327,52.56A1.686,1.686,0,0,1,.117,50.269c.264-.751,2.077-2.651,2.656-3.506a20.924,20.924,0,0,0,1.249-2.14,1.046,1.046,0,0,1,.926-.255c.026.2.42.256.422.769.005,1.311-2.874,4.3-3.648,5.5-.082.127-.192.233-.163.4H6.078c1.531-2.388,3.843-4.371,4.877-7.088.308-.809.351-2.37,1.388-2.258,1.088.118.43,1.764.207,2.415-.918,2.684-2.872,4.652-4.52,6.88,1.294.089,2.6.055,3.9.051,1.208,0,2.42,0,3.629,0a17.909,17.909,0,0,0,1.916-6.527c.158-2.358-.3-5.353.01-7.59.074-.525.287-.78.812-.78s.739.255.812.78a42.734,42.734,0,0,1-.092,6.77,20.537,20.537,0,0,1-.36,3.235,31.351,31.351,0,0,1-1.285,4.107h9.038c-.248-.866-.641-1.678-.9-2.545a22.849,22.849,0,0,1-.856-5.512c-.221-5.6.033-11.467,0-17.1-.005-1.094,0-2.193,0-3.286H19.122c0,1.162.005,2.329,0,3.492a55.134,55.134,0,0,1-.009,6.1c-.072.509-.291.8-.812.78-.192-.006-.719-.184-.719-.359V27.885c0-.171-.1-.568-.1-.873-.028-1.469.021-2.946,0-4.416H13.268v17c0,.268-.529.579-.822.565-.246-.012-.719-.345-.719-.565V22.7H7.259c-.172,0-.68.815-.569,1.074-.279,5.466.387,11.324,0,16.743a8.828,8.828,0,0,1-.33,1.827c-.262.548-.649.357-.9.485-.237-.214-.588-.416-.612-.775-.028-.417.275-1.5.308-2.045.324-5.43-.252-11.178,0-16.641a2.684,2.684,0,0,1,2.207-2.312H14.4V11.093h-4.16c-1.763,0-3.978-2.059-4.573-3.644a18,18,0,0,1-.4-6.053A1.823,1.823,0,0,1,6.489,0Zm5.854,9.551h2.311c.422,0,1.141-.8,1.239-1.225.355-1.53-1.125-2.233-2.45-1.937-.367.082-1.1.829-1.1,1.16ZM26.106,20.747a7.708,7.708,0,0,0,2.568.205V18.642A5.779,5.779,0,0,0,28,17.367a2.915,2.915,0,0,0-2.61-.933c-.41,0-.823,0-1.232,0v2.105a2.83,2.83,0,0,0,1.951,2.208m6.882-2.054a2.158,2.158,0,0,0-2.774,2.26c1.567.2,2.8-.6,2.774-2.26" transform="translate(0 -0.001)" fill="#030302"/>
        <path id="Path_1033697" data-name="Path 1033697" d="M15.241,185.557c.252-.128.639.062.9-.485a8.828,8.828,0,0,0,.33-1.827c.385-5.419-.282-11.278,0-16.743-.111-.259.4-1.074.569-1.074h4.468v16.895c0,.22.473.553.719.565l-.1,1.541c-1.037-.113-1.08,1.448-1.388,2.258-1.034,2.717-3.346,4.7-4.877,7.088H11.338c-.029-.17.081-.275.163-.4.774-1.2,3.653-4.193,3.648-5.5,0-.513-.4-.567-.422-.769a9.524,9.524,0,0,1,.514-1.541" transform="translate(-9.778 -142.73)" fill="#df9873"/>
        <path id="Path_1033698" data-name="Path 1033698" d="M233.549,188.632c.023.521,0,1.093.719,1.13v1.746a.749.749,0,0,0-.724.662c.337,5.744-1.085,11.731,1.837,16.969.893,1.6,2.2,2.794,3.141,4.253.082.127.192.233.163.4h-4.519c-1.657-2.546-4.053-4.584-5.034-7.547-1.071-3.235-.447-6.8-.617-10.167a.771.771,0,0,0-.819-.567v-2.876a.78.78,0,0,0,.819-.567,26.938,26.938,0,0,0,0-3.438Z" transform="translate(-196.454 -162.751)" fill="#e6ac8b"/>
        <path id="Path_1033699" data-name="Path 1033699" d="M133.935,188.543c.028,5.638-.226,11.5,0,17.1a22.863,22.863,0,0,0,.856,5.512c.254.867.647,1.679.9,2.545h-9.038a31.4,31.4,0,0,0,1.285-4.107,20.537,20.537,0,0,0,.359-3.235,42.7,42.7,0,0,0,.092-6.77c-.074-.525-.287-.78-.812-.78v-3.184c.522.016.741-.27.812-.78a55.132,55.132,0,0,0,.009-6.1,32.938,32.938,0,0,1,5.546-.205" transform="translate(-109.267 -162.662)" fill="#e7ac8b"/>
        <path id="Path_1033700" data-name="Path 1033700" d="M194.263,188.632a26.941,26.941,0,0,0,0,3.438.781.781,0,0,0,.717.567v2.876c-.463.006-.643.216-.723.663.144,3.887-.524,7.665.983,11.35.994,2.43,2.772,4.164,4.259,6.268h-7.6a21.081,21.081,0,0,1-1.848-6.626c-.526-5.709-.137-12.7-.1-18.537Z" transform="translate(-163.741 -162.751)" fill="#e09873"/>
        <path id="Path_1033701" data-name="Path 1033701" d="M92.516,196.866c.006.305.1.7.1.873v4.724c0,.175.527.354.719.359v3.184c-.526,0-.738.255-.812.78-.314,2.237.148,5.232-.01,7.59A17.908,17.908,0,0,1,90.6,220.9c-1.209,0-2.421-.008-3.629,0a28.475,28.475,0,0,0,1.515-3.056c1.693-4.6.491-10.785.844-15.692a6.562,6.562,0,0,1,3.188-5.285" transform="translate(-75.037 -169.855)" fill="#df9773"/>
        <path id="Path_1033702" data-name="Path 1033702" d="M62.947,182.24c.293.014.822-.3.822-.565v-17h4.211c.021,1.47-.028,2.947,0,4.416a6.562,6.562,0,0,0-3.188,5.285c-.352,4.907.849,11.1-.844,15.692a28.44,28.44,0,0,1-1.515,3.056c-1.3,0-2.608.038-3.9-.051,1.648-2.228,3.6-4.2,4.52-6.88.223-.651.882-2.3-.207-2.415Z" transform="translate(-50.5 -142.083)" fill="#d88557"/>
        <path id="Path_1033703" data-name="Path 1033703" d="M139.362,168.171c.005-1.162,0-2.329,0-3.492h5.546c0,1.094-.005,2.193,0,3.286a32.938,32.938,0,0,0-5.546.205" transform="translate(-120.24 -142.084)" fill="#dd9672"/>
        <path id="Path_1033704" data-name="Path 1033704" d="M233.677,167.965c.006-1.094,0-2.193,0-3.286h4.057a2.981,2.981,0,0,1,.7.3c.466.4.25,2.3.28,2.983Z" transform="translate(-201.614 -142.084)" fill="#dc9672"/>
        <path id="Path_1033705" data-name="Path 1033705" d="M190.723,167.965c.005-.891-.1-2.091-.005-2.932.018-.15.013-.264.159-.354h4.16c0,1.094-.006,2.193,0,3.286Z" transform="translate(-164.515 -142.084)" fill="#ca7d53"/>
        <path id="Path_1033706" data-name="Path 1033706" d="M184.9,119.766a2.915,2.915,0,0,1,2.61.933,5.78,5.78,0,0,1,.677,1.275v2.311a7.711,7.711,0,0,1-2.568-.205c-.934-1.345-.716-2.758-.719-4.314" transform="translate(-159.517 -103.333)" fill="#b9e96b"/>
        <path id="Path_1033707" data-name="Path 1033707" d="M177.279,119.761c0,1.556-.215,2.968.719,4.314a2.83,2.83,0,0,1-1.951-2.208v-2.105c.41,0,.823,0,1.232,0" transform="translate(-151.892 -103.328)" fill="#a0e32f"/>
        <path id="Path_1033708" data-name="Path 1033708" d="M222.952,135.937c.023,1.661-1.206,2.46-2.774,2.26a2.158,2.158,0,0,1,2.774-2.26" transform="translate(-189.965 -117.245)" fill="#b6e569"/>
        <path id="Path_1033709" data-name="Path 1033709" d="M69.088,6.438c.053.184-.064.456.053.717.1.214.813.762,1.026,1.027a5.072,5.072,0,0,1,.975,2.209v4.262c-1.023-.033-2.059.045-3.081,0C65.2,12.81,65.845,9.585,65.8,6.644c.581-.017,1.5.127,1.541-.719.312-.072,1.67.255,1.746.514" transform="translate(-56.745 -5.103)" fill="#baea6b"/>
        <path id="Path_1033710" data-name="Path 1033710" d="M51.8,11.2c.043,2.942-.6,6.167,2.259,8.011-2.095-.093-4.519-1.451-4.519-3.851V11.2c.751-.016,1.509.022,2.259,0" transform="translate(-42.745 -9.662)" fill="#9fe22d"/>
        <path id="Path_1033711" data-name="Path 1033711" d="M116.163,49.311v-2c0-.331.733-1.077,1.1-1.16,1.325-.3,2.805.407,2.45,1.937-.1.425-.818,1.225-1.239,1.225Z" transform="translate(-100.225 -39.76)" fill="#b8e86a"/>
      </g>
    </g>
  </g>
</svg>
