<svg xmlns="http://www.w3.org/2000/svg" xmlns:xlink="http://www.w3.org/1999/xlink" width="103" height="133" viewBox="0 0 103 133">
  <defs>
    <filter id="Rectangle_401593" x="0" y="0" width="103" height="133" filterUnits="userSpaceOnUse">
      <feOffset dy="3" input="SourceAlpha"/>
      <feGaussianBlur stdDeviation="3" result="blur"/>
      <feFlood flood-opacity="0.161"/>
      <feComposite operator="in" in2="blur"/>
      <feComposite in="SourceGraphic"/>
    </filter>
    <clipPath id="clip-path">
      <rect id="Rectangle_408705" data-name="Rectangle 408705" width="86.813" height="87.443" fill="none"/>
    </clipPath>
  </defs>
  <g id="Group_1200325" data-name="Group 1200325" transform="translate(-578.644 -2776.543)">
    <g id="Group_1199960" data-name="Group 1199960" transform="translate(587.645 2782.543)">
      <g id="Group_1182090" data-name="Group 1182090" transform="translate(0 0)">
        <g transform="matrix(1, 0, 0, 1, -9, -6)" filter="url(#Rectangle_401593)">
          <rect id="Rectangle_401593-2" data-name="Rectangle 401593" width="85" height="115" rx="8" transform="translate(9 6)" fill="#f8d1a3"/>
        </g>
      </g>
    </g>
    <g id="Group_1199961" data-name="Group 1199961" transform="translate(585.832 2810.1)">
      <g id="Group_1199489" data-name="Group 1199489" clip-path="url(#clip-path)">
        <path id="Path_1031659" data-name="Path 1031659" d="M73.587,17.269a68.359,68.359,0,0,0-7.942-.537,162.442,162.442,0,0,0-19.1.182c-.86.067-1.83.231-2.692.347-.293.039-.277.031-.26-.261a25.408,25.408,0,0,1,1.251-4.109c.75-2.174,3.558-9.438,5.472-10.419,1.97-1.009,6.423,1.039,8.911.876,2.118-.138,5.456-1.786,7.536-.942,1.878.761,4.868,8.423,5.584,10.485.2.582,1.434,4.178,1.245,4.377" transform="translate(-15.195 -0.756)" fill="#975a51"/>
        <path id="Path_1031660" data-name="Path 1031660" d="M79.651,32.6H23.589a5.211,5.211,0,0,1,2.335-3.646c1.782-1.058,7.278-1.609,9.56-1.867,11.613-1.316,28.357-1.423,39.74,1.1a5.112,5.112,0,0,1,4.427,4.41" transform="translate(-8.225 -9.127)" fill="#975a51"/>
        <path id="Path_1031661" data-name="Path 1031661" d="M107.743,113.9a5.845,5.845,0,0,1,4.432,2.8c.479.8.565,1.8,1.228,2.355.985.283,1.691-2.426,3.087-2.3a3.56,3.56,0,0,1-.079,1.079c-.17.827-1.492,2.678-.633,3.124.8.416,1.4-1.162,1.606-1.7a2.378,2.378,0,0,1,1.429.98,3.489,3.489,0,0,1,.357.984c-.72,0-.533.734-.536,1.25-.735-.115-4.489.616-5.626.713-1.188.1-2.462.087-3.659.18-.515-3.156-1.021-6.319-1.607-9.463" transform="translate(-37.566 -39.711)" fill="#c0d85e"/>
        <path id="Path_1031662" data-name="Path 1031662" d="M120.221,125.134c.265.253,1.977.9,2.593,1.424a6.591,6.591,0,0,1,1.692,2.861,3.488,3.488,0,0,1-.178,1.428c-4.327.268-9.179-.008-13.569,0a3.245,3.245,0,0,0,.178-1.25h12.14c-.3-1.79-1.542-2.345-3.069-2.871-.144-.05-.259-.332-.322-.341,0-.516-.185-1.254.535-1.25" transform="translate(-38.617 -43.629)" fill="#0f0f0f"/>
        <path id="Path_1031663" data-name="Path 1031663" d="M107.469,111.7a7.015,7.015,0,0,1,6.073,4.285c.184.143,1.411-1.1,1.909-1.211,2.888-.66,2.562,1.849,1.838,3.711-.212.543-.806,2.121-1.607,1.7-.858-.446.463-2.3.633-3.124a3.539,3.539,0,0,0,.079-1.079c-1.4-.13-2.1,2.58-3.087,2.3-.663-.551-.749-1.552-1.228-2.355a5.843,5.843,0,0,0-4.432-2.8c-.084-.453-.091-.976-.178-1.428" transform="translate(-37.47 -38.946)" fill="#131412"/>
        <path id="Path_1031664" data-name="Path 1031664" d="M131.769,131.713c.707.083,1.009.4.9,1.135-.066.272-.844.279-1.081.294a3.488,3.488,0,0,0,.178-1.428" transform="translate(-45.881 -45.923)" fill="#050404"/>
        <path id="Path_1031665" data-name="Path 1031665" d="M119.494,127.046c.064.01.179.292.322.341,1.527.526,2.768,1.081,3.069,2.871h-12.14c-.061-.6-.42-1.615-.535-2.321,1.2-.093,2.471-.079,3.659-.18,1.137-.1,4.89-.828,5.626-.713" transform="translate(-38.426 -44.292)" fill="#a5ba42"/>
        <path id="Path_1031666" data-name="Path 1031666" d="M24.962,113.06a10.13,10.13,0,0,1,1.25,0,7.276,7.276,0,0,1,5,4.106c.982-.829,1.4-1.31,2.774-1.251a3.513,3.513,0,0,1,.616.18c-.1.563.464.713.536,1.25a8.184,8.184,0,0,1-.357,2.142c-.2.518-.98,1.814-1.667,1.589-1.221-.4,1.027-2.805.594-3.731-1.453-.2-1.7,2.342-2.916,1.938-.411-.136-.619-1.356-.864-1.818-2.707-5.107-10.672-3.485-11.044,2.282-.055.851.421,1.894-.293,2.395-.75.253-1.3-.77-2.543-.052-.417.24-.589.853-1.165.8-.475-.045-1.005-1.046-1.441-1.434a6.016,6.016,0,0,0-9.37,1.782,3.607,3.607,0,0,0-.714,2.142H38.71a2.21,2.21,0,0,0-.731-1.679,9.878,9.878,0,0,0-2.3-1.178c-.034-.586-.1-1.174.535-1.428.513.359,1.559.759,2.131,1.172.745.538,1.916,1.969,1.8,2.934-.04.328-.569.963-.535,1.428-12.316-.007-25.26.509-37.494,0a3.344,3.344,0,0,1-.178-1.25c.374-6.492,8.856-9.2,13.119-4.328.293.022.591-.48.629-.493.261-.089.8.261,1.132.189.187-.041.1-.358.118-.367.07-.042.367.067.509-.016.2-4.3,3.186-7.346,7.525-7.3" transform="translate(-0.671 -39.411)" fill="#141413"/>
        <path id="Path_1031667" data-name="Path 1031667" d="M1.259,131.987a3.344,3.344,0,0,0,.178,1.25c-.294-.012-1.359.038-1.438-.294l.177-.878Z" transform="translate(0 -46.019)" fill="#050404"/>
        <path id="Path_1031668" data-name="Path 1031668" d="M5.222,123.966a6.016,6.016,0,0,1,9.37-1.782c.436.388.966,1.389,1.441,1.434.576.055.748-.558,1.165-.8,1.247-.718,1.793.3,2.543.051.715-.5.239-1.544.294-2.394.373-5.768,8.337-7.389,11.044-2.282.244.462.453,1.682.864,1.818,1.216.4,1.463-2.142,2.916-1.938.433.926-1.815,3.331-.595,3.731.687.225,1.471-1.071,1.667-1.589.806-.029,1.338,1.543,1.428,1.607-.635.254-.569.842-.535,1.428-.928-.191-5.486.621-6.876.712-6.656.436-13.324.339-20,.367Z" transform="translate(-1.821 -40.141)" fill="#c1da5e"/>
        <path id="Path_1031669" data-name="Path 1031669" d="M36.438,127.585a9.878,9.878,0,0,1,2.3,1.178,2.21,2.21,0,0,1,.731,1.679H4.121a3.606,3.606,0,0,1,.714-2.143l4.724.365c6.678-.027,13.346.07,20-.366,1.389-.091,5.948-.9,6.876-.713" transform="translate(-1.434 -44.474)" fill="#a4b842"/>
        <path id="Path_1031670" data-name="Path 1031670" d="M22.465,81.148a8.571,8.571,0,0,1,.023-1.135c.644-5.5,1.684-13.144,5.682-17.175,4.658-3.827,10.239-6.356,15.157-9.84l-.063-4.345a14.575,14.575,0,0,1-7.416-12.135c-5.63-.687-5.756-9.433-.19-10.38l.018-1.232H21.84c-.993,0-.061-3.041.179-3.571,2.05-4.52,8.1-3.844,12.2-4.668.716-2.273,1.368-4.572,2.214-6.8.952-2.513,3.4-8.552,5.953-9.58,2.308-.931,5.552.707,7.832.881,3.112.238,7.189-2.4,9.975-.332,1.589,1.182,3.076,4.275,3.9,6.1a79.217,79.217,0,0,1,3.387,9.737c4.275.879,10.279.055,12.325,4.9.223.529,1.01,3.335.058,3.335H65.316l.008,1.242c5.59.775,5.575,9.543.012,10.382a15.219,15.219,0,0,1-7.43,12.121L57.845,53c3.808,2.7,8.035,4.8,11.92,7.363,5.136,3.4,6.545,6.453,7.692,12.394.088.453.094.976.178,1.428.586,3.144,1.092,6.306,1.608,9.463.115.705.474,1.723.535,2.321a3.231,3.231,0,0,1-.178,1.25q-16.6.029-33.209,0c-.034-.465.5-1.1.535-1.428H60.5V77.934H41.927c-.072-.537-.636-.686-.536-1.25,3.011.1,6.032-.163,9.009-.186,3.619-.027,7.244,0,10.862.043a.688.688,0,0,1,.477.594,29.711,29.711,0,0,1,.005,3.834c.016,1.346-.158,3.113-.009,4.384.031.26.022.459.277.616H67.9c.255-.156.246-.356.277-.616.354-3.02.009-7.617-.009-10.811-.007-1.129,0-2.264,0-3.393H33v2.5a10.128,10.128,0,0,0-1.25,0c.476-3.558-1.389-6.539-2.144-9.9-.044-.216-.233-.092-.359-.012a15.783,15.783,0,0,0-2.1,2.717c-2.444,4.132-2.187,9.93-3.427,14.516-.017.01.069.326-.118.367-.331.072-.871-.278-1.132-.189M65.85,16.514c.188-.2-1.043-3.795-1.245-4.377-.716-2.062-3.706-9.724-5.584-10.485-2.08-.843-5.418.8-7.535.942C49,2.757,44.544.709,42.574,1.718,40.66,2.7,37.852,9.964,37.1,12.137a25.408,25.408,0,0,0-1.251,4.109c-.016.29-.033.3.26.261.862-.116,1.832-.281,2.692-.347a162.442,162.442,0,0,1,19.1-.182,68.359,68.359,0,0,1,7.942.537m13.035,6.964a5.113,5.113,0,0,0-4.427-4.411c-11.383-2.525-28.126-2.418-39.74-1.1-2.282.259-7.777.81-9.56,1.867a5.214,5.214,0,0,0-2.336,3.646Zm-15,1.428H37.106V36.78c0,8.2,9.3,13.907,16.922,11.923,4.361-1.135,9.859-6.278,9.859-11.031ZM35.856,27.585c-3.939.344-3.914,7.112,0,7.5Zm29.459,7.5c3.78-.627,3.857-7,0-7.5ZM56.388,49.367a15.277,15.277,0,0,1-11.6,0V53.92c0,.554,2.022,1.847,2.555,2.088a7.381,7.381,0,0,0,9.05-2.266Zm1.159,5.22a8.873,8.873,0,0,1-13.961.156c-.268-.068-2.028,1.008-2.027,1.318a11.138,11.138,0,0,0,18.032-.179ZM37.131,69.7H63.952l3.117-9.149-6.13-3.864C60.1,57.3,59.464,58.3,58.615,59a12.763,12.763,0,0,1-16.334-.081,27.773,27.773,0,0,0-2.2-2.212l-5.814,3.668Zm-4.31.025h2.857L32.73,61.326c-.475.3-2.019.956-2.045,1.512Zm35.53,0,2.146-6.87c-.046-.464-1.789-1.578-2.231-1.525l-2.592,8.394Zm1.071.8V85.79h8.3c.055,0,.253.246.445.178-.651-4.514-1.288-9.117-2.2-13.6a17.565,17.565,0,0,0-1.877-5.8c-.248-.429-2.019-3.18-2.528-2.737Z" transform="translate(-7.458 0)" fill="#070606"/>
        <path id="Path_1031671" data-name="Path 1031671" d="M72.3,38.238V51c0,4.753-5.5,9.9-9.859,11.031-7.623,1.984-16.922-3.728-16.922-11.923V38.238ZM48.91,40.023c-.24.332-.134,1.25.268,1.25h5.714c.518,0,.518-1.25,0-1.25Zm14.194,0c-.638.218-.415,1.25,0,1.25h5.714c.365,0,.365-1.25,0-1.25Zm-9.5,4.017a1.566,1.566,0,1,0-1.566,1.566A1.567,1.567,0,0,0,53.6,44.041m13.913-.008a1.561,1.561,0,1,0-1.561,1.561,1.561,1.561,0,0,0,1.561-1.561m-6.6,3.174c-.171,1.3-.892,2.582-2.413,2.245-1.43-.317-1.222-2.288-1.859-2.447-1.264.1-.8,1.731-.311,2.469A3.149,3.149,0,0,0,62,48.56c.245-.984.05-1.874-1.086-1.353m-7.337,5.7c-.716,5.808,7.946,7.814,10.307,2.719.279-.6.824-2.133.4-2.674a.821.821,0,0,0-.634-.258,65.178,65.178,0,0,0-9.121,0,2.358,2.358,0,0,0-.949.212" transform="translate(-15.87 -13.332)" fill="#e9b29a"/>
        <path id="Path_1031672" data-name="Path 1031672" d="M44.025,100.038l-2.86-9.319,5.814-3.668a27.748,27.748,0,0,1,2.2,2.211,12.762,12.762,0,0,0,16.334.082c.849-.708,1.486-1.7,2.323-2.319l6.13,3.864-3.117,9.149Z" transform="translate(-14.353 -30.343)" fill="#9cc8ff"/>
        <path id="Path_1031673" data-name="Path 1031673" d="M39.213,111.735v-2.5H74.386c.005,1.129-.007,2.264,0,3.393a17.4,17.4,0,0,1-3.3,4.468,7.727,7.727,0,0,1-3.129,1.959,29.711,29.711,0,0,0-.005-3.834.688.688,0,0,0-.477-.594c-3.619-.038-7.244-.07-10.863-.043-2.977.021-6,.281-9.009.186a3.54,3.54,0,0,0-.617-.18c-1.37-.059-1.792.422-2.773,1.251a7.277,7.277,0,0,0-5-4.106" transform="translate(-13.672 -38.086)" fill="#f0c86f"/>
        <path id="Path_1031674" data-name="Path 1031674" d="M95.133,104.666l2.144-6.7c.509-.443,2.281,2.308,2.529,2.737a17.565,17.565,0,0,1,1.877,5.8c.909,4.484,1.546,9.087,2.2,13.6-.192.068-.389-.178-.445-.178h-8.3Z" transform="translate(-33.169 -34.142)" fill="#9cc8ff"/>
        <path id="Path_1031675" data-name="Path 1031675" d="M52.728,119.652H71.3v7.856H57.727c.119-.965-1.052-2.4-1.8-2.934-.573-.414-1.619-.814-2.131-1.172-.091-.063-.623-1.636-1.428-1.607a8.157,8.157,0,0,0,.357-2.142" transform="translate(-18.26 -41.718)" fill="#eff1f4"/>
        <path id="Path_1031676" data-name="Path 1031676" d="M68.911,75.793v4.374a7.382,7.382,0,0,1-9.051,2.266c-.533-.24-2.555-1.534-2.555-2.088V75.793a15.279,15.279,0,0,0,11.606,0" transform="translate(-19.98 -26.426)" fill="#e7b199"/>
        <path id="Path_1031677" data-name="Path 1031677" d="M24.959,115.029c1.24-4.585.982-10.384,3.427-14.516a15.749,15.749,0,0,1,2.1-2.717c.126-.081.315-.2.359.012.755,3.362,2.62,6.343,2.144,9.9-4.339-.04-7.327,3-7.525,7.3-.141.083-.439-.026-.509.016" transform="translate(-8.702 -34.059)" fill="#9cc8ff"/>
        <path id="Path_1031678" data-name="Path 1031678" d="M83.309,120.871a7.731,7.731,0,0,0,3.129-1.959,17.4,17.4,0,0,0,3.3-4.468c.018,3.194.363,7.791.009,10.811-.031.26-.022.459-.277.616H83.576c-.255-.156-.246-.356-.277-.616-.149-1.27.025-3.037.009-4.384" transform="translate(-29.022 -39.902)" fill="#e1b254"/>
        <path id="Path_1031679" data-name="Path 1031679" d="M68.343,83.807,70.387,85.1a11.138,11.138,0,0,1-18.032.179c0-.309,1.759-1.386,2.026-1.318a8.873,8.873,0,0,0,13.961-.156" transform="translate(-18.254 -29.22)" fill="#ebc46e"/>
        <path id="Path_1031680" data-name="Path 1031680" d="M37.8,102.548l-2.135-6.883c.025-.556,1.569-1.215,2.045-1.512l2.947,8.4Z" transform="translate(-12.434 -32.827)" fill="#ecc56e"/>
        <path id="Path_1031681" data-name="Path 1031681" d="M92.055,102.547H89.376l2.593-8.4c.443-.053,2.186,1.06,2.232,1.525Z" transform="translate(-31.162 -32.826)" fill="#ecc56e"/>
        <path id="Path_1031682" data-name="Path 1031682" d="M42.023,42.35v7.5c-3.914-.387-3.939-7.154,0-7.5" transform="translate(-13.625 -14.766)" fill="#d48f73"/>
        <path id="Path_1031683" data-name="Path 1031683" d="M88.828,49.849v-7.5c3.857.5,3.779,6.872,0,7.5" transform="translate(-30.971 -14.766)" fill="#db9477"/>
        <path id="Path_1031684" data-name="Path 1031684" d="M66.434,51.9c1.135-.521,1.331.369,1.086,1.353a3.149,3.149,0,0,1-5.669.914c-.493-.738-.953-2.365.312-2.469.636.159.429,2.131,1.858,2.447,1.521.337,2.241-.946,2.413-2.245" transform="translate(-21.389 -18.025)" fill="#0a0807"/>
        <path id="Path_1031685" data-name="Path 1031685" d="M50.658,40.98h5.981c.518,0,.518,1.25,0,1.25H50.926c-.4,0-.507-.918-.268-1.25" transform="translate(-17.618 -14.288)" fill="#020202"/>
        <path id="Path_1031686" data-name="Path 1031686" d="M72.3,40.98h5.713c.365,0,.365,1.25,0,1.25H72.3c-.416,0-.64-1.032,0-1.25" transform="translate(-25.07 -14.288)" fill="#010101"/>
        <path id="Path_1031687" data-name="Path 1031687" d="M56.251,46.308a1.566,1.566,0,1,1-1.566-1.566,1.567,1.567,0,0,1,1.566,1.566" transform="translate(-18.52 -15.6)" fill="#060505"/>
        <path id="Path_1031688" data-name="Path 1031688" d="M77.617,46.3a1.561,1.561,0,1,1-1.561-1.561A1.561,1.561,0,0,1,77.617,46.3" transform="translate(-25.974 -15.599)" fill="#060505"/>
        <path id="Path_1031689" data-name="Path 1031689" d="M57.87,60.555a2.333,2.333,0,0,1,.948-.212,65.089,65.089,0,0,1,9.122,0,.819.819,0,0,1,.633.258c.428.54-.117,2.073-.4,2.674-2.362,5.094-11.024,3.089-10.307-2.719M67.307,61.6H59.273c.486,4.437,7.371,4.295,8.034,0" transform="translate(-20.162 -20.982)" fill="#050404"/>
        <path id="Path_1031690" data-name="Path 1031690" d="M68.08,62.361c-.663,4.295-7.548,4.437-8.034,0Z" transform="translate(-20.936 -21.743)" fill="#e6e7ea"/>
      </g>
    </g>
  </g>
</svg>
